<?xml version="1.0" encoding="UTF-8"?>
<svg xmlns="http://www.w3.org/2000/svg" xmlns:xlink="http://www.w3.org/1999/xlink" version="1.2" >
<font id="AdelleEb">
<font-face  font-family="Adelle" units-per-em="1000" ascent="1000" descent="-370" font-style="normal" font-weight="800" font-stretch="normal" cap-height="724" x-height="525" underline-position="-75" underline-thickness="50" />
<missing-glyph  horiz-adv-x="500" d="" />
<glyph glyph-name="space" unicode="&#x20;" horiz-adv-x="190" d="" />
<glyph glyph-name="uni00A0" unicode="&#xa0;" horiz-adv-x="190" d="" />
<glyph glyph-name="quotesingle" unicode="&#x27;" horiz-adv-x="222" d="M30 447 L30 706 L192 706 L192 447 L30 447 Z " />
<glyph glyph-name="quotedbl" unicode="&#x22;" horiz-adv-x="435" d="M243 447 L243 706 L405 706 L405 447 L243 447 Z M30 447 L30 706 L192 706 L192 447 L30 447 Z " />
<glyph glyph-name="numbersign" unicode="&#x23;" horiz-adv-x="607" d="M291 0 L307 110 L241 110 L225 0 L102 0 L118 110 L28 110 L53 233 L137 233 L151 325 L60 325 L85 448 L169 448 L184 543 L307 543 L292 448 L358 448 L373 543 L496 543 L481 448 L574 448 L550 325 L463 325 L449 233 L542 233 L518 110 L430 110 L414 0 L291 0 Z M340 325 L274 325 L260 233 L326 233 L340 325 Z " />
<glyph glyph-name="ampersand" unicode="&#x26;" horiz-adv-x="712" d="M493 0 L451 47 Q414 20 366.5 4 Q319 -12 259 -12 Q149 -12 87 40.5 Q25 93 25 194 Q25 261 56 312 Q87 363 152 397 Q132 432 127 457.5 Q122 483 122 506 Q122 548 137.5 581 Q153 614 180.5 636.5 Q208 659 246.5 670.5 Q285 682 331 682 Q360 682 388.5 678 Q417 674 442.5 667 Q468 660 489 651 Q510 642 525 633 L525 462 L394 467 L381 534 Q379 545 369 547 Q357 550 345 550 Q322 550 311 536.5 Q300 523 300 502 Q300 482 311 462.5 Q322 443 339 423 L436 311 Q445 347 448.5 361.5 Q452 376 454 387 L649 387 L649 296 L603 287 Q594 285 591 282.5 Q588 280 586 270 Q581 246 573 222.5 Q565 199 554 176 L611 111 Q614 108 617.5 105 Q621 102 626 101 L687 93 L687 0 L493 0 Z M237 285 Q221 271 210.5 252.5 Q200 234 200 210 Q200 180 217.5 156.5 Q235 133 277 133 Q314 133 349 156 L237 285 Z " />
<glyph glyph-name="asterisk" unicode="&#x2a;" horiz-adv-x="480" d="M305 375 L262 435 L244 538 L271 557 L261 588 L227 588 L217 557 L244 538 L226 435 L183 375 L82 448 L126 507 L217 557 L114 542 L44 565 L82 682 L152 659 L227 588 L182 682 L182 755 L305 755 L305 682 L261 588 L336 659 L406 682 L444 565 L374 542 L271 557 L362 507 L406 448 L305 375 Z " />
<glyph glyph-name="comma" unicode="&#x2c;" horiz-adv-x="260" d="M69 -98 L95 11 Q98 21 89 24 L45 37 L67 161 Q98 161 127 158.5 Q156 156 177.5 147 Q199 138 212 121 Q225 104 225 75 Q225 57 217.5 35 Q210 13 202 -4 L149 -120 L69 -98 Z " />
<glyph glyph-name="hyphen" unicode="&#x2d;" horiz-adv-x="311" d="M20 215 L20 365 L291 365 L291 215 L20 215 Z " />
<glyph glyph-name="period" unicode="&#x2e;" horiz-adv-x="285" d="M240 75 Q240 33 216.5 10.5 Q193 -12 143 -12 Q45 -12 45 75 Q45 117 68.5 139.5 Q92 162 143 162 Q192 162 216 139.5 Q240 117 240 75 Z " />
<glyph glyph-name="colon" unicode="&#x3a;" horiz-adv-x="285" d="M240 75 Q240 33 216.5 10.5 Q193 -12 143 -12 Q45 -12 45 75 Q45 117 68.5 139.5 Q92 162 143 162 Q192 162 216 139.5 Q240 117 240 75 Z M240 449 Q240 407 216.5 384.5 Q193 362 143 362 Q45 362 45 449 Q45 491 68.5 513.5 Q92 536 143 536 Q192 536 216 513.5 Q240 491 240 449 Z " />
<glyph glyph-name="semicolon" unicode="&#x3b;" horiz-adv-x="260" d="M69 -98 L95 11 Q98 21 89 24 L45 37 L67 161 Q98 161 127 158.5 Q156 156 177.5 147 Q199 138 212 121 Q225 104 225 75 Q225 57 217.5 35 Q210 13 202 -4 L149 -120 L69 -98 Z M241 449 Q241 407 217.5 384.5 Q194 362 144 362 Q46 362 46 449 Q46 491 69.5 513.5 Q93 536 144 536 Q193 536 217 513.5 Q241 491 241 449 Z " />
<glyph glyph-name="question" unicode="&#x3f;" horiz-adv-x="548" d="M132 202 L132 387 Q166 390 202.5 394 Q239 398 269.5 410 Q300 422 319.5 445.5 Q339 469 339 510 Q339 548 321.5 560.5 Q304 573 276 573 Q260 573 247 571 Q234 569 220 564 Q211 561 209 558 Q207 555 205 545 L197 477 L45 465 L45 672 Q111 698 168 711 Q225 724 284 724 Q335 724 381 714.5 Q427 705 462 680.5 Q497 656 517.5 615 Q538 574 538 511 Q538 466 525.5 426 Q513 386 486.5 355.5 Q460 325 418.5 305 Q377 285 319 279 L319 202 L132 202 Z M323 75 Q323 33 299.5 10.5 Q276 -12 226 -12 Q128 -12 128 75 Q128 117 151.5 139.5 Q175 162 226 162 Q275 162 299 139.5 Q323 117 323 75 Z " />
<glyph glyph-name="exclam" unicode="&#x21;" horiz-adv-x="287" d="M65 202 L45 541 L45 724 L242 724 L242 541 L222 202 L65 202 Z M241 75 Q241 33 217.5 10.5 Q194 -12 144 -12 Q46 -12 46 75 Q46 117 69.5 139.5 Q93 162 144 162 Q193 162 217 139.5 Q241 117 241 75 Z " />
<glyph glyph-name="exclamdown" unicode="&#xa1;" horiz-adv-x="287" d="M222 311 L242 -28 L242 -211 L45 -211 L45 -28 L65 311 L222 311 Z M241 438 Q241 396 217 373.5 Q193 351 144 351 Q93 351 69.5 373.5 Q46 396 46 438 Q46 525 144 525 Q194 525 217.5 502.5 Q241 480 241 438 Z " />
<glyph glyph-name="questiondown" unicode="&#xbf;" horiz-adv-x="548" d="M435 311 L435 126 Q401 123 364.5 119 Q328 115 297.5 103 Q267 91 247.5 67.5 Q228 44 228 3 Q228 -35 245.5 -47.5 Q263 -60 291 -60 Q307 -60 320 -58 Q333 -56 347 -51 Q356 -48 358 -45 Q360 -42 362 -32 L370 36 L522 48 L522 -159 Q456 -185 399 -198 Q342 -211 283 -211 Q232 -211 186 -201.5 Q140 -192 105 -167.5 Q70 -143 49.5 -102 Q29 -61 29 2 Q29 47 41.5 87 Q54 127 80.5 157.5 Q107 188 148.5 208 Q190 228 248 234 L248 311 L435 311 Z M244 438 Q244 480 267.5 502.5 Q291 525 341 525 Q439 525 439 438 Q439 396 415.5 373.5 Q392 351 341 351 Q292 351 268 373.5 Q244 396 244 438 Z " />
<glyph glyph-name="at" unicode="&#x40;" horiz-adv-x="848" d="M624 -157 Q592 -171 542.5 -181.5 Q493 -192 419 -192 Q337 -192 270.5 -169.5 Q204 -147 157.5 -102 Q111 -57 85.5 9 Q60 75 60 162 Q60 255 88.5 330 Q117 405 168 458 Q219 511 290.5 539.5 Q362 568 448 568 Q526 568 590 547 Q654 526 700.5 485.5 Q747 445 772.5 385.5 Q798 326 798 249 Q798 114 742 51 Q686 -12 592 -12 Q554 -12 524.5 3.5 Q495 19 478 54 Q452 24 424.5 6 Q397 -12 359 -12 Q312 -12 279 24 Q246 60 246 131 Q246 184 261 232 Q276 280 304.5 317 Q333 354 374 375.5 Q415 397 468 397 Q513 397 548 387.5 Q583 378 611 365 L590 230 Q586 205 581.5 174 Q577 143 577 124 Q577 106 584 94.5 Q591 83 613 83 Q637 83 651 101.5 Q665 120 672 145.5 Q679 171 681 199 Q683 227 683 245 Q683 294 670 334 Q657 374 628.5 402.5 Q600 431 555 447 Q510 463 447 463 Q373 463 321.5 437 Q270 411 237.5 368 Q205 325 190 271 Q175 217 175 162 Q175 40 241.5 -27 Q308 -94 433 -94 Q478 -94 518.5 -85.5 Q559 -77 598 -63 L624 -157 Z M495 307 Q489 312 479.5 314 Q470 316 461 316 Q443 316 425 305 Q407 294 392.5 272.5 Q378 251 369.5 220 Q361 189 361 149 Q361 110 373 98 Q385 86 398 86 Q414 86 430 95.5 Q446 105 466 127 L495 307 Z " />
<glyph glyph-name="A" unicode="A" horiz-adv-x="787" d="M429 0 L429 93 L510 102 L485 173 L256 173 L232 102 L310 93 L310 0 L0 0 L0 93 L45 104 Q54 106 60.5 110 Q67 114 70 123 L288 724 L502 724 L716 121 Q719 112 725 109 Q731 106 740 104 L787 93 L787 0 L429 0 Z M379 529 L369 529 L292 302 L451 302 L379 529 Z " />
<glyph glyph-name="B" unicode="B" horiz-adv-x="668" d="M25 0 L25 93 L88 100 Q99 102 101.5 105.5 Q104 109 104 120 L104 602 Q104 613 101.5 617 Q99 621 88 622 L25 629 L25 724 L384 724 Q448 724 490.5 710.5 Q533 697 558.5 673 Q584 649 594.5 616.5 Q605 584 605 547 Q605 511 594.5 483.5 Q584 456 567 435 Q550 414 528 400 Q506 386 483 379 L483 376 Q569 366 608.5 321 Q648 276 648 201 Q648 145 627 107 Q606 69 569 45 Q532 21 481.5 10.5 Q431 0 372 0 L25 0 Z M337 129 Q391 129 420.5 148.5 Q450 168 450 223 Q450 251 442 268 Q434 285 420 294.5 Q406 304 387.5 307.5 Q369 311 349 311 L295 311 L295 129 L337 129 Z M307 429 Q332 429 353.5 432 Q375 435 391 444.5 Q407 454 416 470.5 Q425 487 425 514 Q425 542 416 558 Q407 574 392.5 582 Q378 590 359.5 591.5 Q341 593 322 593 L295 593 L295 429 L307 429 Z " />
<glyph glyph-name="C" unicode="C" horiz-adv-x="678" d="M633 45 Q610 31 580 20.5 Q550 10 516 3 Q482 -4 446.5 -8 Q411 -12 377 -12 Q283 -12 215.5 13.5 Q148 39 104.5 87.5 Q61 136 40.5 205.5 Q20 275 20 364 Q20 444 44 512.5 Q68 581 115.5 631 Q163 681 234.5 709 Q306 737 401 737 Q431 737 462.5 733 Q494 729 524.5 721.5 Q555 714 582.5 703.5 Q610 693 632 679 L632 461 L496 472 L480 572 Q477 586 464 589 Q448 592 431.5 594 Q415 596 397 596 Q315 596 267 539.5 Q219 483 219 364 Q219 241 265 183.5 Q311 126 390 126 Q409 126 430.5 128.5 Q452 131 466 134 Q477 136 480.5 139.5 Q484 143 486 156 L501 251 L633 251 L633 45 Z " />
<glyph glyph-name="D" unicode="D" horiz-adv-x="743" d="M25 0 L25 95 L88 102 Q99 103 101.5 107 Q104 111 104 122 L104 603 Q104 614 101.5 617.5 Q99 621 88 623 L25 630 L25 724 L364 724 Q458 724 526 699.5 Q594 675 637.5 629.5 Q681 584 702 519 Q723 454 723 373 Q723 290 700.5 221 Q678 152 632 103 Q586 54 515 27 Q444 0 347 0 L25 0 Z M322 129 Q385 129 425 147 Q465 165 488 197 Q511 229 519.5 272.5 Q528 316 528 367 Q528 427 517.5 470 Q507 513 483.5 540.5 Q460 568 421.5 581 Q383 594 328 594 L296 594 L296 129 L322 129 Z " />
<glyph glyph-name="E" unicode="E" horiz-adv-x="627" d="M25 0 L25 93 L88 100 Q99 102 101.5 105.5 Q104 109 104 120 L104 603 Q104 614 101.5 618 Q99 622 88 623 L25 630 L25 724 L575 724 L575 500 L439 505 L425 581 Q422 594 408 594 L296 594 L296 430 L511 430 L511 295 L296 295 L296 129 L430 129 Q438 129 441 130.5 Q444 132 446 140 L462 228 L597 228 L597 0 L25 0 Z " />
<glyph glyph-name="F" unicode="F" horiz-adv-x="606" d="M25 0 L25 93 L88 100 Q99 102 101.5 105.5 Q104 109 104 120 L104 603 Q104 614 101.5 618 Q99 622 88 623 L25 630 L25 724 L571 724 L571 500 L435 505 L421 581 Q418 594 404 594 L296 594 L296 430 L507 430 L507 295 L296 295 L296 122 Q296 110 298.5 107 Q301 104 312 102 L459 94 L459 0 L25 0 Z " />
<glyph glyph-name="G" unicode="G" horiz-adv-x="726" d="M671 258 Q655 257 655 244 L655 40 Q591 10 519 -1 Q447 -12 384 -12 Q281 -12 211 16.5 Q141 45 98.5 95 Q56 145 37.5 213.5 Q19 282 19 362 Q19 443 42.5 511.5 Q66 580 114 630 Q162 680 234 708.5 Q306 737 403 737 Q427 737 456.5 734 Q486 731 516.5 723.5 Q547 716 577 704.5 Q607 693 632 677 L632 469 L495 480 L480 568 Q478 580 474 583.5 Q470 587 464 589 Q449 592 429.5 594 Q410 596 394 596 Q352 596 319.5 579.5 Q287 563 264.5 533 Q242 503 230.5 460.5 Q219 418 219 366 Q219 311 229 267 Q239 223 260 192 Q281 161 314 144 Q347 127 393 127 Q421 127 447 130 Q457 132 460.5 135 Q464 138 464 148 L464 252 L368 252 L384 357 L711 357 L711 262 L671 258 Z " />
<glyph glyph-name="H" unicode="H" horiz-adv-x="824" d="M449 0 L449 93 L512 100 Q523 102 525.5 105.5 Q528 109 528 120 L528 303 L296 303 L296 121 Q296 109 298.5 106 Q301 103 312 101 L379 93 L379 0 L25 0 L25 93 L88 100 Q99 102 101.5 105.5 Q104 109 104 120 L104 602 Q104 613 101.5 617 Q99 621 88 622 L25 629 L25 724 L379 724 L379 629 L312 621 Q301 619 298.5 616 Q296 613 296 602 L296 439 L528 439 L528 602 Q528 613 525.5 617 Q523 621 512 622 L449 629 L449 724 L803 724 L803 629 L736 621 Q725 619 722.5 616 Q720 613 720 602 L720 121 Q720 109 722.5 106 Q725 103 736 101 L803 93 L803 0 L449 0 Z " />
<glyph glyph-name="I" unicode="I" horiz-adv-x="412" d="M21 0 L21 93 L94 100 Q105 101 107.5 105 Q110 109 110 120 L110 602 Q110 613 107.5 617 Q105 621 94 622 L21 629 L21 724 L395 724 L395 629 L318 621 Q307 619 304.5 616 Q302 613 302 602 L302 121 Q302 109 304.5 106 Q307 103 318 101 L395 93 L395 0 L21 0 Z " />
<glyph glyph-name="J" unicode="J" horiz-adv-x="529" d="M242 603 Q242 613 239 616.5 Q236 620 226 621 L133 629 L133 724 L517 724 L517 629 L450 621 Q439 619 436.5 616 Q434 613 434 602 L434 172 Q434 78 386.5 33 Q339 -12 232 -12 Q201 -12 169 -8.5 Q137 -5 109 1 Q81 7 59 14 Q37 21 25 29 L25 231 L162 221 L173 148 Q174 137 183 136 Q186 135 194.5 134 Q203 133 211 133 Q228 133 235 140.5 Q242 148 242 170 L242 603 Z " />
<glyph glyph-name="K" unicode="K" horiz-adv-x="763" d="M500 0 L350 263 L296 197 L296 122 Q296 110 298.5 107 Q301 104 312 102 L384 94 L384 0 L25 0 L25 94 L88 101 Q99 102 101.5 106 Q104 110 104 121 L104 603 Q104 614 101.5 617.5 Q99 621 88 623 L25 630 L25 724 L379 724 L379 630 L312 622 Q301 620 298.5 617 Q296 614 296 603 L296 375 L507 621 L445 629 L445 724 L729 724 L729 629 L692 623 Q678 621 673 617.5 Q668 614 661 606 L497 413 L669 124 Q675 113 682 109.5 Q689 106 700 104 L763 94 L763 0 L500 0 Z " />
<glyph glyph-name="L" unicode="L" horiz-adv-x="627" d="M25 0 L25 94 L88 101 Q99 103 101.5 106.5 Q104 110 104 121 L104 603 Q104 614 101.5 618 Q99 622 88 623 L25 630 L25 724 L395 724 L395 630 L312 622 Q301 621 298.5 617.5 Q296 614 296 603 L296 129 L429 129 Q437 129 440 130.5 Q443 132 445 140 L461 246 L597 246 L597 0 L25 0 Z " />
<glyph glyph-name="M" unicode="M" horiz-adv-x="974" d="M589 0 L589 93 L671 100 Q682 101 684.5 105 Q687 109 687 120 L687 428 L681 428 L568 128 L369 128 L257 430 L251 430 L251 121 Q251 109 253.5 105.5 Q256 102 267 101 L352 93 L352 0 L25 0 L25 93 L88 100 Q99 101 101.5 105 Q104 109 104 120 L104 603 Q104 614 101.5 617.5 Q99 621 88 623 L25 630 L25 724 L330 724 L488 281 L495 281 L656 724 L953 724 L953 631 L886 623 Q875 621 872.5 618 Q870 615 870 604 L870 120 Q870 110 873 106 Q876 102 886 101 L953 93 L953 0 L589 0 Z " />
<glyph glyph-name="N" unicode="N" horiz-adv-x="827" d="M532 0 L241 473 L241 121 Q241 109 243.5 106 Q246 103 257 101 L324 93 L324 0 L25 0 L25 93 L88 100 Q99 102 101.5 105.5 Q104 109 104 120 L104 604 Q104 615 101.5 619 Q99 623 88 624 L25 631 L25 724 L303 724 L593 248 L593 602 Q593 613 590.5 617 Q588 621 577 622 L514 629 L514 724 L812 724 L812 629 L745 621 Q734 619 731.5 616 Q729 613 729 602 L729 0 L532 0 Z " />
<glyph glyph-name="O" unicode="O" horiz-adv-x="750" d="M370 -12 Q277 -12 211 15.5 Q145 43 102.5 92 Q60 141 40.5 208.5 Q21 276 21 357 Q21 438 43.5 507.5 Q66 577 111.5 628 Q157 679 225 708 Q293 737 384 737 Q475 737 540.5 708 Q606 679 648 629.5 Q690 580 710 513 Q730 446 730 371 Q730 283 708 212.5 Q686 142 641.5 92 Q597 42 529 15 Q461 -12 370 -12 Z M378 138 Q412 138 440.5 149 Q469 160 489.5 186 Q510 212 521.5 255 Q533 298 533 362 Q533 483 493 535 Q453 587 383 587 Q347 587 317 574.5 Q287 562 265 534.5 Q243 507 231 464 Q219 421 219 361 Q219 298 230.5 255.5 Q242 213 262.5 187 Q283 161 312.5 149.5 Q342 138 378 138 Z " />
<glyph glyph-name="P" unicode="P" horiz-adv-x="643" d="M25 0 L25 94 L88 101 Q99 103 101.5 106.5 Q104 110 104 121 L104 602 Q104 613 101.5 617 Q99 621 88 622 L25 629 L25 724 L382 724 Q451 724 497.5 707 Q544 690 572 660.5 Q600 631 611.5 592.5 Q623 554 623 511 Q623 445 604 398 Q585 351 549.5 321 Q514 291 463 277 Q412 263 349 263 L295 263 L295 122 Q295 110 297.5 107 Q300 104 311 102 L454 94 L454 0 L25 0 Z M316 391 Q333 391 352.5 394 Q372 397 388.5 408 Q405 419 415.5 440.5 Q426 462 426 499 Q426 533 416 552 Q406 571 391 580 Q376 589 357.5 591 Q339 593 323 593 L295 593 L295 391 L316 391 Z " />
<glyph glyph-name="Q" unicode="Q" horiz-adv-x="749" d="M621 -176 Q583 -196 540 -209 Q497 -222 454 -222 Q405 -222 372 -209.5 Q339 -197 319.5 -175 Q300 -153 291.5 -124.5 Q283 -96 283 -63 Q283 -50 284 -35.5 Q285 -21 287 -6 Q215 4 163.5 35.5 Q112 67 79 114 Q46 161 30.5 223 Q15 285 15 357 Q15 438 37.5 507.5 Q60 577 105.5 628 Q151 679 219 708 Q287 737 378 737 Q469 737 534.5 708 Q600 679 642 629.5 Q684 580 704 513 Q724 446 724 371 Q724 219 658 120.5 Q592 22 457 -3 Q455 -11 455 -18 Q455 -25 455 -31 Q455 -61 467 -75 Q479 -89 512 -89 Q542 -89 587 -73 L621 -176 Z M372 138 Q406 138 434.5 149 Q463 160 483.5 186 Q504 212 515.5 255 Q527 298 527 362 Q527 483 487 535 Q447 587 377 587 Q341 587 311 574.5 Q281 562 259 534.5 Q237 507 225 464 Q213 421 213 361 Q213 298 224.5 255.5 Q236 213 256.5 187 Q277 161 306.5 149.5 Q336 138 372 138 Z " />
<glyph glyph-name="R" unicode="R" horiz-adv-x="695" d="M444 0 L361 242 Q352 269 340.5 279 Q329 289 305 289 L295 289 L295 123 Q295 111 297.5 108 Q300 105 311 103 L368 95 L368 0 L25 0 L25 95 L88 102 Q99 103 101.5 107 Q104 111 104 122 L104 603 Q104 614 101.5 617.5 Q99 621 88 623 L25 630 L25 724 L387 724 Q454 724 499.5 708 Q545 692 572.5 665 Q600 638 611.5 602.5 Q623 567 623 528 Q623 488 614 457.5 Q605 427 588 403.5 Q571 380 547.5 362.5 Q524 345 496 331 Q516 321 530 300 Q544 279 555 250 L600 130 Q605 118 611 112.5 Q617 107 632 105 L694 95 L694 0 L444 0 Z M314 412 Q335 412 355.5 415 Q376 418 391.5 428 Q407 438 416.5 457 Q426 476 426 509 Q426 556 403 574.5 Q380 593 329 593 L295 593 L295 412 L314 412 Z " />
<glyph glyph-name="S" unicode="S" horiz-adv-x="598" d="M406 496 L396 575 Q394 586 391.5 589 Q389 592 382 594 Q367 597 353.5 598.5 Q340 600 324 600 Q280 600 258 581.5 Q236 563 236 534 Q236 502 260.5 485.5 Q285 469 322 457.5 Q359 446 402.5 433.5 Q446 421 483 397.5 Q520 374 544.5 333.5 Q569 293 569 226 Q569 163 546 117.5 Q523 72 483.5 43.5 Q444 15 391.5 1.5 Q339 -12 279 -12 Q245 -12 209.5 -8 Q174 -4 141 2 Q108 8 81 15.5 Q54 23 38 31 L38 244 L177 244 L198 145 Q200 137 203 134 Q206 131 215 129 Q223 127 241.5 125 Q260 123 280 123 Q332 123 358 142 Q384 161 384 196 Q384 229 359.5 246 Q335 263 298 274.5 Q261 286 217.5 297.5 Q174 309 137 332 Q100 355 75.5 394 Q51 433 51 500 Q51 560 72 604.5 Q93 649 130.5 678.5 Q168 708 218.5 722.5 Q269 737 329 737 Q395 737 451 724 Q507 711 546 694 L546 484 L406 496 Z " />
<glyph glyph-name="T" unicode="T" horiz-adv-x="720" d="M146 0 L146 94 L249 101 Q260 102 262.5 106 Q265 110 265 121 L265 593 L193 593 Q185 593 182 591.5 Q179 590 177 582 L161 495 L25 495 L25 724 L695 724 L695 495 L561 495 L545 582 Q543 590 540 591.5 Q537 593 529 593 L457 593 L457 121 Q457 110 459.5 106.5 Q462 103 473 102 L583 94 L583 0 L146 0 Z " />
<glyph glyph-name="U" unicode="U" horiz-adv-x="784" d="M527 603 Q527 614 524.5 618 Q522 622 511 623 L448 630 L448 724 L772 724 L772 630 L705 622 Q694 620 691.5 617 Q689 614 689 603 L689 270 Q689 195 668 141.5 Q647 88 608.5 54 Q570 20 515.5 4 Q461 -12 394 -12 Q238 -12 166.5 57 Q95 126 95 275 L95 603 Q95 614 92.5 618 Q90 622 79 623 L16 630 L16 724 L370 724 L370 630 L303 622 Q292 620 289.5 616.5 Q287 613 287 602 L287 301 Q287 262 289.5 231 Q292 200 303.5 177.5 Q315 155 337.5 143 Q360 131 400 131 Q437 131 462 140 Q487 149 501 169 Q515 189 521 220.5 Q527 252 527 296 L527 603 Z " />
<glyph glyph-name="V" unicode="V" horiz-adv-x="761" d="M265 0 L74 603 Q71 612 65 615 Q59 618 50 620 L5 631 L15 724 L358 724 L358 631 L278 622 L404 184 L415 184 L540 622 L461 631 L471 724 L756 724 L756 631 L714 620 Q705 618 698 614 Q691 610 689 601 L518 0 L265 0 Z " />
<glyph glyph-name="W" unicode="W" horiz-adv-x="1073" d="M617 0 L538 312 L530 312 L462 0 L216 0 L74 603 Q71 612 65 615 Q59 618 50 620 L5 631 L15 724 L353 724 L353 631 L273 622 L355 176 L366 176 L468 597 L651 597 L752 176 L763 176 L845 622 L765 631 L775 724 L1068 724 L1068 631 L1023 620 Q1014 618 1008 615 Q1002 612 999 603 L869 0 L617 0 Z " />
<glyph glyph-name="X" unicode="X" horiz-adv-x="817" d="M426 0 L426 93 L506 102 L387 252 L269 102 L348 93 L348 0 L31 0 L31 93 L93 104 Q102 106 108 110.5 Q114 115 120 123 L306 348 L100 603 Q92 616 76 620 L21 631 L31 724 L394 724 L394 631 L314 622 L433 469 L559 622 L480 631 L490 724 L782 724 L782 631 L730 620 Q721 618 716 613 Q711 608 705 601 L515 375 L720 123 Q726 116 732 111 Q738 106 747 104 L802 93 L802 0 L426 0 Z " />
<glyph glyph-name="Y" unicode="Y" horiz-adv-x="711" d="M152 0 L152 94 L255 101 Q266 102 268.5 106 Q271 110 271 121 L271 264 L74 603 Q66 616 50 620 L5 631 L15 724 L358 724 L358 631 L278 622 L378 425 L389 425 L490 622 L411 631 L421 724 L706 724 L706 631 L664 620 Q655 618 648.5 614 Q642 610 639 601 L463 265 L463 121 Q463 110 465.5 106.5 Q468 103 479 102 L589 94 L589 0 L152 0 Z " />
<glyph glyph-name="Z" unicode="Z" horiz-adv-x="689" d="M51 0 L51 119 L400 594 L226 594 Q218 594 215 592.5 Q212 591 210 583 L191 490 L58 486 L58 724 L627 724 L627 601 L285 129 L483 129 Q491 129 494 130.5 Q497 132 499 140 L518 247 L650 247 L650 0 L51 0 Z " />
<glyph glyph-name="AE" unicode="&#xc6;" horiz-adv-x="989" d="M397 0 L397 93 Q413 95 428.5 96.5 Q444 98 460 100 Q471 101 473.5 105 Q476 109 476 120 L476 291 L299 291 L218 102 L298 93 L298 0 L0 0 L0 93 L42 104 Q50 106 56.5 110 Q63 114 68 125 L290 619 L216 630 L216 724 L937 724 L937 500 L801 505 L787 581 Q784 594 770 594 L658 594 L658 426 L873 426 L873 291 L658 291 L658 129 L792 129 Q800 129 803 130.5 Q806 132 808 140 L824 228 L959 228 L959 0 L397 0 Z M476 594 L422 594 L350 426 L476 426 L476 594 Z " />
<glyph glyph-name="IJ" unicode="&#x132;" horiz-adv-x="936" d="M21 0 L21 93 L94 100 Q105 101 107.5 105 Q110 109 110 120 L110 602 Q110 613 107.5 617 Q105 621 94 622 L21 629 L21 724 L395 724 L395 629 L318 621 Q307 619 304.5 616 Q302 613 302 602 L302 121 Q302 109 304.5 106 Q307 103 318 101 L395 93 L395 0 L21 0 Z M649 603 Q649 613 646 616.5 Q643 620 633 621 L540 629 L540 724 L924 724 L924 629 L857 621 Q846 619 843.5 616 Q841 613 841 602 L841 172 Q841 78 793.5 33 Q746 -12 639 -12 Q608 -12 576 -8.5 Q544 -5 516 1 Q488 7 466 14 Q444 21 432 29 L432 231 L569 221 L580 148 Q581 137 590 136 Q593 135 601.5 134 Q610 133 618 133 Q635 133 642 140.5 Q649 148 649 170 L649 603 Z " />
<glyph glyph-name="Eng" unicode="&#x14a;" horiz-adv-x="833" d="M728 -45 Q728 -93 712 -127 Q696 -161 668 -182.5 Q640 -204 602 -213.5 Q564 -223 519 -223 Q480 -223 445.5 -215.5 Q411 -208 384 -198.5 Q357 -189 339 -178.5 Q321 -168 314 -162 L361 -64 Q368 -68 380 -73 Q392 -78 406 -82.5 Q420 -87 434.5 -90 Q449 -93 463 -93 Q477 -93 491 -90.5 Q505 -88 516.5 -80 Q528 -72 535 -57 Q542 -42 542 -16 L542 0 L241 473 L241 121 Q241 109 243.5 106 Q246 103 257 101 L324 93 L324 0 L25 0 L25 93 L88 100 Q99 102 101.5 105.5 Q104 109 104 120 L104 604 Q104 615 101.5 619 Q99 623 88 624 L25 631 L25 724 L303 724 L593 252 L593 602 Q593 613 590.5 617 Q588 621 577 622 L514 629 L514 724 L812 724 L812 629 L745 621 Q734 619 731.5 616 Q729 613 729 602 L728 -45 Z " />
<glyph glyph-name="Eth" unicode="&#xd0;" horiz-adv-x="754" d="M36 0 L36 95 L99 102 Q110 103 112.5 107 Q115 111 115 122 L115 291 L49 291 L49 421 L115 421 L115 603 Q115 614 112.5 617.5 Q110 621 99 623 L36 630 L36 724 L375 724 Q469 724 537 699.5 Q605 675 648.5 629.5 Q692 584 713 519 Q734 454 734 373 Q734 290 711.5 221 Q689 152 643 103 Q597 54 526 27 Q455 0 358 0 L36 0 Z M333 129 Q396 129 436 147 Q476 165 499 197 Q522 229 530.5 272.5 Q539 316 539 367 Q539 427 528.5 470 Q518 513 494.5 540.5 Q471 568 432.5 581 Q394 594 339 594 L307 594 L307 421 L420 421 L420 291 L307 291 L307 129 L333 129 Z " />
<glyph glyph-name="OE" unicode="&#x152;" horiz-adv-x="1002" d="M449 0 Q425 -6 396 -9 Q367 -12 338 -12 Q249 -12 188 15.5 Q127 43 89.5 92 Q52 141 36 208.5 Q20 276 20 357 Q20 438 40 507.5 Q60 577 101.5 628 Q143 679 207 708 Q271 737 358 737 Q387 737 413 733.5 Q439 730 462 724 L950 724 L950 500 L814 505 L800 581 Q797 594 783 594 L624 594 Q668 522 676 430 L886 430 L886 295 L675 295 Q664 197 620 129 L805 129 Q813 129 816 130.5 Q819 132 821 140 L837 228 L972 228 L972 0 L449 0 Z M350 138 Q424 138 453 193.5 Q482 249 482 362 Q482 414 476 455.5 Q470 497 456 526.5 Q442 556 417.5 572 Q393 588 357 588 Q319 588 292.5 572 Q266 556 249.5 526.5 Q233 497 225.5 455 Q218 413 218 361 Q218 251 246.5 194.5 Q275 138 350 138 Z " />
<glyph glyph-name="Thorn" unicode="&#xde;" horiz-adv-x="643" d="M25 0 L25 94 L88 101 Q99 103 101.5 106.5 Q104 110 104 121 L104 602 Q104 613 101.5 617 Q99 621 88 622 L25 629 L25 724 L377 724 L377 629 L311 622 Q295 621 295 603 L295 584 L382 584 Q451 584 497.5 569 Q544 554 572 527.5 Q600 501 611.5 465 Q623 429 623 388 Q623 329 604 286.5 Q585 244 549.5 216.5 Q514 189 463 176 Q412 163 349 163 L295 163 L295 122 Q295 110 297.5 107 Q300 104 311 102 L454 94 L454 0 L25 0 Z M316 291 Q333 291 352.5 293.5 Q372 296 388.5 305 Q405 314 415.5 330.5 Q426 347 426 376 Q426 405 416 420.5 Q406 436 391 443.5 Q376 451 357.5 452 Q339 453 323 453 L295 453 L295 291 L316 291 Z " />
<glyph glyph-name="a" unicode="a" horiz-adv-x="567" d="M352 0 L341 56 L334 58 Q322 46 307 33.5 Q292 21 273 11 Q254 1 229.5 -5.5 Q205 -12 175 -12 Q127 -12 98 2.5 Q69 17 52.5 39.5 Q36 62 30.5 89.5 Q25 117 25 143 Q25 218 72 253 Q119 288 215 293 L318 299 L318 357 Q318 369 317.5 380 Q317 391 312.5 399.5 Q308 408 298.5 413 Q289 418 271 418 Q242 418 230 407 Q218 396 218 358 L44 371 Q44 424 65.5 456.5 Q87 489 121 506.5 Q155 524 195 530 Q235 536 273 536 Q332 536 375 527 Q418 518 445.5 497 Q473 476 486.5 440.5 Q500 405 500 352 L500 122 Q500 110 502.5 107 Q505 104 516 102 L562 94 L562 0 L352 0 Z M318 213 L277 211 Q245 209 230.5 197.5 Q216 186 216 160 Q216 137 230 127 Q244 117 263 117 Q277 117 292 120 Q307 123 318 130 L318 213 Z " />
<glyph glyph-name="b" unicode="b" horiz-adv-x="616" d="M49 0 Q55 38 60 74.5 Q65 111 65 148 L65 618 Q65 634 52 639 L0 658 L13 755 L249 755 L249 484 L256 482 Q285 508 318.5 522 Q352 536 395 536 Q434 536 469.5 522 Q505 508 532 477 Q559 446 574.5 396 Q590 346 590 274 Q590 197 574 142.5 Q558 88 529.5 53.5 Q501 19 461.5 3.5 Q422 -12 374 -12 Q351 -12 330 -6 Q309 0 292 9 Q275 18 261.5 29.5 Q248 41 239 53 L232 51 L225 0 L49 0 Z M251 145 Q265 137 281 134 Q297 131 311 131 Q353 131 373 167 Q393 203 393 267 Q393 285 390.5 306.5 Q388 328 379.5 347 Q371 366 356.5 379 Q342 392 318 392 Q301 392 282.5 385 Q264 378 251 370 L251 145 Z " />
<glyph glyph-name="c" unicode="c" horiz-adv-x="524" d="M493 42 Q455 19 402.5 3.5 Q350 -12 292 -12 Q222 -12 170.5 8.5 Q119 29 85.5 64.5 Q52 100 36 148.5 Q20 197 20 254 Q20 323 40.5 376 Q61 429 98.5 464.5 Q136 500 187 518 Q238 536 300 536 Q361 536 414 521 Q467 506 494 487 L494 316 L363 321 L351 387 Q349 400 339 404 Q322 410 299 410 Q283 410 268 403 Q253 396 241.5 380 Q230 364 223 338 Q216 312 216 274 Q216 227 225.5 198 Q235 169 250 152.5 Q265 136 285 130 Q305 124 326 124 Q364 124 395.5 132 Q427 140 449 148 L493 42 Z " />
<glyph glyph-name="d" unicode="d" horiz-adv-x="621" d="M399 0 L388 56 L380 58 Q351 26 313.5 7 Q276 -12 223 -12 Q178 -12 141.5 3 Q105 18 79.5 50.5 Q54 83 40 134.5 Q26 186 26 259 Q26 335 44.5 388 Q63 441 93 474 Q123 507 161.5 521.5 Q200 536 239 536 Q282 536 313.5 522.5 Q345 509 373 488 L373 618 Q373 634 360 639 L308 658 L321 755 L551 755 L551 120 Q551 109 553.5 106 Q556 103 567 101 L613 94 L613 0 L399 0 Z M365 379 Q348 387 334 390.5 Q320 394 309 394 Q286 394 269.5 383.5 Q253 373 242.5 355 Q232 337 227.5 313 Q223 289 223 262 Q223 235 227.5 211 Q232 187 242 169.5 Q252 152 267.5 141.5 Q283 131 305 131 Q319 131 335 134 Q351 137 365 145 L365 379 Z " />
<glyph glyph-name="e" unicode="e" horiz-adv-x="537" d="M509 43 Q456 19 401.5 3.5 Q347 -12 289 -12 Q214 -12 162.5 9 Q111 30 79.5 67.5 Q48 105 34 156 Q20 207 20 266 Q20 335 40.5 385.5 Q61 436 96 469.5 Q131 503 178.5 519.5 Q226 536 280 536 Q331 536 373 522.5 Q415 509 445 479 Q475 449 491.5 401.5 Q508 354 508 287 Q508 279 507.5 264.5 Q507 250 505 233 L219 233 Q222 176 244.5 151.5 Q267 127 314 127 Q336 127 372.5 133.5 Q409 140 467 159 L509 43 Z M325 323 Q325 350 321 366.5 Q317 383 310.5 392 Q304 401 294.5 404 Q285 407 274 407 Q263 407 254 403.5 Q245 400 237.5 391 Q230 382 225 365.5 Q220 349 219 323 L325 323 Z " />
<glyph glyph-name="f" unicode="f" horiz-adv-x="456" d="M19 0 L19 95 L71 101 Q82 103 84.5 107 Q87 111 87 122 L87 396 Q87 401 86 403.5 Q85 406 79 406 L15 406 L15 525 L87 525 L87 567 Q87 676 148 721.5 Q209 767 319 767 Q356 767 391.5 761 Q427 755 454.5 738 Q482 721 499 690 Q516 659 516 609 L343 589 Q344 626 337 639 Q330 652 310 652 Q284 652 279 635.5 Q274 619 274 595 L274 535 Q274 530 275 527.5 Q276 525 282 525 L436 525 L436 406 L274 406 L274 126 Q274 114 277.5 110.5 Q281 107 292 106 L417 94 L417 0 L19 0 Z " />
<glyph glyph-name="g" unicode="g" horiz-adv-x="584" d="M474 423 Q487 406 499.5 381 Q512 356 512 322 Q512 282 496 250.5 Q480 219 451.5 197.5 Q423 176 383 165 Q343 154 296 154 Q269 154 252.5 156.5 Q236 159 224 161 L194 123 L290 119 Q354 116 404 111 Q454 106 489 90.5 Q524 75 542.5 45 Q561 15 561 -38 Q561 -85 540.5 -120.5 Q520 -156 482.5 -179 Q445 -202 392 -213.5 Q339 -225 274 -225 Q204 -225 155.5 -217 Q107 -209 77 -194 Q47 -179 33.5 -157 Q20 -135 20 -106 Q20 -88 25 -74 Q30 -60 38 -47.5 Q46 -35 56.5 -23.5 Q67 -12 79 -1 Q53 10 40.5 29.5 Q28 49 28 70 Q28 98 52 122 Q67 137 87 153 Q107 169 128 186 Q88 204 60.5 242 Q33 280 33 339 Q33 379 47.5 415 Q62 451 91.5 478 Q121 505 166 520.5 Q211 536 273 536 Q303 536 331 533 Q359 530 375 525 L569 525 L569 429 L474 423 Z M356 342 Q356 380 335.5 398.5 Q315 417 283 417 Q251 417 229 399 Q207 381 207 343 Q207 308 224.5 289.5 Q242 271 280 271 Q312 271 334 290.5 Q356 310 356 342 Z M178 -32 Q170 -42 164 -52.5 Q158 -63 158 -75 Q158 -90 169.5 -98.5 Q181 -107 199 -111.5 Q217 -116 238.5 -117 Q260 -118 280 -118 Q292 -118 309.5 -117 Q327 -116 343 -112 Q359 -108 370.5 -99 Q382 -90 382 -75 Q382 -53 362.5 -47 Q343 -41 314 -39 L178 -32 Z " />
<glyph glyph-name="h" unicode="h" horiz-adv-x="621" d="M261 121 Q261 109 263.5 106 Q266 103 277 101 L320 94 L320 0 L16 0 L16 95 L58 101 Q69 103 71.5 106.5 Q74 110 74 121 L74 618 Q74 635 61 639 L9 658 L22 755 L259 755 L259 480 L266 478 Q278 489 292 499.5 Q306 510 323 518 Q340 526 361 531 Q382 536 408 536 Q485 536 519.5 494 Q554 452 554 364 L554 121 Q554 109 556.5 106 Q559 103 570 101 L616 94 L616 0 L367 0 L367 328 Q367 362 359.5 377 Q352 392 329 392 Q307 392 289.5 385 Q272 378 261 370 L261 121 Z " />
<glyph glyph-name="i" unicode="i" horiz-adv-x="328" d="M262 692 Q262 641 234 613.5 Q206 586 155 586 Q104 586 76.5 613.5 Q49 641 49 692 Q49 743 76.5 769.5 Q104 796 155 796 Q206 796 234 769.5 Q262 743 262 692 Z M16 0 L16 95 L58 101 Q69 103 71.5 106.5 Q74 110 74 121 L74 388 Q74 405 61 409 L9 428 L22 525 L261 525 L261 121 Q261 109 263.5 106 Q266 103 277 101 L320 94 L320 0 L16 0 Z " />
<glyph glyph-name="j" unicode="j" horiz-adv-x="323" d="M72 388 Q72 404 59 409 L7 428 L20 525 L259 525 L259 -45 Q259 -142 208 -182.5 Q157 -223 67 -223 Q32 -223 2 -216.5 Q-28 -210 -52 -201 Q-76 -192 -92.5 -182.5 Q-109 -173 -116 -167 L-69 -69 Q-57 -75 -33.5 -84 Q-10 -93 17 -93 Q29 -93 39.5 -90.5 Q50 -88 57 -80 Q64 -72 68 -57 Q72 -42 72 -16 L72 388 Z M260 692 Q260 641 232 613.5 Q204 586 153 586 Q102 586 74.5 613.5 Q47 641 47 692 Q47 743 74.5 769.5 Q102 796 153 796 Q204 796 232 769.5 Q260 743 260 692 Z " />
<glyph glyph-name="k" unicode="k" horiz-adv-x="637" d="M410 0 L297 246 L261 208 L261 121 Q261 109 263.5 106 Q266 103 277 101 L320 94 L320 0 L16 0 L16 95 L58 101 Q69 103 71.5 106.5 Q74 110 74 121 L74 618 Q74 634 61 639 L9 658 L22 755 L261 755 L261 361 L427 525 L581 525 L581 431 L532 423 Q522 421 518 418.5 Q514 416 507 408 L448 349 L562 117 Q567 106 574 103 Q581 100 592 98 L632 92 L632 0 L410 0 Z " />
<glyph glyph-name="l" unicode="l" horiz-adv-x="328" d="M16 0 L16 95 L58 101 Q69 103 71.5 106.5 Q74 110 74 121 L74 618 Q74 634 61 639 L9 658 L22 755 L261 755 L261 121 Q261 109 263.5 106 Q266 103 277 101 L320 94 L320 0 L16 0 Z " />
<glyph glyph-name="m" unicode="m" horiz-adv-x="875" d="M261 121 Q261 109 263.5 106 Q266 103 277 101 L310 94 L310 0 L16 0 L16 95 L58 101 Q69 103 71.5 106.5 Q74 110 74 121 L74 388 Q74 405 61 409 L9 428 L22 525 L224 525 L232 478 L239 478 Q250 488 263.5 498 Q277 508 295 516.5 Q313 525 335.5 530.5 Q358 536 388 536 Q476 536 510 478 Q520 486 535.5 496 Q551 506 570.5 515 Q590 524 613 530 Q636 536 662 536 Q739 536 773.5 494 Q808 452 808 364 L808 121 Q808 109 810.5 106 Q813 103 824 101 L870 94 L870 0 L621 0 L621 328 Q621 362 614.5 377 Q608 392 585 392 Q574 392 559.5 386.5 Q545 381 534 374 L534 121 Q534 109 536.5 105.5 Q539 102 550 100 L586 94 L586 0 L347 0 L347 328 Q347 362 340 377 Q333 392 311 392 Q297 392 284.5 386.5 Q272 381 261 373 L261 121 Z " />
<glyph glyph-name="n" unicode="n" horiz-adv-x="621" d="M261 121 Q261 109 263.5 106 Q266 103 277 101 L320 94 L320 0 L16 0 L16 95 L58 101 Q69 103 71.5 106.5 Q74 110 74 121 L74 388 Q74 405 61 409 L10 428 L23 525 L224 525 L232 478 L239 478 Q267 498 306.5 517 Q346 536 408 536 Q485 536 519.5 494 Q554 452 554 364 L554 121 Q554 109 556.5 106 Q559 103 570 101 L616 94 L616 0 L367 0 L367 328 Q367 362 359.5 377 Q352 392 329 392 Q307 392 289.5 385 Q272 378 261 370 L261 121 Z " />
<glyph glyph-name="o" unicode="o" horiz-adv-x="589" d="M291 -12 Q219 -12 168 8 Q117 28 84 65 Q51 102 35.5 152.5 Q20 203 20 265 Q20 326 37 376 Q54 426 89 461.5 Q124 497 176.5 516.5 Q229 536 301 536 Q373 536 424 516 Q475 496 507.5 461 Q540 426 554.5 377 Q569 328 569 270 Q569 206 552.5 154 Q536 102 502 65 Q468 28 415.5 8 Q363 -12 291 -12 Z M295 114 Q312 114 326.5 121 Q341 128 351.5 145.5 Q362 163 368 192 Q374 221 374 265 Q374 307 368.5 334 Q363 361 353 377.5 Q343 394 329 400.5 Q315 407 298 407 Q281 407 266 400.5 Q251 394 240 378 Q229 362 222.5 334.5 Q216 307 216 264 Q216 221 221.5 192.5 Q227 164 237.5 146.5 Q248 129 262.5 121.5 Q277 114 295 114 Z " />
<glyph glyph-name="p" unicode="p" horiz-adv-x="620" d="M228 478 L235 476 Q277 508 319 522 Q361 536 399 536 Q441 536 476.5 522 Q512 508 538.5 477 Q565 446 579.5 396 Q594 346 594 274 Q594 197 578 142.5 Q562 88 535 53.5 Q508 19 472 3.5 Q436 -12 395 -12 Q341 -12 308 1.5 Q275 15 251 35 L251 -88 Q251 -100 254 -103.5 Q257 -107 268 -108 L378 -118 L378 -212 L11 -212 L11 -117 L50 -111 Q61 -109 65 -105 Q69 -101 69 -89 L69 388 Q69 404 56 409 L5 428 L18 525 L219 525 L228 478 Z M397 267 Q397 330 377.5 361 Q358 392 322 392 Q305 392 286.5 385 Q268 378 255 370 L255 150 Q267 142 285 136.5 Q303 131 321 131 Q361 131 379 168 Q397 205 397 267 Z " />
<glyph glyph-name="q" unicode="q" horiz-adv-x="603" d="M245 536 Q288 536 321.5 519.5 Q355 503 383 477 L400 525 L559 525 Q556 480 553.5 435.5 Q551 391 551 349 L551 -92 Q551 -103 553.5 -106 Q556 -109 567 -111 L613 -118 L613 -212 L273 -212 L273 -117 L366 -109 Q388 -108 388 -92 L388 50 L381 52 Q352 23 317.5 5.5 Q283 -12 230 -12 Q185 -12 147.5 3 Q110 18 83 50.5 Q56 83 41 134.5 Q26 186 26 259 Q26 335 45.5 388 Q65 441 96 474 Q127 507 166.5 521.5 Q206 536 245 536 Z M223 262 Q223 235 227 211 Q231 187 240 169.5 Q249 152 265 141.5 Q281 131 305 131 Q319 131 335 134 Q351 137 365 145 L365 379 Q348 387 334 390.5 Q320 394 306 394 Q284 394 268 383.5 Q252 373 242 355 Q232 337 227.5 313 Q223 289 223 262 Z " />
<glyph glyph-name="r" unicode="r" horiz-adv-x="497" d="M16 0 L16 96 L58 102 Q69 104 71.5 107.5 Q74 111 74 122 L74 388 Q74 404 61 409 L9 428 L22 525 L224 525 L238 438 L246 438 Q271 483 302.5 509.5 Q334 536 381 536 Q390 536 403.5 535 Q417 534 431 532.5 Q445 531 457.5 529.5 Q470 528 477 526 L477 326 L328 331 L319 373 Q315 386 306 386 Q295 386 282 379.5 Q269 373 261 367 L261 124 Q261 112 264 108.5 Q267 105 278 104 L380 95 L380 0 L16 0 Z " />
<glyph glyph-name="s" unicode="s" horiz-adv-x="504" d="M336 358 L327 406 Q326 418 317 420 Q308 423 293.5 425 Q279 427 262 427 Q235 427 217.5 418.5 Q200 410 200 390 Q200 370 225 361.5 Q250 353 286 345 Q317 339 351.5 329.5 Q386 320 415 301.5 Q444 283 463 252 Q482 221 482 170 Q482 123 464 88.5 Q446 54 414.5 31.5 Q383 9 338.5 -1.5 Q294 -12 242 -12 Q206 -12 171 -8 Q136 -4 107 1.5 Q78 7 58 13.5 Q38 20 31 25 L31 169 L162 161 L171 112 Q173 98 184 96 Q192 94 209.5 91.5 Q227 89 250 89 Q317 89 317 130 Q317 143 309 152 Q301 161 286.5 166.5 Q272 172 253.5 176 Q235 180 214 183 Q184 188 152 196.5 Q120 205 93.5 223.5 Q67 242 50 272.5 Q33 303 33 352 Q33 401 52.5 435.5 Q72 470 104.5 492.5 Q137 515 179.5 525.5 Q222 536 268 536 Q299 536 329.5 533 Q360 530 386.5 525.5 Q413 521 434 515.5 Q455 510 467 505 L467 351 L336 358 Z " />
<glyph glyph-name="t" unicode="t" horiz-adv-x="453" d="M433 33 Q399 15 350.5 1.5 Q302 -12 256 -12 Q206 -12 172 -2 Q138 8 117 29 Q96 50 86.5 83.5 Q77 117 77 165 L77 396 Q77 401 76 403.5 Q75 406 69 406 L0 406 L0 513 Q33 519 57.5 531.5 Q82 544 100 565 Q118 586 129.5 616.5 Q141 647 148 689 L264 689 L264 535 Q264 530 265 527.5 Q266 525 272 525 L410 525 L410 406 L264 406 L264 201 Q264 158 276.5 140.5 Q289 123 329 123 Q349 123 368 127 Q387 131 403 136 L433 33 Z " />
<glyph glyph-name="u" unicode="u" horiz-adv-x="621" d="M400 0 L392 47 L386 49 Q372 39 355 28 Q338 17 317.5 8 Q297 -1 272 -6.5 Q247 -12 216 -12 Q139 -12 104.5 30 Q70 72 70 160 L70 399 Q70 411 67.5 414 Q65 417 54 419 L8 426 L20 525 L257 525 L257 196 Q257 162 264.5 147 Q272 132 295 132 Q317 132 334.5 139 Q352 146 363 154 L363 399 Q363 411 360.5 414 Q358 417 347 419 L309 426 L321 525 L550 525 L550 120 Q550 112 552 108 Q554 104 564 102 L612 95 L612 0 L400 0 Z " />
<glyph glyph-name="v" unicode="v" horiz-adv-x="649" d="M215 0 L62 402 Q58 411 54 414 Q50 417 41 419 L0 428 L18 525 L325 525 L325 428 L264 420 L346 183 L356 183 L443 420 L380 428 L394 525 L649 525 L649 428 L612 422 Q603 420 597 417.5 Q591 415 587 405 L433 0 L215 0 Z " />
<glyph glyph-name="w" unicode="w" horiz-adv-x="902" d="M180 0 L62 402 Q59 411 54.5 414 Q50 417 41 419 L0 428 L18 525 L303 525 L303 426 L253 420 L313 186 L323 186 L398 513 L578 513 L652 186 L661 186 L717 420 L665 426 L679 525 L902 525 L902 428 L866 421 Q848 418 843 401 L727 0 L536 0 L472 298 L464 298 L402 0 L180 0 Z " />
<glyph glyph-name="x" unicode="x" horiz-adv-x="620" d="M298 0 L298 93 L337 102 L282 175 L213 103 L263 94 L263 0 L15 0 L15 93 L55 101 Q64 103 69 107 Q74 111 82 118 L208 246 L72 401 Q65 408 61 411.5 Q57 415 48 418 L10 429 L20 525 L316 525 L316 429 L275 421 L333 351 L402 421 L351 429 L361 525 L595 525 L595 429 L550 419 Q541 416 537 411 Q533 406 525 400 L408 281 L546 119 Q554 111 558.5 107 Q563 103 572 101 L610 94 L610 0 L298 0 Z " />
<glyph glyph-name="y" unicode="y" horiz-adv-x="642" d="M118 -212 L118 -115 L199 -106 Q216 -105 226 -84 L259 -12 L62 402 Q59 411 54.5 414 Q50 417 41 419 L0 428 L18 525 L316 525 L316 428 L255 420 L352 201 L362 201 L450 420 L387 428 L401 525 L642 525 L642 428 L610 422 Q601 420 595 417.5 Q589 415 585 405 L380 -104 L488 -116 L488 -212 L118 -212 Z " />
<glyph glyph-name="z" unicode="z" horiz-adv-x="535" d="M33 0 L33 102 L289 415 L188 415 Q181 415 179 412.5 Q177 410 175 402 L163 351 L34 343 L34 525 L494 525 L494 421 L245 109 L351 109 Q362 109 365 122 L377 188 L510 194 L510 0 L33 0 Z " />
<glyph glyph-name="ae" unicode="&#xe6;" horiz-adv-x="818" d="M790 43 Q737 19 682.5 3.5 Q628 -12 570 -12 Q511 -12 468.5 5 Q426 22 396 51 Q361 28 315 8 Q269 -12 208 -12 Q148 -12 112 2.5 Q76 17 56.5 39.5 Q37 62 31 89.5 Q25 117 25 143 Q25 218 72 255 Q119 292 215 297 L318 303 L318 357 Q318 369 317.5 380 Q317 391 312.5 399.5 Q308 408 298.5 413 Q289 418 271 418 Q242 418 230 407 Q218 396 218 358 L44 371 Q44 424 65.5 456.5 Q87 489 119 506.5 Q151 524 189 530 Q227 536 259 536 Q320 536 361 521.5 Q402 507 428 474 Q451 501 490 518.5 Q529 536 584 536 Q633 536 671 523 Q709 510 735.5 481.5 Q762 453 775.5 407.5 Q789 362 789 298 Q789 277 788.5 261.5 Q788 246 786 229 L500 229 Q503 171 525.5 150 Q548 129 595 129 Q617 129 653.5 135.5 Q690 142 748 161 L790 43 Z M277 215 Q245 213 230.5 199.5 Q216 186 216 160 Q216 137 230 127 Q244 117 263 117 Q277 117 296.5 122 Q316 127 338 141 Q325 177 320 217 L277 215 Z M606 320 Q606 347 602 363.5 Q598 380 591 389 Q584 398 575 401 Q566 404 555 404 Q544 404 535 400.5 Q526 397 518.5 388 Q511 379 506 362.5 Q501 346 500 320 L606 320 Z " />
<glyph glyph-name="ij" unicode="&#x133;" horiz-adv-x="651" d="M262 692 Q262 641 234 613.5 Q206 586 155 586 Q104 586 76.5 613.5 Q49 641 49 692 Q49 743 76.5 769.5 Q104 796 155 796 Q206 796 234 769.5 Q262 743 262 692 Z M16 0 L16 95 L58 101 Q69 103 71.5 106.5 Q74 110 74 121 L74 388 Q74 405 61 409 L9 428 L22 525 L261 525 L261 121 Q261 109 263.5 106 Q266 103 277 101 L320 94 L320 0 L16 0 Z M400 388 Q400 404 387 409 L335 428 L348 525 L587 525 L587 -45 Q587 -142 536 -182.5 Q485 -223 395 -223 Q360 -223 330 -216.5 Q300 -210 276 -201 Q252 -192 235.5 -182.5 Q219 -173 212 -167 L259 -69 Q271 -75 294.5 -84 Q318 -93 345 -93 Q357 -93 367.5 -90.5 Q378 -88 385 -80 Q392 -72 396 -57 Q400 -42 400 -16 L400 388 Z M588 692 Q588 641 560 613.5 Q532 586 481 586 Q430 586 402.5 613.5 Q375 641 375 692 Q375 743 402.5 769.5 Q430 796 481 796 Q532 796 560 769.5 Q588 743 588 692 Z " />
<glyph glyph-name="eng" unicode="&#x14b;" horiz-adv-x="614" d="M367 328 Q367 362 359.5 377 Q352 392 329 392 Q307 392 289.5 385 Q272 378 261 370 L261 121 Q261 109 263.5 106 Q266 103 277 101 L320 94 L320 0 L16 0 L16 95 L58 101 Q69 103 71.5 106.5 Q74 110 74 121 L74 388 Q74 405 61 409 L10 428 L23 525 L224 525 L232 478 L239 478 Q267 498 306.5 517 Q346 536 408 536 Q485 536 519.5 494 Q554 452 554 364 L554 -45 Q554 -142 503.5 -182.5 Q453 -223 363 -223 Q328 -223 298 -216.5 Q268 -210 244 -201 Q220 -192 203.5 -182.5 Q187 -173 180 -167 L227 -69 Q239 -75 262.5 -84 Q286 -93 313 -93 Q325 -93 335.5 -90.5 Q346 -88 353 -80 Q360 -72 364 -57 Q368 -42 368 -16 L367 328 Z " />
<glyph glyph-name="eth" unicode="&#xf0;" horiz-adv-x="596" d="M24 253 Q24 304 37.5 350 Q51 396 78.5 431.5 Q106 467 148.5 487.5 Q191 508 250 508 Q276 508 300.5 504 Q325 500 357 490 L362 496 Q344 526 314.5 549.5 Q285 573 253 590 Q221 607 190 618 Q159 629 137 635 L204 788 Q295 767 362 728 L473 805 L555 690 L473 635 Q501 601 520 563 Q539 525 550.5 485 Q562 445 567 404 Q572 363 572 323 Q572 158 503 73 Q434 -12 287 -12 Q219 -12 169.5 7 Q120 26 87.5 61 Q55 96 39.5 144.5 Q24 193 24 253 Z M220 254 Q220 211 226 184 Q232 157 242.5 141.5 Q253 126 267 120 Q281 114 297 114 Q313 114 328.5 121.5 Q344 129 356 148 Q368 167 375 198.5 Q382 230 382 277 Q382 297 381 319 Q380 341 376 367 Q358 377 338.5 381.5 Q319 386 300 386 Q283 386 268 381.5 Q253 377 242.5 363 Q232 349 226 323 Q220 297 220 254 Z " />
<glyph glyph-name="oe" unicode="&#x153;" horiz-adv-x="877" d="M849 43 Q796 19 746 3.5 Q696 -12 638 -12 Q572 -12 529.5 8 Q487 28 461 58 Q427 26 381 7 Q335 -12 272 -12 Q204 -12 156.5 8 Q109 28 78.5 65 Q48 102 34 152.5 Q20 203 20 265 Q20 326 36.5 376 Q53 426 86 461.5 Q119 497 168 516.5 Q217 536 281 536 Q349 536 392.5 516.5 Q436 497 467 464 Q496 496 537 516 Q578 536 638 536 Q685 536 724 522.5 Q763 509 790.5 479 Q818 449 833 401.5 Q848 354 848 287 Q848 279 847.5 264.5 Q847 250 845 233 L559 233 Q562 176 584.5 151.5 Q607 127 654 127 Q676 127 712.5 133.5 Q749 140 807 159 L849 43 Z M295 119 Q329 119 349.5 152 Q370 185 370 265 Q370 341 351.5 371.5 Q333 402 298 402 Q263 402 241.5 372 Q220 342 220 264 Q220 186 239.5 152.5 Q259 119 295 119 Z M665 323 Q665 350 661 366.5 Q657 383 650.5 392 Q644 401 634.5 404 Q625 407 614 407 Q603 407 594 403.5 Q585 400 577.5 391 Q570 382 565 365.5 Q560 349 559 323 L665 323 Z " />
<glyph glyph-name="thorn" unicode="&#xfe;" horiz-adv-x="617" d="M8 -212 L8 -117 L47 -111 Q58 -109 61.5 -105 Q65 -101 65 -89 L65 618 Q65 626 63 631 Q61 636 53 639 L0 658 L13 755 L250 755 L250 479 L255 477 Q293 508 328 522 Q363 536 401 536 Q443 536 478 522 Q513 508 538 477 Q563 446 577 396 Q591 346 591 274 Q591 197 575.5 142.5 Q560 88 533.5 53.5 Q507 19 471 3.5 Q435 -12 394 -12 Q358 -12 331 -6 Q303 0 282.5 10.5 Q262 21 248 35 L248 -88 Q248 -100 251 -103.5 Q254 -107 265 -108 L375 -118 L375 -212 L8 -212 Z M252 145 Q266 137 282 134 Q298 131 312 131 Q356 131 375 168 Q394 205 394 267 Q394 330 374.5 361 Q355 392 319 392 Q302 392 283.5 385 Q265 378 252 370 L252 145 Z " />
<glyph glyph-name="germandbls" unicode="&#xdf;" horiz-adv-x="649" d="M16 0 L16 95 L57 101 Q68 102 70.5 106 Q73 110 73 121 L73 535 Q73 599 90 643.5 Q107 688 140.5 715.5 Q174 743 224 755 Q274 767 339 767 Q467 767 525 716.5 Q583 666 583 570 Q583 529 571.5 500 Q560 471 543 450.5 Q526 430 507 418.5 Q488 407 473 402 L473 398 Q501 392 528 382.5 Q555 373 576.5 352 Q598 331 611 296 Q624 261 624 204 Q624 163 614.5 124.5 Q605 86 582.5 55.5 Q560 25 523.5 6.5 Q487 -12 434 -12 Q405 -12 380 -8 Q355 -4 336 2 Q317 8 303.5 14 Q290 20 283 24 L322 127 Q335 121 348 116.5 Q361 112 378 112 Q405 112 417.5 136.5 Q430 161 430 219 Q430 251 423.5 271 Q417 291 406 302.5 Q395 314 379.5 318.5 Q364 323 346 323 Q322 323 297 320 L297 444 L322 448 Q360 454 375 477 Q390 500 390 552 Q390 597 376 621 Q362 645 327 645 Q312 645 299.5 642 Q287 639 278.5 629 Q270 619 265 601.5 Q260 584 260 554 L260 0 L16 0 Z " />
<glyph glyph-name="dotlessi" unicode="&#x131;" horiz-adv-x="328" d="M16 0 L16 95 L58 101 Q69 103 71.5 106.5 Q74 110 74 121 L74 388 Q74 405 61 409 L9 428 L22 525 L261 525 L261 121 Q261 109 263.5 106 Q266 103 277 101 L320 94 L320 0 L16 0 Z " />
<glyph glyph-name="kgreenlandic" unicode="&#x138;" horiz-adv-x="637" d="M410 0 L297 246 L261 208 L261 121 Q261 109 263.5 106 Q266 103 277 101 L320 94 L320 0 L16 0 L16 95 L58 101 Q69 103 71.5 106.5 Q74 110 74 121 L74 388 Q74 404 61 409 L9 428 L22 525 L261 525 L261 361 L427 525 L581 525 L581 431 L532 423 Q522 421 518 418.5 Q514 416 507 408 L448 349 L562 117 Q567 106 574 103 Q581 100 592 98 L632 92 L632 0 L410 0 Z " />
<glyph glyph-name="longs" unicode="&#x17f;" horiz-adv-x="456" d="M19 0 L19 95 L71 101 Q82 103 84.5 107 Q87 111 87 122 L87 566 Q87 675 148 720.5 Q209 766 319 766 Q356 766 391.5 760 Q427 754 454.5 737 Q482 720 499 689 Q516 658 516 608 L343 588 Q344 625 337 638 Q330 651 310 651 Q284 651 279 634.5 Q274 618 274 594 L274 126 Q274 114 277.5 110.5 Q281 107 292 106 L417 94 L417 0 L19 0 Z " />
<glyph glyph-name="dotlessj" unicode="&#x237;" horiz-adv-x="323" d="M72 388 Q72 404 59 409 L7 428 L20 525 L259 525 L259 -45 Q259 -142 208 -182.5 Q157 -223 67 -223 Q32 -223 2 -216.5 Q-28 -210 -52 -201 Q-76 -192 -92.5 -182.5 Q-109 -173 -116 -167 L-69 -69 Q-57 -75 -33.5 -84 Q-10 -93 17 -93 Q29 -93 39.5 -90.5 Q50 -88 57 -80 Q64 -72 68 -57 Q72 -42 72 -16 L72 388 Z " />
<glyph glyph-name="bracketleft" unicode="&#x5b;" horiz-adv-x="346" d="M50 -143 L50 724 L311 724 L311 634 L248 622 Q238 620 235 615.5 Q232 611 232 601 L232 -20 Q232 -30 235 -34.5 Q238 -39 248 -41 L311 -53 L311 -143 L50 -143 Z " />
<glyph glyph-name="bracketright" unicode="&#x5d;" horiz-adv-x="346" d="M35 -143 L35 -53 L98 -41 Q108 -39 111 -34.5 Q114 -30 114 -20 L114 601 Q114 611 111 615.5 Q108 620 98 622 L35 634 L35 724 L296 724 L296 -143 L35 -143 Z " />
<glyph glyph-name="parenleft" unicode="&#x28;" horiz-adv-x="390" d="M207 -182 Q173 -140 142 -88 Q111 -36 87 23 Q63 82 49 147 Q35 212 35 280 Q35 350 49 414.5 Q63 479 87 538 Q111 597 144 650.5 Q177 704 216 753 L355 671 Q324 627 301.5 582 Q279 537 264 489 Q249 441 242 389.5 Q235 338 235 280 Q235 218 242.5 167 Q250 116 264.5 71 Q279 26 300 -16 Q321 -58 348 -101 L207 -182 Z " />
<glyph glyph-name="parenright" unicode="&#x29;" horiz-adv-x="390" d="M35 -100 Q66 -56 88.5 -11 Q111 34 126 82 Q141 130 148 181.5 Q155 233 155 291 Q155 352 147.5 403.5 Q140 455 125.5 500 Q111 545 90 587 Q69 629 42 672 L183 753 Q217 711 248 659 Q279 607 303 548 Q327 489 341 423.5 Q355 358 355 291 Q355 220 341 156 Q327 92 303 33 Q279 -26 246 -79.5 Q213 -133 174 -182 L35 -100 Z " />
<glyph glyph-name="braceleft" unicode="&#x7b;" horiz-adv-x="356" d="M311 -150 Q242 -150 195.5 -143 Q149 -136 120 -119.5 Q91 -103 78.5 -74.5 Q66 -46 66 -4 Q66 17 68.5 37.5 Q71 58 73.5 79.5 Q76 101 78.5 125 Q81 149 81 178 Q81 213 67.5 226.5 Q54 240 20 243 L20 334 Q54 337 67.5 350.5 Q81 364 81 399 Q81 428 78.5 452 Q76 476 73.5 497.5 Q71 519 68.5 539.5 Q66 560 66 581 Q66 623 78.5 651.5 Q91 680 120 696.5 Q149 713 195.5 720 Q242 727 311 727 L321 634 Q287 626 273 612.5 Q259 599 259 562 Q259 523 267.5 483.5 Q276 444 276 400 Q276 354 261 327.5 Q246 301 216 288 Q246 275 261 249 Q276 223 276 177 Q276 133 267.5 93.5 Q259 54 259 15 Q259 -22 273 -35.5 Q287 -49 321 -57 L311 -150 Z " />
<glyph glyph-name="braceright" unicode="&#x7d;" horiz-adv-x="356" d="M140 288 Q110 301 95 327.5 Q80 354 80 400 Q80 444 88.5 483.5 Q97 523 97 562 Q97 599 83 612.5 Q69 626 35 634 L45 727 Q114 727 160.5 720 Q207 713 236 696.5 Q265 680 277.5 651.5 Q290 623 290 581 Q290 560 287.5 539.5 Q285 519 282.5 497.5 Q280 476 277.5 452 Q275 428 275 399 Q275 364 288.5 350.5 Q302 337 336 334 L336 243 Q302 240 288.5 226.5 Q275 213 275 178 Q275 149 277.5 125 Q280 101 282.5 79.5 Q285 58 287.5 37.5 Q290 17 290 -4 Q290 -46 277.5 -74.5 Q265 -103 236 -119.5 Q207 -136 160.5 -143 Q114 -150 45 -150 L35 -57 Q69 -49 83 -35.5 Q97 -22 97 15 Q97 54 88.5 93.5 Q80 133 80 177 Q80 223 95 249 Q110 275 140 288 Z " />
<glyph glyph-name="backslash" unicode="&#x5c;" horiz-adv-x="486" d="M305 -92 L25 755 L195 755 L476 -92 L305 -92 Z " />
<glyph glyph-name="slash" unicode="&#x2f;" horiz-adv-x="481" d="M10 -92 L291 755 L461 755 L181 -92 L10 -92 Z " />
<glyph glyph-name="brokenbar" unicode="&#xa6;" horiz-adv-x="280" d="M55 -143 L55 245 L225 245 L225 -143 L55 -143 Z M55 420 L55 755 L225 755 L225 420 L55 420 Z " />
<glyph glyph-name="bar" unicode="&#x7c;" horiz-adv-x="280" d="M55 -143 L55 755 L225 755 L225 -143 L55 -143 Z " />
<glyph glyph-name="section" unicode="&#xa7;" horiz-adv-x="581" d="M61 39 L192 31 L201 -24 Q202 -29 204 -32 Q206 -35 213 -38 Q222 -42 236.5 -45 Q251 -48 277 -48 Q344 -48 344 -4 Q344 9 335.5 18 Q327 27 312 33 Q297 39 277.5 43.5 Q258 48 236 53 Q206 60 174.5 69.5 Q143 79 117.5 97 Q92 115 76 144 Q60 173 60 218 Q60 262 81.5 294.5 Q103 327 132 351 Q109 369 95.5 396.5 Q82 424 82 463 Q82 507 100 539.5 Q118 572 148.5 593.5 Q179 615 220 625.5 Q261 636 307 636 Q338 636 368.5 633 Q399 630 425.5 625.5 Q452 621 473 615.5 Q494 610 506 605 L506 451 L375 458 L366 509 Q365 514 363.5 517 Q362 520 355 522 Q344 526 332.5 528 Q321 530 301 530 Q274 530 256.5 519 Q239 508 239 488 Q239 476 247.5 468 Q256 460 270 454 Q284 448 303 443 Q322 438 343 433 Q373 425 404.5 415 Q436 405 462 387.5 Q488 370 504.5 341.5 Q521 313 521 270 Q521 225 503.5 191 Q486 157 457 136 Q476 119 487.5 96 Q499 73 499 40 Q499 -7 482.5 -41.5 Q466 -76 436 -98.5 Q406 -121 363.5 -131.5 Q321 -142 269 -142 Q233 -142 198.5 -138 Q164 -134 135.5 -128.5 Q107 -123 87.5 -116.5 Q68 -110 61 -105 L61 39 Z M232 303 Q221 294 213.5 282 Q206 270 206 255 Q206 233 229.5 222 Q253 211 288 202 L342 188 Q374 207 374 236 Q374 255 352 265.5 Q330 276 297 285 L232 303 Z " />
<glyph glyph-name="copyright" unicode="&#xa9;" horiz-adv-x="775" d="M725 325 Q725 249 700.5 187 Q676 125 631 80.5 Q586 36 524 12 Q462 -12 387 -12 Q304 -12 241 12.5 Q178 37 135.5 80.5 Q93 124 71.5 183 Q50 242 50 311 Q50 390 76.5 452.5 Q103 515 149 558 Q195 601 256.5 624 Q318 647 389 647 Q467 647 529 624 Q591 601 634.5 559 Q678 517 701.5 457.5 Q725 398 725 325 Z M633 319 Q633 378 615 423.5 Q597 469 564.5 499.5 Q532 530 487 546 Q442 562 389 562 Q336 562 291.5 545.5 Q247 529 214 497 Q181 465 162.5 418.5 Q144 372 144 312 Q144 200 208.5 136.5 Q273 73 389 73 Q446 73 491 90 Q536 107 567.5 138.5 Q599 170 616 216 Q633 262 633 319 Z M513 377 L452 377 L445 431 Q434 436 423.5 438 Q413 440 398 440 Q356 440 334 413 Q312 386 312 316 Q312 291 316 268.5 Q320 246 330.5 229.5 Q341 213 359 203.5 Q377 194 404 194 Q427 194 445 203 L456 257 L512 257 L512 147 Q492 135 460 129 Q428 123 398 123 Q347 123 311 137.5 Q275 152 252.5 178 Q230 204 220 240 Q210 276 210 318 Q210 361 222 397 Q234 433 258 458.5 Q282 484 317.5 498 Q353 512 401 512 Q432 512 463.5 505.5 Q495 499 513 492 L513 377 Z " />
<glyph glyph-name="registered" unicode="&#xae;" horiz-adv-x="455" d="M415 480 Q415 438 401 404 Q387 370 362.5 345 Q338 320 303.5 306.5 Q269 293 227 293 Q181 293 146 307 Q111 321 87.5 345 Q64 369 52 402 Q40 435 40 473 Q40 516 54.5 551 Q69 586 94.5 610.5 Q120 635 154.5 648 Q189 661 228 661 Q271 661 305.5 648 Q340 635 364.5 611.5 Q389 588 402 554.5 Q415 521 415 480 Z M363 477 Q363 543 324.5 577.5 Q286 612 228 612 Q200 612 175.5 602.5 Q151 593 132.5 575.5 Q114 558 103.5 532.5 Q93 507 93 474 Q93 412 129 377 Q165 342 228 342 Q291 342 327 378 Q363 414 363 477 Z M145 412 L158 413 Q163 413 163 418 L163 539 Q163 544 158 544 L145 545 L145 575 L234 575 Q275 575 290.5 558.5 Q306 542 306 521 Q306 501 296 488.5 Q286 476 272 471 Q277 469 282 465 Q287 461 290 452 L302 420 Q304 415 310 414 L324 412 L324 384 L258 384 L236 447 Q234 453 232 455 Q230 457 223 457 L213 457 L213 419 Q213 414 218 413 L233 412 L233 384 L145 384 L145 412 Z M213 492 L227 492 Q240 492 247.5 496.5 Q255 501 255 517 Q255 531 247 535 Q239 539 229 539 L213 539 L213 492 Z " />
<glyph glyph-name="trademark" unicode="&#x2122;" horiz-adv-x="870" d="M113 348 L113 400 L161 405 L161 654 L100 654 L95 605 L40 605 L40 724 L376 724 L376 605 L321 605 L317 654 L254 654 L254 405 L307 400 L307 348 L113 348 Z M693 348 L693 399 L730 404 L730 572 L662 429 L589 429 L523 573 L523 404 L564 399 L564 348 L406 348 L406 399 L440 404 L440 666 L406 669 L406 724 L535 724 L628 521 L724 724 L848 724 L848 669 L813 666 L813 404 L850 399 L850 348 L693 348 Z " />
<glyph glyph-name="ordfeminine" unicode="&#xaa;" horiz-adv-x="410" d="M258 282 L251 317 L246 318 Q231 303 205 288.5 Q179 274 136 274 Q103 274 82 283 Q61 292 49.5 306.5 Q38 321 34 339 Q30 357 30 375 Q30 428 64 451.5 Q98 475 166 478 L232 481 L232 519 Q232 531 228 542 Q224 553 204 553 Q187 553 181 545.5 Q175 538 175 516 L42 525 Q42 561 57.5 583 Q73 605 97.5 617 Q122 629 151 633 Q180 637 207 637 Q249 637 280 631 Q311 625 331.5 611 Q352 597 361.5 573.5 Q371 550 371 515 L371 368 Q371 360 372.5 358 Q374 356 382 355 L414 350 L414 282 L258 282 Z M232 420 L211 419 Q176 418 176 389 Q176 375 183.5 368.5 Q191 362 202 362 Q211 362 218 363.5 Q225 365 232 367 L232 420 Z " />
<glyph glyph-name="ordmasculine" unicode="&#xba;" horiz-adv-x="424" d="M220 274 Q168 274 131 287.5 Q94 301 71 324.5 Q48 348 37 381 Q26 414 26 453 Q26 537 75.5 587 Q125 637 227 637 Q279 637 315 624 Q351 611 374 587.5 Q397 564 407.5 532 Q418 500 418 461 Q418 376 370.5 325 Q323 274 220 274 Z M223 365 Q233 365 241.5 369 Q250 373 256 383.5 Q262 394 265.5 412 Q269 430 269 458 Q269 510 256.5 527.5 Q244 545 225 545 Q215 545 206 541.5 Q197 538 190.5 528.5 Q184 519 180 501.5 Q176 484 176 457 Q176 402 189.5 383.5 Q203 365 223 365 Z " />
<glyph glyph-name="guillemotleft" unicode="&#xab;" horiz-adv-x="481" d="M110 103 L25 256 L114 408 L260 408 L177 268 Q173 262 173 258.5 Q173 255 176 249 L254 103 L110 103 Z M311 103 L226 256 L315 408 L461 408 L378 268 Q374 262 374 258.5 Q374 255 377 249 L455 103 L311 103 Z " />
<glyph glyph-name="guillemotright" unicode="&#xbb;" horiz-adv-x="481" d="M26 103 L104 249 Q107 255 107 258.5 Q107 262 103 268 L20 408 L166 408 L255 256 L170 103 L26 103 Z M227 103 L305 249 Q308 255 308 258.5 Q308 262 304 268 L221 408 L367 408 L456 256 L371 103 L227 103 Z " />
<glyph glyph-name="guilsinglleft" unicode="&#x2039;" horiz-adv-x="280" d="M110 103 L25 256 L114 408 L260 408 L177 268 Q173 262 173 258.5 Q173 255 176 249 L254 103 L110 103 Z " />
<glyph glyph-name="guilsinglright" unicode="&#x203a;" horiz-adv-x="280" d="M26 103 L104 249 Q107 255 107 258.5 Q107 262 103 268 L20 408 L166 408 L255 256 L170 103 L26 103 Z " />
<glyph glyph-name="quoteleft" unicode="&#x2018;" horiz-adv-x="235" d="M180 763 L160 662 Q157 652 165 649 L207 637 L187 528 Q157 528 130 530.5 Q103 533 82.5 541 Q62 549 50 565.5 Q38 582 38 609 Q38 626 44 644.5 Q50 663 59 683 L105 784 L180 763 Z " />
<glyph glyph-name="quoteright" unicode="&#x2019;" horiz-adv-x="242" d="M65 549 L85 650 Q88 660 80 663 L38 675 L58 784 Q88 784 115 781.5 Q142 779 162.5 771 Q183 763 195 746.5 Q207 730 207 703 Q207 686 201 667.5 Q195 649 186 629 L140 528 L65 549 Z " />
<glyph glyph-name="quotesinglbase" unicode="&#x201a;" horiz-adv-x="254" d="M72 -122 L92 -21 Q95 -11 87 -8 L45 4 L65 113 Q95 113 122 110.5 Q149 108 169.5 100 Q190 92 202 75.5 Q214 59 214 32 Q214 15 208 -3.5 Q202 -22 193 -42 L147 -143 L72 -122 Z " />
<glyph glyph-name="quotedblleft" unicode="&#x201c;" horiz-adv-x="428" d="M373 763 L353 662 Q350 652 358 649 L400 637 L380 528 Q350 528 323 530.5 Q296 533 275.5 541 Q255 549 243 565.5 Q231 582 231 609 Q231 626 237 644.5 Q243 663 252 683 L298 784 L373 763 Z M180 763 L160 662 Q157 652 165 649 L207 637 L187 528 Q157 528 130 530.5 Q103 533 82.5 541 Q62 549 50 565.5 Q38 582 38 609 Q38 626 44 644.5 Q50 663 59 683 L105 784 L180 763 Z " />
<glyph glyph-name="quotedblright" unicode="&#x201d;" horiz-adv-x="435" d="M258 549 L278 650 Q281 660 273 663 L231 675 L251 784 Q281 784 308 781.5 Q335 779 355.5 771 Q376 763 388 746.5 Q400 730 400 703 Q400 686 394 667.5 Q388 649 379 629 L333 528 L258 549 Z M65 549 L85 650 Q88 660 80 663 L38 675 L58 784 Q88 784 115 781.5 Q142 779 162.5 771 Q183 763 195 746.5 Q207 730 207 703 Q207 686 201 667.5 Q195 649 186 629 L140 528 L65 549 Z " />
<glyph glyph-name="quotedblbase" unicode="&#x201e;" horiz-adv-x="447" d="M265 -122 L285 -21 Q288 -11 280 -8 L238 4 L258 113 Q288 113 315 110.5 Q342 108 362.5 100 Q383 92 395 75.5 Q407 59 407 32 Q407 15 401 -3.5 Q395 -22 386 -42 L340 -143 L265 -122 Z M72 -122 L92 -21 Q95 -11 87 -8 L45 4 L65 113 Q95 113 122 110.5 Q149 108 169.5 100 Q190 92 202 75.5 Q214 59 214 32 Q214 15 208 -3.5 Q202 -22 193 -42 L147 -143 L72 -122 Z " />
<glyph glyph-name="dagger" unicode="&#x2020;" horiz-adv-x="408" d="M187 432 L221 432 L285 320 L263 105 L263 -83 L144 -83 L144 105 L122 320 L187 432 L104 387 L30 387 L30 509 L104 509 L187 465 L142 561 L142 645 L265 645 L265 561 L221 465 L305 509 L378 509 L378 387 L305 387 L221 432 L221 465 L187 465 L187 432 Z " />
<glyph glyph-name="daggerdbl" unicode="&#x2021;" horiz-adv-x="448" d="M325 52 L241 97 L241 130 L207 130 L207 97 L241 97 L285 1 L285 -83 L162 -83 L162 1 L207 97 L124 52 L50 52 L50 174 L124 174 L207 130 L142 246 L142 320 L207 432 L241 432 L305 320 L305 246 L241 130 L325 174 L398 174 L398 52 L325 52 Z M124 387 L50 387 L50 509 L124 509 L207 465 L162 561 L162 645 L285 645 L285 561 L241 465 L325 509 L398 509 L398 387 L325 387 L241 432 L241 465 L207 465 L207 432 L124 387 Z " />
<glyph glyph-name="bullet" unicode="&#x2022;" horiz-adv-x="439" d="M379 279 Q379 202 338 164 Q297 126 219 126 Q141 126 100.5 164 Q60 202 60 279 Q60 356 100.5 394 Q141 432 219 432 Q297 432 338 394 Q379 356 379 279 Z " />
<glyph glyph-name="periodcentered" unicode="&#xb7;" horiz-adv-x="265" d="M230 312 Q230 270 206.5 247.5 Q183 225 133 225 Q35 225 35 312 Q35 354 58.5 376.5 Q82 399 133 399 Q182 399 206 376.5 Q230 354 230 312 Z " />
<glyph glyph-name="ellipsis" unicode="&#x2026;" horiz-adv-x="791" d="M493 75 Q493 33 469.5 10.5 Q446 -12 396 -12 Q298 -12 298 75 Q298 117 321.5 139.5 Q345 162 396 162 Q445 162 469 139.5 Q493 117 493 75 Z M756 75 Q756 33 732.5 10.5 Q709 -12 659 -12 Q561 -12 561 75 Q561 117 584.5 139.5 Q608 162 659 162 Q708 162 732 139.5 Q756 117 756 75 Z M231 75 Q231 33 207.5 10.5 Q184 -12 134 -12 Q36 -12 36 75 Q36 117 59.5 139.5 Q83 162 134 162 Q183 162 207 139.5 Q231 117 231 75 Z " />
<glyph glyph-name="paragraph" unicode="&#xb6;" horiz-adv-x="697" d="M443 -133 L443 538 L387 538 L387 -133 L186 -133 L186 -46 L249 -39 Q260 -37 263 -32.5 Q266 -28 266 -19 L266 162 Q149 168 97 229.5 Q45 291 45 395 Q45 464 67 511.5 Q89 559 127.5 589 Q166 619 218 632 Q270 645 330 645 L647 645 L647 551 L580 543 Q569 541 566.5 538 Q564 535 564 524 L564 -19 Q564 -31 567 -34 Q570 -37 580 -39 L647 -47 L647 -133 L443 -133 Z " />
<glyph glyph-name="uni00AD" unicode="&#xad;" horiz-adv-x="311" d="M20 215 L20 365 L291 365 L291 215 L20 215 Z " />
<glyph glyph-name="endash" unicode="&#x2013;" horiz-adv-x="500" d="M0 215 L0 345 L499 345 L499 215 L0 215 Z " />
<glyph glyph-name="emdash" unicode="&#x2014;" horiz-adv-x="1000" d="M0 215 L0 345 L1000 345 L1000 215 L0 215 Z " />
<glyph glyph-name="zero" unicode="0" horiz-adv-x="609" d="M298 -12 Q223 -12 171.5 8.5 Q120 29 88.5 68 Q57 107 43.5 164 Q30 221 30 294 Q30 366 45.5 422 Q61 478 95 517 Q129 556 182.5 576 Q236 596 311 596 Q387 596 438.5 575.5 Q490 555 521 517 Q552 479 565.5 423.5 Q579 368 579 299 Q579 224 563.5 166 Q548 108 514 68.5 Q480 29 427 8.5 Q374 -12 298 -12 Z M305 116 Q324 116 338 124 Q352 132 361.5 152 Q371 172 375.5 206.5 Q380 241 380 294 Q380 345 376 378 Q372 411 363 430.5 Q354 450 340.5 457.5 Q327 465 308 465 Q289 465 274.5 457 Q260 449 250 429.5 Q240 410 235 377 Q230 344 230 293 Q230 241 234 207 Q238 173 247 152.5 Q256 132 270.5 124 Q285 116 305 116 Z " />
<glyph glyph-name="one" unicode="1" horiz-adv-x="441" d="M42 0 L42 95 L119 101 Q130 102 132.5 106 Q135 110 135 121 L135 443 Q135 460 122 464 L40 483 L53 580 L322 580 L322 121 Q322 109 324.5 106 Q327 103 338 101 L416 94 L416 0 L42 0 Z " />
<glyph glyph-name="two" unicode="2" horiz-adv-x="548" d="M249 114 L364 114 Q371 114 372.5 118 Q374 122 375 127 L388 202 L518 202 L518 0 L31 0 L31 112 L162 242 Q200 280 226 306 Q252 332 267.5 351.5 Q283 371 290 387 Q297 403 297 420 Q297 437 287.5 451.5 Q278 466 250 466 Q218 466 205 449 Q192 432 192 385 L25 399 Q25 462 47.5 501 Q70 540 105.5 561 Q141 582 184 589 Q227 596 269 596 Q329 596 370.5 584 Q412 572 437 550.5 Q462 529 473 499.5 Q484 470 484 434 Q484 401 474 373.5 Q464 346 447 321 Q430 296 407 272 Q384 248 358 222 L249 114 Z " />
<glyph glyph-name="three" unicode="3" horiz-adv-x="538" d="M378 267 Q441 259 475.5 220.5 Q510 182 510 113 Q510 60 490.5 23 Q471 -14 437 -37.5 Q403 -61 356 -72 Q309 -83 255 -83 Q176 -83 107.5 -57.5 Q39 -32 -3 13 L93 119 Q120 93 153 73.5 Q186 54 236 54 Q274 54 299.5 69.5 Q325 85 325 129 Q325 167 304.5 182.5 Q284 198 248 198 Q228 198 211.5 196.5 Q195 195 172 190 L172 309 L215 314 Q262 319 287.5 342.5 Q313 366 313 413 Q313 434 302.5 450 Q292 466 260 466 Q228 466 214 449.5 Q200 433 200 385 L31 399 Q31 462 52.5 501 Q74 540 108.5 561 Q143 582 185 589 Q227 596 269 596 Q390 596 441.5 554.5 Q493 513 493 425 Q493 392 483 366.5 Q473 341 457 321.5 Q441 302 420 289.5 Q399 277 378 271 L378 267 Z " />
<glyph glyph-name="four" unicode="4" horiz-adv-x="590" d="M322 -67 L322 59 L30 59 L30 177 L221 605 L371 538 L206 194 L322 194 L322 332 L491 361 L491 194 L570 194 L570 59 L491 59 L491 -67 L322 -67 Z " />
<glyph glyph-name="five" unicode="5" horiz-adv-x="548" d="M206 434 L195 321 Q212 332 242.5 342.5 Q273 353 319 353 Q408 353 460 303 Q512 253 512 148 Q512 101 495.5 59 Q479 17 447 -14.5 Q415 -46 366.5 -64.5 Q318 -83 254 -83 Q165 -83 97 -57.5 Q29 -32 -13 13 L83 120 Q111 94 147 74 Q183 54 235 54 Q277 54 302 77.5 Q327 101 327 143 Q327 169 319 184.5 Q311 200 300 208 Q289 216 275.5 218.5 Q262 221 252 221 Q229 221 208 210.5 Q187 200 172 181 L52 229 L75 580 L334 580 Q340 580 342 584 Q344 588 345 593 L358 648 L467 656 L467 434 L206 434 Z " />
<glyph glyph-name="six" unicode="6" horiz-adv-x="582" d="M366 462 Q366 505 355 521 Q344 537 309 537 Q264 537 245 497 Q226 457 223 381 Q248 392 279.5 399 Q311 406 349 406 Q391 406 428 396 Q465 386 492.5 363 Q520 340 536 303.5 Q552 267 552 214 Q552 151 531.5 107.5 Q511 64 476 37.5 Q441 11 394.5 -0.5 Q348 -12 296 -12 Q221 -12 170 12 Q119 36 88.5 79.5 Q58 123 45 183.5 Q32 244 32 317 Q32 372 44.5 432.5 Q57 493 88.5 543.5 Q120 594 173.5 627 Q227 660 309 660 Q348 660 389 653.5 Q430 647 463.5 628 Q497 609 518.5 574 Q540 539 540 483 L366 462 Z M222 270 Q223 238 226.5 211 Q230 184 238.5 164 Q247 144 261.5 133 Q276 122 300 122 Q319 122 331 129.5 Q343 137 350 149 Q357 161 359.5 176.5 Q362 192 362 207 Q362 250 348 269.5 Q334 289 296 289 Q279 289 260 283.5 Q241 278 222 270 Z " />
<glyph glyph-name="seven" unicode="7" horiz-adv-x="542" d="M128 -67 Q137 35 163.5 117.5 Q190 200 223 263 Q256 326 289.5 368.5 Q323 411 344 434 L181 434 Q174 434 172.5 430 Q171 426 170 421 L155 341 L25 331 L25 580 L532 580 L532 450 Q442 352 386 219 Q330 86 325 -67 L128 -67 Z " />
<glyph glyph-name="eight" unicode="8" horiz-adv-x="538" d="M421 342 Q465 316 492.5 279 Q520 242 520 185 Q520 134 500 96.5 Q480 59 445 35 Q410 11 362 -0.5 Q314 -12 258 -12 Q141 -12 80.5 32 Q20 76 20 165 Q20 222 45.5 262 Q71 302 108 330 Q76 354 57 385.5 Q38 417 38 468 Q38 514 55.5 550 Q73 586 104 610.5 Q135 635 178 647.5 Q221 660 272 660 Q375 660 433 617 Q491 574 491 493 Q491 446 470.5 408.5 Q450 371 421 342 Z M214 267 Q188 243 177.5 219.5 Q167 196 167 175 Q167 143 188.5 124.5 Q210 106 257 106 Q300 106 317.5 123.5 Q335 141 335 166 Q335 185 324 199 Q313 213 295.5 224.5 Q278 236 256.5 246 Q235 256 214 267 Z M302 399 Q342 443 342 485 Q342 512 325 527 Q308 542 275 542 Q241 542 226.5 526 Q212 510 212 488 Q212 456 237.5 437 Q263 418 302 399 Z " />
<glyph glyph-name="nine" unicode="9" horiz-adv-x="580" d="M120 105 Q146 84 182.5 67.5 Q219 51 257 51 Q284 51 302.5 58 Q321 65 333 81 Q345 97 351 123 Q357 149 359 187 Q337 176 307 169.5 Q277 163 233 163 Q194 163 157.5 174.5 Q121 186 92.5 211 Q64 236 47 275 Q30 314 30 369 Q30 426 48 468.5 Q66 511 99 539.5 Q132 568 178 582 Q224 596 280 596 Q355 596 407 572 Q459 548 490.5 505.5 Q522 463 536 404.5 Q550 346 550 277 Q550 207 537.5 142 Q525 77 493 27.5 Q461 -22 406 -52 Q351 -82 267 -82 Q235 -82 203 -76.5 Q171 -71 142 -60.5 Q113 -50 88 -35.5 Q63 -21 45 -4 L120 105 Z M359 307 Q357 340 353 368.5 Q349 397 340 418 Q331 439 317 451 Q303 463 281 463 Q261 463 249 455 Q237 447 230.5 434 Q224 421 222 406 Q220 391 220 378 Q220 333 234 311 Q248 289 286 289 Q303 289 321 294 Q339 299 359 307 Z " />
<glyph glyph-name="dollar" unicode="&#x24;" horiz-adv-x="532" d="M187 712 L357 712 L357 637 Q399 632 431.5 624 Q464 616 487 610 L487 436 L352 443 L339 513 Q338 518 336.5 521 Q335 524 328 526 Q317 529 304 530 Q291 531 278 531 Q244 531 221.5 517.5 Q199 504 199 475 Q199 459 208.5 447.5 Q218 436 234.5 427.5 Q251 419 272 412 Q293 405 317 398 Q349 388 382 375 Q415 362 441.5 341 Q468 320 485 287.5 Q502 255 502 206 Q502 125 460.5 76.5 Q419 28 346 10 L346 -80 L176 -80 L176 3 Q121 9 81 19 Q41 29 31 37 L31 206 L166 198 L178 129 Q179 124 181 121 Q183 118 190 115 Q199 111 214.5 108.5 Q230 106 251 106 Q289 106 311 123 Q333 140 333 170 Q333 188 323 200 Q313 212 296.5 221 Q280 230 257.5 236.5 Q235 243 211 250 Q179 259 147 271 Q115 283 89 304 Q63 325 46.5 356.5 Q30 388 30 436 Q30 518 73 565 Q116 612 187 629 L187 712 Z " />
<glyph glyph-name="Euro" unicode="&#x20ac;" horiz-adv-x="582" d="M19 392 L67 392 Q75 458 98.5 508 Q122 558 158 591.5 Q194 625 241 642 Q288 659 343 659 Q373 659 403.5 655 Q434 651 461.5 644 Q489 637 511 628 Q533 619 547 610 L547 425 L419 430 L404 508 Q402 514 400 518.5 Q398 523 392 525 Q384 528 375 529.5 Q366 531 349 531 Q319 531 296 499.5 Q273 468 266 392 L398 392 L374 249 L268 249 Q272 210 280.5 185 Q289 160 300.5 145.5 Q312 131 327 126 Q342 121 359 121 Q378 121 392 126 Q398 128 400 132.5 Q402 137 404 143 L420 223 L547 228 L547 37 Q533 28 509.5 19 Q486 10 457.5 3 Q429 -4 397 -8 Q365 -12 335 -12 Q212 -12 146.5 56 Q81 124 67 249 L-5 249 L19 392 Z " />
<glyph glyph-name="cent" unicode="&#xa2;" horiz-adv-x="531" d="M203 643 L373 643 L373 538 Q413 531 445 519.5 Q477 508 497 495 L497 334 L369 339 L359 396 Q357 402 355 406.5 Q353 411 347 413 Q339 416 329 418 Q319 420 305 420 Q270 420 251 390.5 Q232 361 232 292 Q232 220 248 188 Q264 156 308 156 Q333 156 349 163 Q354 165 355 168 Q356 171 358 177 L369 237 L497 242 L497 81 Q477 67 441 54.5 Q405 42 362 36 L362 -67 L192 -67 L192 45 Q107 67 69 127 Q31 187 31 286 Q31 380 74.5 444 Q118 508 203 531 L203 643 Z " />
<glyph glyph-name="sterling" unicode="&#xa3;" horiz-adv-x="570" d="M20 402 L84 402 L84 430 Q84 471 93 512 Q102 553 129 586 Q156 619 204.5 639.5 Q253 660 332 660 Q371 660 410 653.5 Q449 647 480 628 Q511 609 530.5 574 Q550 539 550 483 L381 462 Q381 499 370.5 515.5 Q360 532 328 532 Q289 532 279 504 Q269 476 269 428 L269 402 L393 402 L393 269 L269 269 Q268 221 255 182.5 Q242 144 212 114 L387 114 Q394 114 396 116.5 Q398 119 400 127 L415 202 L545 202 L545 0 L32 0 L14 109 Q33 117 46.5 125.5 Q60 134 68.5 149.5 Q77 165 80.5 192 Q84 219 84 264 L84 269 L20 269 L20 402 Z " />
<glyph glyph-name="yen" unicode="&#xa5;" horiz-adv-x="651" d="M113 345 L192 345 L69 520 Q64 528 59 531.5 Q54 535 45 537 L0 548 L10 641 L333 641 L333 548 L273 539 L344 419 L355 419 L435 539 L376 548 L386 641 L651 641 L651 548 L609 537 Q600 535 593.5 531 Q587 527 584 518 L464 345 L550 345 L550 202 L424 202 L424 121 Q424 110 426.5 106.5 Q429 103 440 102 L550 94 L550 0 L113 0 L113 94 L216 101 Q227 102 229.5 106 Q232 110 232 121 L232 202 L113 202 L113 345 Z " />
<glyph glyph-name="florin" unicode="&#x192;" horiz-adv-x="612" d="M193 460 Q203 514 219 552 Q235 590 260 614 Q285 638 321 649 Q357 660 407 660 Q458 660 508 648.5 Q558 637 603 611 L578 454 L463 465 L462 524 Q461 529 459.5 532 Q458 535 451 537 Q443 539 435.5 540.5 Q428 542 417 542 Q393 542 380 527.5 Q367 513 361 479 L347 394 Q346 384 355 384 L470 384 L452 273 L326 273 L297 103 Q286 35 265.5 -8.5 Q245 -52 215 -77 Q185 -102 145 -111.5 Q105 -121 55 -121 Q30 -121 4.5 -116.5 Q-21 -112 -44.5 -104.5 Q-68 -97 -88 -87 Q-108 -77 -123 -65 L-74 46 Q-48 28 -17.5 16 Q13 4 39 4 Q57 4 71 6 Q85 8 95.5 17 Q106 26 114 44 Q122 62 128 93 L159 263 Q161 273 152 273 L63 273 L81 384 L180 384 L193 460 Z " />
<glyph glyph-name="percent" unicode="&#x25;" horiz-adv-x="902" d="M198 257 Q149 257 116 270.5 Q83 284 62.5 308 Q42 332 33.5 364 Q25 396 25 433 Q25 519 68 569.5 Q111 620 206 620 Q299 620 338.5 573 Q378 526 378 446 Q378 359 333.5 308 Q289 257 198 257 Z M177 -12 L552 620 L722 620 L348 -12 L177 -12 Z M203 352 Q223 352 233.5 371.5 Q244 391 244 442 Q244 488 234 506 Q224 524 203 524 Q183 524 172 506.5 Q161 489 161 441 Q161 391 171.5 371.5 Q182 352 203 352 Z M697 -12 Q648 -12 615 1.5 Q582 15 561.5 39 Q541 63 532.5 95 Q524 127 524 164 Q524 250 567 300.5 Q610 351 705 351 Q798 351 837.5 304 Q877 257 877 177 Q877 90 832.5 39 Q788 -12 697 -12 Z M702 83 Q722 83 732.5 102.5 Q743 122 743 173 Q743 219 733 237 Q723 255 702 255 Q682 255 671 237.5 Q660 220 660 172 Q660 122 670.5 102.5 Q681 83 702 83 Z " />
<glyph glyph-name="perthousand" unicode="&#x2030;" horiz-adv-x="1156" d="M182 295 Q139 295 109 306 Q79 317 60.5 337.5 Q42 358 33.5 387 Q25 416 25 453 Q25 538 67.5 579 Q110 620 189 620 Q270 620 308 579.5 Q346 539 346 462 Q346 381 303.5 338 Q261 295 182 295 Z M133 -12 L508 620 L678 620 L304 -12 L133 -12 Z M186 381 Q202 381 212 397.5 Q222 414 222 461 Q222 503 212.5 518 Q203 533 186 533 Q170 533 159.5 518.5 Q149 504 149 460 Q149 414 159 397.5 Q169 381 186 381 Z M624 -12 Q581 -12 551 -1 Q521 10 502.5 30.5 Q484 51 475.5 80 Q467 109 467 146 Q467 231 509.5 272 Q552 313 631 313 Q712 313 750 272.5 Q788 232 788 155 Q788 74 745.5 31 Q703 -12 624 -12 Z M628 74 Q644 74 654 90.5 Q664 107 664 154 Q664 196 654.5 211 Q645 226 628 226 Q612 226 601.5 211.5 Q591 197 591 153 Q591 107 601 90.5 Q611 74 628 74 Z M967 -12 Q924 -12 894 -1 Q864 10 845.5 30.5 Q827 51 818.5 80 Q810 109 810 146 Q810 231 852.5 272 Q895 313 974 313 Q1055 313 1093 272.5 Q1131 232 1131 155 Q1131 74 1088.5 31 Q1046 -12 967 -12 Z M971 74 Q987 74 997 90.5 Q1007 107 1007 154 Q1007 196 997.5 211 Q988 226 971 226 Q955 226 944.5 211.5 Q934 197 934 153 Q934 107 944 90.5 Q954 74 971 74 Z " />
<glyph glyph-name="afii61352" unicode="&#x2116;" horiz-adv-x="1145" d="M452 0 L241 385 L241 121 Q241 109 243.5 106 Q246 103 257 101 L324 93 L324 0 L25 0 L25 93 L88 100 Q99 102 101.5 105.5 Q104 109 104 120 L104 516 Q104 527 101.5 531 Q99 535 88 536 L25 543 L25 636 L303 636 L513 248 L513 514 Q513 525 510.5 529 Q508 533 497 534 L434 541 L434 636 L732 636 L732 541 L665 533 Q654 531 651.5 528 Q649 525 649 514 L649 0 L452 0 Z M897 205 Q845 205 808 218.5 Q771 232 748 255.5 Q725 279 714 312 Q703 345 703 384 Q703 468 752.5 518 Q802 568 904 568 Q956 568 992 555 Q1028 542 1051 518.5 Q1074 495 1084.5 463 Q1095 431 1095 392 Q1095 307 1047.5 256 Q1000 205 897 205 Z M900 296 Q910 296 918.5 300 Q927 304 933 314.5 Q939 325 942.5 343 Q946 361 946 389 Q946 441 933.5 458.5 Q921 476 902 476 Q892 476 883 472.5 Q874 469 867.5 459.5 Q861 450 857 432.5 Q853 415 853 388 Q853 333 866.5 314.5 Q880 296 900 296 Z M726 174 L1076 174 L1076 68 L726 68 L726 174 Z " />
<glyph glyph-name="currency" unicode="&#xa4;" horiz-adv-x="570" d="M459 -9 L374 76 Q327 50 263 50 Q230 50 201.5 57.5 Q173 65 150 77 Q129 56 104 31 Q79 6 65 -9 L-29 86 L60 175 Q40 224 40 279 Q40 304 45 329 Q50 354 61 377 L-26 464 L71 560 L153 478 Q203 507 269 507 Q338 507 384 481 L463 559 L556 465 L473 382 Q492 338 492 283 Q492 255 485.5 227 Q479 199 468 174 L556 87 L459 -9 Z M267 178 Q309 178 329.5 207.5 Q350 237 350 279 Q350 325 329 351 Q308 377 265 377 Q223 377 202.5 349.5 Q182 322 182 279 Q182 237 202 207.5 Q222 178 267 178 Z " />
<glyph glyph-name="Aacute" unicode="&#xc1;" horiz-adv-x="787" d="M429 0 L429 93 L510 102 L485 173 L256 173 L232 102 L310 93 L310 0 L0 0 L0 93 L45 104 Q54 106 60.5 110 Q67 114 70 123 L288 724 L502 724 L716 121 Q719 112 725 109 Q731 106 740 104 L787 93 L787 0 L429 0 Z M379 529 L369 529 L292 302 L451 302 L379 529 Z M318 767 L278 846 L495 964 L551 849 L318 767 Z " />
<glyph glyph-name="Abreve" unicode="&#x102;" horiz-adv-x="787" d="M429 0 L429 93 L510 102 L485 173 L256 173 L232 102 L310 93 L310 0 L0 0 L0 93 L45 104 Q54 106 60.5 110 Q67 114 70 123 L288 724 L502 724 L716 121 Q719 112 725 109 Q731 106 740 104 L787 93 L787 0 L429 0 Z M379 529 L369 529 L292 302 L451 302 L379 529 Z M570 921 Q552 854 512 818 Q472 782 395 782 Q318 782 277.5 818 Q237 854 220 921 L308 953 Q320 918 342.5 902.5 Q365 887 395 887 Q425 887 446 902.5 Q467 918 482 953 L570 921 Z " />
<glyph glyph-name="Acircumflex" unicode="&#xc2;" horiz-adv-x="787" d="M429 0 L429 93 L510 102 L485 173 L256 173 L232 102 L310 93 L310 0 L0 0 L0 93 L45 104 Q54 106 60.5 110 Q67 114 70 123 L288 724 L502 724 L716 121 Q719 112 725 109 Q731 106 740 104 L787 93 L787 0 L429 0 Z M379 529 L369 529 L292 302 L451 302 L379 529 Z M395 847 L277 767 L214 833 L337 950 L453 950 L576 833 L513 767 L395 847 Z " />
<glyph glyph-name="Adieresis" unicode="&#xc4;" horiz-adv-x="787" d="M429 0 L429 93 L510 102 L485 173 L256 173 L232 102 L310 93 L310 0 L0 0 L0 93 L45 104 Q54 106 60.5 110 Q67 114 70 123 L288 724 L502 724 L716 121 Q719 112 725 109 Q731 106 740 104 L787 93 L787 0 L429 0 Z M379 529 L369 529 L292 302 L451 302 L379 529 Z M368 859 Q368 823 346 801.5 Q324 780 288 780 Q252 780 229.5 801.5 Q207 823 207 859 Q207 895 229.5 916 Q252 937 288 937 Q324 937 346 916 Q368 895 368 859 Z M580 859 Q580 823 558 801.5 Q536 780 500 780 Q464 780 441.5 801.5 Q419 823 419 859 Q419 895 441.5 916 Q464 937 500 937 Q536 937 558 916 Q580 895 580 859 Z " />
<glyph glyph-name="AEacute" unicode="&#x1fc;" horiz-adv-x="989" d="M397 0 L397 93 Q413 95 428.5 96.5 Q444 98 460 100 Q471 101 473.5 105 Q476 109 476 120 L476 291 L299 291 L218 102 L298 93 L298 0 L0 0 L0 93 L42 104 Q50 106 56.5 110 Q63 114 68 125 L290 619 L216 630 L216 724 L937 724 L937 500 L801 505 L787 581 Q784 594 770 594 L658 594 L658 426 L873 426 L873 291 L658 291 L658 129 L792 129 Q800 129 803 130.5 Q806 132 808 140 L824 228 L959 228 L959 0 L397 0 Z M476 594 L422 594 L350 426 L476 426 L476 594 Z M492 767 L452 846 L669 964 L725 849 L492 767 Z " />
<glyph glyph-name="Agrave" unicode="&#xc0;" horiz-adv-x="787" d="M429 0 L429 93 L510 102 L485 173 L256 173 L232 102 L310 93 L310 0 L0 0 L0 93 L45 104 Q54 106 60.5 110 Q67 114 70 123 L288 724 L502 724 L716 121 Q719 112 725 109 Q731 106 740 104 L787 93 L787 0 L429 0 Z M379 529 L369 529 L292 302 L451 302 L379 529 Z M251 849 L307 964 L524 846 L484 767 L251 849 Z " />
<glyph glyph-name="Amacron" unicode="&#x100;" horiz-adv-x="787" d="M429 0 L429 93 L510 102 L485 173 L256 173 L232 102 L310 93 L310 0 L0 0 L0 93 L45 104 Q54 106 60.5 110 Q67 114 70 123 L288 724 L502 724 L716 121 Q719 112 725 109 Q731 106 740 104 L787 93 L787 0 L429 0 Z M379 529 L369 529 L292 302 L451 302 L379 529 Z M234 780 L234 898 L557 898 L557 780 L234 780 Z " />
<glyph glyph-name="Aogonek" unicode="&#x104;" horiz-adv-x="787" d="M704 -213 Q669 -230 633.5 -236.5 Q598 -243 571 -243 Q509 -243 482 -216 Q455 -189 455 -148 Q455 -124 464 -102.5 Q473 -81 486.5 -62 Q500 -43 517 -27.5 Q534 -12 551 0 L429 0 L429 93 L510 102 L485 173 L256 173 L232 102 L310 93 L310 0 L0 0 L0 93 L45 104 Q54 106 60.5 110 Q67 114 70 123 L288 724 L502 724 L716 121 Q719 112 725 109 Q731 106 740 104 L787 93 L787 0 L662 0 Q651 -10 639 -23 Q627 -36 616 -51 Q605 -66 598 -81 Q591 -96 591 -110 Q591 -123 596.5 -130.5 Q602 -138 618 -138 Q627 -138 642 -135.5 Q657 -133 673 -128 L704 -213 Z M379 529 L369 529 L292 302 L451 302 L379 529 Z " />
<glyph glyph-name="Aring" unicode="&#xc5;" horiz-adv-x="787" d="M429 0 L429 93 L510 102 L485 173 L256 173 L232 102 L310 93 L310 0 L0 0 L0 93 L45 104 Q54 106 60.5 110 Q67 114 70 123 L288 724 L502 724 L716 121 Q719 112 725 109 Q731 106 740 104 L787 93 L787 0 L429 0 Z M379 529 L369 529 L292 302 L451 302 L379 529 Z M510 840 Q510 789 476.5 764.5 Q443 740 392 740 Q340 740 306.5 763 Q273 786 273 837 Q273 864 282.5 883 Q292 902 308.5 914.5 Q325 927 346.5 933 Q368 939 392 939 Q441 939 475.5 915.5 Q510 892 510 840 Z M391 803 Q408 803 419.5 811.5 Q431 820 431 840 Q431 857 420 866.5 Q409 876 392 876 Q374 876 362.5 866.5 Q351 857 351 840 Q351 820 362 811.5 Q373 803 391 803 Z " />
<glyph glyph-name="Aringacute" unicode="&#x1fa;" horiz-adv-x="787" d="M523 794 Q523 753 501 726 L716 121 Q719 112 725 109 Q731 106 740 104 L787 93 L787 0 L429 0 L429 93 L510 102 L485 173 L256 173 L232 102 L310 93 L310 0 L0 0 L0 93 L45 104 Q54 106 60.5 110 Q67 114 70 123 L289 727 Q270 752 270 791 Q270 819 280.5 840 Q291 861 308 874 Q325 887 348 893.5 Q371 900 397 900 Q423 900 446 894 Q469 888 486 875 Q503 862 513 842 Q523 822 523 794 Z M308 912 L268 991 L485 1109 L541 994 L308 912 Z M379 529 L369 529 L292 302 L451 302 L379 529 Z M396 757 Q413 757 424.5 765.5 Q436 774 436 794 Q436 811 425 820.5 Q414 830 397 830 Q379 830 367.5 820.5 Q356 811 356 794 Q356 774 367 765.5 Q378 757 396 757 Z " />
<glyph glyph-name="Atilde" unicode="&#xc3;" horiz-adv-x="787" d="M429 0 L429 93 L510 102 L485 173 L256 173 L232 102 L310 93 L310 0 L0 0 L0 93 L45 104 Q54 106 60.5 110 Q67 114 70 123 L288 724 L502 724 L716 121 Q719 112 725 109 Q731 106 740 104 L787 93 L787 0 L429 0 Z M379 529 L369 529 L292 302 L451 302 L379 529 Z M560 846 Q545 816 529.5 798 Q514 780 486 780 Q457 780 422.5 789 Q388 798 330 812 Q325 813 320.5 812.5 Q316 812 312 808 L286 780 L212 823 L240 880 Q253 906 269.5 918.5 Q286 931 313 931 Q331 931 372 924 Q413 917 469 904 Q480 901 486 910 L502 936 L583 892 L560 846 Z " />
<glyph glyph-name="Cacute" unicode="&#x106;" horiz-adv-x="678" d="M633 45 Q610 31 580 20.5 Q550 10 516 3 Q482 -4 446.5 -8 Q411 -12 377 -12 Q283 -12 215.5 13.5 Q148 39 104.5 87.5 Q61 136 40.5 205.5 Q20 275 20 364 Q20 444 44 512.5 Q68 581 115.5 631 Q163 681 234.5 709 Q306 737 401 737 Q431 737 462.5 733 Q494 729 524.5 721.5 Q555 714 582.5 703.5 Q610 693 632 679 L632 461 L496 472 L480 572 Q477 586 464 589 Q448 592 431.5 594 Q415 596 397 596 Q315 596 267 539.5 Q219 483 219 364 Q219 241 265 183.5 Q311 126 390 126 Q409 126 430.5 128.5 Q452 131 466 134 Q477 136 480.5 139.5 Q484 143 486 156 L501 251 L633 251 L633 45 Z M304 767 L264 846 L481 964 L537 849 L304 767 Z " />
<glyph glyph-name="Ccaron" unicode="&#x10c;" horiz-adv-x="678" d="M633 45 Q610 31 580 20.5 Q550 10 516 3 Q482 -4 446.5 -8 Q411 -12 377 -12 Q283 -12 215.5 13.5 Q148 39 104.5 87.5 Q61 136 40.5 205.5 Q20 275 20 364 Q20 444 44 512.5 Q68 581 115.5 631 Q163 681 234.5 709 Q306 737 401 737 Q431 737 462.5 733 Q494 729 524.5 721.5 Q555 714 582.5 703.5 Q610 693 632 679 L632 461 L496 472 L480 572 Q477 586 464 589 Q448 592 431.5 594 Q415 596 397 596 Q315 596 267 539.5 Q219 483 219 364 Q219 241 265 183.5 Q311 126 390 126 Q409 126 430.5 128.5 Q452 131 466 134 Q477 136 480.5 139.5 Q484 143 486 156 L501 251 L633 251 L633 45 Z M439 780 L323 780 L200 897 L263 963 L381 883 L499 963 L562 897 L439 780 Z " />
<glyph glyph-name="Ccedilla" unicode="&#xc7;" horiz-adv-x="678" d="M283 -188 Q288 -189 293.5 -189 Q299 -189 304 -189 Q342 -189 356 -175 Q370 -161 370 -141 Q370 -118 351.5 -110.5 Q333 -103 307 -102 L319 -9 Q240 -2 183.5 27 Q127 56 90.5 103.5 Q54 151 37 217 Q20 283 20 364 Q20 444 44 512.5 Q68 581 115.5 631 Q163 681 234.5 709 Q306 737 401 737 Q431 737 462.5 733 Q494 729 524.5 721.5 Q555 714 582.5 703.5 Q610 693 632 679 L632 461 L496 472 L480 572 Q477 586 464 589 Q448 592 431.5 594 Q415 596 397 596 Q315 596 267 539.5 Q219 483 219 364 Q219 241 265 183.5 Q311 126 390 126 Q409 126 430.5 128.5 Q452 131 466 134 Q477 136 480.5 139.5 Q484 143 486 156 L501 251 L633 251 L633 45 Q612 33 585 23 Q558 13 527 6 Q496 -1 463.5 -5.5 Q431 -10 399 -11 L395 -46 Q408 -49 422.5 -55.5 Q437 -62 449 -73 Q461 -84 469 -100.5 Q477 -117 477 -140 Q477 -164 467.5 -187 Q458 -210 438.5 -228 Q419 -246 388.5 -257 Q358 -268 316 -268 Q309 -268 302 -268 Q295 -268 289 -267 Q282 -266 276 -265 L283 -188 Z " />
<glyph glyph-name="Ccircumflex" unicode="&#x108;" horiz-adv-x="678" d="M633 45 Q610 31 580 20.5 Q550 10 516 3 Q482 -4 446.5 -8 Q411 -12 377 -12 Q283 -12 215.5 13.5 Q148 39 104.5 87.5 Q61 136 40.5 205.5 Q20 275 20 364 Q20 444 44 512.5 Q68 581 115.5 631 Q163 681 234.5 709 Q306 737 401 737 Q431 737 462.5 733 Q494 729 524.5 721.5 Q555 714 582.5 703.5 Q610 693 632 679 L632 461 L496 472 L480 572 Q477 586 464 589 Q448 592 431.5 594 Q415 596 397 596 Q315 596 267 539.5 Q219 483 219 364 Q219 241 265 183.5 Q311 126 390 126 Q409 126 430.5 128.5 Q452 131 466 134 Q477 136 480.5 139.5 Q484 143 486 156 L501 251 L633 251 L633 45 Z M381 847 L263 767 L200 833 L323 950 L439 950 L562 833 L499 767 L381 847 Z " />
<glyph glyph-name="Cdotaccent" unicode="&#x10a;" horiz-adv-x="678" d="M633 45 Q610 31 580 20.5 Q550 10 516 3 Q482 -4 446.5 -8 Q411 -12 377 -12 Q283 -12 215.5 13.5 Q148 39 104.5 87.5 Q61 136 40.5 205.5 Q20 275 20 364 Q20 444 44 512.5 Q68 581 115.5 631 Q163 681 234.5 709 Q306 737 401 737 Q431 737 462.5 733 Q494 729 524.5 721.5 Q555 714 582.5 703.5 Q610 693 632 679 L632 461 L496 472 L480 572 Q477 586 464 589 Q448 592 431.5 594 Q415 596 397 596 Q315 596 267 539.5 Q219 483 219 364 Q219 241 265 183.5 Q311 126 390 126 Q409 126 430.5 128.5 Q452 131 466 134 Q477 136 480.5 139.5 Q484 143 486 156 L501 251 L633 251 L633 45 Z M488 886 Q488 835 460 807.5 Q432 780 381 780 Q330 780 302.5 807.5 Q275 835 275 886 Q275 937 302.5 963.5 Q330 990 381 990 Q432 990 460 963.5 Q488 937 488 886 Z " />
<glyph glyph-name="Dcaron" unicode="&#x10e;" horiz-adv-x="743" d="M25 0 L25 95 L88 102 Q99 103 101.5 107 Q104 111 104 122 L104 603 Q104 614 101.5 617.5 Q99 621 88 623 L25 630 L25 724 L364 724 Q458 724 526 699.5 Q594 675 637.5 629.5 Q681 584 702 519 Q723 454 723 373 Q723 290 700.5 221 Q678 152 632 103 Q586 54 515 27 Q444 0 347 0 L25 0 Z M322 129 Q385 129 425 147 Q465 165 488 197 Q511 229 519.5 272.5 Q528 316 528 367 Q528 427 517.5 470 Q507 513 483.5 540.5 Q460 568 421.5 581 Q383 594 328 594 L296 594 L296 129 L322 129 Z M392 780 L276 780 L153 897 L216 963 L334 883 L452 963 L515 897 L392 780 Z " />
<glyph glyph-name="Dcroat" unicode="&#x110;" horiz-adv-x="754" d="M36 0 L36 95 L99 102 Q110 103 112.5 107 Q115 111 115 122 L115 291 L49 291 L49 421 L115 421 L115 603 Q115 614 112.5 617.5 Q110 621 99 623 L36 630 L36 724 L375 724 Q469 724 537 699.5 Q605 675 648.5 629.5 Q692 584 713 519 Q734 454 734 373 Q734 290 711.5 221 Q689 152 643 103 Q597 54 526 27 Q455 0 358 0 L36 0 Z M333 129 Q396 129 436 147 Q476 165 499 197 Q522 229 530.5 272.5 Q539 316 539 367 Q539 427 528.5 470 Q518 513 494.5 540.5 Q471 568 432.5 581 Q394 594 339 594 L307 594 L307 421 L420 421 L420 291 L307 291 L307 129 L333 129 Z " />
<glyph glyph-name="Eacute" unicode="&#xc9;" horiz-adv-x="627" d="M25 0 L25 93 L88 100 Q99 102 101.5 105.5 Q104 109 104 120 L104 603 Q104 614 101.5 618 Q99 622 88 623 L25 630 L25 724 L575 724 L575 500 L439 505 L425 581 Q422 594 408 594 L296 594 L296 430 L511 430 L511 295 L296 295 L296 129 L430 129 Q438 129 441 130.5 Q444 132 446 140 L462 228 L597 228 L597 0 L25 0 Z M237 767 L197 846 L414 964 L470 849 L237 767 Z " />
<glyph glyph-name="Ebreve" unicode="&#x114;" horiz-adv-x="627" d="M25 0 L25 93 L88 100 Q99 102 101.5 105.5 Q104 109 104 120 L104 603 Q104 614 101.5 618 Q99 622 88 623 L25 630 L25 724 L575 724 L575 500 L439 505 L425 581 Q422 594 408 594 L296 594 L296 430 L511 430 L511 295 L296 295 L296 129 L430 129 Q438 129 441 130.5 Q444 132 446 140 L462 228 L597 228 L597 0 L25 0 Z M489 921 Q471 854 431 818 Q391 782 314 782 Q237 782 196.5 818 Q156 854 139 921 L227 953 Q239 918 261.5 902.5 Q284 887 314 887 Q344 887 365 902.5 Q386 918 401 953 L489 921 Z " />
<glyph glyph-name="Ecaron" unicode="&#x11a;" horiz-adv-x="627" d="M25 0 L25 93 L88 100 Q99 102 101.5 105.5 Q104 109 104 120 L104 603 Q104 614 101.5 618 Q99 622 88 623 L25 630 L25 724 L575 724 L575 500 L439 505 L425 581 Q422 594 408 594 L296 594 L296 430 L511 430 L511 295 L296 295 L296 129 L430 129 Q438 129 441 130.5 Q444 132 446 140 L462 228 L597 228 L597 0 L25 0 Z M372 780 L256 780 L133 897 L196 963 L314 883 L432 963 L495 897 L372 780 Z " />
<glyph glyph-name="Ecircumflex" unicode="&#xca;" horiz-adv-x="627" d="M25 0 L25 93 L88 100 Q99 102 101.5 105.5 Q104 109 104 120 L104 603 Q104 614 101.5 618 Q99 622 88 623 L25 630 L25 724 L575 724 L575 500 L439 505 L425 581 Q422 594 408 594 L296 594 L296 430 L511 430 L511 295 L296 295 L296 129 L430 129 Q438 129 441 130.5 Q444 132 446 140 L462 228 L597 228 L597 0 L25 0 Z M314 847 L196 767 L133 833 L256 950 L372 950 L495 833 L432 767 L314 847 Z " />
<glyph glyph-name="Edieresis" unicode="&#xcb;" horiz-adv-x="627" d="M25 0 L25 93 L88 100 Q99 102 101.5 105.5 Q104 109 104 120 L104 603 Q104 614 101.5 618 Q99 622 88 623 L25 630 L25 724 L575 724 L575 500 L439 505 L425 581 Q422 594 408 594 L296 594 L296 430 L511 430 L511 295 L296 295 L296 129 L430 129 Q438 129 441 130.5 Q444 132 446 140 L462 228 L597 228 L597 0 L25 0 Z M287 859 Q287 823 265 801.5 Q243 780 207 780 Q171 780 148.5 801.5 Q126 823 126 859 Q126 895 148.5 916 Q171 937 207 937 Q243 937 265 916 Q287 895 287 859 Z M499 859 Q499 823 477 801.5 Q455 780 419 780 Q383 780 360.5 801.5 Q338 823 338 859 Q338 895 360.5 916 Q383 937 419 937 Q455 937 477 916 Q499 895 499 859 Z " />
<glyph glyph-name="Edotaccent" unicode="&#x116;" horiz-adv-x="627" d="M25 0 L25 93 L88 100 Q99 102 101.5 105.5 Q104 109 104 120 L104 603 Q104 614 101.5 618 Q99 622 88 623 L25 630 L25 724 L575 724 L575 500 L439 505 L425 581 Q422 594 408 594 L296 594 L296 430 L511 430 L511 295 L296 295 L296 129 L430 129 Q438 129 441 130.5 Q444 132 446 140 L462 228 L597 228 L597 0 L25 0 Z M421 886 Q421 835 393 807.5 Q365 780 314 780 Q263 780 235.5 807.5 Q208 835 208 886 Q208 937 235.5 963.5 Q263 990 314 990 Q365 990 393 963.5 Q421 937 421 886 Z " />
<glyph glyph-name="Egrave" unicode="&#xc8;" horiz-adv-x="627" d="M25 0 L25 93 L88 100 Q99 102 101.5 105.5 Q104 109 104 120 L104 603 Q104 614 101.5 618 Q99 622 88 623 L25 630 L25 724 L575 724 L575 500 L439 505 L425 581 Q422 594 408 594 L296 594 L296 430 L511 430 L511 295 L296 295 L296 129 L430 129 Q438 129 441 130.5 Q444 132 446 140 L462 228 L597 228 L597 0 L25 0 Z M170 849 L226 964 L443 846 L403 767 L170 849 Z " />
<glyph glyph-name="Emacron" unicode="&#x112;" horiz-adv-x="627" d="M25 0 L25 93 L88 100 Q99 102 101.5 105.5 Q104 109 104 120 L104 603 Q104 614 101.5 618 Q99 622 88 623 L25 630 L25 724 L575 724 L575 500 L439 505 L425 581 Q422 594 408 594 L296 594 L296 430 L511 430 L511 295 L296 295 L296 129 L430 129 Q438 129 441 130.5 Q444 132 446 140 L462 228 L597 228 L597 0 L25 0 Z M153 780 L153 898 L476 898 L476 780 L153 780 Z " />
<glyph glyph-name="Eogonek" unicode="&#x118;" horiz-adv-x="627" d="M597 0 Q575 -11 553.5 -24 Q532 -37 515.5 -51.5 Q499 -66 488.5 -81 Q478 -96 478 -110 Q478 -123 483.5 -130.5 Q489 -138 505 -138 Q514 -138 529 -135.5 Q544 -133 560 -128 L591 -213 Q556 -230 520.5 -236.5 Q485 -243 458 -243 Q396 -243 369 -216 Q342 -189 342 -148 Q342 -124 353 -102 Q364 -80 381 -61.5 Q398 -43 418.5 -27.5 Q439 -12 459 0 L25 0 L25 93 L88 100 Q99 102 101.5 105.5 Q104 109 104 120 L104 603 Q104 614 101.5 618 Q99 622 88 623 L25 630 L25 724 L575 724 L575 500 L439 505 L425 581 Q422 594 408 594 L296 594 L296 430 L511 430 L511 295 L296 295 L296 129 L430 129 Q438 129 441 130.5 Q444 132 446 140 L462 228 L597 228 L597 0 L597 0 Z " />
<glyph glyph-name="Gbreve" unicode="&#x11e;" horiz-adv-x="726" d="M671 258 Q655 257 655 244 L655 40 Q591 10 519 -1 Q447 -12 384 -12 Q281 -12 211 16.5 Q141 45 98.5 95 Q56 145 37.5 213.5 Q19 282 19 362 Q19 443 42.5 511.5 Q66 580 114 630 Q162 680 234 708.5 Q306 737 403 737 Q427 737 456.5 734 Q486 731 516.5 723.5 Q547 716 577 704.5 Q607 693 632 677 L632 469 L495 480 L480 568 Q478 580 474 583.5 Q470 587 464 589 Q449 592 429.5 594 Q410 596 394 596 Q352 596 319.5 579.5 Q287 563 264.5 533 Q242 503 230.5 460.5 Q219 418 219 366 Q219 311 229 267 Q239 223 260 192 Q281 161 314 144 Q347 127 393 127 Q421 127 447 130 Q457 132 460.5 135 Q464 138 464 148 L464 252 L368 252 L384 357 L711 357 L711 262 L671 258 Z M556 921 Q538 854 498 818 Q458 782 381 782 Q304 782 263.5 818 Q223 854 206 921 L294 953 Q306 918 328.5 902.5 Q351 887 381 887 Q411 887 432 902.5 Q453 918 468 953 L556 921 Z " />
<glyph glyph-name="Gcircumflex" unicode="&#x11c;" horiz-adv-x="726" d="M671 258 Q655 257 655 244 L655 40 Q591 10 519 -1 Q447 -12 384 -12 Q281 -12 211 16.5 Q141 45 98.5 95 Q56 145 37.5 213.5 Q19 282 19 362 Q19 443 42.5 511.5 Q66 580 114 630 Q162 680 234 708.5 Q306 737 403 737 Q427 737 456.5 734 Q486 731 516.5 723.5 Q547 716 577 704.5 Q607 693 632 677 L632 469 L495 480 L480 568 Q478 580 474 583.5 Q470 587 464 589 Q449 592 429.5 594 Q410 596 394 596 Q352 596 319.5 579.5 Q287 563 264.5 533 Q242 503 230.5 460.5 Q219 418 219 366 Q219 311 229 267 Q239 223 260 192 Q281 161 314 144 Q347 127 393 127 Q421 127 447 130 Q457 132 460.5 135 Q464 138 464 148 L464 252 L368 252 L384 357 L711 357 L711 262 L671 258 Z M381 847 L263 767 L200 833 L323 950 L439 950 L562 833 L499 767 L381 847 Z " />
<glyph glyph-name="Gcommaaccent" unicode="&#x122;" horiz-adv-x="726" d="M671 258 Q655 257 655 244 L655 40 Q591 10 519 -1 Q447 -12 384 -12 Q281 -12 211 16.5 Q141 45 98.5 95 Q56 145 37.5 213.5 Q19 282 19 362 Q19 443 42.5 511.5 Q66 580 114 630 Q162 680 234 708.5 Q306 737 403 737 Q427 737 456.5 734 Q486 731 516.5 723.5 Q547 716 577 704.5 Q607 693 632 677 L632 469 L495 480 L480 568 Q478 580 474 583.5 Q470 587 464 589 Q449 592 429.5 594 Q410 596 394 596 Q352 596 319.5 579.5 Q287 563 264.5 533 Q242 503 230.5 460.5 Q219 418 219 366 Q219 311 229 267 Q239 223 260 192 Q281 161 314 144 Q347 127 393 127 Q421 127 447 130 Q457 132 460.5 135 Q464 138 464 148 L464 252 L368 252 L384 357 L711 357 L711 262 L671 258 Z M322 -277 L342 -176 Q345 -166 337 -163 L295 -151 L315 -42 Q345 -42 372 -44.5 Q399 -47 419.5 -55 Q440 -63 452 -79.5 Q464 -96 464 -123 Q464 -140 458 -158.5 Q452 -177 443 -197 L397 -298 L322 -277 Z " />
<glyph glyph-name="Gdotaccent" unicode="&#x120;" horiz-adv-x="726" d="M671 258 Q655 257 655 244 L655 40 Q591 10 519 -1 Q447 -12 384 -12 Q281 -12 211 16.5 Q141 45 98.5 95 Q56 145 37.5 213.5 Q19 282 19 362 Q19 443 42.5 511.5 Q66 580 114 630 Q162 680 234 708.5 Q306 737 403 737 Q427 737 456.5 734 Q486 731 516.5 723.5 Q547 716 577 704.5 Q607 693 632 677 L632 469 L495 480 L480 568 Q478 580 474 583.5 Q470 587 464 589 Q449 592 429.5 594 Q410 596 394 596 Q352 596 319.5 579.5 Q287 563 264.5 533 Q242 503 230.5 460.5 Q219 418 219 366 Q219 311 229 267 Q239 223 260 192 Q281 161 314 144 Q347 127 393 127 Q421 127 447 130 Q457 132 460.5 135 Q464 138 464 148 L464 252 L368 252 L384 357 L711 357 L711 262 L671 258 Z M488 886 Q488 835 460 807.5 Q432 780 381 780 Q330 780 302.5 807.5 Q275 835 275 886 Q275 937 302.5 963.5 Q330 990 381 990 Q432 990 460 963.5 Q488 937 488 886 Z " />
<glyph glyph-name="Hbar" unicode="&#x126;" horiz-adv-x="846" d="M731 462 L731 121 Q731 109 733.5 106 Q736 103 747 101 L814 93 L814 0 L460 0 L460 93 L523 100 Q534 102 536.5 105.5 Q539 109 539 120 L539 303 L307 303 L307 121 Q307 109 309.5 106 Q312 103 323 101 L390 93 L390 0 L36 0 L36 93 L99 100 Q110 102 112.5 105.5 Q115 109 115 120 L115 462 L56 462 L56 584 L115 584 L115 602 Q115 613 112.5 617 Q110 621 99 622 L36 629 L36 724 L390 724 L390 629 L323 621 Q312 619 309.5 616 Q307 613 307 602 L307 576 L539 576 L539 602 Q539 613 536.5 617 Q534 621 523 622 L460 629 L460 724 L814 724 L814 629 L747 621 Q736 619 733.5 616 Q731 613 731 602 L731 584 L792 584 L792 462 L731 462 Z M539 439 L539 489 L307 489 L307 439 L539 439 Z " />
<glyph glyph-name="Hcircumflex" unicode="&#x124;" horiz-adv-x="824" d="M449 0 L449 93 L512 100 Q523 102 525.5 105.5 Q528 109 528 120 L528 303 L296 303 L296 121 Q296 109 298.5 106 Q301 103 312 101 L379 93 L379 0 L25 0 L25 93 L88 100 Q99 102 101.5 105.5 Q104 109 104 120 L104 602 Q104 613 101.5 617 Q99 621 88 622 L25 629 L25 724 L379 724 L379 629 L312 621 Q301 619 298.5 616 Q296 613 296 602 L296 439 L528 439 L528 602 Q528 613 525.5 617 Q523 621 512 622 L449 629 L449 724 L803 724 L803 629 L736 621 Q725 619 722.5 616 Q720 613 720 602 L720 121 Q720 109 722.5 106 Q725 103 736 101 L803 93 L803 0 L449 0 Z M416 847 L298 767 L235 833 L358 950 L474 950 L597 833 L534 767 L416 847 Z " />
<glyph glyph-name="Iacute" unicode="&#xcd;" horiz-adv-x="412" d="M21 0 L21 93 L94 100 Q105 101 107.5 105 Q110 109 110 120 L110 602 Q110 613 107.5 617 Q105 621 94 622 L21 629 L21 724 L395 724 L395 629 L318 621 Q307 619 304.5 616 Q302 613 302 602 L302 121 Q302 109 304.5 106 Q307 103 318 101 L395 93 L395 0 L21 0 Z M132 767 L92 846 L309 964 L365 849 L132 767 Z " />
<glyph glyph-name="Ibreve" unicode="&#x12c;" horiz-adv-x="412" d="M21 0 L21 93 L94 100 Q105 101 107.5 105 Q110 109 110 120 L110 602 Q110 613 107.5 617 Q105 621 94 622 L21 629 L21 724 L395 724 L395 629 L318 621 Q307 619 304.5 616 Q302 613 302 602 L302 121 Q302 109 304.5 106 Q307 103 318 101 L395 93 L395 0 L21 0 Z M384 921 Q366 854 326 818 Q286 782 209 782 Q132 782 91.5 818 Q51 854 34 921 L122 953 Q134 918 156.5 902.5 Q179 887 209 887 Q239 887 260 902.5 Q281 918 296 953 L384 921 Z " />
<glyph glyph-name="Icircumflex" unicode="&#xce;" horiz-adv-x="412" d="M21 0 L21 93 L94 100 Q105 101 107.5 105 Q110 109 110 120 L110 602 Q110 613 107.5 617 Q105 621 94 622 L21 629 L21 724 L395 724 L395 629 L318 621 Q307 619 304.5 616 Q302 613 302 602 L302 121 Q302 109 304.5 106 Q307 103 318 101 L395 93 L395 0 L21 0 Z M209 847 L91 767 L28 833 L151 950 L267 950 L390 833 L327 767 L209 847 Z " />
<glyph glyph-name="Idieresis" unicode="&#xcf;" horiz-adv-x="412" d="M21 0 L21 93 L94 100 Q105 101 107.5 105 Q110 109 110 120 L110 602 Q110 613 107.5 617 Q105 621 94 622 L21 629 L21 724 L395 724 L395 629 L318 621 Q307 619 304.5 616 Q302 613 302 602 L302 121 Q302 109 304.5 106 Q307 103 318 101 L395 93 L395 0 L21 0 Z M182 859 Q182 823 160 801.5 Q138 780 102 780 Q66 780 43.5 801.5 Q21 823 21 859 Q21 895 43.5 916 Q66 937 102 937 Q138 937 160 916 Q182 895 182 859 Z M394 859 Q394 823 372 801.5 Q350 780 314 780 Q278 780 255.5 801.5 Q233 823 233 859 Q233 895 255.5 916 Q278 937 314 937 Q350 937 372 916 Q394 895 394 859 Z " />
<glyph glyph-name="Idotaccent" unicode="&#x130;" horiz-adv-x="412" d="M21 0 L21 93 L94 100 Q105 101 107.5 105 Q110 109 110 120 L110 602 Q110 613 107.5 617 Q105 621 94 622 L21 629 L21 724 L395 724 L395 629 L318 621 Q307 619 304.5 616 Q302 613 302 602 L302 121 Q302 109 304.5 106 Q307 103 318 101 L395 93 L395 0 L21 0 Z M316 886 Q316 835 288 807.5 Q260 780 209 780 Q158 780 130.5 807.5 Q103 835 103 886 Q103 937 130.5 963.5 Q158 990 209 990 Q260 990 288 963.5 Q316 937 316 886 Z " />
<glyph glyph-name="Igrave" unicode="&#xcc;" horiz-adv-x="412" d="M21 0 L21 93 L94 100 Q105 101 107.5 105 Q110 109 110 120 L110 602 Q110 613 107.5 617 Q105 621 94 622 L21 629 L21 724 L395 724 L395 629 L318 621 Q307 619 304.5 616 Q302 613 302 602 L302 121 Q302 109 304.5 106 Q307 103 318 101 L395 93 L395 0 L21 0 Z M65 849 L121 964 L338 846 L298 767 L65 849 Z " />
<glyph glyph-name="Imacron" unicode="&#x12a;" horiz-adv-x="412" d="M21 0 L21 93 L94 100 Q105 101 107.5 105 Q110 109 110 120 L110 602 Q110 613 107.5 617 Q105 621 94 622 L21 629 L21 724 L395 724 L395 629 L318 621 Q307 619 304.5 616 Q302 613 302 602 L302 121 Q302 109 304.5 106 Q307 103 318 101 L395 93 L395 0 L21 0 Z M48 780 L48 898 L371 898 L371 780 L48 780 Z " />
<glyph glyph-name="Iogonek" unicode="&#x12e;" horiz-adv-x="412" d="M320 -213 Q285 -230 249.5 -236.5 Q214 -243 187 -243 Q125 -243 98 -216 Q71 -189 71 -148 Q71 -124 80 -102.5 Q89 -81 102.5 -62 Q116 -43 133 -27.5 Q150 -12 167 0 L21 0 L21 93 L94 100 Q105 101 107.5 105 Q110 109 110 120 L110 602 Q110 613 107.5 617 Q105 621 94 622 L21 629 L21 724 L395 724 L395 629 L318 621 Q307 619 304.5 616 Q302 613 302 602 L302 121 Q302 109 304.5 106 Q307 103 318 101 L395 93 L395 0 L278 0 Q267 -10 255 -23 Q243 -36 232 -51 Q221 -66 214 -81 Q207 -96 207 -110 Q207 -123 212.5 -130.5 Q218 -138 234 -138 Q243 -138 258 -135.5 Q273 -133 289 -128 L320 -213 Z " />
<glyph glyph-name="Itilde" unicode="&#x128;" horiz-adv-x="412" d="M21 0 L21 93 L94 100 Q105 101 107.5 105 Q110 109 110 120 L110 602 Q110 613 107.5 617 Q105 621 94 622 L21 629 L21 724 L395 724 L395 629 L318 621 Q307 619 304.5 616 Q302 613 302 602 L302 121 Q302 109 304.5 106 Q307 103 318 101 L395 93 L395 0 L21 0 Z M374 846 Q359 816 343.5 798 Q328 780 300 780 Q271 780 236.5 789 Q202 798 144 812 Q139 813 134.5 812.5 Q130 812 126 808 L100 780 L26 823 L54 880 Q67 906 83.5 918.5 Q100 931 127 931 Q145 931 186 924 Q227 917 283 904 Q294 901 300 910 L316 936 L397 892 L374 846 Z " />
<glyph glyph-name="Jcircumflex" unicode="&#x134;" horiz-adv-x="524" d="M238 603 Q238 613 235 616.5 Q232 620 222 621 L129 629 L129 724 L513 724 L513 629 L446 621 Q435 619 432.5 616 Q430 613 430 602 L430 172 Q430 78 382.5 33 Q335 -12 228 -12 Q197 -12 165 -8.5 Q133 -5 105 1 Q77 7 55 14 Q33 21 21 29 L21 231 L158 221 L169 148 Q170 137 179 136 Q182 135 190.5 134 Q199 133 207 133 Q224 133 231 140.5 Q238 148 238 170 L238 603 Z M331 847 L213 767 L150 833 L273 950 L389 950 L512 833 L449 767 L331 847 Z " />
<glyph glyph-name="Kcommaaccent" unicode="&#x136;" horiz-adv-x="763" d="M500 0 L350 263 L296 197 L296 122 Q296 110 298.5 107 Q301 104 312 102 L384 94 L384 0 L25 0 L25 94 L88 101 Q99 102 101.5 106 Q104 110 104 121 L104 603 Q104 614 101.5 617.5 Q99 621 88 623 L25 630 L25 724 L379 724 L379 630 L312 622 Q301 620 298.5 617 Q296 614 296 603 L296 375 L507 621 L445 629 L445 724 L729 724 L729 629 L692 623 Q678 621 673 617.5 Q668 614 661 606 L497 413 L669 124 Q675 113 682 109.5 Q689 106 700 104 L763 94 L763 0 L500 0 Z M325 -277 L345 -176 Q348 -166 340 -163 L298 -151 L318 -42 Q348 -42 375 -44.5 Q402 -47 422.5 -55 Q443 -63 455 -79.5 Q467 -96 467 -123 Q467 -140 461 -158.5 Q455 -177 446 -197 L400 -298 L325 -277 Z " />
<glyph glyph-name="Lacute" unicode="&#x139;" horiz-adv-x="627" d="M25 0 L25 94 L88 101 Q99 103 101.5 106.5 Q104 110 104 121 L104 603 Q104 614 101.5 618 Q99 622 88 623 L25 630 L25 724 L395 724 L395 630 L312 622 Q301 621 298.5 617.5 Q296 614 296 603 L296 129 L429 129 Q437 129 440 130.5 Q443 132 445 140 L461 246 L597 246 L597 0 L25 0 Z M123 767 L83 846 L300 964 L356 849 L123 767 Z " />
<glyph glyph-name="Lcaron" unicode="&#x13d;" horiz-adv-x="627" d="M25 0 L25 94 L88 101 Q99 103 101.5 106.5 Q104 110 104 121 L104 603 Q104 614 101.5 618 Q99 622 88 623 L25 630 L25 724 L395 724 L395 630 L312 622 Q301 621 298.5 617.5 Q296 614 296 603 L296 129 L429 129 Q437 129 440 130.5 Q443 132 445 140 L461 246 L597 246 L597 0 L25 0 Z M437 518 Q447 551 453.5 583 Q460 615 460 646 Q460 668 456.5 683 Q453 698 448 706 L571 748 Q580 734 584.5 715.5 Q589 697 589 679 Q589 657 583 635 Q580 623 573 605 Q566 587 557.5 567 Q549 547 540 527.5 Q531 508 524 493 L437 518 Z " />
<glyph glyph-name="Lcommaaccent" unicode="&#x13b;" horiz-adv-x="627" d="M25 0 L25 94 L88 101 Q99 103 101.5 106.5 Q104 110 104 121 L104 603 Q104 614 101.5 618 Q99 622 88 623 L25 630 L25 724 L395 724 L395 630 L312 622 Q301 621 298.5 617.5 Q296 614 296 603 L296 129 L429 129 Q437 129 440 130.5 Q443 132 445 140 L461 246 L597 246 L597 0 L25 0 Z M263 -277 L283 -176 Q286 -166 278 -163 L236 -151 L256 -42 Q286 -42 313 -44.5 Q340 -47 360.5 -55 Q381 -63 393 -79.5 Q405 -96 405 -123 Q405 -140 399 -158.5 Q393 -177 384 -197 L338 -298 L263 -277 Z " />
<glyph glyph-name="Ldot" unicode="&#x13f;" horiz-adv-x="627" d="M25 0 L25 94 L88 101 Q99 103 101.5 106.5 Q104 110 104 121 L104 603 Q104 614 101.5 618 Q99 622 88 623 L25 630 L25 724 L395 724 L395 630 L312 622 Q301 621 298.5 617.5 Q296 614 296 603 L296 129 L429 129 Q437 129 440 130.5 Q443 132 445 140 L461 246 L597 246 L597 0 L25 0 Z M608.21 416.166 Q608.21 368.322 581.919 342.524 Q555.628 316.726 507.741 316.726 Q459.854 316.726 434.032 342.524 Q408.211 368.322 408.211 416.166 Q408.211 464.009 434.032 488.869 Q459.854 513.729 507.741 513.729 Q555.628 513.729 581.919 488.869 Q608.21 464.009 608.21 416.166 Z " />
<glyph glyph-name="Lslash" unicode="&#x141;" horiz-adv-x="627" d="M25 0 L25 94 L88 101 Q99 103 101.5 106.5 Q104 110 104 121 L104 236 L35 209 L35 343 L104 371 L104 603 Q104 614 101.5 618 Q99 622 88 623 L25 630 L25 724 L395 724 L395 630 L312 622 Q301 621 298.5 617.5 Q296 614 296 603 L296 448 L467 517 L467 381 L296 313 L296 129 L429 129 Q437 129 440 130.5 Q443 132 445 140 L461 246 L597 246 L597 0 L25 0 Z " />
<glyph glyph-name="Nacute" unicode="&#x143;" horiz-adv-x="833" d="M532 0 L241 473 L241 121 Q241 109 243.5 106 Q246 103 257 101 L324 93 L324 0 L25 0 L25 93 L88 100 Q99 102 101.5 105.5 Q104 109 104 120 L104 604 Q104 615 101.5 619 Q99 623 88 624 L25 631 L25 724 L303 724 L593 248 L593 602 Q593 613 590.5 617 Q588 621 577 622 L514 629 L514 724 L812 724 L812 629 L745 621 Q734 619 731.5 616 Q729 613 729 602 L729 0 L532 0 Z M327 767 L287 846 L504 964 L560 849 L327 767 Z " />
<glyph glyph-name="Ncaron" unicode="&#x147;" horiz-adv-x="833" d="M532 0 L241 473 L241 121 Q241 109 243.5 106 Q246 103 257 101 L324 93 L324 0 L25 0 L25 93 L88 100 Q99 102 101.5 105.5 Q104 109 104 120 L104 604 Q104 615 101.5 619 Q99 623 88 624 L25 631 L25 724 L303 724 L593 248 L593 602 Q593 613 590.5 617 Q588 621 577 622 L514 629 L514 724 L812 724 L812 629 L745 621 Q734 619 731.5 616 Q729 613 729 602 L729 0 L532 0 Z M462 780 L346 780 L223 897 L286 963 L404 883 L522 963 L585 897 L462 780 Z " />
<glyph glyph-name="Ncommaaccent" unicode="&#x145;" horiz-adv-x="833" d="M532 0 L241 473 L241 121 Q241 109 243.5 106 Q246 103 257 101 L324 93 L324 0 L25 0 L25 93 L88 100 Q99 102 101.5 105.5 Q104 109 104 120 L104 604 Q104 615 101.5 619 Q99 623 88 624 L25 631 L25 724 L303 724 L593 248 L593 602 Q593 613 590.5 617 Q588 621 577 622 L514 629 L514 724 L812 724 L812 629 L745 621 Q734 619 731.5 616 Q729 613 729 602 L729 0 L532 0 Z M348 -277 L368 -176 Q371 -166 363 -163 L321 -151 L341 -42 Q371 -42 398 -44.5 Q425 -47 445.5 -55 Q466 -63 478 -79.5 Q490 -96 490 -123 Q490 -140 484 -158.5 Q478 -177 469 -197 L423 -298 L348 -277 Z " />
<glyph glyph-name="Ntilde" unicode="&#xd1;" horiz-adv-x="833" d="M532 0 L241 473 L241 121 Q241 109 243.5 106 Q246 103 257 101 L324 93 L324 0 L25 0 L25 93 L88 100 Q99 102 101.5 105.5 Q104 109 104 120 L104 604 Q104 615 101.5 619 Q99 623 88 624 L25 631 L25 724 L303 724 L593 248 L593 602 Q593 613 590.5 617 Q588 621 577 622 L514 629 L514 724 L812 724 L812 629 L745 621 Q734 619 731.5 616 Q729 613 729 602 L729 0 L532 0 Z M569 846 Q554 816 538.5 798 Q523 780 495 780 Q466 780 431.5 789 Q397 798 339 812 Q334 813 329.5 812.5 Q325 812 321 808 L295 780 L221 823 L249 880 Q262 906 278.5 918.5 Q295 931 322 931 Q340 931 381 924 Q422 917 478 904 Q489 901 495 910 L511 936 L592 892 L569 846 Z " />
<glyph glyph-name="Oacute" unicode="&#xd3;" horiz-adv-x="750" d="M370 -12 Q277 -12 211 15.5 Q145 43 102.5 92 Q60 141 40.5 208.5 Q21 276 21 357 Q21 438 43.5 507.5 Q66 577 111.5 628 Q157 679 225 708 Q293 737 384 737 Q475 737 540.5 708 Q606 679 648 629.5 Q690 580 710 513 Q730 446 730 371 Q730 283 708 212.5 Q686 142 641.5 92 Q597 42 529 15 Q461 -12 370 -12 Z M378 138 Q412 138 440.5 149 Q469 160 489.5 186 Q510 212 521.5 255 Q533 298 533 362 Q533 483 493 535 Q453 587 383 587 Q347 587 317 574.5 Q287 562 265 534.5 Q243 507 231 464 Q219 421 219 361 Q219 298 230.5 255.5 Q242 213 262.5 187 Q283 161 312.5 149.5 Q342 138 378 138 Z M306 773 L266 852 L483 970 L539 855 L306 773 Z " />
<glyph glyph-name="Obreve" unicode="&#x14e;" horiz-adv-x="750" d="M370 -12 Q277 -12 211 15.5 Q145 43 102.5 92 Q60 141 40.5 208.5 Q21 276 21 357 Q21 438 43.5 507.5 Q66 577 111.5 628 Q157 679 225 708 Q293 737 384 737 Q475 737 540.5 708 Q606 679 648 629.5 Q690 580 710 513 Q730 446 730 371 Q730 283 708 212.5 Q686 142 641.5 92 Q597 42 529 15 Q461 -12 370 -12 Z M378 138 Q412 138 440.5 149 Q469 160 489.5 186 Q510 212 521.5 255 Q533 298 533 362 Q533 483 493 535 Q453 587 383 587 Q347 587 317 574.5 Q287 562 265 534.5 Q243 507 231 464 Q219 421 219 361 Q219 298 230.5 255.5 Q242 213 262.5 187 Q283 161 312.5 149.5 Q342 138 378 138 Z M558 927 Q540 860 500 824 Q460 788 383 788 Q306 788 265.5 824 Q225 860 208 927 L296 959 Q308 924 330.5 908.5 Q353 893 383 893 Q413 893 434 908.5 Q455 924 470 959 L558 927 Z " />
<glyph glyph-name="Ocircumflex" unicode="&#xd4;" horiz-adv-x="750" d="M370 -12 Q277 -12 211 15.5 Q145 43 102.5 92 Q60 141 40.5 208.5 Q21 276 21 357 Q21 438 43.5 507.5 Q66 577 111.5 628 Q157 679 225 708 Q293 737 384 737 Q475 737 540.5 708 Q606 679 648 629.5 Q690 580 710 513 Q730 446 730 371 Q730 283 708 212.5 Q686 142 641.5 92 Q597 42 529 15 Q461 -12 370 -12 Z M378 138 Q412 138 440.5 149 Q469 160 489.5 186 Q510 212 521.5 255 Q533 298 533 362 Q533 483 493 535 Q453 587 383 587 Q347 587 317 574.5 Q287 562 265 534.5 Q243 507 231 464 Q219 421 219 361 Q219 298 230.5 255.5 Q242 213 262.5 187 Q283 161 312.5 149.5 Q342 138 378 138 Z M383 853 L265 773 L202 839 L325 956 L441 956 L564 839 L501 773 L383 853 Z " />
<glyph glyph-name="Odieresis" unicode="&#xd6;" horiz-adv-x="750" d="M370 -12 Q277 -12 211 15.5 Q145 43 102.5 92 Q60 141 40.5 208.5 Q21 276 21 357 Q21 438 43.5 507.5 Q66 577 111.5 628 Q157 679 225 708 Q293 737 384 737 Q475 737 540.5 708 Q606 679 648 629.5 Q690 580 710 513 Q730 446 730 371 Q730 283 708 212.5 Q686 142 641.5 92 Q597 42 529 15 Q461 -12 370 -12 Z M378 138 Q412 138 440.5 149 Q469 160 489.5 186 Q510 212 521.5 255 Q533 298 533 362 Q533 483 493 535 Q453 587 383 587 Q347 587 317 574.5 Q287 562 265 534.5 Q243 507 231 464 Q219 421 219 361 Q219 298 230.5 255.5 Q242 213 262.5 187 Q283 161 312.5 149.5 Q342 138 378 138 Z M356 865 Q356 829 334 807.5 Q312 786 276 786 Q240 786 217.5 807.5 Q195 829 195 865 Q195 901 217.5 922 Q240 943 276 943 Q312 943 334 922 Q356 901 356 865 Z M568 865 Q568 829 546 807.5 Q524 786 488 786 Q452 786 429.5 807.5 Q407 829 407 865 Q407 901 429.5 922 Q452 943 488 943 Q524 943 546 922 Q568 901 568 865 Z " />
<glyph glyph-name="Ograve" unicode="&#xd2;" horiz-adv-x="750" d="M370 -12 Q277 -12 211 15.5 Q145 43 102.5 92 Q60 141 40.5 208.5 Q21 276 21 357 Q21 438 43.5 507.5 Q66 577 111.5 628 Q157 679 225 708 Q293 737 384 737 Q475 737 540.5 708 Q606 679 648 629.5 Q690 580 710 513 Q730 446 730 371 Q730 283 708 212.5 Q686 142 641.5 92 Q597 42 529 15 Q461 -12 370 -12 Z M378 138 Q412 138 440.5 149 Q469 160 489.5 186 Q510 212 521.5 255 Q533 298 533 362 Q533 483 493 535 Q453 587 383 587 Q347 587 317 574.5 Q287 562 265 534.5 Q243 507 231 464 Q219 421 219 361 Q219 298 230.5 255.5 Q242 213 262.5 187 Q283 161 312.5 149.5 Q342 138 378 138 Z M239 855 L295 970 L512 852 L472 773 L239 855 Z " />
<glyph glyph-name="Ohungarumlaut" unicode="&#x150;" horiz-adv-x="750" d="M370 -12 Q277 -12 211 15.5 Q145 43 102.5 92 Q60 141 40.5 208.5 Q21 276 21 357 Q21 438 43.5 507.5 Q66 577 111.5 628 Q157 679 225 708 Q293 737 384 737 Q475 737 540.5 708 Q606 679 648 629.5 Q690 580 710 513 Q730 446 730 371 Q730 283 708 212.5 Q686 142 641.5 92 Q597 42 529 15 Q461 -12 370 -12 Z M378 138 Q412 138 440.5 149 Q469 160 489.5 186 Q510 212 521.5 255 Q533 298 533 362 Q533 483 493 535 Q453 587 383 587 Q347 587 317 574.5 Q287 562 265 534.5 Q243 507 231 464 Q219 421 219 361 Q219 298 230.5 255.5 Q242 213 262.5 187 Q283 161 312.5 149.5 Q342 138 378 138 Z M262 773 L201 834 L357 1006 L440 921 L262 773 Z M451 773 L403 831 L573 988 L648 899 L451 773 Z " />
<glyph glyph-name="Omacron" unicode="&#x14c;" horiz-adv-x="750" d="M370 -12 Q277 -12 211 15.5 Q145 43 102.5 92 Q60 141 40.5 208.5 Q21 276 21 357 Q21 438 43.5 507.5 Q66 577 111.5 628 Q157 679 225 708 Q293 737 384 737 Q475 737 540.5 708 Q606 679 648 629.5 Q690 580 710 513 Q730 446 730 371 Q730 283 708 212.5 Q686 142 641.5 92 Q597 42 529 15 Q461 -12 370 -12 Z M378 138 Q412 138 440.5 149 Q469 160 489.5 186 Q510 212 521.5 255 Q533 298 533 362 Q533 483 493 535 Q453 587 383 587 Q347 587 317 574.5 Q287 562 265 534.5 Q243 507 231 464 Q219 421 219 361 Q219 298 230.5 255.5 Q242 213 262.5 187 Q283 161 312.5 149.5 Q342 138 378 138 Z M222 786 L222 904 L545 904 L545 786 L222 786 Z " />
<glyph glyph-name="Oslash" unicode="&#xd8;" horiz-adv-x="750" d="M370 -12 Q339 -12 314 -9 L285 -79 L99 -79 L150 48 Q82 96 51.5 176 Q21 256 21 357 Q21 438 43.5 507.5 Q66 577 111.5 628 Q157 679 225 708 Q293 737 384 737 Q399 737 413.5 736 Q428 735 442 733 L468 795 L654 795 L604 671 Q670 620 700 542 Q730 464 730 371 Q730 283 708 212.5 Q686 142 641.5 92 Q597 42 529 15 Q461 -12 370 -12 Z M219 361 Q219 310 226 273 Q233 236 247 210 L405 586 Q400 587 394 587 Q388 587 383 587 Q347 587 317 574.5 Q287 562 265 534.5 Q243 507 231 464 Q219 421 219 361 Z M378 138 Q412 138 440.5 149 Q469 160 489.5 186 Q510 212 521.5 255 Q533 298 533 362 Q533 450 510 504 L357 139 Q362 138 367.5 138 Q373 138 378 138 Z " />
<glyph glyph-name="Oslashacute" unicode="&#x1fe;" horiz-adv-x="750" d="M370 -12 Q339 -12 314 -9 L285 -79 L99 -79 L150 48 Q82 96 51.5 176 Q21 256 21 357 Q21 438 43.5 507.5 Q66 577 111.5 628 Q157 679 225 708 Q293 737 384 737 Q399 737 413.5 736 Q428 735 442 733 L468 795 L654 795 L604 671 Q670 620 700 542 Q730 464 730 371 Q730 283 708 212.5 Q686 142 641.5 92 Q597 42 529 15 Q461 -12 370 -12 Z M219 361 Q219 310 226 273 Q233 236 247 210 L405 586 Q400 587 394 587 Q388 587 383 587 Q347 587 317 574.5 Q287 562 265 534.5 Q243 507 231 464 Q219 421 219 361 Z M378 138 Q412 138 440.5 149 Q469 160 489.5 186 Q510 212 521.5 255 Q533 298 533 362 Q533 450 510 504 L357 139 Q362 138 367.5 138 Q373 138 378 138 Z M318 767 L278 846 L495 964 L551 849 L318 767 Z " />
<glyph glyph-name="Otilde" unicode="&#xd5;" horiz-adv-x="750" d="M370 -12 Q277 -12 211 15.5 Q145 43 102.5 92 Q60 141 40.5 208.5 Q21 276 21 357 Q21 438 43.5 507.5 Q66 577 111.5 628 Q157 679 225 708 Q293 737 384 737 Q475 737 540.5 708 Q606 679 648 629.5 Q690 580 710 513 Q730 446 730 371 Q730 283 708 212.5 Q686 142 641.5 92 Q597 42 529 15 Q461 -12 370 -12 Z M378 138 Q412 138 440.5 149 Q469 160 489.5 186 Q510 212 521.5 255 Q533 298 533 362 Q533 483 493 535 Q453 587 383 587 Q347 587 317 574.5 Q287 562 265 534.5 Q243 507 231 464 Q219 421 219 361 Q219 298 230.5 255.5 Q242 213 262.5 187 Q283 161 312.5 149.5 Q342 138 378 138 Z M548 852 Q533 822 517.5 804 Q502 786 474 786 Q445 786 410.5 795 Q376 804 318 818 Q313 819 308.5 818.5 Q304 818 300 814 L274 786 L200 829 L228 886 Q241 912 257.5 924.5 Q274 937 301 937 Q319 937 360 930 Q401 923 457 910 Q468 907 474 916 L490 942 L571 898 L548 852 Z " />
<glyph glyph-name="Racute" unicode="&#x154;" horiz-adv-x="695" d="M444 0 L361 242 Q352 269 340.5 279 Q329 289 305 289 L295 289 L295 123 Q295 111 297.5 108 Q300 105 311 103 L368 95 L368 0 L25 0 L25 95 L88 102 Q99 103 101.5 107 Q104 111 104 122 L104 603 Q104 614 101.5 617.5 Q99 621 88 623 L25 630 L25 724 L387 724 Q454 724 499.5 708 Q545 692 572.5 665 Q600 638 611.5 602.5 Q623 567 623 528 Q623 488 614 457.5 Q605 427 588 403.5 Q571 380 547.5 362.5 Q524 345 496 331 Q516 321 530 300 Q544 279 555 250 L600 130 Q605 118 611 112.5 Q617 107 632 105 L694 95 L694 0 L444 0 Z M314 412 Q335 412 355.5 415 Q376 418 391.5 428 Q407 438 416.5 457 Q426 476 426 509 Q426 556 403 574.5 Q380 593 329 593 L295 593 L295 412 L314 412 Z M251 767 L211 846 L428 964 L484 849 L251 767 Z " />
<glyph glyph-name="Rcaron" unicode="&#x158;" horiz-adv-x="695" d="M444 0 L361 242 Q352 269 340.5 279 Q329 289 305 289 L295 289 L295 123 Q295 111 297.5 108 Q300 105 311 103 L368 95 L368 0 L25 0 L25 95 L88 102 Q99 103 101.5 107 Q104 111 104 122 L104 603 Q104 614 101.5 617.5 Q99 621 88 623 L25 630 L25 724 L387 724 Q454 724 499.5 708 Q545 692 572.5 665 Q600 638 611.5 602.5 Q623 567 623 528 Q623 488 614 457.5 Q605 427 588 403.5 Q571 380 547.5 362.5 Q524 345 496 331 Q516 321 530 300 Q544 279 555 250 L600 130 Q605 118 611 112.5 Q617 107 632 105 L694 95 L694 0 L444 0 Z M314 412 Q335 412 355.5 415 Q376 418 391.5 428 Q407 438 416.5 457 Q426 476 426 509 Q426 556 403 574.5 Q380 593 329 593 L295 593 L295 412 L314 412 Z M386 780 L270 780 L147 897 L210 963 L328 883 L446 963 L509 897 L386 780 Z " />
<glyph glyph-name="Rcommaaccent" unicode="&#x156;" horiz-adv-x="695" d="M444 0 L361 242 Q352 269 340.5 279 Q329 289 305 289 L295 289 L295 123 Q295 111 297.5 108 Q300 105 311 103 L368 95 L368 0 L25 0 L25 95 L88 102 Q99 103 101.5 107 Q104 111 104 122 L104 603 Q104 614 101.5 617.5 Q99 621 88 623 L25 630 L25 724 L387 724 Q454 724 499.5 708 Q545 692 572.5 665 Q600 638 611.5 602.5 Q623 567 623 528 Q623 488 614 457.5 Q605 427 588 403.5 Q571 380 547.5 362.5 Q524 345 496 331 Q516 321 530 300 Q544 279 555 250 L600 130 Q605 118 611 112.5 Q617 107 632 105 L694 95 L694 0 L444 0 Z M314 412 Q335 412 355.5 415 Q376 418 391.5 428 Q407 438 416.5 457 Q426 476 426 509 Q426 556 403 574.5 Q380 593 329 593 L295 593 L295 412 L314 412 Z M300 -277 L320 -176 Q323 -166 315 -163 L273 -151 L293 -42 Q323 -42 350 -44.5 Q377 -47 397.5 -55 Q418 -63 430 -79.5 Q442 -96 442 -123 Q442 -140 436 -158.5 Q430 -177 421 -197 L375 -298 L300 -277 Z " />
<glyph glyph-name="Sacute" unicode="&#x15a;" horiz-adv-x="598" d="M406 496 L396 575 Q394 586 391.5 589 Q389 592 382 594 Q367 597 353.5 598.5 Q340 600 324 600 Q280 600 258 581.5 Q236 563 236 534 Q236 502 260.5 485.5 Q285 469 322 457.5 Q359 446 402.5 433.5 Q446 421 483 397.5 Q520 374 544.5 333.5 Q569 293 569 226 Q569 163 546 117.5 Q523 72 483.5 43.5 Q444 15 391.5 1.5 Q339 -12 279 -12 Q245 -12 209.5 -8 Q174 -4 141 2 Q108 8 81 15.5 Q54 23 38 31 L38 244 L177 244 L198 145 Q200 137 203 134 Q206 131 215 129 Q223 127 241.5 125 Q260 123 280 123 Q332 123 358 142 Q384 161 384 196 Q384 229 359.5 246 Q335 263 298 274.5 Q261 286 217.5 297.5 Q174 309 137 332 Q100 355 75.5 394 Q51 433 51 500 Q51 560 72 604.5 Q93 649 130.5 678.5 Q168 708 218.5 722.5 Q269 737 329 737 Q395 737 451 724 Q507 711 546 694 L546 484 L406 496 Z M238 767 L198 846 L415 964 L471 849 L238 767 Z " />
<glyph glyph-name="Scaron" unicode="&#x160;" horiz-adv-x="598" d="M406 496 L396 575 Q394 586 391.5 589 Q389 592 382 594 Q367 597 353.5 598.5 Q340 600 324 600 Q280 600 258 581.5 Q236 563 236 534 Q236 502 260.5 485.5 Q285 469 322 457.5 Q359 446 402.5 433.5 Q446 421 483 397.5 Q520 374 544.5 333.5 Q569 293 569 226 Q569 163 546 117.5 Q523 72 483.5 43.5 Q444 15 391.5 1.5 Q339 -12 279 -12 Q245 -12 209.5 -8 Q174 -4 141 2 Q108 8 81 15.5 Q54 23 38 31 L38 244 L177 244 L198 145 Q200 137 203 134 Q206 131 215 129 Q223 127 241.5 125 Q260 123 280 123 Q332 123 358 142 Q384 161 384 196 Q384 229 359.5 246 Q335 263 298 274.5 Q261 286 217.5 297.5 Q174 309 137 332 Q100 355 75.5 394 Q51 433 51 500 Q51 560 72 604.5 Q93 649 130.5 678.5 Q168 708 218.5 722.5 Q269 737 329 737 Q395 737 451 724 Q507 711 546 694 L546 484 L406 496 Z M373 780 L257 780 L134 897 L197 963 L315 883 L433 963 L496 897 L373 780 Z " />
<glyph glyph-name="Scedilla" unicode="&#x15e;" horiz-adv-x="598" d="M205 -188 Q210 -189 215.5 -189 Q221 -189 226 -189 Q264 -189 278 -175 Q292 -161 292 -141 Q292 -118 273.5 -110.5 Q255 -103 229 -102 L241 -10 Q211 -8 180.5 -4 Q150 0 123 6 Q96 12 74 18.5 Q52 25 38 31 L38 244 L177 244 L198 145 Q200 137 203 134 Q206 131 215 129 Q223 127 241.5 125 Q260 123 280 123 Q332 123 358 142 Q384 161 384 196 Q384 229 359.5 246 Q335 263 298 274.5 Q261 286 217.5 297.5 Q174 309 137 332 Q100 355 75.5 394 Q51 433 51 500 Q51 560 72 604.5 Q93 649 130.5 678.5 Q168 708 218.5 722.5 Q269 737 329 737 Q395 737 451 724 Q507 711 546 694 L546 484 L406 496 L396 575 Q394 586 391.5 589 Q389 592 382 594 Q367 597 353.5 598.5 Q340 600 324 600 Q280 600 258 581.5 Q236 563 236 534 Q236 502 260.5 485.5 Q285 469 322 457.5 Q359 446 402.5 433.5 Q446 421 483 397.5 Q520 374 544.5 333.5 Q569 293 569 226 Q569 168 550 125.5 Q531 83 497.5 54.5 Q464 26 418.5 10 Q373 -6 321 -10 L317 -46 Q330 -49 344.5 -55.5 Q359 -62 371 -73 Q383 -84 391 -100.5 Q399 -117 399 -140 Q399 -164 389.5 -187 Q380 -210 360.5 -228 Q341 -246 310.5 -257 Q280 -268 238 -268 Q231 -268 224 -268 Q217 -268 211 -267 Q204 -266 198 -265 L205 -188 Z " />
<glyph glyph-name="Scircumflex" unicode="&#x15c;" horiz-adv-x="598" d="M406 496 L396 575 Q394 586 391.5 589 Q389 592 382 594 Q367 597 353.5 598.5 Q340 600 324 600 Q280 600 258 581.5 Q236 563 236 534 Q236 502 260.5 485.5 Q285 469 322 457.5 Q359 446 402.5 433.5 Q446 421 483 397.5 Q520 374 544.5 333.5 Q569 293 569 226 Q569 163 546 117.5 Q523 72 483.5 43.5 Q444 15 391.5 1.5 Q339 -12 279 -12 Q245 -12 209.5 -8 Q174 -4 141 2 Q108 8 81 15.5 Q54 23 38 31 L38 244 L177 244 L198 145 Q200 137 203 134 Q206 131 215 129 Q223 127 241.5 125 Q260 123 280 123 Q332 123 358 142 Q384 161 384 196 Q384 229 359.5 246 Q335 263 298 274.5 Q261 286 217.5 297.5 Q174 309 137 332 Q100 355 75.5 394 Q51 433 51 500 Q51 560 72 604.5 Q93 649 130.5 678.5 Q168 708 218.5 722.5 Q269 737 329 737 Q395 737 451 724 Q507 711 546 694 L546 484 L406 496 Z M315 847 L197 767 L134 833 L257 950 L373 950 L496 833 L433 767 L315 847 Z " />
<glyph glyph-name="Scommaaccent" unicode="&#x218;" horiz-adv-x="598" d="M406 496 L396 575 Q394 586 391.5 589 Q389 592 382 594 Q367 597 353.5 598.5 Q340 600 324 600 Q280 600 258 581.5 Q236 563 236 534 Q236 502 260.5 485.5 Q285 469 322 457.5 Q359 446 402.5 433.5 Q446 421 483 397.5 Q520 374 544.5 333.5 Q569 293 569 226 Q569 163 546 117.5 Q523 72 483.5 43.5 Q444 15 391.5 1.5 Q339 -12 279 -12 Q245 -12 209.5 -8 Q174 -4 141 2 Q108 8 81 15.5 Q54 23 38 31 L38 244 L177 244 L198 145 Q200 137 203 134 Q206 131 215 129 Q223 127 241.5 125 Q260 123 280 123 Q332 123 358 142 Q384 161 384 196 Q384 229 359.5 246 Q335 263 298 274.5 Q261 286 217.5 297.5 Q174 309 137 332 Q100 355 75.5 394 Q51 433 51 500 Q51 560 72 604.5 Q93 649 130.5 678.5 Q168 708 218.5 722.5 Q269 737 329 737 Q395 737 451 724 Q507 711 546 694 L546 484 L406 496 Z M229 -277 L249 -176 Q252 -166 244 -163 L202 -151 L222 -42 Q252 -42 279 -44.5 Q306 -47 326.5 -55 Q347 -63 359 -79.5 Q371 -96 371 -123 Q371 -140 365 -158.5 Q359 -177 350 -197 L304 -298 L229 -277 Z " />
<glyph glyph-name="Tbar" unicode="&#x166;" horiz-adv-x="720" d="M146 0 L146 94 L249 101 Q260 102 262.5 106 Q265 110 265 121 L265 275 L162 275 L162 395 L265 395 L265 593 L193 593 Q185 593 182 591.5 Q179 590 177 582 L161 495 L25 495 L25 724 L695 724 L695 495 L561 495 L545 582 Q543 590 540 591.5 Q537 593 529 593 L457 593 L457 395 L565 395 L565 275 L457 275 L457 121 Q457 110 459.5 106.5 Q462 103 473 102 L583 94 L583 0 L146 0 Z " />
<glyph glyph-name="Tcaron" unicode="&#x164;" horiz-adv-x="720" d="M146 0 L146 94 L249 101 Q260 102 262.5 106 Q265 110 265 121 L265 593 L193 593 Q185 593 182 591.5 Q179 590 177 582 L161 495 L25 495 L25 724 L695 724 L695 495 L561 495 L545 582 Q543 590 540 591.5 Q537 593 529 593 L457 593 L457 121 Q457 110 459.5 106.5 Q462 103 473 102 L583 94 L583 0 L146 0 Z M420 780 L304 780 L181 897 L244 963 L362 883 L480 963 L543 897 L420 780 Z " />
<glyph glyph-name="uni0162" unicode="&#x162;" horiz-adv-x="720" d="M266 -188 Q271 -189 276.5 -189 Q282 -189 287 -189 Q325 -189 339 -175 Q353 -161 353 -141 Q353 -118 334.5 -110.5 Q316 -103 290 -102 L303 0 L146 0 L146 94 L249 101 Q260 102 262.5 106 Q265 110 265 121 L265 593 L193 593 Q185 593 182 591.5 Q179 590 177 582 L161 495 L25 495 L25 724 L695 724 L695 495 L561 495 L545 582 Q543 590 540 591.5 Q537 593 529 593 L457 593 L457 121 Q457 110 459.5 106.5 Q462 103 473 102 L583 94 L583 0 L384 0 L378 -46 Q391 -49 405.5 -55.5 Q420 -62 432 -73 Q444 -84 452 -100.5 Q460 -117 460 -140 Q460 -164 450.5 -187 Q441 -210 421.5 -228 Q402 -246 371.5 -257 Q341 -268 299 -268 Q292 -268 285 -268 Q278 -268 272 -267 Q265 -266 259 -265 L266 -188 Z " />
<glyph glyph-name="uni021A" unicode="&#x21a;" horiz-adv-x="720" d="M146 0 L146 94 L249 101 Q260 102 262.5 106 Q265 110 265 121 L265 593 L193 593 Q185 593 182 591.5 Q179 590 177 582 L161 495 L25 495 L25 724 L695 724 L695 495 L561 495 L545 582 Q543 590 540 591.5 Q537 593 529 593 L457 593 L457 121 Q457 110 459.5 106.5 Q462 103 473 102 L583 94 L583 0 L146 0 Z M311 -277 L331 -176 Q334 -166 326 -163 L284 -151 L304 -42 Q334 -42 361 -44.5 Q388 -47 408.5 -55 Q429 -63 441 -79.5 Q453 -96 453 -123 Q453 -140 447 -158.5 Q441 -177 432 -197 L386 -298 L311 -277 Z " />
<glyph glyph-name="Uacute" unicode="&#xda;" horiz-adv-x="784" d="M527 603 Q527 614 524.5 618 Q522 622 511 623 L448 630 L448 724 L772 724 L772 630 L705 622 Q694 620 691.5 617 Q689 614 689 603 L689 270 Q689 195 668 141.5 Q647 88 608.5 54 Q570 20 515.5 4 Q461 -12 394 -12 Q238 -12 166.5 57 Q95 126 95 275 L95 603 Q95 614 92.5 618 Q90 622 79 623 L16 630 L16 724 L370 724 L370 630 L303 622 Q292 620 289.5 616.5 Q287 613 287 602 L287 301 Q287 262 289.5 231 Q292 200 303.5 177.5 Q315 155 337.5 143 Q360 131 400 131 Q437 131 462 140 Q487 149 501 169 Q515 189 521 220.5 Q527 252 527 296 L527 603 Z M333 767 L293 846 L510 964 L566 849 L333 767 Z " />
<glyph glyph-name="Ubreve" unicode="&#x16c;" horiz-adv-x="784" d="M527 603 Q527 614 524.5 618 Q522 622 511 623 L448 630 L448 724 L772 724 L772 630 L705 622 Q694 620 691.5 617 Q689 614 689 603 L689 270 Q689 195 668 141.5 Q647 88 608.5 54 Q570 20 515.5 4 Q461 -12 394 -12 Q238 -12 166.5 57 Q95 126 95 275 L95 603 Q95 614 92.5 618 Q90 622 79 623 L16 630 L16 724 L370 724 L370 630 L303 622 Q292 620 289.5 616.5 Q287 613 287 602 L287 301 Q287 262 289.5 231 Q292 200 303.5 177.5 Q315 155 337.5 143 Q360 131 400 131 Q437 131 462 140 Q487 149 501 169 Q515 189 521 220.5 Q527 252 527 296 L527 603 Z M585 921 Q567 854 527 818 Q487 782 410 782 Q333 782 292.5 818 Q252 854 235 921 L323 953 Q335 918 357.5 902.5 Q380 887 410 887 Q440 887 461 902.5 Q482 918 497 953 L585 921 Z " />
<glyph glyph-name="Ucircumflex" unicode="&#xdb;" horiz-adv-x="784" d="M527 603 Q527 614 524.5 618 Q522 622 511 623 L448 630 L448 724 L772 724 L772 630 L705 622 Q694 620 691.5 617 Q689 614 689 603 L689 270 Q689 195 668 141.5 Q647 88 608.5 54 Q570 20 515.5 4 Q461 -12 394 -12 Q238 -12 166.5 57 Q95 126 95 275 L95 603 Q95 614 92.5 618 Q90 622 79 623 L16 630 L16 724 L370 724 L370 630 L303 622 Q292 620 289.5 616.5 Q287 613 287 602 L287 301 Q287 262 289.5 231 Q292 200 303.5 177.5 Q315 155 337.5 143 Q360 131 400 131 Q437 131 462 140 Q487 149 501 169 Q515 189 521 220.5 Q527 252 527 296 L527 603 Z M410 847 L292 767 L229 833 L352 950 L468 950 L591 833 L528 767 L410 847 Z " />
<glyph glyph-name="Udieresis" unicode="&#xdc;" horiz-adv-x="784" d="M527 603 Q527 614 524.5 618 Q522 622 511 623 L448 630 L448 724 L772 724 L772 630 L705 622 Q694 620 691.5 617 Q689 614 689 603 L689 270 Q689 195 668 141.5 Q647 88 608.5 54 Q570 20 515.5 4 Q461 -12 394 -12 Q238 -12 166.5 57 Q95 126 95 275 L95 603 Q95 614 92.5 618 Q90 622 79 623 L16 630 L16 724 L370 724 L370 630 L303 622 Q292 620 289.5 616.5 Q287 613 287 602 L287 301 Q287 262 289.5 231 Q292 200 303.5 177.5 Q315 155 337.5 143 Q360 131 400 131 Q437 131 462 140 Q487 149 501 169 Q515 189 521 220.5 Q527 252 527 296 L527 603 Z M383 859 Q383 823 361 801.5 Q339 780 303 780 Q267 780 244.5 801.5 Q222 823 222 859 Q222 895 244.5 916 Q267 937 303 937 Q339 937 361 916 Q383 895 383 859 Z M595 859 Q595 823 573 801.5 Q551 780 515 780 Q479 780 456.5 801.5 Q434 823 434 859 Q434 895 456.5 916 Q479 937 515 937 Q551 937 573 916 Q595 895 595 859 Z " />
<glyph glyph-name="Ugrave" unicode="&#xd9;" horiz-adv-x="784" d="M527 603 Q527 614 524.5 618 Q522 622 511 623 L448 630 L448 724 L772 724 L772 630 L705 622 Q694 620 691.5 617 Q689 614 689 603 L689 270 Q689 195 668 141.5 Q647 88 608.5 54 Q570 20 515.5 4 Q461 -12 394 -12 Q238 -12 166.5 57 Q95 126 95 275 L95 603 Q95 614 92.5 618 Q90 622 79 623 L16 630 L16 724 L370 724 L370 630 L303 622 Q292 620 289.5 616.5 Q287 613 287 602 L287 301 Q287 262 289.5 231 Q292 200 303.5 177.5 Q315 155 337.5 143 Q360 131 400 131 Q437 131 462 140 Q487 149 501 169 Q515 189 521 220.5 Q527 252 527 296 L527 603 Z M266 849 L322 964 L539 846 L499 767 L266 849 Z " />
<glyph glyph-name="Uhungarumlaut" unicode="&#x170;" horiz-adv-x="784" d="M527 603 Q527 614 524.5 618 Q522 622 511 623 L448 630 L448 724 L772 724 L772 630 L705 622 Q694 620 691.5 617 Q689 614 689 603 L689 270 Q689 195 668 141.5 Q647 88 608.5 54 Q570 20 515.5 4 Q461 -12 394 -12 Q238 -12 166.5 57 Q95 126 95 275 L95 603 Q95 614 92.5 618 Q90 622 79 623 L16 630 L16 724 L370 724 L370 630 L303 622 Q292 620 289.5 616.5 Q287 613 287 602 L287 301 Q287 262 289.5 231 Q292 200 303.5 177.5 Q315 155 337.5 143 Q360 131 400 131 Q437 131 462 140 Q487 149 501 169 Q515 189 521 220.5 Q527 252 527 296 L527 603 Z M289 767 L228 828 L384 1000 L467 915 L289 767 Z M478 767 L430 825 L600 982 L675 893 L478 767 Z " />
<glyph glyph-name="Umacron" unicode="&#x16a;" horiz-adv-x="784" d="M527 603 Q527 614 524.5 618 Q522 622 511 623 L448 630 L448 724 L772 724 L772 630 L705 622 Q694 620 691.5 617 Q689 614 689 603 L689 270 Q689 195 668 141.5 Q647 88 608.5 54 Q570 20 515.5 4 Q461 -12 394 -12 Q238 -12 166.5 57 Q95 126 95 275 L95 603 Q95 614 92.5 618 Q90 622 79 623 L16 630 L16 724 L370 724 L370 630 L303 622 Q292 620 289.5 616.5 Q287 613 287 602 L287 301 Q287 262 289.5 231 Q292 200 303.5 177.5 Q315 155 337.5 143 Q360 131 400 131 Q437 131 462 140 Q487 149 501 169 Q515 189 521 220.5 Q527 252 527 296 L527 603 Z M249 780 L249 898 L572 898 L572 780 L249 780 Z " />
<glyph glyph-name="Uogonek" unicode="&#x172;" horiz-adv-x="784" d="M588 -213 Q553 -230 517.5 -236.5 Q482 -243 455 -243 Q393 -243 366 -216 Q339 -189 339 -148 Q339 -105 364.5 -70.5 Q390 -36 420 -11 Q414 -12 407.5 -12 Q401 -12 394 -12 Q238 -12 166.5 57 Q95 126 95 275 L95 603 Q95 614 92.5 618 Q90 622 79 623 L16 630 L16 724 L370 724 L370 630 L303 622 Q292 620 289.5 616.5 Q287 613 287 602 L287 301 Q287 262 289.5 231 Q292 200 303.5 177.5 Q315 155 337.5 143 Q360 131 400 131 Q437 131 462 140 Q487 149 501 169 Q515 189 521 220.5 Q527 252 527 296 L527 603 Q527 614 524.5 618 Q522 622 511 623 L448 630 L448 724 L772 724 L772 630 L705 622 Q694 620 691.5 617 Q689 614 689 603 L689 270 Q689 223 680.5 185 Q672 147 657 117 Q642 87 620.5 63 Q599 39 573 20 Q475 -53 475 -110 Q475 -123 480.5 -130.5 Q486 -138 502 -138 Q511 -138 526 -135.5 Q541 -133 557 -128 L588 -213 Z " />
<glyph glyph-name="Uring" unicode="&#x16e;" horiz-adv-x="784" d="M527 603 Q527 614 524.5 618 Q522 622 511 623 L448 630 L448 724 L772 724 L772 630 L705 622 Q694 620 691.5 617 Q689 614 689 603 L689 270 Q689 195 668 141.5 Q647 88 608.5 54 Q570 20 515.5 4 Q461 -12 394 -12 Q238 -12 166.5 57 Q95 126 95 275 L95 603 Q95 614 92.5 618 Q90 622 79 623 L16 630 L16 724 L370 724 L370 630 L303 622 Q292 620 289.5 616.5 Q287 613 287 602 L287 301 Q287 262 289.5 231 Q292 200 303.5 177.5 Q315 155 337.5 143 Q360 131 400 131 Q437 131 462 140 Q487 149 501 169 Q515 189 521 220.5 Q527 252 527 296 L527 603 Z M528 856 Q528 803 495.5 776 Q463 749 412 749 Q361 749 328 775.5 Q295 802 295 853 Q295 880 304.5 901 Q314 922 330 936 Q346 950 367 957 Q388 964 412 964 Q460 964 494 936.5 Q528 909 528 856 Z M411 815 Q428 815 440 824.5 Q452 834 452 856 Q452 876 440.5 886 Q429 896 412 896 Q394 896 382 886 Q370 876 370 856 Q370 834 381.5 824.5 Q393 815 411 815 Z " />
<glyph glyph-name="Utilde" unicode="&#x168;" horiz-adv-x="784" d="M527 603 Q527 614 524.5 618 Q522 622 511 623 L448 630 L448 724 L772 724 L772 630 L705 622 Q694 620 691.5 617 Q689 614 689 603 L689 270 Q689 195 668 141.5 Q647 88 608.5 54 Q570 20 515.5 4 Q461 -12 394 -12 Q238 -12 166.5 57 Q95 126 95 275 L95 603 Q95 614 92.5 618 Q90 622 79 623 L16 630 L16 724 L370 724 L370 630 L303 622 Q292 620 289.5 616.5 Q287 613 287 602 L287 301 Q287 262 289.5 231 Q292 200 303.5 177.5 Q315 155 337.5 143 Q360 131 400 131 Q437 131 462 140 Q487 149 501 169 Q515 189 521 220.5 Q527 252 527 296 L527 603 Z M575 846 Q560 816 544.5 798 Q529 780 501 780 Q472 780 437.5 789 Q403 798 345 812 Q340 813 335.5 812.5 Q331 812 327 808 L301 780 L227 823 L255 880 Q268 906 284.5 918.5 Q301 931 328 931 Q346 931 387 924 Q428 917 484 904 Q495 901 501 910 L517 936 L598 892 L575 846 Z " />
<glyph glyph-name="Wacute" unicode="&#x1e82;" horiz-adv-x="1073" d="M617 0 L538 312 L530 312 L462 0 L216 0 L74 603 Q71 612 65 615 Q59 618 50 620 L5 631 L15 724 L353 724 L353 631 L273 622 L355 176 L366 176 L468 597 L651 597 L752 176 L763 176 L845 622 L765 631 L775 724 L1068 724 L1068 631 L1023 620 Q1014 618 1008 615 Q1002 612 999 603 L869 0 L617 0 Z M489 767 L449 846 L666 964 L722 849 L489 767 Z " />
<glyph glyph-name="Wcircumflex" unicode="&#x174;" horiz-adv-x="1073" d="M617 0 L538 312 L530 312 L462 0 L216 0 L74 603 Q71 612 65 615 Q59 618 50 620 L5 631 L15 724 L353 724 L353 631 L273 622 L355 176 L366 176 L468 597 L651 597 L752 176 L763 176 L845 622 L765 631 L775 724 L1068 724 L1068 631 L1023 620 Q1014 618 1008 615 Q1002 612 999 603 L869 0 L617 0 Z M566 847 L448 767 L385 833 L508 950 L624 950 L747 833 L684 767 L566 847 Z " />
<glyph glyph-name="Wdieresis" unicode="&#x1e84;" horiz-adv-x="1073" d="M617 0 L538 312 L530 312 L462 0 L216 0 L74 603 Q71 612 65 615 Q59 618 50 620 L5 631 L15 724 L353 724 L353 631 L273 622 L355 176 L366 176 L468 597 L651 597 L752 176 L763 176 L845 622 L765 631 L775 724 L1068 724 L1068 631 L1023 620 Q1014 618 1008 615 Q1002 612 999 603 L869 0 L617 0 Z M539 859 Q539 823 517 801.5 Q495 780 459 780 Q423 780 400.5 801.5 Q378 823 378 859 Q378 895 400.5 916 Q423 937 459 937 Q495 937 517 916 Q539 895 539 859 Z M751 859 Q751 823 729 801.5 Q707 780 671 780 Q635 780 612.5 801.5 Q590 823 590 859 Q590 895 612.5 916 Q635 937 671 937 Q707 937 729 916 Q751 895 751 859 Z " />
<glyph glyph-name="Wgrave" unicode="&#x1e80;" horiz-adv-x="1073" d="M617 0 L538 312 L530 312 L462 0 L216 0 L74 603 Q71 612 65 615 Q59 618 50 620 L5 631 L15 724 L353 724 L353 631 L273 622 L355 176 L366 176 L468 597 L651 597 L752 176 L763 176 L845 622 L765 631 L775 724 L1068 724 L1068 631 L1023 620 Q1014 618 1008 615 Q1002 612 999 603 L869 0 L617 0 Z M402 849 L458 964 L675 846 L635 767 L402 849 Z " />
<glyph glyph-name="Yacute" unicode="&#xdd;" horiz-adv-x="711" d="M152 0 L152 94 L255 101 Q266 102 268.5 106 Q271 110 271 121 L271 264 L74 603 Q66 616 50 620 L5 631 L15 724 L358 724 L358 631 L278 622 L378 425 L389 425 L490 622 L411 631 L421 724 L706 724 L706 631 L664 620 Q655 618 648.5 614 Q642 610 639 601 L463 265 L463 121 Q463 110 465.5 106.5 Q468 103 479 102 L589 94 L589 0 L152 0 Z M297 767 L257 846 L474 964 L530 849 L297 767 Z " />
<glyph glyph-name="Ycircumflex" unicode="&#x176;" horiz-adv-x="711" d="M152 0 L152 94 L255 101 Q266 102 268.5 106 Q271 110 271 121 L271 264 L74 603 Q66 616 50 620 L5 631 L15 724 L358 724 L358 631 L278 622 L378 425 L389 425 L490 622 L411 631 L421 724 L706 724 L706 631 L664 620 Q655 618 648.5 614 Q642 610 639 601 L463 265 L463 121 Q463 110 465.5 106.5 Q468 103 479 102 L589 94 L589 0 L152 0 Z M374 847 L256 767 L193 833 L316 950 L432 950 L555 833 L492 767 L374 847 Z " />
<glyph glyph-name="Ydieresis" unicode="&#x178;" horiz-adv-x="711" d="M152 0 L152 94 L255 101 Q266 102 268.5 106 Q271 110 271 121 L271 264 L74 603 Q66 616 50 620 L5 631 L15 724 L358 724 L358 631 L278 622 L378 425 L389 425 L490 622 L411 631 L421 724 L706 724 L706 631 L664 620 Q655 618 648.5 614 Q642 610 639 601 L463 265 L463 121 Q463 110 465.5 106.5 Q468 103 479 102 L589 94 L589 0 L152 0 Z M347 859 Q347 823 325 801.5 Q303 780 267 780 Q231 780 208.5 801.5 Q186 823 186 859 Q186 895 208.5 916 Q231 937 267 937 Q303 937 325 916 Q347 895 347 859 Z M559 859 Q559 823 537 801.5 Q515 780 479 780 Q443 780 420.5 801.5 Q398 823 398 859 Q398 895 420.5 916 Q443 937 479 937 Q515 937 537 916 Q559 895 559 859 Z " />
<glyph glyph-name="Ygrave" unicode="&#x1ef2;" horiz-adv-x="711" d="M152 0 L152 94 L255 101 Q266 102 268.5 106 Q271 110 271 121 L271 264 L74 603 Q66 616 50 620 L5 631 L15 724 L358 724 L358 631 L278 622 L378 425 L389 425 L490 622 L411 631 L421 724 L706 724 L706 631 L664 620 Q655 618 648.5 614 Q642 610 639 601 L463 265 L463 121 Q463 110 465.5 106.5 Q468 103 479 102 L589 94 L589 0 L152 0 Z M208 849 L264 964 L481 846 L441 767 L208 849 Z " />
<glyph glyph-name="Zacute" unicode="&#x179;" horiz-adv-x="689" d="M51 0 L51 119 L400 594 L226 594 Q218 594 215 592.5 Q212 591 210 583 L191 490 L58 486 L58 724 L627 724 L627 601 L285 129 L483 129 Q491 129 494 130.5 Q497 132 499 140 L518 247 L650 247 L650 0 L51 0 Z M262 767 L222 846 L439 964 L495 849 L262 767 Z " />
<glyph glyph-name="Zcaron" unicode="&#x17d;" horiz-adv-x="689" d="M51 0 L51 119 L400 594 L226 594 Q218 594 215 592.5 Q212 591 210 583 L191 490 L58 486 L58 724 L627 724 L627 601 L285 129 L483 129 Q491 129 494 130.5 Q497 132 499 140 L518 247 L650 247 L650 0 L51 0 Z M397 780 L281 780 L158 897 L221 963 L339 883 L457 963 L520 897 L397 780 Z " />
<glyph glyph-name="Zdotaccent" unicode="&#x17b;" horiz-adv-x="689" d="M51 0 L51 119 L400 594 L226 594 Q218 594 215 592.5 Q212 591 210 583 L191 490 L58 486 L58 724 L627 724 L627 601 L285 129 L483 129 Q491 129 494 130.5 Q497 132 499 140 L518 247 L650 247 L650 0 L51 0 Z M446 886 Q446 835 418 807.5 Q390 780 339 780 Q288 780 260.5 807.5 Q233 835 233 886 Q233 937 260.5 963.5 Q288 990 339 990 Q390 990 418 963.5 Q446 937 446 886 Z " />
<glyph glyph-name="aacute" unicode="&#xe1;" horiz-adv-x="567" d="M352 0 L341 56 L334 58 Q322 46 307 33.5 Q292 21 273 11 Q254 1 229.5 -5.5 Q205 -12 175 -12 Q127 -12 98 2.5 Q69 17 52.5 39.5 Q36 62 30.5 89.5 Q25 117 25 143 Q25 218 72 253 Q119 288 215 293 L318 299 L318 357 Q318 369 317.5 380 Q317 391 312.5 399.5 Q308 408 298.5 413 Q289 418 271 418 Q242 418 230 407 Q218 396 218 358 L44 371 Q44 424 65.5 456.5 Q87 489 121 506.5 Q155 524 195 530 Q235 536 273 536 Q332 536 375 527 Q418 518 445.5 497 Q473 476 486.5 440.5 Q500 405 500 352 L500 122 Q500 110 502.5 107 Q505 104 516 102 L562 94 L562 0 L352 0 Z M318 213 L277 211 Q245 209 230.5 197.5 Q216 186 216 160 Q216 137 230 127 Q244 117 263 117 Q277 117 292 120 Q307 123 318 130 L318 213 Z M220 557 L153 616 L305 795 L400 707 L220 557 Z " />
<glyph glyph-name="abreve" unicode="&#x103;" horiz-adv-x="567" d="M352 0 L341 56 L334 58 Q322 46 307 33.5 Q292 21 273 11 Q254 1 229.5 -5.5 Q205 -12 175 -12 Q127 -12 98 2.5 Q69 17 52.5 39.5 Q36 62 30.5 89.5 Q25 117 25 143 Q25 218 72 253 Q119 288 215 293 L318 299 L318 357 Q318 369 317.5 380 Q317 391 312.5 399.5 Q308 408 298.5 413 Q289 418 271 418 Q242 418 230 407 Q218 396 218 358 L44 371 Q44 424 65.5 456.5 Q87 489 121 506.5 Q155 524 195 530 Q235 536 273 536 Q332 536 375 527 Q418 518 445.5 497 Q473 476 486.5 440.5 Q500 405 500 352 L500 122 Q500 110 502.5 107 Q505 104 516 102 L562 94 L562 0 L352 0 Z M318 213 L277 211 Q245 209 230.5 197.5 Q216 186 216 160 Q216 137 230 127 Q244 117 263 117 Q277 117 292 120 Q307 123 318 130 L318 213 Z M272 673 Q302 673 323 688.5 Q344 704 359 739 L447 707 Q429 640 389 604 Q349 568 272 568 Q195 568 154.5 604 Q114 640 97 707 L185 739 Q197 704 219.5 688.5 Q242 673 272 673 Z " />
<glyph glyph-name="acircumflex" unicode="&#xe2;" horiz-adv-x="567" d="M352 0 L341 56 L334 58 Q322 46 307 33.5 Q292 21 273 11 Q254 1 229.5 -5.5 Q205 -12 175 -12 Q127 -12 98 2.5 Q69 17 52.5 39.5 Q36 62 30.5 89.5 Q25 117 25 143 Q25 218 72 253 Q119 288 215 293 L318 299 L318 357 Q318 369 317.5 380 Q317 391 312.5 399.5 Q308 408 298.5 413 Q289 418 271 418 Q242 418 230 407 Q218 396 218 358 L44 371 Q44 424 65.5 456.5 Q87 489 121 506.5 Q155 524 195 530 Q235 536 273 536 Q332 536 375 527 Q418 518 445.5 497 Q473 476 486.5 440.5 Q500 405 500 352 L500 122 Q500 110 502.5 107 Q505 104 516 102 L562 94 L562 0 L352 0 Z M318 213 L277 211 Q245 209 230.5 197.5 Q216 186 216 160 Q216 137 230 127 Q244 117 263 117 Q277 117 292 120 Q307 123 318 130 L318 213 Z M381 556 L272 644 L163 556 L94 616 L214 749 L330 749 L450 616 L381 556 Z " />
<glyph glyph-name="adieresis" unicode="&#xe4;" horiz-adv-x="567" d="M352 0 L341 56 L334 58 Q322 46 307 33.5 Q292 21 273 11 Q254 1 229.5 -5.5 Q205 -12 175 -12 Q127 -12 98 2.5 Q69 17 52.5 39.5 Q36 62 30.5 89.5 Q25 117 25 143 Q25 218 72 253 Q119 288 215 293 L318 299 L318 357 Q318 369 317.5 380 Q317 391 312.5 399.5 Q308 408 298.5 413 Q289 418 271 418 Q242 418 230 407 Q218 396 218 358 L44 371 Q44 424 65.5 456.5 Q87 489 121 506.5 Q155 524 195 530 Q235 536 273 536 Q332 536 375 527 Q418 518 445.5 497 Q473 476 486.5 440.5 Q500 405 500 352 L500 122 Q500 110 502.5 107 Q505 104 516 102 L562 94 L562 0 L352 0 Z M318 213 L277 211 Q245 209 230.5 197.5 Q216 186 216 160 Q216 137 230 127 Q244 117 263 117 Q277 117 292 120 Q307 123 318 130 L318 213 Z M84 660 Q84 696 106.5 717 Q129 738 165 738 Q201 738 223 717 Q245 696 245 660 Q245 624 223 602.5 Q201 581 165 581 Q129 581 106.5 602.5 Q84 624 84 660 Z M296 660 Q296 696 318.5 717 Q341 738 377 738 Q413 738 435 717 Q457 696 457 660 Q457 624 435 602.5 Q413 581 377 581 Q341 581 318.5 602.5 Q296 624 296 660 Z " />
<glyph glyph-name="aeacute" unicode="&#x1fd;" horiz-adv-x="818" d="M790 43 Q737 19 682.5 3.5 Q628 -12 570 -12 Q511 -12 468.5 5 Q426 22 396 51 Q361 28 315 8 Q269 -12 208 -12 Q148 -12 112 2.5 Q76 17 56.5 39.5 Q37 62 31 89.5 Q25 117 25 143 Q25 218 72 255 Q119 292 215 297 L318 303 L318 357 Q318 369 317.5 380 Q317 391 312.5 399.5 Q308 408 298.5 413 Q289 418 271 418 Q242 418 230 407 Q218 396 218 358 L44 371 Q44 424 65.5 456.5 Q87 489 119 506.5 Q151 524 189 530 Q227 536 259 536 Q320 536 361 521.5 Q402 507 428 474 Q451 501 490 518.5 Q529 536 584 536 Q633 536 671 523 Q709 510 735.5 481.5 Q762 453 775.5 407.5 Q789 362 789 298 Q789 277 788.5 261.5 Q788 246 786 229 L500 229 Q503 171 525.5 150 Q548 129 595 129 Q617 129 653.5 135.5 Q690 142 748 161 L790 43 Z M277 215 Q245 213 230.5 199.5 Q216 186 216 160 Q216 137 230 127 Q244 117 263 117 Q277 117 296.5 122 Q316 127 338 141 Q325 177 320 217 L277 215 Z M606 320 Q606 347 602 363.5 Q598 380 591 389 Q584 398 575 401 Q566 404 555 404 Q544 404 535 400.5 Q526 397 518.5 388 Q511 379 506 362.5 Q501 346 500 320 L606 320 Z M407 557 L340 616 L492 795 L587 707 L407 557 Z " />
<glyph glyph-name="agrave" unicode="&#xe0;" horiz-adv-x="567" d="M352 0 L341 56 L334 58 Q322 46 307 33.5 Q292 21 273 11 Q254 1 229.5 -5.5 Q205 -12 175 -12 Q127 -12 98 2.5 Q69 17 52.5 39.5 Q36 62 30.5 89.5 Q25 117 25 143 Q25 218 72 253 Q119 288 215 293 L318 299 L318 357 Q318 369 317.5 380 Q317 391 312.5 399.5 Q308 408 298.5 413 Q289 418 271 418 Q242 418 230 407 Q218 396 218 358 L44 371 Q44 424 65.5 456.5 Q87 489 121 506.5 Q155 524 195 530 Q235 536 273 536 Q332 536 375 527 Q418 518 445.5 497 Q473 476 486.5 440.5 Q500 405 500 352 L500 122 Q500 110 502.5 107 Q505 104 516 102 L562 94 L562 0 L352 0 Z M318 213 L277 211 Q245 209 230.5 197.5 Q216 186 216 160 Q216 137 230 127 Q244 117 263 117 Q277 117 292 120 Q307 123 318 130 L318 213 Z M333 557 L153 707 L248 795 L400 616 L333 557 Z " />
<glyph glyph-name="amacron" unicode="&#x101;" horiz-adv-x="567" d="M352 0 L341 56 L334 58 Q322 46 307 33.5 Q292 21 273 11 Q254 1 229.5 -5.5 Q205 -12 175 -12 Q127 -12 98 2.5 Q69 17 52.5 39.5 Q36 62 30.5 89.5 Q25 117 25 143 Q25 218 72 253 Q119 288 215 293 L318 299 L318 357 Q318 369 317.5 380 Q317 391 312.5 399.5 Q308 408 298.5 413 Q289 418 271 418 Q242 418 230 407 Q218 396 218 358 L44 371 Q44 424 65.5 456.5 Q87 489 121 506.5 Q155 524 195 530 Q235 536 273 536 Q332 536 375 527 Q418 518 445.5 497 Q473 476 486.5 440.5 Q500 405 500 352 L500 122 Q500 110 502.5 107 Q505 104 516 102 L562 94 L562 0 L352 0 Z M318 213 L277 211 Q245 209 230.5 197.5 Q216 186 216 160 Q216 137 230 127 Q244 117 263 117 Q277 117 292 120 Q307 123 318 130 L318 213 Z M111 707 L434 707 L434 589 L111 589 L111 707 Z " />
<glyph glyph-name="aogonek" unicode="&#x105;" horiz-adv-x="567" d="M562 0 Q544 -10 526.5 -23 Q509 -36 494.5 -50.5 Q480 -65 471.5 -80.5 Q463 -96 463 -110 Q463 -123 468.5 -130.5 Q474 -138 490 -138 Q499 -138 514 -135.5 Q529 -133 545 -128 L576 -213 Q541 -230 505.5 -236.5 Q470 -243 443 -243 Q381 -243 354 -216 Q327 -189 327 -148 Q327 -124 338 -102 Q349 -80 366 -61.5 Q383 -43 403.5 -27.5 Q424 -12 444 0 L352 0 L341 56 L334 58 Q322 46 307 33.5 Q292 21 273 11 Q254 1 229.5 -5.5 Q205 -12 175 -12 Q127 -12 98 2.5 Q69 17 52.5 39.5 Q36 62 30.5 89.5 Q25 117 25 143 Q25 218 72 253 Q119 288 215 293 L318 299 L318 357 Q318 369 317.5 380 Q317 391 312.5 399.5 Q308 408 298.5 413 Q289 418 271 418 Q242 418 230 407 Q218 396 218 358 L44 371 Q44 424 65.5 456.5 Q87 489 121 506.5 Q155 524 195 530 Q235 536 273 536 Q332 536 375 527 Q418 518 445.5 497 Q473 476 486.5 440.5 Q500 405 500 352 L500 122 Q500 110 502.5 107 Q505 104 516 102 L562 94 L562 0 Z M318 213 L277 211 Q245 209 230.5 197.5 Q216 186 216 160 Q216 137 230 127 Q244 117 263 117 Q277 117 292 120 Q307 123 318 130 L318 213 Z " />
<glyph glyph-name="aring" unicode="&#xe5;" horiz-adv-x="567" d="M352 0 L341 56 L334 58 Q322 46 307 33.5 Q292 21 273 11 Q254 1 229.5 -5.5 Q205 -12 175 -12 Q127 -12 98 2.5 Q69 17 52.5 39.5 Q36 62 30.5 89.5 Q25 117 25 143 Q25 218 72 253 Q119 288 215 293 L318 299 L318 357 Q318 369 317.5 380 Q317 391 312.5 399.5 Q308 408 298.5 413 Q289 418 271 418 Q242 418 230 407 Q218 396 218 358 L44 371 Q44 424 65.5 456.5 Q87 489 121 506.5 Q155 524 195 530 Q235 536 273 536 Q332 536 375 527 Q418 518 445.5 497 Q473 476 486.5 440.5 Q500 405 500 352 L500 122 Q500 110 502.5 107 Q505 104 516 102 L562 94 L562 0 L352 0 Z M318 213 L277 211 Q245 209 230.5 197.5 Q216 186 216 160 Q216 137 230 127 Q244 117 263 117 Q277 117 292 120 Q307 123 318 130 L318 213 Z M390 671 Q390 618 357.5 591 Q325 564 274 564 Q223 564 190 590.5 Q157 617 157 668 Q157 695 166.5 716 Q176 737 192 751 Q208 765 229 772 Q250 779 274 779 Q322 779 356 751.5 Q390 724 390 671 Z M273 630 Q290 630 302 639.5 Q314 649 314 671 Q314 691 302.5 701 Q291 711 274 711 Q256 711 244 701 Q232 691 232 671 Q232 649 243.5 639.5 Q255 630 273 630 Z " />
<glyph glyph-name="aringacute" unicode="&#x1fb;" horiz-adv-x="567" d="M352 0 L341 56 L334 58 Q322 46 307 33.5 Q292 21 273 11 Q254 1 229.5 -5.5 Q205 -12 175 -12 Q127 -12 98 2.5 Q69 17 52.5 39.5 Q36 62 30.5 89.5 Q25 117 25 143 Q25 218 72 253 Q119 288 215 293 L318 299 L318 357 Q318 369 317.5 380 Q317 391 312.5 399.5 Q308 408 298.5 413 Q289 418 271 418 Q242 418 230 407 Q218 396 218 358 L44 371 Q44 424 65.5 456.5 Q87 489 121 506.5 Q155 524 195 530 Q235 536 273 536 Q332 536 375 527 Q418 518 445.5 497 Q473 476 486.5 440.5 Q500 405 500 352 L500 122 Q500 110 502.5 107 Q505 104 516 102 L562 94 L562 0 L352 0 Z M318 213 L277 211 Q245 209 230.5 197.5 Q216 186 216 160 Q216 137 230 127 Q244 117 263 117 Q277 117 292 120 Q307 123 318 130 L318 213 Z M390 666 Q390 613 357.5 586 Q325 559 274 559 Q223 559 190 585.5 Q157 612 157 663 Q157 690 166.5 711 Q176 732 192 746 Q208 760 229 767 Q250 774 274 774 Q322 774 356 746.5 Q390 719 390 666 Z M273 625 Q290 625 302 634.5 Q314 644 314 666 Q314 686 302.5 696 Q291 706 274 706 Q256 706 244 696 Q232 686 232 666 Q232 644 243.5 634.5 Q255 625 273 625 Z M199 783 L159 862 L376 980 L432 865 L199 783 Z " />
<glyph glyph-name="atilde" unicode="&#xe3;" horiz-adv-x="567" d="M352 0 L341 56 L334 58 Q322 46 307 33.5 Q292 21 273 11 Q254 1 229.5 -5.5 Q205 -12 175 -12 Q127 -12 98 2.5 Q69 17 52.5 39.5 Q36 62 30.5 89.5 Q25 117 25 143 Q25 218 72 253 Q119 288 215 293 L318 299 L318 357 Q318 369 317.5 380 Q317 391 312.5 399.5 Q308 408 298.5 413 Q289 418 271 418 Q242 418 230 407 Q218 396 218 358 L44 371 Q44 424 65.5 456.5 Q87 489 121 506.5 Q155 524 195 530 Q235 536 273 536 Q332 536 375 527 Q418 518 445.5 497 Q473 476 486.5 440.5 Q500 405 500 352 L500 122 Q500 110 502.5 107 Q505 104 516 102 L562 94 L562 0 L352 0 Z M318 213 L277 211 Q245 209 230.5 197.5 Q216 186 216 160 Q216 137 230 127 Q244 117 263 117 Q277 117 292 120 Q307 123 318 130 L318 213 Z M265 710 Q275 707 287.5 703.5 Q300 700 312 696.5 Q324 693 333.5 691 Q343 689 348 689 Q353 689 359 696 L382 725 L460 684 L437 638 Q422 608 407 590 Q392 572 366 572 Q348 572 323.5 578 Q299 584 267 593 Q248 598 228.5 604.5 Q209 611 200 611 Q193 611 184 602 L158 574 L89 615 L119 671 Q132 697 149 711 Q166 725 189 725 Q214 725 265 710 Z " />
<glyph glyph-name="cacute" unicode="&#x107;" horiz-adv-x="524" d="M493 42 Q455 19 402.5 3.5 Q350 -12 292 -12 Q222 -12 170.5 8.5 Q119 29 85.5 64.5 Q52 100 36 148.5 Q20 197 20 254 Q20 323 40.5 376 Q61 429 98.5 464.5 Q136 500 187 518 Q238 536 300 536 Q361 536 414 521 Q467 506 494 487 L494 316 L363 321 L351 387 Q349 400 339 404 Q322 410 299 410 Q283 410 268 403 Q253 396 241.5 380 Q230 364 223 338 Q216 312 216 274 Q216 227 225.5 198 Q235 169 250 152.5 Q265 136 285 130 Q305 124 326 124 Q364 124 395.5 132 Q427 140 449 148 L493 42 Z M243 557 L176 616 L328 795 L423 707 L243 557 Z " />
<glyph glyph-name="ccaron" unicode="&#x10d;" horiz-adv-x="524" d="M493 42 Q455 19 402.5 3.5 Q350 -12 292 -12 Q222 -12 170.5 8.5 Q119 29 85.5 64.5 Q52 100 36 148.5 Q20 197 20 254 Q20 323 40.5 376 Q61 429 98.5 464.5 Q136 500 187 518 Q238 536 300 536 Q361 536 414 521 Q467 506 494 487 L494 316 L363 321 L351 387 Q349 400 339 404 Q322 410 299 410 Q283 410 268 403 Q253 396 241.5 380 Q230 364 223 338 Q216 312 216 274 Q216 227 225.5 198 Q235 169 250 152.5 Q265 136 285 130 Q305 124 326 124 Q364 124 395.5 132 Q427 140 449 148 L493 42 Z M237 576 L117 709 L186 769 L295 681 L404 769 L473 709 L353 576 L237 576 Z " />
<glyph glyph-name="ccedilla" unicode="&#xe7;" horiz-adv-x="524" d="M186 -188 Q191 -189 196.5 -189 Q202 -189 207 -189 Q245 -189 259 -175 Q273 -161 273 -141 Q273 -118 254.5 -110.5 Q236 -103 210 -102 L222 -6 Q170 3 132 26.5 Q94 50 69 84 Q44 118 32 161.5 Q20 205 20 254 Q20 323 40.5 376 Q61 429 98.5 464.5 Q136 500 187 518 Q238 536 300 536 Q361 536 414 521 Q467 506 494 487 L494 316 L363 321 L351 387 Q349 400 339 404 Q322 410 299 410 Q283 410 268 403 Q253 396 241.5 380 Q230 364 223 338 Q216 312 216 274 Q216 227 225.5 198 Q235 169 250 152.5 Q265 136 285 130 Q305 124 326 124 Q364 124 395.5 132 Q427 140 449 148 L493 42 Q456 19 406.5 4.5 Q357 -10 302 -12 L298 -46 Q311 -49 325.5 -55.5 Q340 -62 352 -73 Q364 -84 372 -100.5 Q380 -117 380 -140 Q380 -164 370.5 -187 Q361 -210 341.5 -228 Q322 -246 291.5 -257 Q261 -268 219 -268 Q212 -268 205 -268 Q198 -268 192 -267 Q185 -266 179 -265 L186 -188 Z " />
<glyph glyph-name="ccircumflex" unicode="&#x109;" horiz-adv-x="524" d="M493 42 Q455 19 402.5 3.5 Q350 -12 292 -12 Q222 -12 170.5 8.5 Q119 29 85.5 64.5 Q52 100 36 148.5 Q20 197 20 254 Q20 323 40.5 376 Q61 429 98.5 464.5 Q136 500 187 518 Q238 536 300 536 Q361 536 414 521 Q467 506 494 487 L494 316 L363 321 L351 387 Q349 400 339 404 Q322 410 299 410 Q283 410 268 403 Q253 396 241.5 380 Q230 364 223 338 Q216 312 216 274 Q216 227 225.5 198 Q235 169 250 152.5 Q265 136 285 130 Q305 124 326 124 Q364 124 395.5 132 Q427 140 449 148 L493 42 Z M404 556 L295 644 L186 556 L117 616 L237 749 L353 749 L473 616 L404 556 Z " />
<glyph glyph-name="cdotaccent" unicode="&#x10b;" horiz-adv-x="524" d="M493 42 Q455 19 402.5 3.5 Q350 -12 292 -12 Q222 -12 170.5 8.5 Q119 29 85.5 64.5 Q52 100 36 148.5 Q20 197 20 254 Q20 323 40.5 376 Q61 429 98.5 464.5 Q136 500 187 518 Q238 536 300 536 Q361 536 414 521 Q467 506 494 487 L494 316 L363 321 L351 387 Q349 400 339 404 Q322 410 299 410 Q283 410 268 403 Q253 396 241.5 380 Q230 364 223 338 Q216 312 216 274 Q216 227 225.5 198 Q235 169 250 152.5 Q265 136 285 130 Q305 124 326 124 Q364 124 395.5 132 Q427 140 449 148 L493 42 Z M189 692 Q189 743 216.5 769.5 Q244 796 295 796 Q346 796 374 769.5 Q402 743 402 692 Q402 641 374 613.5 Q346 586 295 586 Q244 586 216.5 613.5 Q189 641 189 692 Z " />
<glyph glyph-name="dcaron" unicode="&#x10f;" horiz-adv-x="753" d="M398 0 L387 56 L379 58 Q350 26 312.5 7 Q275 -12 222 -12 Q177 -12 140.5 3 Q104 18 78.5 50.5 Q53 83 39 134.5 Q25 186 25 259 Q25 335 43.5 388 Q62 441 92 474 Q122 507 160.5 521.5 Q199 536 238 536 Q281 536 312.5 522.5 Q344 509 372 488 L372 618 Q372 634 359 639 L307 658 L320 755 L550 755 L550 120 Q550 109 552.5 106 Q555 103 566 101 L612 94 L612 0 L398 0 Z M364 379 Q347 387 333 390.5 Q319 394 308 394 Q285 394 268.5 383.5 Q252 373 241.5 355 Q231 337 226.5 313 Q222 289 222 262 Q222 235 226.5 211 Q231 187 241 169.5 Q251 152 266.5 141.5 Q282 131 304 131 Q318 131 334 134 Q350 137 364 145 L364 379 Z M591 545 Q601 578 607.5 610 Q614 642 614 673 Q614 695 610.5 710 Q607 725 602 733 L725 775 Q734 761 738.5 742.5 Q743 724 743 706 Q743 684 737 662 Q734 650 727 632 Q720 614 711.5 594 Q703 574 694 554.5 Q685 535 678 520 L591 545 Z " />
<glyph glyph-name="dcroat" unicode="&#x111;" horiz-adv-x="616" d="M397 0 L386 56 L378 58 Q349 26 311.5 7 Q274 -12 221 -12 Q176 -12 139.5 2 Q103 16 77.5 46 Q52 76 38 124 Q24 172 24 241 Q24 317 42.5 366.5 Q61 416 91 445 Q121 474 159.5 485 Q198 496 237 496 Q280 496 311.5 482.5 Q343 469 371 448 L371 529 L219 529 L219 615 L371 615 L371 618 Q371 634 358 639 L306 658 L319 755 L549 755 L549 615 L600 615 L600 529 L549 529 L549 120 Q549 109 551.5 106 Q554 103 565 101 L611 94 L611 0 L397 0 Z M363 337 Q350 345 333.5 349.5 Q317 354 303 354 Q260 354 240.5 324 Q221 294 221 242 Q221 191 239.5 161 Q258 131 303 131 Q317 131 333 134 Q349 137 363 145 L363 337 Z " />
<glyph glyph-name="eacute" unicode="&#xe9;" horiz-adv-x="537" d="M509 43 Q456 19 401.5 3.5 Q347 -12 289 -12 Q214 -12 162.5 9 Q111 30 79.5 67.5 Q48 105 34 156 Q20 207 20 266 Q20 335 40.5 385.5 Q61 436 96 469.5 Q131 503 178.5 519.5 Q226 536 280 536 Q331 536 373 522.5 Q415 509 445 479 Q475 449 491.5 401.5 Q508 354 508 287 Q508 279 507.5 264.5 Q507 250 505 233 L219 233 Q222 176 244.5 151.5 Q267 127 314 127 Q336 127 372.5 133.5 Q409 140 467 159 L509 43 Z M325 323 Q325 350 321 366.5 Q317 383 310.5 392 Q304 401 294.5 404 Q285 407 274 407 Q263 407 254 403.5 Q245 400 237.5 391 Q230 382 225 365.5 Q220 349 219 323 L325 323 Z M221 557 L154 616 L306 795 L401 707 L221 557 Z " />
<glyph glyph-name="ebreve" unicode="&#x115;" horiz-adv-x="537" d="M509 43 Q456 19 401.5 3.5 Q347 -12 289 -12 Q214 -12 162.5 9 Q111 30 79.5 67.5 Q48 105 34 156 Q20 207 20 266 Q20 335 40.5 385.5 Q61 436 96 469.5 Q131 503 178.5 519.5 Q226 536 280 536 Q331 536 373 522.5 Q415 509 445 479 Q475 449 491.5 401.5 Q508 354 508 287 Q508 279 507.5 264.5 Q507 250 505 233 L219 233 Q222 176 244.5 151.5 Q267 127 314 127 Q336 127 372.5 133.5 Q409 140 467 159 L509 43 Z M325 323 Q325 350 321 366.5 Q317 383 310.5 392 Q304 401 294.5 404 Q285 407 274 407 Q263 407 254 403.5 Q245 400 237.5 391 Q230 382 225 365.5 Q220 349 219 323 L325 323 Z M273 673 Q303 673 324 688.5 Q345 704 360 739 L448 707 Q430 640 390 604 Q350 568 273 568 Q196 568 155.5 604 Q115 640 98 707 L186 739 Q198 704 220.5 688.5 Q243 673 273 673 Z " />
<glyph glyph-name="ecaron" unicode="&#x11b;" horiz-adv-x="537" d="M509 43 Q456 19 401.5 3.5 Q347 -12 289 -12 Q214 -12 162.5 9 Q111 30 79.5 67.5 Q48 105 34 156 Q20 207 20 266 Q20 335 40.5 385.5 Q61 436 96 469.5 Q131 503 178.5 519.5 Q226 536 280 536 Q331 536 373 522.5 Q415 509 445 479 Q475 449 491.5 401.5 Q508 354 508 287 Q508 279 507.5 264.5 Q507 250 505 233 L219 233 Q222 176 244.5 151.5 Q267 127 314 127 Q336 127 372.5 133.5 Q409 140 467 159 L509 43 Z M325 323 Q325 350 321 366.5 Q317 383 310.5 392 Q304 401 294.5 404 Q285 407 274 407 Q263 407 254 403.5 Q245 400 237.5 391 Q230 382 225 365.5 Q220 349 219 323 L325 323 Z M215 576 L95 709 L164 769 L273 681 L382 769 L451 709 L331 576 L215 576 Z " />
<glyph glyph-name="ecircumflex" unicode="&#xea;" horiz-adv-x="537" d="M509 43 Q456 19 401.5 3.5 Q347 -12 289 -12 Q214 -12 162.5 9 Q111 30 79.5 67.5 Q48 105 34 156 Q20 207 20 266 Q20 335 40.5 385.5 Q61 436 96 469.5 Q131 503 178.5 519.5 Q226 536 280 536 Q331 536 373 522.5 Q415 509 445 479 Q475 449 491.5 401.5 Q508 354 508 287 Q508 279 507.5 264.5 Q507 250 505 233 L219 233 Q222 176 244.5 151.5 Q267 127 314 127 Q336 127 372.5 133.5 Q409 140 467 159 L509 43 Z M325 323 Q325 350 321 366.5 Q317 383 310.5 392 Q304 401 294.5 404 Q285 407 274 407 Q263 407 254 403.5 Q245 400 237.5 391 Q230 382 225 365.5 Q220 349 219 323 L325 323 Z M382 556 L273 644 L164 556 L95 616 L215 749 L331 749 L451 616 L382 556 Z " />
<glyph glyph-name="edieresis" unicode="&#xeb;" horiz-adv-x="537" d="M509 43 Q456 19 401.5 3.5 Q347 -12 289 -12 Q214 -12 162.5 9 Q111 30 79.5 67.5 Q48 105 34 156 Q20 207 20 266 Q20 335 40.5 385.5 Q61 436 96 469.5 Q131 503 178.5 519.5 Q226 536 280 536 Q331 536 373 522.5 Q415 509 445 479 Q475 449 491.5 401.5 Q508 354 508 287 Q508 279 507.5 264.5 Q507 250 505 233 L219 233 Q222 176 244.5 151.5 Q267 127 314 127 Q336 127 372.5 133.5 Q409 140 467 159 L509 43 Z M325 323 Q325 350 321 366.5 Q317 383 310.5 392 Q304 401 294.5 404 Q285 407 274 407 Q263 407 254 403.5 Q245 400 237.5 391 Q230 382 225 365.5 Q220 349 219 323 L325 323 Z M85 660 Q85 696 107.5 717 Q130 738 166 738 Q202 738 224 717 Q246 696 246 660 Q246 624 224 602.5 Q202 581 166 581 Q130 581 107.5 602.5 Q85 624 85 660 Z M297 660 Q297 696 319.5 717 Q342 738 378 738 Q414 738 436 717 Q458 696 458 660 Q458 624 436 602.5 Q414 581 378 581 Q342 581 319.5 602.5 Q297 624 297 660 Z " />
<glyph glyph-name="edotaccent" unicode="&#x117;" horiz-adv-x="537" d="M509 43 Q456 19 401.5 3.5 Q347 -12 289 -12 Q214 -12 162.5 9 Q111 30 79.5 67.5 Q48 105 34 156 Q20 207 20 266 Q20 335 40.5 385.5 Q61 436 96 469.5 Q131 503 178.5 519.5 Q226 536 280 536 Q331 536 373 522.5 Q415 509 445 479 Q475 449 491.5 401.5 Q508 354 508 287 Q508 279 507.5 264.5 Q507 250 505 233 L219 233 Q222 176 244.5 151.5 Q267 127 314 127 Q336 127 372.5 133.5 Q409 140 467 159 L509 43 Z M325 323 Q325 350 321 366.5 Q317 383 310.5 392 Q304 401 294.5 404 Q285 407 274 407 Q263 407 254 403.5 Q245 400 237.5 391 Q230 382 225 365.5 Q220 349 219 323 L325 323 Z M167 692 Q167 743 194.5 769.5 Q222 796 273 796 Q324 796 352 769.5 Q380 743 380 692 Q380 641 352 613.5 Q324 586 273 586 Q222 586 194.5 613.5 Q167 641 167 692 Z " />
<glyph glyph-name="egrave" unicode="&#xe8;" horiz-adv-x="537" d="M509 43 Q456 19 401.5 3.5 Q347 -12 289 -12 Q214 -12 162.5 9 Q111 30 79.5 67.5 Q48 105 34 156 Q20 207 20 266 Q20 335 40.5 385.5 Q61 436 96 469.5 Q131 503 178.5 519.5 Q226 536 280 536 Q331 536 373 522.5 Q415 509 445 479 Q475 449 491.5 401.5 Q508 354 508 287 Q508 279 507.5 264.5 Q507 250 505 233 L219 233 Q222 176 244.5 151.5 Q267 127 314 127 Q336 127 372.5 133.5 Q409 140 467 159 L509 43 Z M325 323 Q325 350 321 366.5 Q317 383 310.5 392 Q304 401 294.5 404 Q285 407 274 407 Q263 407 254 403.5 Q245 400 237.5 391 Q230 382 225 365.5 Q220 349 219 323 L325 323 Z M334 557 L154 707 L249 795 L401 616 L334 557 Z " />
<glyph glyph-name="emacron" unicode="&#x113;" horiz-adv-x="537" d="M509 43 Q456 19 401.5 3.5 Q347 -12 289 -12 Q214 -12 162.5 9 Q111 30 79.5 67.5 Q48 105 34 156 Q20 207 20 266 Q20 335 40.5 385.5 Q61 436 96 469.5 Q131 503 178.5 519.5 Q226 536 280 536 Q331 536 373 522.5 Q415 509 445 479 Q475 449 491.5 401.5 Q508 354 508 287 Q508 279 507.5 264.5 Q507 250 505 233 L219 233 Q222 176 244.5 151.5 Q267 127 314 127 Q336 127 372.5 133.5 Q409 140 467 159 L509 43 Z M325 323 Q325 350 321 366.5 Q317 383 310.5 392 Q304 401 294.5 404 Q285 407 274 407 Q263 407 254 403.5 Q245 400 237.5 391 Q230 382 225 365.5 Q220 349 219 323 L325 323 Z M112 707 L435 707 L435 589 L112 589 L112 707 Z " />
<glyph glyph-name="eogonek" unicode="&#x119;" horiz-adv-x="537" d="M509 43 Q474 27 444 9 Q403 -16 376.5 -48.5 Q350 -81 350 -110 Q350 -123 355.5 -130.5 Q361 -138 377 -138 Q386 -138 401 -135.5 Q416 -133 432 -128 L463 -213 Q428 -230 392.5 -236.5 Q357 -243 330 -243 Q268 -243 241 -216 Q214 -189 214 -148 Q214 -106 239 -71 Q264 -36 294 -12 L289 -12 Q214 -12 162.5 9 Q111 30 79.5 67.5 Q48 105 34 156 Q20 207 20 266 Q20 335 40.5 385.5 Q61 436 96 469.5 Q131 503 178.5 519.5 Q226 536 280 536 Q331 536 373 522.5 Q415 509 445 479 Q475 449 491.5 401.5 Q508 354 508 287 Q508 279 507.5 264.5 Q507 250 505 233 L219 233 Q222 176 244.5 151.5 Q267 127 314 127 Q336 127 372.5 133.5 Q409 140 467 159 L509 43 Z M325 323 Q325 350 321 366.5 Q317 383 310.5 392 Q304 401 294.5 404 Q285 407 274 407 Q263 407 254 403.5 Q245 400 237.5 391 Q230 382 225 365.5 Q220 349 219 323 L325 323 Z " />
<glyph glyph-name="gbreve" unicode="&#x11f;" horiz-adv-x="584" d="M474 423 Q487 406 499.5 381 Q512 356 512 322 Q512 282 496 250.5 Q480 219 451.5 197.5 Q423 176 383 165 Q343 154 296 154 Q269 154 252.5 156.5 Q236 159 224 161 L194 123 L290 119 Q354 116 404 111 Q454 106 489 90.5 Q524 75 542.5 45 Q561 15 561 -38 Q561 -85 540.5 -120.5 Q520 -156 482.5 -179 Q445 -202 392 -213.5 Q339 -225 274 -225 Q204 -225 155.5 -217 Q107 -209 77 -194 Q47 -179 33.5 -157 Q20 -135 20 -106 Q20 -88 25 -74 Q30 -60 38 -47.5 Q46 -35 56.5 -23.5 Q67 -12 79 -1 Q53 10 40.5 29.5 Q28 49 28 70 Q28 98 52 122 Q67 137 87 153 Q107 169 128 186 Q88 204 60.5 242 Q33 280 33 339 Q33 379 47.5 415 Q62 451 91.5 478 Q121 505 166 520.5 Q211 536 273 536 Q303 536 331 533 Q359 530 375 525 L569 525 L569 429 L474 423 Z M356 342 Q356 380 335.5 398.5 Q315 417 283 417 Q251 417 229 399 Q207 381 207 343 Q207 308 224.5 289.5 Q242 271 280 271 Q312 271 334 290.5 Q356 310 356 342 Z M178 -32 Q170 -42 164 -52.5 Q158 -63 158 -75 Q158 -90 169.5 -98.5 Q181 -107 199 -111.5 Q217 -116 238.5 -117 Q260 -118 280 -118 Q292 -118 309.5 -117 Q327 -116 343 -112 Q359 -108 370.5 -99 Q382 -90 382 -75 Q382 -53 362.5 -47 Q343 -41 314 -39 L178 -32 Z M283 673 Q313 673 334 688.5 Q355 704 370 739 L458 707 Q440 640 400 604 Q360 568 283 568 Q206 568 165.5 604 Q125 640 108 707 L196 739 Q208 704 230.5 688.5 Q253 673 283 673 Z " />
<glyph glyph-name="gcircumflex" unicode="&#x11d;" horiz-adv-x="584" d="M474 423 Q487 406 499.5 381 Q512 356 512 322 Q512 282 496 250.5 Q480 219 451.5 197.5 Q423 176 383 165 Q343 154 296 154 Q269 154 252.5 156.5 Q236 159 224 161 L194 123 L290 119 Q354 116 404 111 Q454 106 489 90.5 Q524 75 542.5 45 Q561 15 561 -38 Q561 -85 540.5 -120.5 Q520 -156 482.5 -179 Q445 -202 392 -213.5 Q339 -225 274 -225 Q204 -225 155.5 -217 Q107 -209 77 -194 Q47 -179 33.5 -157 Q20 -135 20 -106 Q20 -88 25 -74 Q30 -60 38 -47.5 Q46 -35 56.5 -23.5 Q67 -12 79 -1 Q53 10 40.5 29.5 Q28 49 28 70 Q28 98 52 122 Q67 137 87 153 Q107 169 128 186 Q88 204 60.5 242 Q33 280 33 339 Q33 379 47.5 415 Q62 451 91.5 478 Q121 505 166 520.5 Q211 536 273 536 Q303 536 331 533 Q359 530 375 525 L569 525 L569 429 L474 423 Z M356 342 Q356 380 335.5 398.5 Q315 417 283 417 Q251 417 229 399 Q207 381 207 343 Q207 308 224.5 289.5 Q242 271 280 271 Q312 271 334 290.5 Q356 310 356 342 Z M178 -32 Q170 -42 164 -52.5 Q158 -63 158 -75 Q158 -90 169.5 -98.5 Q181 -107 199 -111.5 Q217 -116 238.5 -117 Q260 -118 280 -118 Q292 -118 309.5 -117 Q327 -116 343 -112 Q359 -108 370.5 -99 Q382 -90 382 -75 Q382 -53 362.5 -47 Q343 -41 314 -39 L178 -32 Z M392 556 L283 644 L174 556 L105 616 L225 749 L341 749 L461 616 L392 556 Z " />
<glyph glyph-name="gcommaaccent" unicode="&#x123;" horiz-adv-x="584" d="M474 423 Q487 406 499.5 381 Q512 356 512 322 Q512 282 496 250.5 Q480 219 451.5 197.5 Q423 176 383 165 Q343 154 296 154 Q269 154 252.5 156.5 Q236 159 224 161 L194 123 L290 119 Q354 116 404 111 Q454 106 489 90.5 Q524 75 542.5 45 Q561 15 561 -38 Q561 -85 540.5 -120.5 Q520 -156 482.5 -179 Q445 -202 392 -213.5 Q339 -225 274 -225 Q204 -225 155.5 -217 Q107 -209 77 -194 Q47 -179 33.5 -157 Q20 -135 20 -106 Q20 -88 25 -74 Q30 -60 38 -47.5 Q46 -35 56.5 -23.5 Q67 -12 79 -1 Q53 10 40.5 29.5 Q28 49 28 70 Q28 98 52 122 Q67 137 87 153 Q107 169 128 186 Q88 204 60.5 242 Q33 280 33 339 Q33 379 47.5 415 Q62 451 91.5 478 Q121 505 166 520.5 Q211 536 273 536 Q303 536 331 533 Q359 530 375 525 L569 525 L569 429 L474 423 Z M356 342 Q356 380 335.5 398.5 Q315 417 283 417 Q251 417 229 399 Q207 381 207 343 Q207 308 224.5 289.5 Q242 271 280 271 Q312 271 334 290.5 Q356 310 356 342 Z M178 -32 Q170 -42 164 -52.5 Q158 -63 158 -75 Q158 -90 169.5 -98.5 Q181 -107 199 -111.5 Q217 -116 238.5 -117 Q260 -118 280 -118 Q292 -118 309.5 -117 Q327 -116 343 -112 Q359 -108 370.5 -99 Q382 -90 382 -75 Q382 -53 362.5 -47 Q343 -41 314 -39 L178 -32 Z M345 793 L323 687 Q320 677 328 674 L371 662 L352 558 Q322 558 295 560.5 Q268 563 247.5 571 Q227 579 215 595.5 Q203 612 203 639 Q203 656 209 674.5 Q215 693 224 713 L270 814 L345 793 Z " />
<glyph glyph-name="gdotaccent" unicode="&#x121;" horiz-adv-x="584" d="M474 423 Q487 406 499.5 381 Q512 356 512 322 Q512 282 496 250.5 Q480 219 451.5 197.5 Q423 176 383 165 Q343 154 296 154 Q269 154 252.5 156.5 Q236 159 224 161 L194 123 L290 119 Q354 116 404 111 Q454 106 489 90.5 Q524 75 542.5 45 Q561 15 561 -38 Q561 -85 540.5 -120.5 Q520 -156 482.5 -179 Q445 -202 392 -213.5 Q339 -225 274 -225 Q204 -225 155.5 -217 Q107 -209 77 -194 Q47 -179 33.5 -157 Q20 -135 20 -106 Q20 -88 25 -74 Q30 -60 38 -47.5 Q46 -35 56.5 -23.5 Q67 -12 79 -1 Q53 10 40.5 29.5 Q28 49 28 70 Q28 98 52 122 Q67 137 87 153 Q107 169 128 186 Q88 204 60.5 242 Q33 280 33 339 Q33 379 47.5 415 Q62 451 91.5 478 Q121 505 166 520.5 Q211 536 273 536 Q303 536 331 533 Q359 530 375 525 L569 525 L569 429 L474 423 Z M356 342 Q356 380 335.5 398.5 Q315 417 283 417 Q251 417 229 399 Q207 381 207 343 Q207 308 224.5 289.5 Q242 271 280 271 Q312 271 334 290.5 Q356 310 356 342 Z M178 -32 Q170 -42 164 -52.5 Q158 -63 158 -75 Q158 -90 169.5 -98.5 Q181 -107 199 -111.5 Q217 -116 238.5 -117 Q260 -118 280 -118 Q292 -118 309.5 -117 Q327 -116 343 -112 Q359 -108 370.5 -99 Q382 -90 382 -75 Q382 -53 362.5 -47 Q343 -41 314 -39 L178 -32 Z M177 692 Q177 743 204.5 769.5 Q232 796 283 796 Q334 796 362 769.5 Q390 743 390 692 Q390 641 362 613.5 Q334 586 283 586 Q232 586 204.5 613.5 Q177 641 177 692 Z " />
<glyph glyph-name="hbar" unicode="&#x127;" horiz-adv-x="621" d="M261 121 Q261 109 263.5 106 Q266 103 277 101 L320 94 L320 0 L16 0 L16 95 L58 101 Q69 103 71.5 106.5 Q74 110 74 121 L74 529 L15 529 L15 615 L74 615 L74 618 Q74 635 61 639 L9 658 L22 755 L259 755 L259 615 L396 615 L396 529 L259 529 L259 440 L266 438 Q278 449 292 459.5 Q306 470 323 478 Q340 486 361 491 Q382 496 408 496 Q485 496 519.5 454 Q554 412 554 324 L554 121 Q554 109 556.5 106 Q559 103 570 101 L616 94 L616 0 L367 0 L367 288 Q367 322 359.5 337 Q352 352 329 352 Q307 352 289.5 345 Q272 338 261 330 L261 121 Z " />
<glyph glyph-name="hcircumflex" unicode="&#x125;" horiz-adv-x="621" d="M139 867 L31 787 L-32 853 L81 970 L197 970 L310 853 L247 787 L139 867 Z M261 121 Q261 109 263.5 106 Q266 103 277 101 L320 94 L320 0 L16 0 L16 95 L58 101 Q69 103 71.5 106.5 Q74 110 74 121 L74 618 Q74 635 61 639 L9 658 L22 755 L259 755 L259 480 L266 478 Q278 489 292 499.5 Q306 510 323 518 Q340 526 361 531 Q382 536 408 536 Q485 536 519.5 494 Q554 452 554 364 L554 121 Q554 109 556.5 106 Q559 103 570 101 L616 94 L616 0 L367 0 L367 328 Q367 362 359.5 377 Q352 392 329 392 Q307 392 289.5 385 Q272 378 261 370 L261 121 Z " />
<glyph glyph-name="iacute" unicode="&#xed;" horiz-adv-x="328" d="M16 0 L16 95 L58 101 Q69 103 71.5 106.5 Q74 110 74 121 L74 388 Q74 405 61 409 L9 428 L22 525 L261 525 L261 121 Q261 109 263.5 106 Q266 103 277 101 L320 94 L320 0 L16 0 Z M93 559 L26 618 L178 797 L273 709 L93 559 Z " />
<glyph glyph-name="ibreve" unicode="&#x12d;" horiz-adv-x="328" d="M144 674 Q170 674 188.5 689.5 Q207 705 221 740 L309 708 Q292 641 254 605 Q216 569 144 569 Q72 569 33.5 605 Q-5 641 -21 708 L67 740 Q78 705 98 689.5 Q118 674 144 674 Z M16 0 L16 95 L58 101 Q69 103 71.5 106.5 Q74 110 74 121 L74 388 Q74 405 61 409 L9 428 L22 525 L261 525 L261 121 Q261 109 263.5 106 Q266 103 277 101 L320 94 L320 0 L16 0 Z " />
<glyph glyph-name="icircumflex" unicode="&#xee;" horiz-adv-x="328" d="M243 566 L144 654 L45 566 L-24 626 L86 759 L202 759 L312 626 L243 566 Z M16 0 L16 95 L58 101 Q69 103 71.5 106.5 Q74 110 74 121 L74 388 Q74 405 61 409 L9 428 L22 525 L261 525 L261 121 Q261 109 263.5 106 Q266 103 277 101 L320 94 L320 0 L16 0 Z " />
<glyph glyph-name="idieresis" unicode="&#xef;" horiz-adv-x="328" d="M-40 662 Q-40 698 -17.5 719 Q5 740 41 740 Q77 740 99 719 Q121 698 121 662 Q121 626 99 604.5 Q77 583 41 583 Q5 583 -17.5 604.5 Q-40 626 -40 662 Z M164 662 Q164 698 186.5 719 Q209 740 245 740 Q281 740 303 719 Q325 698 325 662 Q325 626 303 604.5 Q281 583 245 583 Q209 583 186.5 604.5 Q164 626 164 662 Z M16 0 L16 95 L58 101 Q69 103 71.5 106.5 Q74 110 74 121 L74 388 Q74 405 61 409 L9 428 L22 525 L261 525 L261 121 Q261 109 263.5 106 Q266 103 277 101 L320 94 L320 0 L16 0 Z " />
<glyph glyph-name="igrave" unicode="&#xec;" horiz-adv-x="328" d="M16 0 L16 95 L58 101 Q69 103 71.5 106.5 Q74 110 74 121 L74 388 Q74 405 61 409 L9 428 L22 525 L261 525 L261 121 Q261 109 263.5 106 Q266 103 277 101 L320 94 L320 0 L16 0 Z M206 559 L26 709 L121 797 L273 618 L206 559 Z " />
<glyph glyph-name="imacron" unicode="&#x12b;" horiz-adv-x="328" d="M3 708 L276 708 L276 590 L3 590 L3 708 Z M16 0 L16 95 L58 101 Q69 103 71.5 106.5 Q74 110 74 121 L74 388 Q74 405 61 409 L9 428 L22 525 L261 525 L261 121 Q261 109 263.5 106 Q266 103 277 101 L320 94 L320 0 L16 0 Z " />
<glyph glyph-name="iogonek" unicode="&#x12f;" horiz-adv-x="328" d="M267 -213 Q232 -230 196.5 -236.5 Q161 -243 134 -243 Q72 -243 45 -216 Q18 -189 18 -148 Q18 -124 27 -102.5 Q36 -81 49.5 -62 Q63 -43 80 -27.5 Q97 -12 114 0 L16 0 L16 95 L58 101 Q69 103 71.5 106.5 Q74 110 74 121 L74 388 Q74 405 61 409 L9 428 L22 525 L261 525 L261 121 Q261 109 263.5 106 Q266 103 277 101 L320 94 L320 0 L225 0 Q214 -10 202 -23 Q190 -36 179 -51 Q168 -66 161 -81 Q154 -96 154 -110 Q154 -123 159.5 -130.5 Q165 -138 181 -138 Q190 -138 205 -135.5 Q220 -133 236 -128 L267 -213 Z M262 692 Q262 641 234 613.5 Q206 586 155 586 Q104 586 76.5 613.5 Q49 641 49 692 Q49 743 76.5 769.5 Q104 796 155 796 Q206 796 234 769.5 Q262 743 262 692 Z " />
<glyph glyph-name="itilde" unicode="&#x129;" horiz-adv-x="328" d="M138 709 Q158 703 182 695.5 Q206 688 216 688 Q220 688 226 695 L248 724 L321 683 L299 637 Q285 607 270.5 589 Q256 571 233 571 Q216 571 193 577 Q170 583 139 592 Q122 597 103.5 603.5 Q85 610 76 610 Q70 610 61 601 L37 573 L-28 614 L0 670 Q12 696 28.5 710 Q45 724 66 724 Q90 724 138 709 Z M16 0 L16 95 L58 101 Q69 103 71.5 106.5 Q74 110 74 121 L74 388 Q74 405 61 409 L9 428 L22 525 L261 525 L261 121 Q261 109 263.5 106 Q266 103 277 101 L320 94 L320 0 L16 0 Z " />
<glyph glyph-name="jcircumflex" unicode="&#x135;" horiz-adv-x="323" d="M72 388 Q72 404 59 409 L7 428 L20 525 L259 525 L259 -45 Q259 -142 208 -182.5 Q157 -223 67 -223 Q32 -223 2 -216.5 Q-28 -210 -52 -201 Q-76 -192 -92.5 -182.5 Q-109 -173 -116 -167 L-69 -69 Q-57 -75 -33.5 -84 Q-10 -93 17 -93 Q29 -93 39.5 -90.5 Q50 -88 57 -80 Q64 -72 68 -57 Q72 -42 72 -16 L72 388 Z M246 566 L137 654 L28 566 L-41 626 L79 759 L195 759 L315 626 L246 566 Z " />
<glyph glyph-name="kcommaaccent" unicode="&#x137;" horiz-adv-x="637" d="M410 0 L297 246 L261 208 L261 121 Q261 109 263.5 106 Q266 103 277 101 L320 94 L320 0 L16 0 L16 95 L58 101 Q69 103 71.5 106.5 Q74 110 74 121 L74 618 Q74 634 61 639 L9 658 L22 755 L261 755 L261 361 L427 525 L581 525 L581 431 L532 423 Q522 421 518 418.5 Q514 416 507 408 L448 349 L562 117 Q567 106 574 103 Q581 100 592 98 L632 92 L632 0 L410 0 Z M261 -277 L281 -176 Q284 -166 276 -163 L234 -151 L254 -42 Q284 -42 311 -44.5 Q338 -47 358.5 -55 Q379 -63 391 -79.5 Q403 -96 403 -123 Q403 -140 397 -158.5 Q391 -177 382 -197 L336 -298 L261 -277 Z " />
<glyph glyph-name="lacute" unicode="&#x13a;" horiz-adv-x="328" d="M16 0 L16 95 L58 101 Q69 103 71.5 106.5 Q74 110 74 121 L74 618 Q74 634 61 639 L9 658 L22 755 L261 755 L261 121 Q261 109 263.5 106 Q266 103 277 101 L320 94 L320 0 L16 0 Z M48 787 L8 866 L225 984 L281 869 L48 787 Z " />
<glyph glyph-name="lcaron" unicode="&#x13e;" horiz-adv-x="461" d="M16 0 L16 95 L58 101 Q69 103 71.5 106.5 Q74 110 74 121 L74 618 Q74 634 61 639 L9 658 L22 755 L261 755 L261 121 Q261 109 263.5 106 Q266 103 277 101 L320 94 L320 0 L16 0 Z M303 545 Q313 578 319.5 610 Q326 642 326 673 Q326 695 322.5 710 Q319 725 314 733 L437 775 Q446 761 450.5 742.5 Q455 724 455 706 Q455 684 449 662 Q446 650 439 632 Q432 614 423.5 594 Q415 574 406 554.5 Q397 535 390 520 L303 545 Z " />
<glyph glyph-name="lcommaaccent" unicode="&#x13c;" horiz-adv-x="328" d="M16 0 L16 95 L58 101 Q69 103 71.5 106.5 Q74 110 74 121 L74 618 Q74 634 61 639 L9 658 L22 755 L261 755 L261 121 Q261 109 263.5 106 Q266 103 277 101 L320 94 L320 0 L16 0 Z M108 -277 L128 -176 Q131 -166 123 -163 L81 -151 L101 -42 Q131 -42 158 -44.5 Q185 -47 205.5 -55 Q226 -63 238 -79.5 Q250 -96 250 -123 Q250 -140 244 -158.5 Q238 -177 229 -197 L183 -298 L108 -277 Z " />
<glyph glyph-name="ldot" unicode="&#x140;" horiz-adv-x="480" d="M16 0 L16 95 L58 101 Q69 103 71.5 106.5 Q74 110 74 121 L74 618 Q74 634 61 639 L9 658 L22 755 L261 755 L261 121 Q261 109 263.5 106 Q266 103 277 101 L320 94 L320 0 L16 0 Z M500.21 405.166 Q500.21 357.322 473.919 331.524 Q447.628 305.726 399.741 305.726 Q351.854 305.726 326.032 331.524 Q300.211 357.322 300.211 405.166 Q300.211 453.009 326.032 477.869 Q351.854 502.729 399.741 502.729 Q447.628 502.729 473.919 477.869 Q500.21 453.009 500.21 405.166 Z " />
<glyph glyph-name="lslash" unicode="&#x142;" horiz-adv-x="339" d="M16 0 L16 95 L58 101 Q69 103 71.5 106.5 Q74 110 74 121 L74 284 L13 258 L13 392 L74 418 L74 618 Q74 634 61 639 L9 658 L22 755 L261 755 L261 498 L317 522 L317 388 L261 364 L261 121 Q261 109 263.5 106 Q266 103 277 101 L320 94 L320 0 L16 0 Z " />
<glyph glyph-name="nacute" unicode="&#x144;" horiz-adv-x="621" d="M261 121 Q261 109 263.5 106 Q266 103 277 101 L320 94 L320 0 L16 0 L16 95 L58 101 Q69 103 71.5 106.5 Q74 110 74 121 L74 388 Q74 405 61 409 L10 428 L23 525 L224 525 L232 478 L239 478 Q267 498 306.5 517 Q346 536 408 536 Q485 536 519.5 494 Q554 452 554 364 L554 121 Q554 109 556.5 106 Q559 103 570 101 L616 94 L616 0 L367 0 L367 328 Q367 362 359.5 377 Q352 392 329 392 Q307 392 289.5 385 Q272 378 261 370 L261 121 Z M246 557 L179 616 L331 795 L426 707 L246 557 Z " />
<glyph glyph-name="napostrophe" unicode="&#x149;" horiz-adv-x="685" d="M325 121 Q325 109 327.5 106 Q330 103 341 101 L384 94 L384 0 L80 0 L80 95 L122 101 Q133 103 135.5 106.5 Q138 110 138 121 L138 388 Q138 405 125 409 L74 428 L87 525 L288 525 L296 478 L303 478 Q331 498 370.5 517 Q410 536 472 536 Q549 536 583.5 494 Q618 452 618 364 L618 121 Q618 109 620.5 106 Q623 103 634 101 L680 94 L680 0 L431 0 L431 328 Q431 362 423.5 377 Q416 392 393 392 Q371 392 353.5 385 Q336 378 325 370 L325 121 Z M-8 518 L8 598 Q11 606 4 609 L-29 618 L-13 705 Q10 705 31.5 703 Q53 701 69.5 694 Q86 687 95.5 674.5 Q105 662 105 640 Q105 626 100.5 611.5 Q96 597 89 582 L52 502 L-8 518 Z " />
<glyph glyph-name="ncaron" unicode="&#x148;" horiz-adv-x="621" d="M261 121 Q261 109 263.5 106 Q266 103 277 101 L320 94 L320 0 L16 0 L16 95 L58 101 Q69 103 71.5 106.5 Q74 110 74 121 L74 388 Q74 405 61 409 L10 428 L23 525 L224 525 L232 478 L239 478 Q267 498 306.5 517 Q346 536 408 536 Q485 536 519.5 494 Q554 452 554 364 L554 121 Q554 109 556.5 106 Q559 103 570 101 L616 94 L616 0 L367 0 L367 328 Q367 362 359.5 377 Q352 392 329 392 Q307 392 289.5 385 Q272 378 261 370 L261 121 Z M240 576 L120 709 L189 769 L298 681 L407 769 L476 709 L356 576 L240 576 Z " />
<glyph glyph-name="ncommaaccent" unicode="&#x146;" horiz-adv-x="621" d="M261 121 Q261 109 263.5 106 Q266 103 277 101 L320 94 L320 0 L16 0 L16 95 L58 101 Q69 103 71.5 106.5 Q74 110 74 121 L74 388 Q74 405 61 409 L10 428 L23 525 L224 525 L232 478 L239 478 Q267 498 306.5 517 Q346 536 408 536 Q485 536 519.5 494 Q554 452 554 364 L554 121 Q554 109 556.5 106 Q559 103 570 101 L616 94 L616 0 L367 0 L367 328 Q367 362 359.5 377 Q352 392 329 392 Q307 392 289.5 385 Q272 378 261 370 L261 121 Z M253 -277 L273 -176 Q276 -166 268 -163 L226 -151 L246 -42 Q276 -42 303 -44.5 Q330 -47 350.5 -55 Q371 -63 383 -79.5 Q395 -96 395 -123 Q395 -140 389 -158.5 Q383 -177 374 -197 L328 -298 L253 -277 Z " />
<glyph glyph-name="ntilde" unicode="&#xf1;" horiz-adv-x="621" d="M261 121 Q261 109 263.5 106 Q266 103 277 101 L320 94 L320 0 L16 0 L16 95 L58 101 Q69 103 71.5 106.5 Q74 110 74 121 L74 388 Q74 405 61 409 L10 428 L23 525 L224 525 L232 478 L239 478 Q267 498 306.5 517 Q346 536 408 536 Q485 536 519.5 494 Q554 452 554 364 L554 121 Q554 109 556.5 106 Q559 103 570 101 L616 94 L616 0 L367 0 L367 328 Q367 362 359.5 377 Q352 392 329 392 Q307 392 289.5 385 Q272 378 261 370 L261 121 Z M291 710 Q301 707 313.5 703.5 Q326 700 338 696.5 Q350 693 359.5 691 Q369 689 374 689 Q379 689 385 696 L408 725 L486 684 L463 638 Q448 608 433 590 Q418 572 392 572 Q374 572 349.5 578 Q325 584 293 593 Q274 598 254.5 604.5 Q235 611 226 611 Q219 611 210 602 L184 574 L115 615 L145 671 Q158 697 175 711 Q192 725 215 725 Q240 725 291 710 Z " />
<glyph glyph-name="oacute" unicode="&#xf3;" horiz-adv-x="589" d="M291 -12 Q219 -12 168 8 Q117 28 84 65 Q51 102 35.5 152.5 Q20 203 20 265 Q20 326 37 376 Q54 426 89 461.5 Q124 497 176.5 516.5 Q229 536 301 536 Q373 536 424 516 Q475 496 507.5 461 Q540 426 554.5 377 Q569 328 569 270 Q569 206 552.5 154 Q536 102 502 65 Q468 28 415.5 8 Q363 -12 291 -12 Z M295 114 Q312 114 326.5 121 Q341 128 351.5 145.5 Q362 163 368 192 Q374 221 374 265 Q374 307 368.5 334 Q363 361 353 377.5 Q343 394 329 400.5 Q315 407 298 407 Q281 407 266 400.5 Q251 394 240 378 Q229 362 222.5 334.5 Q216 307 216 264 Q216 221 221.5 192.5 Q227 164 237.5 146.5 Q248 129 262.5 121.5 Q277 114 295 114 Z M249 557 L182 616 L334 795 L429 707 L249 557 Z " />
<glyph glyph-name="obreve" unicode="&#x14f;" horiz-adv-x="589" d="M291 -12 Q219 -12 168 8 Q117 28 84 65 Q51 102 35.5 152.5 Q20 203 20 265 Q20 326 37 376 Q54 426 89 461.5 Q124 497 176.5 516.5 Q229 536 301 536 Q373 536 424 516 Q475 496 507.5 461 Q540 426 554.5 377 Q569 328 569 270 Q569 206 552.5 154 Q536 102 502 65 Q468 28 415.5 8 Q363 -12 291 -12 Z M295 114 Q312 114 326.5 121 Q341 128 351.5 145.5 Q362 163 368 192 Q374 221 374 265 Q374 307 368.5 334 Q363 361 353 377.5 Q343 394 329 400.5 Q315 407 298 407 Q281 407 266 400.5 Q251 394 240 378 Q229 362 222.5 334.5 Q216 307 216 264 Q216 221 221.5 192.5 Q227 164 237.5 146.5 Q248 129 262.5 121.5 Q277 114 295 114 Z M301 673 Q331 673 352 688.5 Q373 704 388 739 L476 707 Q458 640 418 604 Q378 568 301 568 Q224 568 183.5 604 Q143 640 126 707 L214 739 Q226 704 248.5 688.5 Q271 673 301 673 Z " />
<glyph glyph-name="ocircumflex" unicode="&#xf4;" horiz-adv-x="589" d="M291 -12 Q219 -12 168 8 Q117 28 84 65 Q51 102 35.5 152.5 Q20 203 20 265 Q20 326 37 376 Q54 426 89 461.5 Q124 497 176.5 516.5 Q229 536 301 536 Q373 536 424 516 Q475 496 507.5 461 Q540 426 554.5 377 Q569 328 569 270 Q569 206 552.5 154 Q536 102 502 65 Q468 28 415.5 8 Q363 -12 291 -12 Z M295 114 Q312 114 326.5 121 Q341 128 351.5 145.5 Q362 163 368 192 Q374 221 374 265 Q374 307 368.5 334 Q363 361 353 377.5 Q343 394 329 400.5 Q315 407 298 407 Q281 407 266 400.5 Q251 394 240 378 Q229 362 222.5 334.5 Q216 307 216 264 Q216 221 221.5 192.5 Q227 164 237.5 146.5 Q248 129 262.5 121.5 Q277 114 295 114 Z M410 556 L301 644 L192 556 L123 616 L243 749 L359 749 L479 616 L410 556 Z " />
<glyph glyph-name="odieresis" unicode="&#xf6;" horiz-adv-x="589" d="M291 -12 Q219 -12 168 8 Q117 28 84 65 Q51 102 35.5 152.5 Q20 203 20 265 Q20 326 37 376 Q54 426 89 461.5 Q124 497 176.5 516.5 Q229 536 301 536 Q373 536 424 516 Q475 496 507.5 461 Q540 426 554.5 377 Q569 328 569 270 Q569 206 552.5 154 Q536 102 502 65 Q468 28 415.5 8 Q363 -12 291 -12 Z M295 114 Q312 114 326.5 121 Q341 128 351.5 145.5 Q362 163 368 192 Q374 221 374 265 Q374 307 368.5 334 Q363 361 353 377.5 Q343 394 329 400.5 Q315 407 298 407 Q281 407 266 400.5 Q251 394 240 378 Q229 362 222.5 334.5 Q216 307 216 264 Q216 221 221.5 192.5 Q227 164 237.5 146.5 Q248 129 262.5 121.5 Q277 114 295 114 Z M113 660 Q113 696 135.5 717 Q158 738 194 738 Q230 738 252 717 Q274 696 274 660 Q274 624 252 602.5 Q230 581 194 581 Q158 581 135.5 602.5 Q113 624 113 660 Z M325 660 Q325 696 347.5 717 Q370 738 406 738 Q442 738 464 717 Q486 696 486 660 Q486 624 464 602.5 Q442 581 406 581 Q370 581 347.5 602.5 Q325 624 325 660 Z " />
<glyph glyph-name="ograve" unicode="&#xf2;" horiz-adv-x="589" d="M291 -12 Q219 -12 168 8 Q117 28 84 65 Q51 102 35.5 152.5 Q20 203 20 265 Q20 326 37 376 Q54 426 89 461.5 Q124 497 176.5 516.5 Q229 536 301 536 Q373 536 424 516 Q475 496 507.5 461 Q540 426 554.5 377 Q569 328 569 270 Q569 206 552.5 154 Q536 102 502 65 Q468 28 415.5 8 Q363 -12 291 -12 Z M295 114 Q312 114 326.5 121 Q341 128 351.5 145.5 Q362 163 368 192 Q374 221 374 265 Q374 307 368.5 334 Q363 361 353 377.5 Q343 394 329 400.5 Q315 407 298 407 Q281 407 266 400.5 Q251 394 240 378 Q229 362 222.5 334.5 Q216 307 216 264 Q216 221 221.5 192.5 Q227 164 237.5 146.5 Q248 129 262.5 121.5 Q277 114 295 114 Z M362 557 L182 707 L277 795 L429 616 L362 557 Z " />
<glyph glyph-name="ohungarumlaut" unicode="&#x151;" horiz-adv-x="589" d="M291 -12 Q219 -12 168 8 Q117 28 84 65 Q51 102 35.5 152.5 Q20 203 20 265 Q20 326 37 376 Q54 426 89 461.5 Q124 497 176.5 516.5 Q229 536 301 536 Q373 536 424 516 Q475 496 507.5 461 Q540 426 554.5 377 Q569 328 569 270 Q569 206 552.5 154 Q536 102 502 65 Q468 28 415.5 8 Q363 -12 291 -12 Z M295 114 Q312 114 326.5 121 Q341 128 351.5 145.5 Q362 163 368 192 Q374 221 374 265 Q374 307 368.5 334 Q363 361 353 377.5 Q343 394 329 400.5 Q315 407 298 407 Q281 407 266 400.5 Q251 394 240 378 Q229 362 222.5 334.5 Q216 307 216 264 Q216 221 221.5 192.5 Q227 164 237.5 146.5 Q248 129 262.5 121.5 Q277 114 295 114 Z M185 555 L117 614 L261 799 L357 713 L185 555 Z M392 555 L324 614 L468 799 L564 713 L392 555 Z " />
<glyph glyph-name="omacron" unicode="&#x14d;" horiz-adv-x="589" d="M291 -12 Q219 -12 168 8 Q117 28 84 65 Q51 102 35.5 152.5 Q20 203 20 265 Q20 326 37 376 Q54 426 89 461.5 Q124 497 176.5 516.5 Q229 536 301 536 Q373 536 424 516 Q475 496 507.5 461 Q540 426 554.5 377 Q569 328 569 270 Q569 206 552.5 154 Q536 102 502 65 Q468 28 415.5 8 Q363 -12 291 -12 Z M295 114 Q312 114 326.5 121 Q341 128 351.5 145.5 Q362 163 368 192 Q374 221 374 265 Q374 307 368.5 334 Q363 361 353 377.5 Q343 394 329 400.5 Q315 407 298 407 Q281 407 266 400.5 Q251 394 240 378 Q229 362 222.5 334.5 Q216 307 216 264 Q216 221 221.5 192.5 Q227 164 237.5 146.5 Q248 129 262.5 121.5 Q277 114 295 114 Z M140 707 L463 707 L463 589 L140 589 L140 707 Z " />
<glyph glyph-name="oslash" unicode="&#xf8;" horiz-adv-x="589" d="M67 -81 L118 34 Q67 70 43.5 129.5 Q20 189 20 265 Q20 326 37 376 Q54 426 89 461.5 Q124 497 176.5 516.5 Q229 536 301 536 Q312 536 321.5 535.5 Q331 535 340 534 L367 595 L513 595 L468 494 Q522 459 545.5 401.5 Q569 344 569 270 Q569 206 552.5 154 Q536 102 502 65 Q468 28 415.5 8 Q363 -12 291 -12 Q267 -12 246 -9 L214 -81 L67 -81 Z M295 114 Q312 114 326.5 121 Q341 128 351.5 145.5 Q362 163 368 192 Q374 221 374 265 Q374 295 371 319 L281 115 Q285 114 295 114 Z M216 264 Q216 250 216.5 237.5 Q217 225 218 214 L304 407 L298 407 Q281 407 266 400.5 Q251 394 240 378 Q229 362 222.5 334.5 Q216 307 216 264 Z " />
<glyph glyph-name="oslashacute" unicode="&#x1ff;" horiz-adv-x="589" d="M67 -81 L118 34 Q67 70 43.5 129.5 Q20 189 20 265 Q20 326 37 376 Q54 426 89 461.5 Q124 497 176.5 516.5 Q229 536 301 536 Q312 536 321.5 535.5 Q331 535 340 534 L367 595 L513 595 L468 494 Q522 459 545.5 401.5 Q569 344 569 270 Q569 206 552.5 154 Q536 102 502 65 Q468 28 415.5 8 Q363 -12 291 -12 Q267 -12 246 -9 L214 -81 L67 -81 Z M295 114 Q312 114 326.5 121 Q341 128 351.5 145.5 Q362 163 368 192 Q374 221 374 265 Q374 295 371 319 L281 115 Q285 114 295 114 Z M216 264 Q216 250 216.5 237.5 Q217 225 218 214 L304 407 L298 407 Q281 407 266 400.5 Q251 394 240 378 Q229 362 222.5 334.5 Q216 307 216 264 Z M270 557 L203 616 L355 795 L450 707 L270 557 Z " />
<glyph glyph-name="otilde" unicode="&#xf5;" horiz-adv-x="589" d="M291 -12 Q219 -12 168 8 Q117 28 84 65 Q51 102 35.5 152.5 Q20 203 20 265 Q20 326 37 376 Q54 426 89 461.5 Q124 497 176.5 516.5 Q229 536 301 536 Q373 536 424 516 Q475 496 507.5 461 Q540 426 554.5 377 Q569 328 569 270 Q569 206 552.5 154 Q536 102 502 65 Q468 28 415.5 8 Q363 -12 291 -12 Z M295 114 Q312 114 326.5 121 Q341 128 351.5 145.5 Q362 163 368 192 Q374 221 374 265 Q374 307 368.5 334 Q363 361 353 377.5 Q343 394 329 400.5 Q315 407 298 407 Q281 407 266 400.5 Q251 394 240 378 Q229 362 222.5 334.5 Q216 307 216 264 Q216 221 221.5 192.5 Q227 164 237.5 146.5 Q248 129 262.5 121.5 Q277 114 295 114 Z M294 710 Q304 707 316.5 703.5 Q329 700 341 696.5 Q353 693 362.5 691 Q372 689 377 689 Q382 689 388 696 L411 725 L489 684 L466 638 Q451 608 436 590 Q421 572 395 572 Q377 572 352.5 578 Q328 584 296 593 Q277 598 257.5 604.5 Q238 611 229 611 Q222 611 213 602 L187 574 L118 615 L148 671 Q161 697 178 711 Q195 725 218 725 Q243 725 294 710 Z " />
<glyph glyph-name="racute" unicode="&#x155;" horiz-adv-x="497" d="M16 0 L16 96 L58 102 Q69 104 71.5 107.5 Q74 111 74 122 L74 388 Q74 404 61 409 L9 428 L22 525 L224 525 L238 438 L246 438 Q271 483 302.5 509.5 Q334 536 381 536 Q390 536 403.5 535 Q417 534 431 532.5 Q445 531 457.5 529.5 Q470 528 477 526 L477 326 L328 331 L319 373 Q315 386 306 386 Q295 386 282 379.5 Q269 373 261 367 L261 124 Q261 112 264 108.5 Q267 105 278 104 L380 95 L380 0 L16 0 Z M185 557 L118 616 L270 795 L365 707 L185 557 Z " />
<glyph glyph-name="rcaron" unicode="&#x159;" horiz-adv-x="497" d="M16 0 L16 96 L58 102 Q69 104 71.5 107.5 Q74 111 74 122 L74 388 Q74 404 61 409 L9 428 L22 525 L224 525 L238 438 L246 438 Q271 483 302.5 509.5 Q334 536 381 536 Q390 536 403.5 535 Q417 534 431 532.5 Q445 531 457.5 529.5 Q470 528 477 526 L477 326 L328 331 L319 373 Q315 386 306 386 Q295 386 282 379.5 Q269 373 261 367 L261 124 Q261 112 264 108.5 Q267 105 278 104 L380 95 L380 0 L16 0 Z M179 576 L59 709 L128 769 L237 681 L346 769 L415 709 L295 576 L179 576 Z " />
<glyph glyph-name="rcommaaccent" unicode="&#x157;" horiz-adv-x="497" d="M16 0 L16 96 L58 102 Q69 104 71.5 107.5 Q74 111 74 122 L74 388 Q74 404 61 409 L9 428 L22 525 L224 525 L238 438 L246 438 Q271 483 302.5 509.5 Q334 536 381 536 Q390 536 403.5 535 Q417 534 431 532.5 Q445 531 457.5 529.5 Q470 528 477 526 L477 326 L328 331 L319 373 Q315 386 306 386 Q295 386 282 379.5 Q269 373 261 367 L261 124 Q261 112 264 108.5 Q267 105 278 104 L380 95 L380 0 L16 0 Z M146 -277 L166 -176 Q169 -166 161 -163 L119 -151 L139 -42 Q169 -42 196 -44.5 Q223 -47 243.5 -55 Q264 -63 276 -79.5 Q288 -96 288 -123 Q288 -140 282 -158.5 Q276 -177 267 -197 L221 -298 L146 -277 Z " />
<glyph glyph-name="sacute" unicode="&#x15b;" horiz-adv-x="504" d="M336 358 L327 406 Q326 418 317 420 Q308 423 293.5 425 Q279 427 262 427 Q235 427 217.5 418.5 Q200 410 200 390 Q200 370 225 361.5 Q250 353 286 345 Q317 339 351.5 329.5 Q386 320 415 301.5 Q444 283 463 252 Q482 221 482 170 Q482 123 464 88.5 Q446 54 414.5 31.5 Q383 9 338.5 -1.5 Q294 -12 242 -12 Q206 -12 171 -8 Q136 -4 107 1.5 Q78 7 58 13.5 Q38 20 31 25 L31 169 L162 161 L171 112 Q173 98 184 96 Q192 94 209.5 91.5 Q227 89 250 89 Q317 89 317 130 Q317 143 309 152 Q301 161 286.5 166.5 Q272 172 253.5 176 Q235 180 214 183 Q184 188 152 196.5 Q120 205 93.5 223.5 Q67 242 50 272.5 Q33 303 33 352 Q33 401 52.5 435.5 Q72 470 104.5 492.5 Q137 515 179.5 525.5 Q222 536 268 536 Q299 536 329.5 533 Q360 530 386.5 525.5 Q413 521 434 515.5 Q455 510 467 505 L467 351 L336 358 Z M208 557 L141 616 L293 795 L388 707 L208 557 Z " />
<glyph glyph-name="scaron" unicode="&#x161;" horiz-adv-x="504" d="M336 358 L327 406 Q326 418 317 420 Q308 423 293.5 425 Q279 427 262 427 Q235 427 217.5 418.5 Q200 410 200 390 Q200 370 225 361.5 Q250 353 286 345 Q317 339 351.5 329.5 Q386 320 415 301.5 Q444 283 463 252 Q482 221 482 170 Q482 123 464 88.5 Q446 54 414.5 31.5 Q383 9 338.5 -1.5 Q294 -12 242 -12 Q206 -12 171 -8 Q136 -4 107 1.5 Q78 7 58 13.5 Q38 20 31 25 L31 169 L162 161 L171 112 Q173 98 184 96 Q192 94 209.5 91.5 Q227 89 250 89 Q317 89 317 130 Q317 143 309 152 Q301 161 286.5 166.5 Q272 172 253.5 176 Q235 180 214 183 Q184 188 152 196.5 Q120 205 93.5 223.5 Q67 242 50 272.5 Q33 303 33 352 Q33 401 52.5 435.5 Q72 470 104.5 492.5 Q137 515 179.5 525.5 Q222 536 268 536 Q299 536 329.5 533 Q360 530 386.5 525.5 Q413 521 434 515.5 Q455 510 467 505 L467 351 L336 358 Z M202 576 L82 709 L151 769 L260 681 L369 769 L438 709 L318 576 L202 576 Z " />
<glyph glyph-name="scedilla" unicode="&#x15f;" horiz-adv-x="504" d="M161 -188 Q166 -189 171.5 -189 Q177 -189 182 -189 Q220 -189 234 -175 Q248 -161 248 -141 Q248 -118 229.5 -110.5 Q211 -103 185 -102 L197 -10 Q167 -8 139.5 -4 Q112 0 89.5 5 Q67 10 52 15.5 Q37 21 31 25 L31 169 L162 161 L171 112 Q173 98 184 96 Q192 94 209.5 91.5 Q227 89 250 89 Q317 89 317 130 Q317 143 309 152 Q301 161 286.5 166.5 Q272 172 253.5 176 Q235 180 214 183 Q184 188 152 196.5 Q120 205 93.5 223.5 Q67 242 50 272.5 Q33 303 33 352 Q33 401 52.5 435.5 Q72 470 104.5 492.5 Q137 515 179.5 525.5 Q222 536 268 536 Q299 536 329.5 533 Q360 530 386.5 525.5 Q413 521 434 515.5 Q455 510 467 505 L467 351 L336 358 L327 406 Q326 418 317 420 Q308 423 293.5 425 Q279 427 262 427 Q235 427 217.5 418.5 Q200 410 200 390 Q200 370 225 361.5 Q250 353 286 345 Q317 339 351.5 329.5 Q386 320 415 301.5 Q444 283 463 252 Q482 221 482 170 Q482 127 467 94.5 Q452 62 425 39.5 Q398 17 360 4.5 Q322 -8 277 -11 L273 -46 Q286 -49 300.5 -55.5 Q315 -62 327 -73 Q339 -84 347 -100.5 Q355 -117 355 -140 Q355 -164 345.5 -187 Q336 -210 316.5 -228 Q297 -246 266.5 -257 Q236 -268 194 -268 Q187 -268 180 -268 Q173 -268 167 -267 Q160 -266 154 -265 L161 -188 Z " />
<glyph glyph-name="scircumflex" unicode="&#x15d;" horiz-adv-x="504" d="M336 358 L327 406 Q326 418 317 420 Q308 423 293.5 425 Q279 427 262 427 Q235 427 217.5 418.5 Q200 410 200 390 Q200 370 225 361.5 Q250 353 286 345 Q317 339 351.5 329.5 Q386 320 415 301.5 Q444 283 463 252 Q482 221 482 170 Q482 123 464 88.5 Q446 54 414.5 31.5 Q383 9 338.5 -1.5 Q294 -12 242 -12 Q206 -12 171 -8 Q136 -4 107 1.5 Q78 7 58 13.5 Q38 20 31 25 L31 169 L162 161 L171 112 Q173 98 184 96 Q192 94 209.5 91.5 Q227 89 250 89 Q317 89 317 130 Q317 143 309 152 Q301 161 286.5 166.5 Q272 172 253.5 176 Q235 180 214 183 Q184 188 152 196.5 Q120 205 93.5 223.5 Q67 242 50 272.5 Q33 303 33 352 Q33 401 52.5 435.5 Q72 470 104.5 492.5 Q137 515 179.5 525.5 Q222 536 268 536 Q299 536 329.5 533 Q360 530 386.5 525.5 Q413 521 434 515.5 Q455 510 467 505 L467 351 L336 358 Z M369 556 L260 644 L151 556 L82 616 L202 749 L318 749 L438 616 L369 556 Z " />
<glyph glyph-name="scommaaccent" unicode="&#x219;" horiz-adv-x="504" d="M336 358 L327 406 Q326 418 317 420 Q308 423 293.5 425 Q279 427 262 427 Q235 427 217.5 418.5 Q200 410 200 390 Q200 370 225 361.5 Q250 353 286 345 Q317 339 351.5 329.5 Q386 320 415 301.5 Q444 283 463 252 Q482 221 482 170 Q482 123 464 88.5 Q446 54 414.5 31.5 Q383 9 338.5 -1.5 Q294 -12 242 -12 Q206 -12 171 -8 Q136 -4 107 1.5 Q78 7 58 13.5 Q38 20 31 25 L31 169 L162 161 L171 112 Q173 98 184 96 Q192 94 209.5 91.5 Q227 89 250 89 Q317 89 317 130 Q317 143 309 152 Q301 161 286.5 166.5 Q272 172 253.5 176 Q235 180 214 183 Q184 188 152 196.5 Q120 205 93.5 223.5 Q67 242 50 272.5 Q33 303 33 352 Q33 401 52.5 435.5 Q72 470 104.5 492.5 Q137 515 179.5 525.5 Q222 536 268 536 Q299 536 329.5 533 Q360 530 386.5 525.5 Q413 521 434 515.5 Q455 510 467 505 L467 351 L336 358 Z M194 -277 L214 -176 Q217 -166 209 -163 L167 -151 L187 -42 Q217 -42 244 -44.5 Q271 -47 291.5 -55 Q312 -63 324 -79.5 Q336 -96 336 -123 Q336 -140 330 -158.5 Q324 -177 315 -197 L269 -298 L194 -277 Z " />
<glyph glyph-name="tbar" unicode="&#x167;" horiz-adv-x="453" d="M433 33 Q399 15 350.5 1.5 Q302 -12 256 -12 Q206 -12 172 -2 Q138 8 117 29 Q96 50 86.5 83.5 Q77 117 77 165 L77 213 L0 213 L0 332 L77 332 L77 396 Q77 401 76 403.5 Q75 406 69 406 L0 406 L0 513 Q33 519 57.5 531.5 Q82 544 100 565 Q118 586 129.5 616.5 Q141 647 148 689 L264 689 L264 535 Q264 530 265 527.5 Q266 525 272 525 L410 525 L410 406 L264 406 L264 332 L409 332 L409 213 L264 213 L264 201 Q264 158 276.5 140.5 Q289 123 329 123 Q349 123 368 127 Q387 131 403 136 L433 33 Z " />
<glyph glyph-name="tcaron" unicode="&#x165;" horiz-adv-x="467" d="M433 33 Q399 15 350.5 1.5 Q302 -12 256 -12 Q206 -12 172 -2 Q138 8 117 29 Q96 50 86.5 83.5 Q77 117 77 165 L77 396 Q77 401 76 403.5 Q75 406 69 406 L0 406 L0 513 Q33 519 57.5 531.5 Q82 544 100 565 Q118 586 129.5 616.5 Q141 647 148 689 L264 689 L264 535 Q264 530 265 527.5 Q266 525 272 525 L410 525 L410 406 L264 406 L264 201 Q264 158 276.5 140.5 Q289 123 329 123 Q349 123 368 127 Q387 131 403 136 L433 33 Z M300 581 Q310 614 316.5 646 Q323 678 323 709 Q323 731 319.5 746 Q316 761 311 769 L434 811 Q443 797 447.5 778.5 Q452 760 452 742 Q452 720 446 698 Q443 686 436 668 Q429 650 420.5 630 Q412 610 403 590.5 Q394 571 387 556 L300 581 Z " />
<glyph glyph-name="uni0163" unicode="&#x163;" horiz-adv-x="453" d="M162 -188 Q167 -189 172.5 -189 Q178 -189 183 -189 Q221 -189 235 -175 Q249 -161 249 -141 Q249 -118 230.5 -110.5 Q212 -103 186 -102 L198 -8 Q132 3 104.5 43.5 Q77 84 77 165 L77 396 Q77 401 76 403.5 Q75 406 69 406 L0 406 L0 513 Q33 519 57.5 531.5 Q82 544 100 565 Q118 586 129.5 616.5 Q141 647 148 689 L264 689 L264 535 Q264 530 265 527.5 Q266 525 272 525 L410 525 L410 406 L264 406 L264 201 Q264 158 276.5 140.5 Q289 123 329 123 Q349 123 368 127 Q387 131 403 136 L433 33 Q403 17 361.5 4.5 Q320 -8 278 -11 L274 -46 Q287 -49 301.5 -55.5 Q316 -62 328 -73 Q340 -84 348 -100.5 Q356 -117 356 -140 Q356 -164 346.5 -187 Q337 -210 317.5 -228 Q298 -246 267.5 -257 Q237 -268 195 -268 Q188 -268 181 -268 Q174 -268 168 -267 Q161 -266 155 -265 L162 -188 Z " />
<glyph glyph-name="uni021B" unicode="&#x21b;" horiz-adv-x="453" d="M433 33 Q399 15 350.5 1.5 Q302 -12 256 -12 Q206 -12 172 -2 Q138 8 117 29 Q96 50 86.5 83.5 Q77 117 77 165 L77 396 Q77 401 76 403.5 Q75 406 69 406 L0 406 L0 513 Q33 519 57.5 531.5 Q82 544 100 565 Q118 586 129.5 616.5 Q141 647 148 689 L264 689 L264 535 Q264 530 265 527.5 Q266 525 272 525 L410 525 L410 406 L264 406 L264 201 Q264 158 276.5 140.5 Q289 123 329 123 Q349 123 368 127 Q387 131 403 136 L433 33 Z M170 -277 L190 -176 Q193 -166 185 -163 L143 -151 L163 -42 Q193 -42 220 -44.5 Q247 -47 267.5 -55 Q288 -63 300 -79.5 Q312 -96 312 -123 Q312 -140 306 -158.5 Q300 -177 291 -197 L245 -298 L170 -277 Z " />
<glyph glyph-name="uacute" unicode="&#xfa;" horiz-adv-x="621" d="M400 0 L392 47 L386 49 Q372 39 355 28 Q338 17 317.5 8 Q297 -1 272 -6.5 Q247 -12 216 -12 Q139 -12 104.5 30 Q70 72 70 160 L70 399 Q70 411 67.5 414 Q65 417 54 419 L8 426 L20 525 L257 525 L257 196 Q257 162 264.5 147 Q272 132 295 132 Q317 132 334.5 139 Q352 146 363 154 L363 399 Q363 411 360.5 414 Q358 417 347 419 L309 426 L321 525 L550 525 L550 120 Q550 112 552 108 Q554 104 564 102 L612 95 L612 0 L400 0 Z M243 557 L176 616 L328 795 L423 707 L243 557 Z " />
<glyph glyph-name="ubreve" unicode="&#x16d;" horiz-adv-x="621" d="M400 0 L392 47 L386 49 Q372 39 355 28 Q338 17 317.5 8 Q297 -1 272 -6.5 Q247 -12 216 -12 Q139 -12 104.5 30 Q70 72 70 160 L70 399 Q70 411 67.5 414 Q65 417 54 419 L8 426 L20 525 L257 525 L257 196 Q257 162 264.5 147 Q272 132 295 132 Q317 132 334.5 139 Q352 146 363 154 L363 399 Q363 411 360.5 414 Q358 417 347 419 L309 426 L321 525 L550 525 L550 120 Q550 112 552 108 Q554 104 564 102 L612 95 L612 0 L400 0 Z M295 673 Q325 673 346 688.5 Q367 704 382 739 L470 707 Q452 640 412 604 Q372 568 295 568 Q218 568 177.5 604 Q137 640 120 707 L208 739 Q220 704 242.5 688.5 Q265 673 295 673 Z " />
<glyph glyph-name="ucircumflex" unicode="&#xfb;" horiz-adv-x="621" d="M400 0 L392 47 L386 49 Q372 39 355 28 Q338 17 317.5 8 Q297 -1 272 -6.5 Q247 -12 216 -12 Q139 -12 104.5 30 Q70 72 70 160 L70 399 Q70 411 67.5 414 Q65 417 54 419 L8 426 L20 525 L257 525 L257 196 Q257 162 264.5 147 Q272 132 295 132 Q317 132 334.5 139 Q352 146 363 154 L363 399 Q363 411 360.5 414 Q358 417 347 419 L309 426 L321 525 L550 525 L550 120 Q550 112 552 108 Q554 104 564 102 L612 95 L612 0 L400 0 Z M404 556 L295 644 L186 556 L117 616 L237 749 L353 749 L473 616 L404 556 Z " />
<glyph glyph-name="udieresis" unicode="&#xfc;" horiz-adv-x="621" d="M400 0 L392 47 L386 49 Q372 39 355 28 Q338 17 317.5 8 Q297 -1 272 -6.5 Q247 -12 216 -12 Q139 -12 104.5 30 Q70 72 70 160 L70 399 Q70 411 67.5 414 Q65 417 54 419 L8 426 L20 525 L257 525 L257 196 Q257 162 264.5 147 Q272 132 295 132 Q317 132 334.5 139 Q352 146 363 154 L363 399 Q363 411 360.5 414 Q358 417 347 419 L309 426 L321 525 L550 525 L550 120 Q550 112 552 108 Q554 104 564 102 L612 95 L612 0 L400 0 Z M107 660 Q107 696 129.5 717 Q152 738 188 738 Q224 738 246 717 Q268 696 268 660 Q268 624 246 602.5 Q224 581 188 581 Q152 581 129.5 602.5 Q107 624 107 660 Z M319 660 Q319 696 341.5 717 Q364 738 400 738 Q436 738 458 717 Q480 696 480 660 Q480 624 458 602.5 Q436 581 400 581 Q364 581 341.5 602.5 Q319 624 319 660 Z " />
<glyph glyph-name="ugrave" unicode="&#xf9;" horiz-adv-x="621" d="M400 0 L392 47 L386 49 Q372 39 355 28 Q338 17 317.5 8 Q297 -1 272 -6.5 Q247 -12 216 -12 Q139 -12 104.5 30 Q70 72 70 160 L70 399 Q70 411 67.5 414 Q65 417 54 419 L8 426 L20 525 L257 525 L257 196 Q257 162 264.5 147 Q272 132 295 132 Q317 132 334.5 139 Q352 146 363 154 L363 399 Q363 411 360.5 414 Q358 417 347 419 L309 426 L321 525 L550 525 L550 120 Q550 112 552 108 Q554 104 564 102 L612 95 L612 0 L400 0 Z M356 557 L176 707 L271 795 L423 616 L356 557 Z " />
<glyph glyph-name="uhungarumlaut" unicode="&#x171;" horiz-adv-x="621" d="M400 0 L392 47 L386 49 Q372 39 355 28 Q338 17 317.5 8 Q297 -1 272 -6.5 Q247 -12 216 -12 Q139 -12 104.5 30 Q70 72 70 160 L70 399 Q70 411 67.5 414 Q65 417 54 419 L8 426 L20 525 L257 525 L257 196 Q257 162 264.5 147 Q272 132 295 132 Q317 132 334.5 139 Q352 146 363 154 L363 399 Q363 411 360.5 414 Q358 417 347 419 L309 426 L321 525 L550 525 L550 120 Q550 112 552 108 Q554 104 564 102 L612 95 L612 0 L400 0 Z M179 555 L111 614 L255 799 L351 713 L179 555 Z M386 555 L318 614 L462 799 L558 713 L386 555 Z " />
<glyph glyph-name="umacron" unicode="&#x16b;" horiz-adv-x="621" d="M400 0 L392 47 L386 49 Q372 39 355 28 Q338 17 317.5 8 Q297 -1 272 -6.5 Q247 -12 216 -12 Q139 -12 104.5 30 Q70 72 70 160 L70 399 Q70 411 67.5 414 Q65 417 54 419 L8 426 L20 525 L257 525 L257 196 Q257 162 264.5 147 Q272 132 295 132 Q317 132 334.5 139 Q352 146 363 154 L363 399 Q363 411 360.5 414 Q358 417 347 419 L309 426 L321 525 L550 525 L550 120 Q550 112 552 108 Q554 104 564 102 L612 95 L612 0 L400 0 Z M134 707 L457 707 L457 589 L134 589 L134 707 Z " />
<glyph glyph-name="uogonek" unicode="&#x173;" horiz-adv-x="621" d="M612 0 Q561 -20 527 -50.5 Q493 -81 493 -110 Q493 -123 498.5 -130.5 Q504 -138 520 -138 Q529 -138 544 -135.5 Q559 -133 575 -128 L606 -213 Q571 -230 535.5 -236.5 Q500 -243 473 -243 Q411 -243 384 -216 Q357 -189 357 -148 Q357 -124 368 -102 Q379 -80 396 -61.5 Q413 -43 433.5 -27.5 Q454 -12 474 0 L400 0 L392 47 L386 49 Q372 39 355 28 Q338 17 317.5 8 Q297 -1 272 -6.5 Q247 -12 216 -12 Q139 -12 104.5 30 Q70 72 70 160 L70 399 Q70 411 67.5 414 Q65 417 54 419 L8 426 L20 525 L257 525 L257 196 Q257 162 264.5 147 Q272 132 295 132 Q317 132 334.5 139 Q352 146 363 154 L363 399 Q363 411 360.5 414 Q358 417 347 419 L309 426 L321 525 L550 525 L550 120 Q550 112 552 108 Q554 104 564 102 L612 95 L612 0 L612 0 Z " />
<glyph glyph-name="uring" unicode="&#x16f;" horiz-adv-x="621" d="M400 0 L392 47 L386 49 Q372 39 355 28 Q338 17 317.5 8 Q297 -1 272 -6.5 Q247 -12 216 -12 Q139 -12 104.5 30 Q70 72 70 160 L70 399 Q70 411 67.5 414 Q65 417 54 419 L8 426 L20 525 L257 525 L257 196 Q257 162 264.5 147 Q272 132 295 132 Q317 132 334.5 139 Q352 146 363 154 L363 399 Q363 411 360.5 414 Q358 417 347 419 L309 426 L321 525 L550 525 L550 120 Q550 112 552 108 Q554 104 564 102 L612 95 L612 0 L400 0 Z M413 674 Q413 621 380.5 594 Q348 567 297 567 Q246 567 213 593.5 Q180 620 180 671 Q180 698 189.5 719 Q199 740 215 754 Q231 768 252 775 Q273 782 297 782 Q345 782 379 754.5 Q413 727 413 674 Z M296 633 Q313 633 325 642.5 Q337 652 337 674 Q337 694 325.5 704 Q314 714 297 714 Q279 714 267 704 Q255 694 255 674 Q255 652 266.5 642.5 Q278 633 296 633 Z " />
<glyph glyph-name="utilde" unicode="&#x169;" horiz-adv-x="621" d="M400 0 L392 47 L386 49 Q372 39 355 28 Q338 17 317.5 8 Q297 -1 272 -6.5 Q247 -12 216 -12 Q139 -12 104.5 30 Q70 72 70 160 L70 399 Q70 411 67.5 414 Q65 417 54 419 L8 426 L20 525 L257 525 L257 196 Q257 162 264.5 147 Q272 132 295 132 Q317 132 334.5 139 Q352 146 363 154 L363 399 Q363 411 360.5 414 Q358 417 347 419 L309 426 L321 525 L550 525 L550 120 Q550 112 552 108 Q554 104 564 102 L612 95 L612 0 L400 0 Z M288 710 Q298 707 310.5 703.5 Q323 700 335 696.5 Q347 693 356.5 691 Q366 689 371 689 Q376 689 382 696 L405 725 L483 684 L460 638 Q445 608 430 590 Q415 572 389 572 Q371 572 346.5 578 Q322 584 290 593 Q271 598 251.5 604.5 Q232 611 223 611 Q216 611 207 602 L181 574 L112 615 L142 671 Q155 697 172 711 Q189 725 212 725 Q237 725 288 710 Z " />
<glyph glyph-name="wacute" unicode="&#x1e83;" horiz-adv-x="902" d="M180 0 L62 402 Q59 411 54.5 414 Q50 417 41 419 L0 428 L18 525 L303 525 L303 426 L253 420 L313 186 L323 186 L398 513 L578 513 L652 186 L661 186 L717 420 L665 426 L679 525 L902 525 L902 428 L866 421 Q848 418 843 401 L727 0 L536 0 L472 298 L464 298 L402 0 L180 0 Z M428 557 L361 616 L513 795 L608 707 L428 557 Z " />
<glyph glyph-name="wcircumflex" unicode="&#x175;" horiz-adv-x="902" d="M180 0 L62 402 Q59 411 54.5 414 Q50 417 41 419 L0 428 L18 525 L303 525 L303 426 L253 420 L313 186 L323 186 L398 513 L578 513 L652 186 L661 186 L717 420 L665 426 L679 525 L902 525 L902 428 L866 421 Q848 418 843 401 L727 0 L536 0 L472 298 L464 298 L402 0 L180 0 Z M589 556 L480 644 L371 556 L302 616 L422 749 L538 749 L658 616 L589 556 Z " />
<glyph glyph-name="wdieresis" unicode="&#x1e85;" horiz-adv-x="902" d="M180 0 L62 402 Q59 411 54.5 414 Q50 417 41 419 L0 428 L18 525 L303 525 L303 426 L253 420 L313 186 L323 186 L398 513 L578 513 L652 186 L661 186 L717 420 L665 426 L679 525 L902 525 L902 428 L866 421 Q848 418 843 401 L727 0 L536 0 L472 298 L464 298 L402 0 L180 0 Z M292 660 Q292 696 314.5 717 Q337 738 373 738 Q409 738 431 717 Q453 696 453 660 Q453 624 431 602.5 Q409 581 373 581 Q337 581 314.5 602.5 Q292 624 292 660 Z M504 660 Q504 696 526.5 717 Q549 738 585 738 Q621 738 643 717 Q665 696 665 660 Q665 624 643 602.5 Q621 581 585 581 Q549 581 526.5 602.5 Q504 624 504 660 Z " />
<glyph glyph-name="wgrave" unicode="&#x1e81;" horiz-adv-x="902" d="M180 0 L62 402 Q59 411 54.5 414 Q50 417 41 419 L0 428 L18 525 L303 525 L303 426 L253 420 L313 186 L323 186 L398 513 L578 513 L652 186 L661 186 L717 420 L665 426 L679 525 L902 525 L902 428 L866 421 Q848 418 843 401 L727 0 L536 0 L472 298 L464 298 L402 0 L180 0 Z M529 557 L349 707 L444 795 L596 616 L529 557 Z " />
<glyph glyph-name="yacute" unicode="&#xfd;" horiz-adv-x="642" d="M118 -212 L118 -115 L199 -106 Q216 -105 226 -84 L259 -12 L62 402 Q59 411 54.5 414 Q50 417 41 419 L0 428 L18 525 L316 525 L316 428 L255 420 L352 201 L362 201 L450 420 L387 428 L401 525 L642 525 L642 428 L610 422 Q601 420 595 417.5 Q589 415 585 405 L380 -104 L488 -116 L488 -212 L118 -212 Z M283 557 L216 616 L368 795 L463 707 L283 557 Z " />
<glyph glyph-name="ycircumflex" unicode="&#x177;" horiz-adv-x="642" d="M118 -212 L118 -115 L199 -106 Q216 -105 226 -84 L259 -12 L62 402 Q59 411 54.5 414 Q50 417 41 419 L0 428 L18 525 L316 525 L316 428 L255 420 L352 201 L362 201 L450 420 L387 428 L401 525 L642 525 L642 428 L610 422 Q601 420 595 417.5 Q589 415 585 405 L380 -104 L488 -116 L488 -212 L118 -212 Z M444 556 L335 644 L226 556 L157 616 L277 749 L393 749 L513 616 L444 556 Z " />
<glyph glyph-name="ydieresis" unicode="&#xff;" horiz-adv-x="642" d="M118 -212 L118 -115 L199 -106 Q216 -105 226 -84 L259 -12 L62 402 Q59 411 54.5 414 Q50 417 41 419 L0 428 L18 525 L316 525 L316 428 L255 420 L352 201 L362 201 L450 420 L387 428 L401 525 L642 525 L642 428 L610 422 Q601 420 595 417.5 Q589 415 585 405 L380 -104 L488 -116 L488 -212 L118 -212 Z M147 660 Q147 696 169.5 717 Q192 738 228 738 Q264 738 286 717 Q308 696 308 660 Q308 624 286 602.5 Q264 581 228 581 Q192 581 169.5 602.5 Q147 624 147 660 Z M359 660 Q359 696 381.5 717 Q404 738 440 738 Q476 738 498 717 Q520 696 520 660 Q520 624 498 602.5 Q476 581 440 581 Q404 581 381.5 602.5 Q359 624 359 660 Z " />
<glyph glyph-name="ygrave" unicode="&#x1ef3;" horiz-adv-x="642" d="M118 -212 L118 -115 L199 -106 Q216 -105 226 -84 L259 -12 L62 402 Q59 411 54.5 414 Q50 417 41 419 L0 428 L18 525 L316 525 L316 428 L255 420 L352 201 L362 201 L450 420 L387 428 L401 525 L642 525 L642 428 L610 422 Q601 420 595 417.5 Q589 415 585 405 L380 -104 L488 -116 L488 -212 L118 -212 Z M385 557 L205 707 L300 795 L452 616 L385 557 Z " />
<glyph glyph-name="zacute" unicode="&#x17a;" horiz-adv-x="535" d="M33 0 L33 102 L289 415 L188 415 Q181 415 179 412.5 Q177 410 175 402 L163 351 L34 343 L34 525 L494 525 L494 421 L245 109 L351 109 Q362 109 365 122 L377 188 L510 194 L510 0 L33 0 Z M202 557 L135 616 L287 795 L382 707 L202 557 Z " />
<glyph glyph-name="zcaron" unicode="&#x17e;" horiz-adv-x="535" d="M33 0 L33 102 L289 415 L188 415 Q181 415 179 412.5 Q177 410 175 402 L163 351 L34 343 L34 525 L494 525 L494 421 L245 109 L351 109 Q362 109 365 122 L377 188 L510 194 L510 0 L33 0 Z M196 576 L76 709 L145 769 L254 681 L363 769 L432 709 L312 576 L196 576 Z " />
<glyph glyph-name="zdotaccent" unicode="&#x17c;" horiz-adv-x="535" d="M33 0 L33 102 L289 415 L188 415 Q181 415 179 412.5 Q177 410 175 402 L163 351 L34 343 L34 525 L494 525 L494 421 L245 109 L351 109 Q362 109 365 122 L377 188 L510 194 L510 0 L33 0 Z M148 692 Q148 743 175.5 769.5 Q203 796 254 796 Q305 796 333 769.5 Q361 743 361 692 Q361 641 333 613.5 Q305 586 254 586 Q203 586 175.5 613.5 Q148 641 148 692 Z " />
<glyph glyph-name="ff" unicode="&#xfb00;" horiz-adv-x="769" d="M71 101 Q82 103 84.5 107 Q87 111 87 122 L87 396 Q87 401 86 403.5 Q85 406 79 406 L15 406 L15 525 L87 525 L87 545 Q87 655 148.5 700 Q210 745 323 745 Q358 745 393 738.5 Q428 732 457 715 Q487 742 531.5 754.5 Q576 767 635 767 Q672 767 706.5 761 Q741 755 768 738 Q795 721 812 690 Q829 659 829 609 L656 589 Q657 626 650 639 Q643 652 623 652 Q597 652 592 635.5 Q587 619 587 595 L587 535 Q587 530 588 527.5 Q589 525 595 525 L749 525 L749 406 L587 406 L587 126 Q587 114 590.5 110.5 Q594 107 605 106 L730 94 L730 0 L400 0 L400 396 Q400 400 399.5 402.5 Q399 405 394 406 L274 406 L274 126 Q274 114 277.5 110 Q281 106 292 105 L358 94 L358 0 L19 0 L19 95 L71 101 Z M400 571 Q400 608 387 619 Q374 630 339 630 Q299 630 286.5 615.5 Q274 601 274 573 L274 535 Q274 530 275 527.5 Q276 525 282 525 L400 525 L400 571 Z " />
<glyph glyph-name="fi" unicode="&#xfb01;" horiz-adv-x="655" d="M87 561 Q87 621 105.5 661 Q124 701 157.5 724.5 Q191 748 239.5 757.5 Q288 767 348 767 Q399 767 440.5 760 Q482 753 512 733.5 Q542 714 559 679.5 Q576 645 576 589 L402 569 Q403 616 390.5 634 Q378 652 338 652 Q308 652 291 639.5 Q274 627 274 592 L274 535 Q274 530 275 527.5 Q276 525 282 525 L588 525 L588 121 Q588 109 590.5 106 Q593 103 604 101 L647 94 L647 0 L401 0 L401 387 Q401 395 398 400.5 Q395 406 384 406 L274 406 L274 126 Q274 113 277.5 110 Q281 107 292 105 L358 94 L358 0 L19 0 L19 95 L71 101 Q82 102 84.5 106.5 Q87 111 87 122 L87 396 Q87 401 86 403.5 Q85 406 79 406 L15 406 L15 525 L87 525 L87 561 Z " />
</font>
</svg>
