<?xml version="1.0" encoding="UTF-8"?>
<svg xmlns="http://www.w3.org/2000/svg" xmlns:xlink="http://www.w3.org/1999/xlink" version="1.2" >
<font id="AdelleLt">
<font-face  font-family="Adelle" units-per-em="1000" ascent="1000" descent="-370" font-style="normal" font-weight="300" font-stretch="normal" cap-height="724" x-height="511" underline-position="-75" underline-thickness="50" />
<missing-glyph  horiz-adv-x="500" d="" />
<glyph glyph-name="space" unicode="&#x20;" horiz-adv-x="230" d="" />
<glyph glyph-name="uni00A0" unicode="&#xa0;" horiz-adv-x="230" d="" />
<glyph glyph-name="quotesingle" unicode="&#x27;" horiz-adv-x="202" d="M65 447 L65 706 L137 706 L137 447 L65 447 Z " />
<glyph glyph-name="quotedbl" unicode="&#x22;" horiz-adv-x="360" d="M223 447 L223 706 L295 706 L295 447 L223 447 Z M65 447 L65 706 L137 706 L137 447 L65 447 Z " />
<glyph glyph-name="numbersign" unicode="&#x23;" horiz-adv-x="607" d="M330 0 L352 146 L217 146 L195 0 L136 0 L157 146 L36 146 L49 198 L166 198 L191 360 L70 360 L82 413 L199 413 L218 543 L278 543 L258 413 L391 413 L410 543 L470 543 L450 413 L571 413 L560 360 L442 360 L419 198 L538 198 L527 146 L411 146 L389 0 L330 0 Z M383 360 L250 360 L225 198 L360 198 L383 360 Z " />
<glyph glyph-name="ampersand" unicode="&#x26;" horiz-adv-x="711" d="M567 0 L481 104 Q434 41 379 14.5 Q324 -12 254 -12 Q207 -12 168 2.5 Q129 17 101 43 Q73 69 58 106.5 Q43 144 43 190 Q43 271 90 325 Q137 379 229 400 Q206 426 187.5 462 Q169 498 169 533 Q169 560 178.5 585 Q188 610 207.5 629.5 Q227 649 257 660.5 Q287 672 329 672 Q351 672 373.5 668.5 Q396 665 415.5 660 Q435 655 449.5 649.5 Q464 644 472 640 L472 514 L421 517 L409 585 Q407 593 404 597.5 Q401 602 393 605 Q367 614 329 614 Q281 614 258 594 Q235 574 235 541 Q235 522 239.5 505.5 Q244 489 254.5 470.5 Q265 452 283 429 Q301 406 329 374 L473 205 L479 223 Q493 266 501 302.5 Q509 339 512 387 L627 387 L627 343 L581 334 Q572 332 569 329.5 Q566 327 564 317 Q558 277 546 234.5 Q534 192 518 159 L592 70 Q599 62 604.5 59 Q610 56 621 54 L675 44 L675 0 L567 0 Z M266 351 Q231 346 202.5 334 Q174 322 153 302.5 Q132 283 120.5 255.5 Q109 228 109 191 Q109 165 117.5 139 Q126 113 144.5 92 Q163 71 191.5 58 Q220 45 260 45 Q313 45 359.5 71 Q406 97 440 150 L266 351 Z " />
<glyph glyph-name="asterisk" unicode="&#x2a;" horiz-adv-x="469" d="M251 588 L218 588 L203 692 L203 755 L266 755 L266 692 L251 588 L343 638 L402 659 L424 600 L364 578 L261 557 L338 487 L379 439 L331 398 L290 447 L235 536 L261 557 L251 588 Z M105 578 L45 600 L67 659 L127 638 L218 588 L209 558 L235 536 L179 447 L138 398 L90 439 L131 487 L209 558 L105 578 Z " />
<glyph glyph-name="comma" unicode="&#x2c;" horiz-adv-x="175" d="M40 -102 L71 2 Q72 9 66 12 L34 26 L56 99 Q100 97 126 86.5 Q152 76 152 40 Q152 28 148 16.5 Q144 5 138 -6 L79 -117 L40 -102 Z " />
<glyph glyph-name="hyphen" unicode="&#x2d;" horiz-adv-x="311" d="M20 255 L20 329 L291 329 L291 255 L20 255 Z " />
<glyph glyph-name="period" unicode="&#x2e;" horiz-adv-x="206" d="M166 45 Q166 -12 108 -12 Q50 -12 50 45 Q50 102 108 102 Q166 102 166 45 Z " />
<glyph glyph-name="colon" unicode="&#x3a;" horiz-adv-x="206" d="M166 45 Q166 -12 108 -12 Q50 -12 50 45 Q50 102 108 102 Q166 102 166 45 Z M166 439 Q166 382 108 382 Q50 382 50 439 Q50 496 108 496 Q166 496 166 439 Z " />
<glyph glyph-name="semicolon" unicode="&#x3b;" horiz-adv-x="175" d="M40 -102 Q43 -93 49 -76.5 Q55 -60 60.5 -42.5 Q66 -25 69.5 -11 Q73 3 71 8 Q70 10 66 12 L34 26 L56 99 Q100 97 126 86.5 Q152 76 152 40 Q152 26 144.5 6.5 Q137 -13 125.5 -34 Q114 -55 101.5 -76.5 Q89 -98 79 -117 L40 -102 Z M157 439 Q157 382 99 382 Q41 382 41 439 Q41 496 99 496 Q157 496 157 439 Z " />
<glyph glyph-name="question" unicode="&#x3f;" horiz-adv-x="457" d="M141 182 L141 357 Q183 361 221.5 370.5 Q260 380 289 399.5 Q318 419 335 450.5 Q352 482 352 530 Q352 571 341 597.5 Q330 624 310 639 Q290 654 263 660 Q236 666 205 666 Q167 666 144 661 Q121 656 111 649 Q107 646 105 641.5 Q103 637 101 626 L91 572 L40 569 L40 692 Q47 695 63 700.5 Q79 706 101.5 711 Q124 716 151.5 720 Q179 724 208 724 Q256 724 295 714.5 Q334 705 362.5 683.5 Q391 662 406.5 626 Q422 590 422 536 Q422 482 405.5 443 Q389 404 360 377 Q331 350 292 333.5 Q253 317 208 309 L208 182 L141 182 Z M233 45 Q233 -12 175 -12 Q117 -12 117 45 Q117 102 175 102 Q233 102 233 45 Z " />
<glyph glyph-name="exclam" unicode="&#x21;" horiz-adv-x="256" d="M101 183 L89 562 L89 724 L166 724 L166 562 L156 183 L101 183 Z M187 45 Q187 -12 129 -12 Q71 -12 71 45 Q71 102 129 102 Q187 102 187 45 Z " />
<glyph glyph-name="exclamdown" unicode="&#xa1;" horiz-adv-x="256" d="M194 464 Q194 407 136 407 Q78 407 78 464 Q78 521 136 521 Q194 521 194 464 Z M173 -215 L96 -215 L96 -53 L108 326 L163 326 L173 -53 L173 -215 Z " />
<glyph glyph-name="questiondown" unicode="&#xbf;" horiz-adv-x="457" d="M430 -183 Q423 -186 407 -191.5 Q391 -197 368.5 -202 Q346 -207 318.5 -211 Q291 -215 262 -215 Q214 -215 175 -205.5 Q136 -196 107.5 -174.5 Q79 -153 63.5 -117 Q48 -81 48 -27 Q48 27 64.5 66.5 Q81 106 110 133 Q139 160 178 176 Q217 192 262 200 L262 327 L329 327 L329 152 Q299 149 262 142 Q225 135 193 117 Q161 99 139.5 66 Q118 33 118 -21 Q118 -63 129 -89.5 Q140 -116 160 -131 Q180 -146 206.5 -151.5 Q233 -157 265 -157 Q318 -157 341.5 -147.5 Q365 -138 367 -129 L379 -63 L430 -60 L430 -183 Z M353 464 Q353 407 295 407 Q237 407 237 464 Q237 521 295 521 Q353 521 353 464 Z " />
<glyph glyph-name="at" unicode="&#x40;" horiz-adv-x="824" d="M606 -139 Q584 -150 534 -162 Q484 -174 409 -174 Q330 -174 264 -152 Q198 -130 150.5 -86 Q103 -42 76.5 24.5 Q50 91 50 181 Q50 266 78.5 337.5 Q107 409 158 460 Q209 511 280.5 539.5 Q352 568 438 568 Q512 568 574 547 Q636 526 680.5 485.5 Q725 445 749.5 386.5 Q774 328 774 252 Q774 179 759 129 Q744 79 718 47.5 Q692 16 657 2 Q622 -12 582 -12 Q529 -12 506.5 10 Q484 32 481 64 Q450 35 416 11.5 Q382 -12 341 -12 Q288 -12 262 23 Q236 58 236 125 Q236 180 250.5 229.5 Q265 279 293 316 Q321 353 360.5 375 Q400 397 450 397 Q485 397 520.5 387.5 Q556 378 581 365 L552 189 Q547 159 543.5 134 Q540 109 540 92 Q540 64 553.5 52 Q567 40 595 40 Q617 40 637.5 52 Q658 64 674 88.5 Q690 113 699.5 149.5 Q709 186 709 236 Q709 372 639.5 442 Q570 512 432 512 Q360 512 302 487 Q244 462 202.5 418 Q161 374 139 313.5 Q117 253 117 183 Q117 104 138.5 47.5 Q160 -9 199.5 -45.5 Q239 -82 294.5 -99.5 Q350 -117 417 -117 Q462 -117 506 -108.5 Q550 -100 589 -86 L606 -139 Z M510 325 Q496 334 478 338.5 Q460 343 441 343 Q412 343 387 326.5 Q362 310 343 281.5 Q324 253 313.5 215.5 Q303 178 303 135 Q303 117 304.5 101.5 Q306 86 311.5 74.5 Q317 63 326.5 57 Q336 51 352 51 Q367 51 384.5 58.5 Q402 66 419.5 77 Q437 88 452.5 102 Q468 116 479 130 L510 325 Z " />
<glyph glyph-name="A" unicode="A" horiz-adv-x="695" d="M466 0 L466 44 L549 53 L488 233 L196 233 L136 53 L217 44 L217 0 L10 0 L10 44 L53 55 Q62 57 68 61 Q74 65 77 74 L298 724 L390 724 L616 72 Q619 63 624.5 60 Q630 57 639 55 L685 44 L685 0 L466 0 Z M343 669 L216 292 L469 292 L343 669 Z " />
<glyph glyph-name="B" unicode="B" horiz-adv-x="668" d="M70 0 L70 44 L133 51 Q144 53 146.5 56.5 Q149 60 149 71 L149 652 Q149 663 146.5 667 Q144 671 133 672 L70 679 L70 724 L353 724 Q417 724 459 710.5 Q501 697 525.5 673 Q550 649 560 616.5 Q570 584 570 547 Q570 511 559.5 483.5 Q549 456 532 435 Q515 414 493 400 Q471 386 448 379 L448 376 Q534 366 576 318 Q618 270 618 195 Q618 139 598.5 102 Q579 65 544 42 Q509 19 460 9.5 Q411 0 352 0 L70 0 Z M347 59 Q389 59 426 63.5 Q463 68 490 82.5 Q517 97 532.5 124.5 Q548 152 548 197 Q548 236 534 263 Q520 290 496 307.5 Q472 325 439.5 333 Q407 341 369 341 L215 341 L215 59 L347 59 Z M322 399 Q353 399 384.5 405 Q416 411 441.5 426.5 Q467 442 483.5 469.5 Q500 497 500 540 Q500 612 460.5 639 Q421 666 337 666 L215 666 L215 399 L322 399 Z " />
<glyph glyph-name="C" unicode="C" horiz-adv-x="684" d="M629 40 Q590 13 526 0.5 Q462 -12 393 -12 Q302 -12 238 16 Q174 44 133.5 94.5 Q93 145 74 215 Q55 285 55 368 Q55 447 77 514.5 Q99 582 143 631.5 Q187 681 253.5 709 Q320 737 409 737 Q477 737 534 722.5 Q591 708 627 684 L627 538 L576 541 L559 635 Q558 641 556 645.5 Q554 650 546 653 Q517 664 480.5 671 Q444 678 404 678 Q341 678 289.5 657.5 Q238 637 201.5 597.5 Q165 558 145 500 Q125 442 125 367 Q125 210 198 128.5 Q271 47 397 47 Q435 47 478 52 Q521 57 553 71 Q563 75 566 88 L582 177 L629 177 L629 40 Z " />
<glyph glyph-name="D" unicode="D" horiz-adv-x="773" d="M70 0 L70 44 L133 51 Q144 53 146.5 56.5 Q149 60 149 71 L149 652 Q149 663 146.5 667 Q144 671 133 672 L70 679 L70 724 L359 724 Q453 724 521 699.5 Q589 675 632.5 629.5 Q676 584 697 519 Q718 454 718 373 Q718 290 695.5 221 Q673 152 627 103 Q581 54 510 27 Q439 0 342 0 L70 0 Z M347 59 Q496 59 572 137 Q648 215 648 358 Q648 448 627.5 507 Q607 566 569 601.5 Q531 637 476.5 651.5 Q422 666 353 666 L216 666 L216 59 L347 59 Z " />
<glyph glyph-name="E" unicode="E" horiz-adv-x="637" d="M70 0 L70 44 L133 51 Q144 53 146.5 56.5 Q149 60 149 71 L149 652 Q149 663 146.5 667 Q144 671 133 672 L70 679 L70 724 L560 724 L560 574 L509 577 L495 655 Q492 668 478 668 L216 668 L216 394 L496 394 L496 338 L216 338 L216 56 L500 56 Q508 56 511 57.5 Q514 59 516 67 L532 154 L582 154 L582 0 L70 0 Z " />
<glyph glyph-name="F" unicode="F" horiz-adv-x="601" d="M70 0 L70 44 L133 51 Q144 53 146.5 56.5 Q149 60 149 71 L149 652 Q149 663 146.5 667 Q144 671 133 672 L70 679 L70 724 L556 724 L556 574 L505 577 L491 655 Q488 668 474 668 L216 668 L216 397 L492 397 L492 341 L216 341 L216 72 Q216 60 218.5 57 Q221 54 232 52 L379 44 L379 0 L70 0 Z " />
<glyph glyph-name="G" unicode="G" horiz-adv-x="747" d="M675 283 Q659 282 659 269 L659 26 Q638 16 610 8.5 Q582 1 551.5 -3.5 Q521 -8 489 -10 Q457 -12 427 -12 Q326 -12 255.5 16.5 Q185 45 140.5 96 Q96 147 75.5 216.5 Q55 286 55 368 Q55 447 77 514.5 Q99 582 143 631.5 Q187 681 253.5 709 Q320 737 409 737 Q477 737 535.5 722.5 Q594 708 630 684 L630 538 L579 541 L562 635 Q561 641 559 645.5 Q557 650 549 653 Q520 664 482 671 Q444 678 404 678 Q341 678 289.5 657.5 Q238 637 201.5 597.5 Q165 558 145 500 Q125 442 125 367 Q125 210 206 128.5 Q287 47 431 47 Q449 47 469.5 48.5 Q490 50 510 52.5 Q530 55 548 58 Q566 61 580 65 Q585 67 589 70 Q593 73 593 82 L593 277 L447 277 L457 332 L717 332 L717 287 L675 283 Z " />
<glyph glyph-name="H" unicode="H" horiz-adv-x="804" d="M509 0 L509 44 L572 51 Q583 53 585.5 56.5 Q588 60 588 71 L588 346 L216 346 L216 72 Q216 60 218.5 57 Q221 54 232 52 L299 44 L299 0 L70 0 L70 44 L133 51 Q144 53 146.5 56.5 Q149 60 149 71 L149 653 Q149 664 146.5 668 Q144 672 133 673 L70 680 L70 724 L299 724 L299 680 L232 672 Q221 670 218.5 667 Q216 664 216 653 L216 402 L588 402 L588 653 Q588 664 585.5 668 Q583 672 572 673 L509 680 L509 724 L738 724 L738 680 L671 672 Q660 670 657.5 667 Q655 664 655 653 L655 72 Q655 60 657.5 57 Q660 54 671 52 L738 44 L738 0 L509 0 Z " />
<glyph glyph-name="I" unicode="I" horiz-adv-x="387" d="M71 0 L71 44 L144 51 Q155 53 157.5 56.5 Q160 60 160 71 L160 653 Q160 664 157.5 668 Q155 672 144 673 L71 680 L71 724 L320 724 L320 680 L243 672 Q232 670 229.5 667 Q227 664 227 653 L227 72 Q227 60 229.5 57 Q232 54 243 52 L320 44 L320 0 L71 0 Z " />
<glyph glyph-name="J" unicode="J" horiz-adv-x="499" d="M304 654 Q304 665 301 668.5 Q298 672 288 673 L205 680 L205 724 L454 724 L454 680 L387 672 Q376 670 373.5 667.5 Q371 665 371 654 L371 141 Q371 63 334.5 25.5 Q298 -12 215 -12 Q158 -12 116 0 Q74 12 60 21 L60 144 L111 141 L121 73 Q122 68 124 65 Q126 62 133 59 Q141 55 161.5 49.5 Q182 44 213 44 Q268 44 286 69.5 Q304 95 304 149 L304 654 Z " />
<glyph glyph-name="K" unicode="K" horiz-adv-x="728" d="M459 0 L459 45 L541 53 L300 361 L216 271 L216 72 Q216 60 218.5 57 Q221 54 232 52 L299 44 L299 0 L70 0 L70 44 L133 51 Q144 53 146.5 56.5 Q149 60 149 71 L149 653 Q149 664 146.5 668 Q144 672 133 673 L70 680 L70 724 L299 724 L299 680 L232 672 Q221 670 218.5 667 Q216 664 216 653 L216 353 L511 671 L449 679 L449 724 L659 724 L659 680 L605 670 Q591 668 586.5 665 Q582 662 575 654 L345 409 L609 70 Q616 61 620 58.5 Q624 56 638 54 L698 44 L698 0 L459 0 Z " />
<glyph glyph-name="L" unicode="L" horiz-adv-x="617" d="M70 0 L70 44 L133 51 Q144 53 146.5 56.5 Q149 60 149 71 L149 652 Q149 663 146.5 667 Q144 671 133 672 L70 679 L70 724 L315 724 L315 679 L232 671 Q221 670 218.5 666.5 Q216 663 216 652 L216 56 L500 56 Q508 56 511 57.5 Q514 59 516 67 L532 154 L582 154 L582 0 L70 0 Z " />
<glyph glyph-name="M" unicode="M" horiz-adv-x="944" d="M629 0 L629 44 L712 51 Q723 53 725.5 56.5 Q728 60 728 71 L728 608 L503 181 L441 181 L216 614 L216 72 Q216 60 218.5 57 Q221 54 232 52 L319 44 L319 0 L70 0 L70 44 L133 51 Q144 53 146.5 56.5 Q149 60 149 71 L149 652 Q149 663 146.5 667 Q144 671 133 672 L70 679 L70 724 L234 724 L474 247 L720 724 L878 724 L878 680 L811 672 Q800 670 797.5 667 Q795 664 795 653 L795 71 Q795 61 798 57.5 Q801 54 811 52 L878 44 L878 0 L629 0 Z " />
<glyph glyph-name="N" unicode="N" horiz-adv-x="828" d="M600 0 L216 638 L216 72 Q216 60 218.5 57 Q221 54 232 52 L299 44 L299 0 L70 0 L70 44 L133 51 Q144 53 146.5 56.5 Q149 60 149 71 L149 653 Q149 664 146.5 667.5 Q144 671 133 673 L70 680 L70 725 L246 725 L618 93 L618 653 Q618 664 615.5 667.5 Q613 671 602 673 L539 680 L539 724 L767 724 L767 680 L700 672 Q689 670 686.5 667 Q684 664 684 653 L684 0 L600 0 Z " />
<glyph glyph-name="O" unicode="O" horiz-adv-x="783" d="M388 -12 Q302 -12 240 16 Q178 44 137 94 Q96 144 76.5 213 Q57 282 57 363 Q57 444 79.5 512.5 Q102 581 145.5 631 Q189 681 253.5 709 Q318 737 402 737 Q486 737 547 709 Q608 681 648.5 632.5 Q689 584 708.5 518.5 Q728 453 728 378 Q728 289 706.5 217 Q685 145 642.5 94 Q600 43 536 15.5 Q472 -12 388 -12 Z M392 47 Q452 47 501 67 Q550 87 585 127 Q620 167 639.5 227 Q659 287 659 368 Q659 443 640.5 501 Q622 559 588.5 598 Q555 637 507 657.5 Q459 678 400 678 Q340 678 290 657.5 Q240 637 203.5 597 Q167 557 147 498 Q127 439 127 363 Q127 286 146 227 Q165 168 199.5 128 Q234 88 283 67.5 Q332 47 392 47 Z " />
<glyph glyph-name="P" unicode="P" horiz-adv-x="658" d="M70 0 L70 44 L133 51 Q144 53 146.5 56.5 Q149 60 149 71 L149 652 Q149 663 146.5 667 Q144 671 133 672 L70 679 L70 724 L367 724 Q436 724 482.5 707 Q529 690 557 660.5 Q585 631 596.5 592.5 Q608 554 608 511 Q608 447 589 402 Q570 357 534.5 329 Q499 301 448 288.5 Q397 276 334 276 L215 276 L215 72 Q215 60 217.5 56.5 Q220 53 231 52 L374 44 L374 0 L70 0 Z M332 335 Q375 335 412.5 341 Q450 347 478 366 Q506 385 522 419 Q538 453 538 509 Q538 591 492.5 628.5 Q447 666 347 666 L215 666 L215 335 L332 335 Z " />
<glyph glyph-name="Q" unicode="Q" horiz-adv-x="780" d="M571 -161 Q559 -168 535.5 -173 Q512 -178 487 -178 Q416 -178 387.5 -148 Q359 -118 359 -58 Q359 -35 362 -11 Q283 -7 225 22.5 Q167 52 129.5 102 Q92 152 74 220 Q56 288 56 368 Q56 447 78.5 514.5 Q101 582 144.5 631.5 Q188 681 252.5 709 Q317 737 401 737 Q485 737 546 709 Q607 681 646.5 632.5 Q686 584 705.5 518.5 Q725 453 725 378 Q725 295 706 226.5 Q687 158 650 108 Q613 58 557 27.5 Q501 -3 428 -10 Q425 -31 425 -56 Q425 -87 439 -105 Q453 -123 490 -123 Q510 -123 527.5 -119 Q545 -115 555 -110 L571 -161 Z M391 47 Q451 47 499.5 67 Q548 87 583 127 Q618 167 637 227 Q656 287 656 368 Q656 519 587 598.5 Q518 678 399 678 Q339 678 289 657.5 Q239 637 202.5 597.5 Q166 558 146 500 Q126 442 126 367 Q126 289 145 229 Q164 169 198.5 128.5 Q233 88 282 67.5 Q331 47 391 47 Z " />
<glyph glyph-name="R" unicode="R" horiz-adv-x="689" d="M426 0 L426 45 L508 53 Q499 75 487 103 Q475 131 462.5 161 Q450 191 438 220 Q426 249 416 273 Q407 294 392 304 Q377 314 350 314 L215 314 L215 72 Q215 60 217.5 57 Q220 54 231 52 L299 44 L299 0 L70 0 L70 44 L133 51 Q144 53 146.5 56.5 Q149 60 149 71 L149 652 Q149 663 146.5 667 Q144 671 133 672 L70 679 L70 724 L362 724 Q429 724 472.5 706.5 Q516 689 541 661.5 Q566 634 575.5 599 Q585 564 585 530 Q585 448 545.5 401 Q506 354 444 334 Q470 322 482.5 294 Q495 266 511 224 L573 73 Q580 58 597 55 L664 44 L664 0 L426 0 Z M325 373 Q364 373 399 380 Q434 387 459.5 405 Q485 423 500 453 Q515 483 515 529 Q515 571 501 597.5 Q487 624 460.5 639.5 Q434 655 394.5 660.5 Q355 666 304 666 L215 666 L215 373 L325 373 Z " />
<glyph glyph-name="S" unicode="S" horiz-adv-x="581" d="M449 549 L432 635 Q430 642 429 646.5 Q428 651 426 654 Q421 661 392 668.5 Q363 676 318 676 Q231 676 189.5 642 Q148 608 148 548 Q148 510 164 486 Q180 462 206.5 445.5 Q233 429 266.5 418 Q300 407 334.5 396 Q369 385 402.5 370.5 Q436 356 462.5 333.5 Q489 311 505 277 Q521 243 521 192 Q521 135 500 96 Q479 57 444 33 Q409 9 362 -1.5 Q315 -12 263 -12 Q228 -12 196 -8 Q164 -4 137.5 1.5 Q111 7 90.5 13.5 Q70 20 60 25 L60 176 L109 176 L128 91 Q130 81 132.5 77 Q135 73 145 69 Q157 64 189.5 56 Q222 48 272 48 Q356 48 403 81 Q450 114 450 187 Q450 227 434 253 Q418 279 391.5 296 Q365 313 331.5 324 Q298 335 263.5 345.5 Q229 356 195.5 369.5 Q162 383 135.5 404.5 Q109 426 93 459 Q77 492 77 541 Q77 593 96.5 630 Q116 667 149 691 Q182 715 226.5 726 Q271 737 322 737 Q385 737 431 724.5 Q477 712 500 704 L500 544 L449 549 Z " />
<glyph glyph-name="T" unicode="T" horiz-adv-x="643" d="M169 0 L169 45 L272 52 Q283 53 285.5 57 Q288 61 288 72 L288 668 L113 668 Q105 668 102 666.5 Q99 665 97 657 L81 570 L31 570 L31 724 L613 724 L613 570 L563 570 L547 657 Q545 665 542 666.5 Q539 668 531 668 L355 668 L355 72 Q355 61 357.5 57.5 Q360 54 371 53 L481 45 L481 0 L169 0 Z " />
<glyph glyph-name="U" unicode="U" horiz-adv-x="789" d="M582 653 Q582 664 579.5 668 Q577 672 566 673 L503 680 L503 724 L732 724 L732 680 L665 672 Q654 670 651.5 667 Q649 664 649 653 L649 235 Q649 110 583 49 Q517 -12 389 -12 Q254 -12 197 52 Q140 116 140 236 L140 653 Q140 664 137.5 668 Q135 672 124 673 L61 680 L61 724 L290 724 L290 680 L223 672 Q212 670 209.5 667 Q207 664 207 653 L207 240 Q207 186 219.5 149.5 Q232 113 256 90 Q280 67 315 57 Q350 47 395 47 Q441 47 476 56.5 Q511 66 534.5 88.5 Q558 111 570 147.5 Q582 184 582 238 L582 653 Z " />
<glyph glyph-name="V" unicode="V" horiz-adv-x="676" d="M297 0 L74 652 Q71 661 65 664 Q59 667 50 669 L5 680 L15 724 L226 724 L226 680 L143 671 L344 57 L540 671 L459 680 L469 724 L666 724 L666 680 L624 669 Q615 667 608.5 663 Q602 659 599 650 L389 0 L297 0 Z " />
<glyph glyph-name="W" unicode="W" horiz-adv-x="973" d="M634 0 L490 493 L341 0 L263 0 L92 651 Q90 661 86 664.5 Q82 668 72 670 L10 680 L20 724 L249 724 L249 680 L158 670 L306 80 L453 573 L530 573 L676 70 L827 670 L734 680 L744 724 L963 724 L963 680 L909 671 Q898 669 894.5 665.5 Q891 662 888 651 L719 0 L634 0 Z " />
<glyph glyph-name="X" unicode="X" horiz-adv-x="669" d="M434 0 L434 44 L508 53 L329 323 L154 53 L226 44 L226 0 L20 0 L20 42 L70 53 Q79 55 84.5 59.5 Q90 64 95 72 L288 368 L105 652 Q100 660 95 663.5 Q90 667 81 669 L36 680 L46 724 L242 724 L242 680 L168 671 L329 418 L495 671 L423 680 L433 724 L620 724 L620 680 L578 669 Q569 667 563.5 662.5 Q558 658 553 650 L371 373 L574 72 Q579 64 584 60.5 Q589 57 598 55 L649 44 L649 0 L434 0 Z " />
<glyph glyph-name="Y" unicode="Y" horiz-adv-x="596" d="M161 0 L161 44 L254 51 Q265 52 267.5 56 Q270 60 270 71 L270 284 L69 652 Q62 665 45 669 L0 680 L10 724 L208 724 L208 680 L134 671 L305 346 L472 671 L400 680 L410 724 L596 724 L596 680 L554 669 Q546 667 540 662.5 Q534 658 529 650 L337 287 L337 72 Q337 60 339.5 57 Q342 54 353 52 L450 44 L450 0 L161 0 Z " />
<glyph glyph-name="Z" unicode="Z" horiz-adv-x="633" d="M50 0 L50 46 L483 668 L151 668 Q143 668 140 666.5 Q137 665 135 657 L116 564 L64 561 L64 724 L566 724 L566 676 L135 56 L486 56 Q494 56 497 57.5 Q500 59 502 67 L521 174 L573 174 L573 0 L50 0 Z " />
<glyph glyph-name="AE" unicode="&#xc6;" horiz-adv-x="999" d="M442 0 L442 44 L503 51 Q515 53 518 57 Q521 61 521 72 L521 328 L291 328 L136 53 L207 44 L207 0 L10 0 L10 44 L52 55 Q64 58 69.5 62 Q75 66 80 74 L415 672 L339 679 L339 724 L932 724 L932 574 L881 577 L867 655 Q866 660 863 664 Q860 668 850 668 L588 668 L588 384 L868 384 L868 328 L588 328 L588 56 L872 56 Q880 56 883 57.5 Q886 59 888 67 L904 154 L954 154 L954 0 L442 0 Z M521 668 L483 668 L324 387 L521 387 L521 668 Z " />
<glyph glyph-name="IJ" unicode="&#x132;" horiz-adv-x="886" d="M71 0 L71 44 L144 51 Q155 53 157.5 56.5 Q160 60 160 71 L160 653 Q160 664 157.5 668 Q155 672 144 673 L71 680 L71 724 L320 724 L320 680 L243 672 Q232 670 229.5 667 Q227 664 227 653 L227 72 Q227 60 229.5 57 Q232 54 243 52 L320 44 L320 0 L71 0 Z M691 654 Q691 665 688 668.5 Q685 672 675 673 L592 680 L592 724 L841 724 L841 680 L774 672 Q763 670 760.5 667.5 Q758 665 758 654 L758 141 Q758 63 721.5 25.5 Q685 -12 602 -12 Q545 -12 503 0 Q461 12 447 21 L447 144 L498 141 L508 73 Q509 68 511 65 Q513 62 520 59 Q528 55 548.5 49.5 Q569 44 600 44 Q655 44 673 69.5 Q691 95 691 149 L691 654 Z " />
<glyph glyph-name="Eng" unicode="&#x14a;" horiz-adv-x="833" d="M618 653 Q618 664 615.5 667.5 Q613 671 602 673 L539 680 L539 724 L767 724 L767 680 L700 672 Q689 670 686.5 667 Q684 664 684 653 L684 -70 Q684 -148 643 -185.5 Q602 -223 529 -223 Q508 -223 486 -219 Q464 -215 444.5 -208 Q425 -201 409 -193 Q393 -185 384 -177 L416 -126 Q429 -137 459.5 -151.5 Q490 -166 528 -166 Q581 -166 599.5 -137.5 Q618 -109 618 -55 L618 3 L216 638 L216 72 Q216 60 218.5 57 Q221 54 232 52 L299 44 L299 0 L70 0 L70 44 L133 51 Q144 53 146.5 56.5 Q149 60 149 71 L149 653 Q149 664 146.5 667.5 Q144 671 133 673 L70 680 L70 725 L246 725 L618 119 L618 653 L618 653 Z " />
<glyph glyph-name="Eth" unicode="&#xd0;" horiz-adv-x="784" d="M81 0 L81 44 L144 51 Q155 53 157.5 56.5 Q160 60 160 71 L160 342 L64 342 L64 398 L160 398 L160 652 Q160 663 157.5 667 Q155 671 144 672 L81 679 L81 724 L370 724 Q464 724 532 699.5 Q600 675 643.5 629.5 Q687 584 708 519 Q729 454 729 373 Q729 290 706.5 221 Q684 152 638 103 Q592 54 521 27 Q450 0 353 0 L81 0 Z M358 59 Q507 59 583 137 Q659 215 659 358 Q659 448 638.5 507 Q618 566 580 601.5 Q542 637 487.5 651.5 Q433 666 364 666 L227 666 L227 398 L437 398 L437 342 L227 342 L227 59 L358 59 Z " />
<glyph glyph-name="OE" unicode="&#x152;" horiz-adv-x="984" d="M445 0 Q401 -12 347 -12 Q261 -12 205 16 Q149 44 116 94.5 Q83 145 70 215 Q57 285 57 368 Q57 447 73 514.5 Q89 582 125 631.5 Q161 681 219 709 Q277 737 361 737 Q389 737 413.5 733.5 Q438 730 460 724 L917 724 L917 574 L866 577 L852 655 Q849 668 835 668 L558 668 Q605 621 624.5 550 Q644 479 646 394 L863 394 L863 338 L645 338 Q641 244 618.5 172.5 Q596 101 548 56 L857 56 Q865 56 868 57.5 Q871 59 873 67 L889 154 L939 154 L939 0 L445 0 Z M351 47 Q471 47 524 126.5 Q577 206 577 368 Q577 519 524 598.5 Q471 678 359 678 Q246 678 186.5 598 Q127 518 127 367 Q127 210 179 128.5 Q231 47 351 47 Z " />
<glyph glyph-name="Thorn" unicode="&#xde;" horiz-adv-x="663" d="M70 0 L70 44 L133 51 Q144 53 146.5 56.5 Q149 60 149 71 L149 652 Q149 663 146.5 667 Q144 671 133 672 L70 679 L70 724 L308 724 L308 680 L231 672 Q220 670 217.5 666.5 Q215 663 215 652 L215 603 L367 603 Q436 603 482.5 586 Q529 569 557 540.5 Q585 512 596.5 473.5 Q608 435 608 392 Q608 330 589 287 Q570 244 534.5 217 Q499 190 448 177.5 Q397 165 334 165 L215 165 L215 72 Q215 60 217.5 56.5 Q220 53 231 52 L374 44 L374 0 L70 0 Z M332 224 Q375 224 412.5 230 Q450 236 478 253.5 Q506 271 522 303.5 Q538 336 538 390 Q538 472 492.5 508.5 Q447 545 347 545 L215 545 L215 224 L332 224 Z " />
<glyph glyph-name="a" unicode="a" horiz-adv-x="534" d="M387 0 L378 67 L375 68 Q335 31 291 9.5 Q247 -12 190 -12 Q143 -12 115.5 2 Q88 16 73.5 36.5 Q59 57 55 80 Q51 103 51 121 Q51 196 96.5 231 Q142 266 231 274 L374 287 L374 343 Q374 374 370 397 Q366 420 353.5 435 Q341 450 318.5 457 Q296 464 260 464 Q235 464 213.5 462.5 Q192 461 176 453.5 Q160 446 150.5 429.5 Q141 413 141 383 L77 391 Q77 435 95.5 461 Q114 487 141.5 500.5 Q169 514 201 517.5 Q233 521 261 521 Q312 521 346.5 512.5 Q381 504 402 484 Q423 464 432 430 Q441 396 441 345 L441 71 Q441 59 443.5 56 Q446 53 457 51 L509 44 L509 0 L387 0 Z M374 234 L243 222 Q207 219 183.5 211.5 Q160 204 146 193 Q132 182 126.5 166 Q121 150 121 129 Q121 84 142.5 64 Q164 44 203 44 Q229 44 253.5 52 Q278 60 300.5 73 Q323 86 341.5 103 Q360 120 374 138 L374 234 Z " />
<glyph glyph-name="b" unicode="b" horiz-adv-x="588" d="M93 0 Q97 26 100.5 66 Q104 106 104 142 L104 673 Q104 690 91 694 L30 713 L38 755 L171 755 L171 460 Q207 482 251 501.5 Q295 521 349 521 Q434 521 485 463 Q536 405 536 276 Q536 199 521 144 Q506 89 478.5 54.5 Q451 20 412 4 Q373 -12 326 -12 Q281 -12 242 2 Q203 16 167 48 L165 47 L160 0 L93 0 Z M171 120 Q199 91 238.5 68.5 Q278 46 320 46 Q403 46 436.5 105.5 Q470 165 470 268 Q470 324 459.5 361.5 Q449 399 431 421.5 Q413 444 389 453 Q365 462 338 462 Q313 462 289 456 Q265 450 244 440.5 Q223 431 204.5 419.5 Q186 408 171 398 L171 120 Z " />
<glyph glyph-name="c" unicode="c" horiz-adv-x="476" d="M446 27 Q420 10 374.5 -1 Q329 -12 282 -12 Q219 -12 174.5 7.5 Q130 27 101 61.5 Q72 96 58.5 144 Q45 192 45 250 Q45 322 64 373 Q83 424 117.5 457 Q152 490 199 505.5 Q246 521 302 521 Q356 521 393 510.5 Q430 500 444 494 L444 371 L393 374 L381 440 Q380 445 378.5 448 Q377 451 370 453 Q359 457 338 460 Q317 463 294 463 Q256 463 223.5 451.5 Q191 440 167 415 Q143 390 129 350 Q115 310 115 253 Q115 145 163 96.5 Q211 48 291 48 Q329 48 362 57.5 Q395 67 420 83 L446 27 Z " />
<glyph glyph-name="d" unicode="d" horiz-adv-x="590" d="M430 0 L422 68 L419 69 Q383 35 341 11.5 Q299 -12 239 -12 Q197 -12 162.5 2 Q128 16 103.5 47 Q79 78 65.5 126.5 Q52 175 52 243 Q52 316 67 368.5 Q82 421 109.5 455 Q137 489 175 505 Q213 521 260 521 Q306 521 347 507 Q388 493 417 472 L417 674 Q417 690 404 694 L343 713 L351 755 L484 755 L484 71 Q484 59 486.5 56 Q489 53 500 51 L552 44 L552 0 L430 0 Z M417 399 Q392 423 350.5 443 Q309 463 261 463 Q223 463 195.5 447.5 Q168 432 151 403.5 Q134 375 126 334.5 Q118 294 118 245 Q118 186 128 148 Q138 110 156 87.5 Q174 65 197.5 56 Q221 47 248 47 Q300 47 341 73.5 Q382 100 417 141 L417 399 Z " />
<glyph glyph-name="e" unicode="e" horiz-adv-x="506" d="M450 30 Q416 10 373.5 -1 Q331 -12 278 -12 Q212 -12 167 9 Q122 30 95 66.5 Q68 103 56.5 152 Q45 201 45 258 Q45 325 62 374.5 Q79 424 109 456.5 Q139 489 179 505 Q219 521 265 521 Q309 521 346 508 Q383 495 409.5 467 Q436 439 451 394 Q466 349 466 285 Q466 274 465.5 263.5 Q465 253 464 242 L115 242 Q116 199 125.5 163.5 Q135 128 155 102.5 Q175 77 206.5 63 Q238 49 283 49 Q306 49 324.5 51 Q343 53 359.5 57.5 Q376 62 391.5 69 Q407 76 425 86 L450 30 Z M397 296 Q396 342 385.5 374 Q375 406 357 425.5 Q339 445 315.5 453.5 Q292 462 266 462 Q237 462 211.5 453.5 Q186 445 166 425.5 Q146 406 133 374 Q120 342 117 296 L397 296 Z " />
<glyph glyph-name="f" unicode="f" horiz-adv-x="394" d="M45 0 L45 45 L112 51 Q123 52 125.5 56 Q128 60 128 71 L128 445 Q128 450 127 452.5 Q126 455 120 455 L46 455 L46 511 L128 511 L128 596 Q128 679 168.5 722.5 Q209 766 299 766 Q328 766 353 761.5 Q378 757 397 745 Q416 733 426.5 711.5 Q437 690 437 656 L374 647 Q374 687 354 698 Q334 709 296 709 Q265 709 245.5 701 Q226 693 214.5 678 Q203 663 199 641.5 Q195 620 195 593 L195 521 Q195 516 196 513.5 Q197 511 203 511 L370 511 L370 455 L195 455 L195 72 Q195 60 197.5 56.5 Q200 53 211 52 L326 44 L326 0 L45 0 Z " />
<glyph glyph-name="g" unicode="g" horiz-adv-x="534" d="M433 449 Q450 428 460 403.5 Q470 379 470 343 Q470 298 454.5 263 Q439 228 411 204 Q383 180 345.5 168 Q308 156 264 156 Q211 156 177 170 L130 76 L307 63 Q361 59 400 53 Q439 47 464.5 33 Q490 19 502.5 -5 Q515 -29 515 -69 Q515 -141 453.5 -183 Q392 -225 261 -225 Q198 -225 154.5 -216.5 Q111 -208 84.5 -192 Q58 -176 46.5 -153.5 Q35 -131 35 -102 Q35 -64 53.5 -35.5 Q72 -7 103 22 Q79 27 67.5 37 Q56 47 56 67 Q56 79 61.5 90.5 Q67 102 76 116 L125 193 Q94 212 74.5 247.5 Q55 283 55 333 Q55 375 70 410 Q85 445 112.5 469.5 Q140 494 179 507.5 Q218 521 266 521 Q292 521 314 518.5 Q336 516 352 511 L526 511 L526 456 L433 449 Z M404 339 Q404 400 368.5 433 Q333 466 267 466 Q203 466 163 434.5 Q123 403 123 337 Q123 311 130.5 288.5 Q138 266 155 249.5 Q172 233 198.5 223 Q225 213 264 213 Q329 213 366.5 248 Q404 283 404 339 Z M168 11 Q158 2 147 -9 Q136 -20 127 -33 Q118 -46 112 -60.5 Q106 -75 106 -90 Q106 -134 152.5 -149 Q199 -164 281 -164 Q296 -164 309.5 -163 Q323 -162 336 -160 Q387 -152 415 -130 Q443 -108 443 -70 Q443 -33 414.5 -17.5 Q386 -2 332 1 L168 11 Z " />
<glyph glyph-name="h" unicode="h" horiz-adv-x="632" d="M391 0 L391 45 L443 51 Q454 53 456.5 56 Q459 59 459 70 L459 314 Q459 389 435 424.5 Q411 460 357 460 Q330 460 303.5 452 Q277 444 254 433 Q231 422 212.5 408.5 Q194 395 183 385 L183 71 Q183 59 185.5 56 Q188 53 199 51 L259 44 L259 0 L48 0 L48 45 L100 51 Q111 53 113.5 56.5 Q116 60 116 71 L116 673 Q116 690 103 694 L42 713 L50 755 L183 755 L183 451 Q223 480 266.5 500.5 Q310 521 369 521 Q447 521 486.5 477 Q526 433 526 331 L526 71 Q526 59 528.5 56 Q531 53 542 51 L602 44 L602 0 L391 0 Z " />
<glyph glyph-name="i" unicode="i" horiz-adv-x="289" d="M190 688 Q190 662 176 648.5 Q162 635 136 635 Q110 635 96 648.5 Q82 662 82 688 Q82 714 96 727.5 Q110 741 136 741 Q162 741 176 727.5 Q190 714 190 688 Z M28 0 L28 45 L100 51 Q111 53 113.5 56.5 Q116 60 116 71 L116 429 Q116 446 103 450 L45 469 L53 511 L183 511 L183 71 Q183 59 185.5 56 Q188 53 199 51 L269 44 L269 0 L28 0 Z " />
<glyph glyph-name="j" unicode="j" horiz-adv-x="275" d="M114 429 Q114 440 112 444 Q110 448 102 450 L34 469 L42 511 L181 511 L181 -70 Q181 -147 150 -185 Q119 -223 49 -223 Q8 -223 -26 -212 Q-60 -201 -80 -184 L-47 -135 Q-33 -146 -8.5 -156 Q16 -166 44 -166 Q88 -166 101 -137 Q114 -108 114 -55 L114 429 Z M190 688 Q190 662 176 648.5 Q162 635 136 635 Q110 635 96 648.5 Q82 662 82 688 Q82 714 96 727.5 Q110 741 136 741 Q162 741 176 727.5 Q190 714 190 688 Z " />
<glyph glyph-name="k" unicode="k" horiz-adv-x="579" d="M359 0 L359 45 L421 53 L279 275 L183 167 L183 71 Q183 59 185.5 56 Q188 53 199 51 L264 44 L264 0 L33 0 L33 45 L100 51 Q111 53 113.5 56.5 Q116 60 116 71 L116 673 Q116 690 103 694 L42 713 L50 755 L183 755 L183 252 L407 511 L507 511 L507 467 L448 454 Q439 452 434.5 449.5 Q430 447 423 439 L324 327 L486 70 Q492 61 496.5 58.5 Q501 56 515 54 L569 44 L569 0 L359 0 Z " />
<glyph glyph-name="l" unicode="l" horiz-adv-x="289" d="M33 0 L33 45 L100 51 Q111 52 113.5 56 Q116 60 116 71 L116 673 Q116 690 103 694 L42 713 L50 755 L183 755 L183 71 Q183 59 185.5 56 Q188 53 199 51 L264 44 L264 0 L33 0 Z " />
<glyph glyph-name="m" unicode="m" horiz-adv-x="921" d="M680 0 L680 45 L732 51 Q743 53 745.5 56 Q748 59 748 70 L748 310 Q748 347 744 375 Q740 403 729.5 422 Q719 441 700 450.5 Q681 460 652 460 Q607 460 567 440.5 Q527 421 499 401 Q501 387 502 370.5 Q503 354 503 336 L503 71 Q503 59 505.5 56 Q508 53 519 51 L571 44 L571 0 L371 0 L371 45 L420 51 Q431 53 433.5 56 Q436 59 436 70 L436 315 Q436 352 433 379.5 Q430 407 421 425 Q412 443 395 451.5 Q378 460 350 460 Q322 460 296.5 452 Q271 444 249.5 432.5 Q228 421 211 408 Q194 395 183 385 L183 71 Q183 59 185.5 56 Q188 53 199 51 L259 44 L259 0 L48 0 L48 45 L100 51 Q111 53 113.5 56.5 Q116 60 116 71 L116 429 Q116 446 103 450 L45 469 L53 511 L166 511 L174 449 L177 448 Q192 460 211.5 473 Q231 486 254.5 496.5 Q278 507 305.5 514 Q333 521 365 521 Q414 521 442 504.5 Q470 488 484 456 Q520 482 565 501.5 Q610 521 667 521 Q711 521 739.5 507.5 Q768 494 785 469.5 Q802 445 808.5 409.5 Q815 374 815 331 L815 71 Q815 59 817.5 56 Q820 53 831 51 L891 44 L891 0 L680 0 Z " />
<glyph glyph-name="n" unicode="n" horiz-adv-x="632" d="M391 0 L391 45 L443 51 Q454 53 456.5 56 Q459 59 459 70 L459 310 Q459 388 436 424 Q413 460 357 460 Q330 460 303.5 452 Q277 444 254 433 Q231 422 212.5 408.5 Q194 395 183 385 L183 71 Q183 59 185.5 56 Q188 53 199 51 L259 44 L259 0 L48 0 L48 45 L100 51 Q111 53 113.5 56.5 Q116 60 116 71 L116 429 Q116 446 103 450 L45 469 L53 511 L166 511 L174 449 L177 448 Q215 476 263 498.5 Q311 521 371 521 Q415 521 444.5 507.5 Q474 494 492 469.5 Q510 445 518 409.5 Q526 374 526 331 L526 71 Q526 59 528.5 56 Q531 53 542 51 L602 44 L602 0 L391 0 Z " />
<glyph glyph-name="o" unicode="o" horiz-adv-x="563" d="M279 -12 Q217 -12 172.5 8 Q128 28 99.5 63.5 Q71 99 58 148.5 Q45 198 45 257 Q45 315 60 364 Q75 413 105 447.5 Q135 482 181 501.5 Q227 521 289 521 Q351 521 394.5 502 Q438 483 465.5 448.5 Q493 414 505.5 367 Q518 320 518 264 Q518 201 504 150 Q490 99 460.5 63 Q431 27 386 7.5 Q341 -12 279 -12 Z M282 43 Q449 43 449 257 Q449 360 409.5 411 Q370 462 287 462 Q203 462 158.5 410.5 Q114 359 114 256 Q114 153 156 98 Q198 43 282 43 Z " />
<glyph glyph-name="p" unicode="p" horiz-adv-x="600" d="M58 -212 L58 -167 L100 -161 Q111 -159 113.5 -155.5 Q116 -152 116 -141 L116 429 Q116 446 103 450 L45 469 L53 511 L167 511 L175 451 L177 450 Q212 476 259.5 498.5 Q307 521 361 521 Q446 521 497 463 Q548 405 548 276 Q548 207 536 156.5 Q524 106 501.5 71.5 Q479 37 448 17 Q417 -3 378 -9 Q358 -12 338 -12 Q293 -12 254.5 2.5 Q216 17 185 47 L183 46 L183 -141 Q183 -153 185.5 -156.5 Q188 -160 199 -161 L289 -168 L289 -212 L58 -212 Z M183 120 Q211 91 250.5 68.5 Q290 46 332 46 Q415 46 448.5 105.5 Q482 165 482 268 Q482 324 471.5 361.5 Q461 399 443 421 Q425 443 401 452 Q377 461 350 461 Q325 461 300 453.5 Q275 446 253 435 Q231 424 213 411.5 Q195 399 183 389 L183 120 Z " />
<glyph glyph-name="q" unicode="q" horiz-adv-x="577" d="M331 -212 L331 -168 L401 -161 Q412 -160 414.5 -156.5 Q417 -153 417 -141 L417 66 L416 67 Q380 32 339.5 10 Q299 -12 241 -12 Q198 -12 163 2 Q128 16 103.5 46.5 Q79 77 65.5 125.5 Q52 174 52 242 Q52 315 67 367.5 Q82 420 109 454 Q136 488 174 504.5 Q212 521 257 521 Q306 521 346.5 505.5 Q387 490 417 468 L427 511 L494 511 Q489 474 486.5 443.5 Q484 413 484 381 L484 -141 Q484 -152 486.5 -155.5 Q489 -159 500 -161 L552 -167 L552 -212 L331 -212 Z M417 399 Q405 411 388 422.5 Q371 434 350.5 443 Q330 452 307 457.5 Q284 463 261 463 Q223 463 195.5 447.5 Q168 432 151 403.5 Q134 375 126 335 Q118 295 118 246 Q118 187 128 148.5 Q138 110 156 87.5 Q174 65 197.5 56 Q221 47 248 47 Q300 47 341 73.5 Q382 100 417 141 L417 399 Z " />
<glyph glyph-name="r" unicode="r" horiz-adv-x="417" d="M48 0 L48 45 L100 51 Q111 53 113.5 56.5 Q116 60 116 71 L116 429 Q116 446 103 450 L45 469 L53 511 L167 511 L176 447 Q188 459 204 472 Q220 485 239.5 496 Q259 507 282 514 Q305 521 331 521 Q348 521 365.5 518.5 Q383 516 397 512 L397 373 L346 376 L333 452 Q332 457 330.5 459 Q329 461 321 461 Q301 461 280.5 453 Q260 445 241.5 433.5 Q223 422 208 409.5 Q193 397 183 387 L183 71 Q183 59 185.5 56 Q188 53 199 51 L289 44 L289 0 L48 0 Z " />
<glyph glyph-name="s" unicode="s" horiz-adv-x="449" d="M342 374 L330 440 Q329 445 327.5 448 Q326 451 319 453 Q308 457 285.5 461 Q263 465 236 465 Q173 465 146 440 Q119 415 119 380 Q119 356 129.5 341 Q140 326 157.5 315.5 Q175 305 198 298 Q221 291 246 285 Q275 277 304 268 Q333 259 356 243 Q379 227 393.5 201.5 Q408 176 408 137 Q408 95 391.5 66 Q375 37 348 20 Q321 3 286 -4.5 Q251 -12 215 -12 Q186 -12 157.5 -8.5 Q129 -5 105 0.5 Q81 6 64 11.5 Q47 17 40 21 L40 144 L91 141 L103 75 Q104 70 105.5 67 Q107 64 114 62 Q125 58 152.5 51 Q180 44 222 44 Q277 44 310 65 Q343 86 343 131 Q343 155 333 171 Q323 187 306 197.5 Q289 208 267 215 Q245 222 221 228 Q191 235 161.5 243.5 Q132 252 108.5 267.5 Q85 283 70 307.5 Q55 332 55 372 Q55 413 71 441.5 Q87 470 113.5 487.5 Q140 505 174.5 513 Q209 521 246 521 Q298 521 338.5 510.5 Q379 500 393 494 L393 371 L342 374 Z " />
<glyph glyph-name="t" unicode="t" horiz-adv-x="400" d="M370 16 Q341 5 309 -3.5 Q277 -12 241 -12 Q175 -12 143.5 20 Q112 52 112 112 L112 445 Q112 450 111 452.5 Q110 455 104 455 L30 455 L30 500 Q58 504 76 511.5 Q94 519 105 534 Q116 549 122.5 573.5 Q129 598 134 635 L179 635 L179 521 Q179 516 180 513.5 Q181 511 187 511 L336 511 L336 455 L179 455 L179 137 Q179 89 195 68.5 Q211 48 255 48 Q280 48 304.5 54 Q329 60 351 68 L370 16 Z " />
<glyph glyph-name="u" unicode="u" horiz-adv-x="629" d="M468 0 L459 73 L457 74 Q440 59 419.5 43.5 Q399 28 375 15.5 Q351 3 322 -4.5 Q293 -12 260 -12 Q218 -12 190 0.5 Q162 13 145.5 37 Q129 61 122.5 95 Q116 129 116 172 L116 430 Q116 442 113.5 447 Q111 452 100 454 L47 469 L54 511 L183 511 L183 190 Q183 116 201 80.5 Q219 45 273 45 Q302 45 328.5 54.5 Q355 64 378 78.5 Q401 93 421 111.5 Q441 130 456 148 L456 431 Q456 443 453.5 447.5 Q451 452 440 454 L386 469 L393 511 L523 511 L523 72 Q523 52 536 51 L591 44 L591 0 L468 0 Z " />
<glyph glyph-name="v" unicode="v" horiz-adv-x="561" d="M247 0 L74 441 Q71 450 66.5 453 Q62 456 53 458 L10 467 L20 511 L209 511 L209 467 L138 459 L287 62 L436 459 L368 467 L378 511 L551 511 L551 467 L519 461 Q508 459 503 456 Q498 453 494 444 L323 0 L247 0 Z " />
<glyph glyph-name="w" unicode="w" horiz-adv-x="825" d="M532 0 L423 421 L301 0 L221 0 L74 441 Q71 450 66.5 453 Q62 456 53 458 L10 467 L20 511 L205 511 L205 467 L138 459 L263 68 L386 496 L463 496 L574 70 L694 459 L626 467 L636 511 L815 511 L815 467 L779 461 Q765 459 760.5 455 Q756 451 753 441 Q718 329 683 220 Q648 111 613 0 L532 0 Z " />
<glyph glyph-name="x" unicode="x" horiz-adv-x="563" d="M334 0 L334 44 L402 53 L277 216 L151 53 L220 44 L220 0 L10 0 L10 44 L66 55 Q74 57 78.5 60 Q83 63 89 71 L236 260 L99 439 Q93 447 88.5 450 Q84 453 75 456 L30 467 L40 511 L228 511 L228 467 L161 459 L279 306 L400 459 L333 467 L343 511 L528 511 L528 467 L481 457 Q472 454 467 450 Q462 446 456 438 L320 264 L467 73 Q474 65 479 61 Q484 57 493 55 L553 44 L553 0 L334 0 Z " />
<glyph glyph-name="y" unicode="y" horiz-adv-x="567" d="M93 -212 L93 -167 L163 -159 Q172 -158 175.5 -153.5 Q179 -149 184 -138 L248 10 L72 440 Q68 449 64 452 Q60 455 51 457 L10 467 L20 511 L210 511 L210 467 L142 459 L285 90 L434 459 L365 467 L375 511 L557 511 L557 467 L523 462 Q513 460 507.5 456.5 Q502 453 498 445 L245 -159 L339 -168 L339 -212 L93 -212 Z " />
<glyph glyph-name="z" unicode="z" horiz-adv-x="476" d="M40 0 L40 42 L352 455 L131 455 Q125 455 123 451 Q121 447 120 442 L108 376 L55 373 L55 511 L439 511 L439 467 L129 56 L365 56 Q371 56 373 60 Q375 64 376 69 L388 145 L441 148 L441 0 L40 0 Z " />
<glyph glyph-name="ae" unicode="&#xe6;" horiz-adv-x="833" d="M777 30 Q743 10 700.5 -1 Q658 -12 605 -12 Q533 -12 487 12 Q441 36 415 78 Q358 31 305.5 9.5 Q253 -12 189 -12 Q143 -12 115.5 2 Q88 16 74 36.5 Q60 57 55.5 80 Q51 103 51 120 Q51 196 96.5 231 Q142 266 231 274 L374 287 L374 343 Q374 374 370 397 Q366 420 353.5 435 Q341 450 318.5 457 Q296 464 260 464 Q235 464 213.5 462.5 Q192 461 176 453.5 Q160 446 150.5 429.5 Q141 413 141 383 L77 391 Q77 435 95.5 461 Q114 487 141.5 500.5 Q169 514 201 517.5 Q233 521 260 521 Q330 521 369 503 Q408 485 425 440 Q455 480 498 500.5 Q541 521 592 521 Q636 521 673 508 Q710 495 736.5 467 Q763 439 778 394 Q793 349 793 285 Q793 274 792.5 263.5 Q792 253 791 242 L441 242 Q442 199 451.5 163.5 Q461 128 481 102.5 Q501 77 533 63 Q565 49 610 49 Q633 49 651.5 51 Q670 53 686.5 57.5 Q703 62 718.5 69 Q734 76 752 86 L777 30 Z M243 222 Q207 219 183 211.5 Q159 204 145.5 192.5 Q132 181 126.5 165 Q121 149 121 127 Q121 82 143 63 Q165 44 205 44 Q229 44 256 51.5 Q283 59 308 71.5 Q333 84 354.5 100 Q376 116 390 134 Q377 177 374 233 L243 222 Z M724 298 Q723 344 712.5 375.5 Q702 407 684 426.5 Q666 446 642.5 454 Q619 462 593 462 Q564 462 538 454 Q512 446 491.5 426.5 Q471 407 457.5 375.5 Q444 344 441 298 L724 298 Z " />
<glyph glyph-name="ij" unicode="&#x133;" horiz-adv-x="567" d="M190 688 Q190 662 176 648.5 Q162 635 136 635 Q110 635 96 648.5 Q82 662 82 688 Q82 714 96 727.5 Q110 741 136 741 Q162 741 176 727.5 Q190 714 190 688 Z M28 0 L28 45 L100 51 Q111 53 113.5 56.5 Q116 60 116 71 L116 429 Q116 446 103 450 L45 469 L53 511 L183 511 L183 71 Q183 59 185.5 56 Q188 53 199 51 L269 44 L269 0 L28 0 Z M403 429 Q403 440 401 444 Q399 448 391 450 L323 469 L331 511 L470 511 L470 -70 Q470 -147 439 -185 Q408 -223 338 -223 Q297 -223 263 -212 Q229 -201 209 -184 L242 -135 Q256 -146 280.5 -156 Q305 -166 333 -166 Q377 -166 390 -137 Q403 -108 403 -55 L403 429 Z M479 688 Q479 662 465 648.5 Q451 635 425 635 Q399 635 385 648.5 Q371 662 371 688 Q371 714 385 727.5 Q399 741 425 741 Q451 741 465 727.5 Q479 714 479 688 Z " />
<glyph glyph-name="eng" unicode="&#x14b;" horiz-adv-x="626" d="M459 310 Q459 388 436 424 Q413 460 357 460 Q330 460 303.5 452 Q277 444 254 433 Q231 422 212.5 408.5 Q194 395 183 385 L183 71 Q183 59 185.5 56 Q188 53 199 51 L259 44 L259 0 L48 0 L48 45 L100 51 Q111 53 113.5 56.5 Q116 60 116 71 L116 429 Q116 446 103 450 L45 469 L53 511 L166 511 L174 449 L177 448 Q215 476 263 498.5 Q311 521 371 521 Q415 521 444.5 507.5 Q474 494 492 469.5 Q510 445 518 409.5 Q526 374 526 331 L526 -70 Q526 -148 494.5 -185.5 Q463 -223 390 -223 Q353 -223 318.5 -211.5 Q284 -200 265 -184 L298 -135 Q311 -146 336 -156 Q361 -166 386 -166 Q410 -166 424 -159 Q438 -152 446 -137.5 Q454 -123 456.5 -102.5 Q459 -82 459 -55 L459 310 Z " />
<glyph glyph-name="eth" unicode="&#xf0;" horiz-adv-x="550" d="M193 613 L284 662 Q224 701 138 711 L160 762 Q270 750 345 695 L447 750 L475 702 L390 656 Q450 593 477 504.5 Q504 416 504 313 Q504 261 495.5 204 Q487 147 462 99 Q437 51 392 19.5 Q347 -12 274 -12 Q214 -12 170.5 6.5 Q127 25 99 59 Q71 93 58 142 Q45 191 45 253 Q45 304 59.5 349 Q74 394 103.5 427.5 Q133 461 176 481 Q219 501 276 501 Q310 501 351 489.5 Q392 478 421 455 L423 456 Q410 506 388 548.5 Q366 591 331 625 L221 566 L193 613 Z M114 252 Q114 214 121 176.5 Q128 139 146 109.5 Q164 80 195 61.5 Q226 43 274 43 Q324 43 356 66.5 Q388 90 407 128 Q426 166 433 213.5 Q440 261 440 309 Q440 343 437 376 Q428 389 411.5 401 Q395 413 374.5 422 Q354 431 330.5 436.5 Q307 442 283 442 Q198 442 156 389.5 Q114 337 114 252 Z " />
<glyph glyph-name="oe" unicode="&#x153;" horiz-adv-x="908" d="M852 30 Q818 10 775.5 -1 Q733 -12 680 -12 Q599 -12 551.5 18 Q504 48 481 100 Q455 46 405 17 Q355 -12 279 -12 Q217 -12 172.5 8 Q128 28 99.5 63.5 Q71 99 58 148.5 Q45 198 45 257 Q45 315 60 364 Q75 413 105 447.5 Q135 482 181 501.5 Q227 521 289 521 Q365 521 412.5 492.5 Q460 464 485 414 Q513 468 560 494.5 Q607 521 667 521 Q711 521 748 508 Q785 495 811.5 467 Q838 439 853 394 Q868 349 868 285 Q868 274 867.5 263.5 Q867 253 866 242 L517 242 Q518 199 527.5 163.5 Q537 128 557 102.5 Q577 77 608.5 63 Q640 49 685 49 Q708 49 726.5 51 Q745 53 761.5 57.5 Q778 62 793.5 69 Q809 76 827 86 L852 30 Z M282 43 Q449 43 449 257 Q449 360 409.5 411 Q370 462 287 462 Q203 462 158.5 410.5 Q114 359 114 256 Q114 153 156 98 Q198 43 282 43 Z M799 298 Q798 344 787.5 375.5 Q777 407 759 426.5 Q741 446 717.5 454 Q694 462 668 462 Q639 462 613.5 454 Q588 446 568 426.5 Q548 407 535 375.5 Q522 344 519 298 L799 298 Z " />
<glyph glyph-name="thorn" unicode="&#xfe;" horiz-adv-x="578" d="M43 -212 L43 -167 L85 -161 Q96 -159 98.5 -155.5 Q101 -152 101 -141 L101 673 Q101 690 88 694 L30 713 L38 755 L168 755 L168 451 Q206 477 249 499 Q292 521 346 521 Q431 521 482 463 Q533 405 533 276 Q533 207 521 156.5 Q509 106 486.5 71.5 Q464 37 433 17 Q402 -3 363 -9 Q343 -12 323 -12 Q278 -12 239.5 2.5 Q201 17 170 47 L168 46 L168 -141 Q168 -153 170.5 -156.5 Q173 -160 184 -161 L274 -168 L274 -212 L43 -212 Z M168 120 Q196 91 235.5 68.5 Q275 46 317 46 Q400 46 433.5 105.5 Q467 165 467 268 Q467 324 456.5 361.5 Q446 399 428 421 Q410 443 386 452 Q362 461 335 461 Q310 461 285 453.5 Q260 446 238 435 Q216 424 198 411.5 Q180 399 168 389 L168 120 Z " />
<glyph glyph-name="germandbls" unicode="&#xdf;" horiz-adv-x="640" d="M30 0 L30 45 L97 51 Q108 52 110.5 56 Q113 60 113 71 L113 557 Q113 613 128.5 652.5 Q144 692 172.5 717.5 Q201 743 241.5 755 Q282 767 332 767 Q440 767 488.5 718.5 Q537 670 537 590 Q537 521 507 480.5 Q477 440 427 419 L427 416 Q463 408 491.5 393 Q520 378 539.5 353.5 Q559 329 569.5 293.5 Q580 258 580 209 Q580 160 566 119.5 Q552 79 525.5 50.5 Q499 22 461.5 6.5 Q424 -9 378 -9 Q358 -9 337 -6 Q316 -3 296 1.5 Q276 6 258 12.5 Q240 19 227 27 L249 79 Q278 65 309.5 56 Q341 47 373 47 Q436 47 473 85.5 Q510 124 510 209 Q510 298 463.5 340.5 Q417 383 336 383 Q316 383 302 382.5 Q288 382 274 380 L274 436 L340 443 Q373 446 397 459 Q421 472 437 491.5 Q453 511 461 535 Q469 559 469 586 Q469 651 434.5 680.5 Q400 710 331 710 Q293 710 264.5 702.5 Q236 695 217 676.5 Q198 658 189 627 Q180 596 180 550 L180 0 L30 0 Z " />
<glyph glyph-name="dotlessi" unicode="&#x131;" horiz-adv-x="289" d="M28 0 L28 45 L100 51 Q111 53 113.5 56.5 Q116 60 116 71 L116 429 Q116 446 103 450 L45 469 L53 511 L183 511 L183 71 Q183 59 185.5 56 Q188 53 199 51 L269 44 L269 0 L28 0 Z " />
<glyph glyph-name="kgreenlandic" unicode="&#x138;" horiz-adv-x="579" d="M359 0 L359 45 L421 53 L279 275 L183 167 L183 71 Q183 59 185.5 56 Q188 53 199 51 L264 44 L264 0 L33 0 L33 45 L100 51 Q111 53 113.5 56.5 Q116 60 116 71 L116 429 Q116 446 103 450 L42 469 L50 511 L183 511 L183 252 L407 511 L507 511 L507 467 L448 454 Q439 452 434.5 449.5 Q430 447 423 439 L324 327 L486 70 Q492 61 496.5 58.5 Q501 56 515 54 L569 44 L569 0 L359 0 Z " />
<glyph glyph-name="longs" unicode="&#x17f;" horiz-adv-x="394" d="M45 0 L45 45 L112 51 Q123 52 125.5 56 Q128 60 128 71 L128 596 Q128 679 168.5 722.5 Q209 766 299 766 Q328 766 353 761.5 Q378 757 397 745 Q416 733 426.5 711.5 Q437 690 437 656 L374 647 Q374 687 354 698 Q334 709 296 709 Q265 709 245.5 701 Q226 693 214.5 678 Q203 663 199 641.5 Q195 620 195 593 L195 72 Q195 60 197.5 56.5 Q200 53 211 52 L326 44 L326 0 L45 0 Z " />
<glyph glyph-name="dotlessj" unicode="&#x237;" horiz-adv-x="278" d="M114 429 Q114 440 112 444 Q110 448 102 450 L34 469 L42 511 L181 511 L181 -70 Q181 -148 149.5 -185.5 Q118 -223 45 -223 Q8 -223 -26.5 -211.5 Q-61 -200 -80 -184 L-47 -135 Q-34 -146 -9 -156 Q16 -166 41 -166 Q65 -166 79 -159 Q93 -152 101 -137.5 Q109 -123 111.5 -102.5 Q114 -82 114 -55 L114 429 Z " />
<glyph glyph-name="bracketleft" unicode="&#x5b;" horiz-adv-x="243" d="M68 -143 L68 724 L213 724 L213 680 L146 672 Q135 670 132.5 667 Q130 664 130 653 L130 -70 Q130 -82 132.5 -85 Q135 -88 146 -90 L213 -98 L213 -143 L68 -143 Z " />
<glyph glyph-name="bracketright" unicode="&#x5d;" horiz-adv-x="243" d="M175 724 L175 -143 L30 -143 L30 -98 L97 -90 Q108 -88 110.5 -85 Q113 -82 113 -71 L113 652 Q113 664 110.5 667 Q108 670 97 672 L30 680 L30 724 L175 724 Z " />
<glyph glyph-name="parenleft" unicode="&#x28;" horiz-adv-x="278" d="M201 -152 Q174 -110 148.5 -63 Q123 -16 103 38 Q83 92 71 152 Q59 212 59 280 Q59 347 72 409.5 Q85 472 106.5 528 Q128 584 155 633 Q182 682 210 723 L261 691 Q229 638 204 588 Q179 538 162 488.5 Q145 439 136 388 Q127 337 127 281 Q127 215 137.5 159.5 Q148 104 166 56 Q184 8 207 -36 Q230 -80 254 -123 L201 -152 Z " />
<glyph glyph-name="parenright" unicode="&#x29;" horiz-adv-x="278" d="M24 -123 Q48 -80 71 -36 Q94 8 112 56 Q130 104 140.5 159.5 Q151 215 151 281 Q151 337 142 388 Q133 439 116 488.5 Q99 538 74 588 Q49 638 17 691 L68 723 Q96 682 123 633 Q150 584 171.5 528 Q193 472 206 409.5 Q219 347 219 280 Q219 212 207 152 Q195 92 175 38 Q155 -16 129.5 -63 Q104 -110 77 -152 L24 -123 Z " />
<glyph glyph-name="braceleft" unicode="&#x7b;" horiz-adv-x="274" d="M236 -146 Q198 -142 170 -134.5 Q142 -127 124 -113 Q106 -99 97 -78 Q88 -57 88 -25 Q88 -4 90 20.5 Q92 45 94.5 70.5 Q97 96 99 121 Q101 146 101 169 Q101 199 93.5 217.5 Q86 236 73.5 246 Q61 256 44.5 259.5 Q28 263 10 263 L10 314 Q28 314 44.5 317.5 Q61 321 73.5 331 Q86 341 93.5 359.5 Q101 378 101 408 Q101 430 99 456.5 Q97 483 94.5 509 Q92 535 90 560 Q88 585 88 606 Q88 637 97 658.5 Q106 680 124 694 Q142 708 170 715.5 Q198 723 236 727 L246 678 Q220 672 202.5 667.5 Q185 663 174 655.5 Q163 648 158.5 636.5 Q154 625 154 606 Q154 565 160 511 Q166 457 166 406 Q166 376 160 355.5 Q154 335 144 322 Q134 309 121.5 301 Q109 293 96 288 Q109 283 121.5 275.5 Q134 268 144 255 Q154 242 160 221.5 Q166 201 166 171 Q166 120 160 68 Q154 16 154 -25 Q154 -44 158.5 -55.5 Q163 -67 174 -74.5 Q185 -82 202.5 -86.5 Q220 -91 246 -97 L236 -146 Z " />
<glyph glyph-name="braceright" unicode="&#x7d;" horiz-adv-x="274" d="M28 -97 Q54 -91 71.5 -86.5 Q89 -82 100 -74.5 Q111 -67 115.5 -55.5 Q120 -44 120 -25 Q120 16 114 68 Q108 120 108 171 Q108 201 114 221.5 Q120 242 130 255 Q140 268 152.5 275.5 Q165 283 178 288 Q165 293 152.5 301 Q140 309 130 322 Q120 335 114 355.5 Q108 376 108 406 Q108 457 114 510.5 Q120 564 120 606 Q120 625 115.5 636.5 Q111 648 100 655.5 Q89 663 71.5 667.5 Q54 672 28 678 L38 727 Q76 723 104 715.5 Q132 708 150 694 Q168 680 177 658.5 Q186 637 186 606 Q186 550 179.5 502.5 Q173 455 173 408 Q173 378 180.5 359.5 Q188 341 200.5 331 Q213 321 229.5 317.5 Q246 314 264 314 L264 263 Q237 262 214 253.5 Q191 245 180 217 Q173 200 173 169 Q173 117 179.5 64.5 Q186 12 186 -25 Q186 -57 177 -78 Q168 -99 150 -113 Q132 -127 104 -134.5 Q76 -142 38 -146 L28 -97 Z " />
<glyph glyph-name="backslash" unicode="&#x5c;" horiz-adv-x="353" d="M286 -92 L6 755 L66 755 L347 -92 L286 -92 Z " />
<glyph glyph-name="slash" unicode="&#x2f;" horiz-adv-x="353" d="M6 -92 L287 755 L347 755 L67 -92 L6 -92 Z " />
<glyph glyph-name="brokenbar" unicode="&#xa6;" horiz-adv-x="280" d="M110 -143 L110 245 L170 245 L170 -143 L110 -143 Z M110 410 L110 755 L170 755 L170 410 L110 410 Z " />
<glyph glyph-name="bar" unicode="&#x7c;" horiz-adv-x="280" d="M110 -143 L110 755 L170 755 L170 -143 L110 -143 Z " />
<glyph glyph-name="section" unicode="&#xa7;" horiz-adv-x="540" d="M85 14 L136 11 L148 -55 Q149 -60 150.5 -63.5 Q152 -67 159 -69 Q170 -73 198.5 -79.5 Q227 -86 259 -86 Q310 -86 339 -65 Q368 -44 368 4 Q368 38 346.5 56.5 Q325 75 293 85.5 Q261 96 224 104.5 Q187 113 155 128.5 Q123 144 101.5 171.5 Q80 199 80 247 Q80 290 102.5 324.5 Q125 359 154 379 Q132 396 118.5 420 Q105 444 105 482 Q105 521 120 548 Q135 575 160 592.5 Q185 610 218 618 Q251 626 287 626 Q344 626 382.5 615.5 Q421 605 435 599 L435 476 L384 479 L372 545 Q371 550 369.5 553 Q368 556 361 558 Q350 562 329 566 Q308 570 279 570 Q218 570 194 545 Q170 520 170 485 Q170 453 191.5 435.5 Q213 418 245 407 Q277 396 315 387 Q353 378 385 362 Q417 346 438.5 318.5 Q460 291 460 243 Q460 198 436 165 Q412 132 383 111 Q406 95 420.5 71.5 Q435 48 435 12 Q435 -33 419 -62.5 Q403 -92 377.5 -109.5 Q352 -127 319.5 -134.5 Q287 -142 254 -142 Q227 -142 199.5 -138 Q172 -134 148.5 -129 Q125 -124 108 -118 Q91 -112 85 -109 L85 14 Z M206 353 Q176 338 160.5 310.5 Q145 283 145 257 Q145 225 163 206.5 Q181 188 208.5 176 Q236 164 269.5 155.5 Q303 147 335 135 Q362 152 377.5 178 Q393 204 393 239 Q393 270 375.5 288 Q358 306 330.5 316.5 Q303 327 270 334.5 Q237 342 206 353 Z " />
<glyph glyph-name="copyright" unicode="&#xa9;" horiz-adv-x="759" d="M710 319 Q710 245 686 184 Q662 123 618 79.5 Q574 36 513 12 Q452 -12 379 -12 Q297 -12 235 12.5 Q173 37 132 79.5 Q91 122 70 180 Q49 238 49 305 Q49 383 75 444 Q101 505 146 547.5 Q191 590 251.5 612.5 Q312 635 381 635 Q457 635 518 612.5 Q579 590 622 549 Q665 508 687.5 449.5 Q710 391 710 319 Z M381 31 Q446 31 498 50.5 Q550 70 586 106.5 Q622 143 641.5 195.5 Q661 248 661 313 Q661 381 640 433 Q619 485 582 520.5 Q545 556 493.5 574 Q442 592 381 592 Q321 592 269.5 573 Q218 554 180.5 517 Q143 480 121.5 427 Q100 374 100 306 Q100 242 119.5 191 Q139 140 175 104.5 Q211 69 263 50 Q315 31 381 31 Z M505 144 Q485 132 453 126 Q421 120 391 120 Q340 120 304 134.5 Q268 149 245.5 175.5 Q223 202 213 237.5 Q203 273 203 315 Q203 357 215 393 Q227 429 251 454.5 Q275 480 310.5 494.5 Q346 509 394 509 Q425 509 456.5 502.5 Q488 496 506 489 L506 386 L467 389 L457 443 Q456 446 454.5 448 Q453 450 448 452 Q437 457 421.5 460 Q406 463 385 463 Q361 463 339 455 Q317 447 300.5 429 Q284 411 274 382.5 Q264 354 264 313 Q264 282 271 255 Q278 228 293.5 208 Q309 188 333.5 176.5 Q358 165 392 165 Q410 165 424.5 168 Q439 171 448 176 Q453 178 454 180.5 Q455 183 457 188 L471 242 L505 242 L505 144 Z " />
<glyph glyph-name="registered" unicode="&#xae;" horiz-adv-x="447" d="M407 480 Q407 439 393.5 405.5 Q380 372 356 348 Q332 324 298 310.5 Q264 297 223 297 Q178 297 143.5 310.5 Q109 324 86 347.5 Q63 371 51.5 403 Q40 435 40 473 Q40 516 54.5 550 Q69 584 94 608 Q119 632 152.5 644.5 Q186 657 224 657 Q309 657 358 609 Q407 561 407 480 Z M368 477 Q368 547 327 584 Q286 621 224 621 Q194 621 167.5 611 Q141 601 121.5 582.5 Q102 564 91 536.5 Q80 509 80 474 Q80 408 118.5 370.5 Q157 333 224 333 Q291 333 329.5 371.5 Q368 410 368 477 Z M242 384 L242 403 L260 405 L234 450 Q231 455 227.5 457.5 Q224 460 216 460 L200 460 L200 411 Q200 406 205 405 L221 403 L221 384 L143 384 L143 403 L159 405 Q164 406 164 410 L164 549 Q164 555 156 555 Q148 555 143 556 L143 575 L230 575 Q269 575 281.5 558.5 Q294 542 294 521 Q294 482 256 468 Q261 466 264 462 Q267 458 272 450 L294 412 Q296 407 302 406 L320 403 L320 384 L242 384 Z M213 488 Q232 488 244.5 494 Q257 500 257 520 Q257 537 247 542 Q237 547 220 547 L200 547 L200 488 L213 488 Z " />
<glyph glyph-name="trademark" unicode="&#x2122;" horiz-adv-x="823" d="M91 348 L91 381 L153 386 L153 680 L63 680 L53 625 L20 625 L20 724 L339 724 L339 625 L306 625 L297 680 L205 680 L205 386 L272 381 L272 348 L91 348 Z M659 348 L659 380 L709 385 L709 622 L606 429 L566 429 L465 623 L465 385 L518 380 L518 348 L373 348 L373 380 L415 385 L415 684 L373 689 L373 724 L468 724 L588 485 L711 724 L801 724 L801 689 L758 684 L758 385 L803 380 L803 348 L659 348 Z " />
<glyph glyph-name="ordfeminine" unicode="&#xaa;" horiz-adv-x="369" d="M256 282 L250 323 L248 324 Q224 302 195.5 288 Q167 274 129 274 Q98 274 79.5 283 Q61 292 51.5 305.5 Q42 319 39 334.5 Q36 350 36 362 Q36 410 66 432.5 Q96 455 156 460 L245 467 L245 503 Q245 538 233 555.5 Q221 573 178 573 Q163 573 150 572 Q137 571 127.5 566.5 Q118 562 112.5 552 Q107 542 107 524 L52 530 Q52 559 64.5 576.5 Q77 594 96 603 Q115 612 137 614.5 Q159 617 179 617 Q214 617 237.5 611.5 Q261 606 275.5 593 Q290 580 296.5 558.5 Q303 537 303 504 L303 334 Q303 326 304.5 324 Q306 322 314 321 L347 316 L347 282 L256 282 Z M245 429 L169 423 Q126 419 111 406.5 Q96 394 96 368 Q96 342 109.5 330.5 Q123 319 146 319 Q176 319 202 334 Q228 349 245 369 L245 429 Z " />
<glyph glyph-name="ordmasculine" unicode="&#xba;" horiz-adv-x="385" d="M191 274 Q149 274 118.5 287 Q88 300 69 323 Q50 346 41 377.5 Q32 409 32 447 Q32 523 72.5 570 Q113 617 197 617 Q239 617 268.5 604.5 Q298 592 317 570.5 Q336 549 344.5 518.5 Q353 488 353 452 Q353 371 314 322.5 Q275 274 191 274 Z M193 318 Q292 318 292 447 Q292 511 268.5 541 Q245 571 196 571 Q146 571 119 541 Q92 511 92 447 Q92 318 193 318 Z " />
<glyph glyph-name="guillemotleft" unicode="&#xab;" horiz-adv-x="424" d="M153 103 L65 260 L154 408 L220 408 L147 272 Q143 265 143 262 Q143 259 146 253 L219 103 L153 103 Z M299 103 L211 260 L300 408 L366 408 L293 272 Q289 265 289 262 Q289 259 292 253 L365 103 L299 103 Z " />
<glyph glyph-name="guillemotright" unicode="&#xbb;" horiz-adv-x="424" d="M58 103 L131 244 Q135 251 135 254 Q135 257 132 263 L59 408 L125 408 L213 255 L124 103 L58 103 Z M204 103 L277 244 Q281 251 281 254 Q281 257 278 263 L205 408 L271 408 L359 255 L270 103 L204 103 Z " />
<glyph glyph-name="guilsinglleft" unicode="&#x2039;" horiz-adv-x="278" d="M153 103 L65 260 L154 408 L220 408 L147 272 Q143 265 143 262 Q143 259 146 253 L219 103 L153 103 Z " />
<glyph glyph-name="guilsinglright" unicode="&#x203a;" horiz-adv-x="278" d="M58 103 L131 244 Q135 251 135 254 Q135 257 132 263 L59 408 L125 408 L213 255 L124 103 L58 103 Z " />
<glyph glyph-name="quoteleft" unicode="&#x2018;" horiz-adv-x="177" d="M132 559 Q92 561 68.5 570.5 Q45 580 45 613 Q45 624 49 633.5 Q53 643 58 654 L111 755 L147 741 L118 647 Q117 641 123 638 L152 625 L132 559 Z " />
<glyph glyph-name="quoteright" unicode="&#x2019;" horiz-adv-x="177" d="M30 573 L59 667 Q60 673 54 676 L25 689 L45 755 Q85 753 108.5 743.5 Q132 734 132 701 Q132 690 128 680.5 Q124 671 119 660 L66 559 L30 573 Z " />
<glyph glyph-name="quotesinglbase" unicode="&#x201a;" horiz-adv-x="166" d="M39 -103 L68 -9 Q69 -3 63 0 L34 13 L54 79 Q94 77 117.5 67.5 Q141 58 141 25 Q141 5 128 -16 L75 -117 L39 -103 Z " />
<glyph glyph-name="quotedblleft" unicode="&#x201c;" horiz-adv-x="320" d="M275 559 Q235 561 211.5 570.5 Q188 580 188 613 Q188 624 192 633.5 Q196 643 201 654 L254 755 L290 741 L261 647 Q260 641 266 638 L295 625 L275 559 Z M132 559 Q92 561 68.5 570.5 Q45 580 45 613 Q45 624 49 633.5 Q53 643 58 654 L111 755 L147 741 L118 647 Q117 641 123 638 L152 625 L132 559 Z " />
<glyph glyph-name="quotedblright" unicode="&#x201d;" horiz-adv-x="320" d="M173 573 L202 667 Q203 673 197 676 L168 689 L188 755 Q228 753 251.5 743.5 Q275 734 275 701 Q275 690 271 680.5 Q267 671 262 660 L209 559 L173 573 Z M30 573 L59 667 Q60 673 54 676 L25 689 L45 755 Q85 753 108.5 743.5 Q132 734 132 701 Q132 690 128 680.5 Q124 671 119 660 L66 559 L30 573 Z " />
<glyph glyph-name="quotedblbase" unicode="&#x201e;" horiz-adv-x="309" d="M39 -103 L68 -9 Q69 -3 63 0 L34 13 L54 79 Q94 77 117.5 67.5 Q141 58 141 25 Q141 5 128 -16 L75 -117 L39 -103 Z M182 -103 L211 -9 Q212 -3 206 0 L177 13 L197 79 Q237 77 260.5 67.5 Q284 58 284 25 Q284 5 271 -16 L218 -117 L182 -103 Z " />
<glyph glyph-name="dagger" unicode="&#x2020;" horiz-adv-x="389" d="M178 432 L211 432 L236 320 L223 108 L223 -83 L166 -83 L166 109 L153 320 L178 432 L94 417 L20 417 L20 480 L94 480 L178 465 L163 561 L163 645 L226 645 L226 561 L211 465 L295 480 L369 480 L369 417 L295 417 L211 432 L211 465 L178 465 L178 432 Z " />
<glyph glyph-name="daggerdbl" unicode="&#x2021;" horiz-adv-x="409" d="M221 432 L246 324 L246 246 L221 130 L188 130 L188 97 L221 97 L236 1 L236 -83 L173 -83 L173 1 L188 97 L104 82 L30 82 L30 145 L104 145 L188 130 L163 246 L163 324 L188 432 L104 417 L30 417 L30 480 L104 480 L188 465 L173 561 L173 645 L236 645 L236 561 L221 465 L305 480 L379 480 L379 417 L305 417 L221 432 L221 465 L188 465 L188 432 L221 432 Z M305 82 L221 97 L221 130 L305 145 L379 145 L379 82 L305 82 Z " />
<glyph glyph-name="bullet" unicode="&#x2022;" horiz-adv-x="365" d="M314 280 Q314 215 279.5 183 Q245 151 182 151 Q119 151 85 183 Q51 215 51 280 Q51 345 85 377 Q119 409 182 409 Q245 409 279.5 377 Q314 345 314 280 Z " />
<glyph glyph-name="periodcentered" unicode="&#xb7;" horiz-adv-x="176" d="M146 302 Q146 245 88 245 Q30 245 30 302 Q30 359 88 359 Q146 359 146 302 Z " />
<glyph glyph-name="ellipsis" unicode="&#x2026;" horiz-adv-x="549" d="M340 45 Q340 -12 282 -12 Q224 -12 224 45 Q224 102 282 102 Q340 102 340 45 Z M158 45 Q158 -12 100 -12 Q42 -12 42 45 Q42 102 100 102 Q158 102 158 45 Z M523 45 Q523 -12 465 -12 Q407 -12 407 45 Q407 102 465 102 Q523 102 523 45 Z " />
<glyph glyph-name="paragraph" unicode="&#xb6;" horiz-adv-x="547" d="M372 -133 L372 589 L283 589 L283 -133 L136 -133 L136 -89 L204 -81 Q212 -80 214 -77 Q216 -74 216 -66 L216 172 Q122 181 66 240.5 Q10 300 10 400 Q10 467 32 513.5 Q54 560 92 589.5 Q130 619 179.5 632 Q229 645 285 645 L522 645 L522 601 L455 593 Q444 591 441.5 588 Q439 585 439 574 L439 -66 Q439 -75 442 -77 Q445 -79 455 -81 L522 -89 L522 -133 L372 -133 Z " />
<glyph glyph-name="uni00AD" unicode="&#xad;" horiz-adv-x="311" d="M20 255 L20 329 L291 329 L291 255 L20 255 Z " />
<glyph glyph-name="endash" unicode="&#x2013;" horiz-adv-x="499" d="M0 255 L0 309 L499 309 L499 255 L0 255 Z " />
<glyph glyph-name="emdash" unicode="&#x2014;" horiz-adv-x="1000" d="M0 255 L0 309 L999 309 L999 255 L0 255 Z " />
<glyph glyph-name="zero" unicode="0" horiz-adv-x="563" d="M279 -12 Q205 -12 159.5 13 Q114 38 88.5 79.5 Q63 121 54 173.5 Q45 226 45 282 Q45 339 56 393 Q67 447 95 489 Q123 531 170 556 Q217 581 289 581 Q359 581 404 557.5 Q449 534 474 494.5 Q499 455 508.5 403.5 Q518 352 518 296 Q518 238 508 182.5 Q498 127 471.5 84 Q445 41 398.5 14.5 Q352 -12 279 -12 Z M282 44 Q331 44 363 62.5 Q395 81 414 114 Q433 147 441 191.5 Q449 236 449 289 Q449 340 442 383 Q435 426 417 457 Q399 488 367.5 505 Q336 522 287 522 Q238 522 205 504.5 Q172 487 151.5 455 Q131 423 122.5 377.5 Q114 332 114 276 Q114 228 122 185.5 Q130 143 149 111.5 Q168 80 200.5 62 Q233 44 282 44 Z " />
<glyph glyph-name="one" unicode="1" horiz-adv-x="351" d="M30 0 L30 45 L137 51 Q148 52 150.5 56 Q153 60 153 71 L153 482 Q153 494 149.5 497.5 Q146 501 138 503 L40 520 L45 566 L220 566 L220 71 Q220 59 222.5 56 Q225 53 236 51 L326 44 L326 0 L30 0 Z " />
<glyph glyph-name="two" unicode="2" horiz-adv-x="461" d="M34 0 L34 50 L169 182 Q205 217 236.5 246.5 Q268 276 291.5 303.5 Q315 331 328.5 358 Q342 385 342 416 Q342 468 312.5 496 Q283 524 214 524 Q182 524 159 519.5 Q136 515 120.5 503 Q105 491 97.5 469.5 Q90 448 90 414 L26 422 Q26 473 42.5 504.5 Q59 536 86 553 Q113 570 147 575.5 Q181 581 215 581 Q320 581 366 537.5 Q412 494 412 424 Q412 383 395.5 348 Q379 313 353.5 282 Q328 251 296.5 222 Q265 193 235 164 L122 56 L356 56 Q364 56 367 57.5 Q370 59 372 67 L388 154 L438 154 L438 0 L34 0 Z " />
<glyph glyph-name="three" unicode="3" horiz-adv-x="476" d="M301 261 Q432 236 432 106 Q432 22 378.5 -30.5 Q325 -83 220 -83 Q151 -83 97.5 -59.5 Q44 -36 14 0 L58 47 Q90 14 128.5 -4 Q167 -22 223 -22 Q249 -22 274 -16 Q299 -10 318.5 4 Q338 18 350 42.5 Q362 67 362 104 Q362 167 322 198 Q282 229 210 229 Q193 229 177 227.5 Q161 226 141 223 L141 280 L203 286 Q275 293 310.5 328.5 Q346 364 346 415 Q346 463 318.5 493.5 Q291 524 225 524 Q195 524 171.5 519.5 Q148 515 132 503 Q116 491 107.5 469.5 Q99 448 99 414 L35 422 Q35 472 52.5 503 Q70 534 98 551.5 Q126 569 160.5 575 Q195 581 229 581 Q280 581 315.5 568.5 Q351 556 373.5 535 Q396 514 406 485.5 Q416 457 416 425 Q416 367 387 326 Q358 285 301 265 L301 261 Z " />
<glyph glyph-name="four" unicode="4" horiz-adv-x="491" d="M317 -67 L317 84 L25 84 L25 137 L265 570 L320 538 L104 143 L318 143 L318 361 L383 361 L383 143 L476 143 L476 84 L382 84 L382 -67 L317 -67 Z " />
<glyph glyph-name="five" unicode="5" horiz-adv-x="501" d="M143 508 L129 294 Q155 311 189.5 322 Q224 333 262 333 Q350 333 403 280.5 Q456 228 456 131 Q456 86 441.5 47 Q427 8 399 -21 Q371 -50 330 -66.5 Q289 -83 237 -83 Q168 -83 111.5 -61 Q55 -39 20 -1 L65 49 Q97 14 139.5 -3.5 Q182 -21 238 -21 Q264 -21 290.5 -13 Q317 -5 338 13 Q359 31 372.5 59 Q386 87 386 128 Q386 170 373.5 198 Q361 226 341.5 243 Q322 260 298 267 Q274 274 251 274 Q203 274 172.5 259 Q142 244 117 226 L65 250 L85 566 L352 566 Q360 566 363 567.5 Q366 569 368 577 L382 631 L425 634 L425 508 L143 508 Z " />
<glyph glyph-name="six" unicode="6" horiz-adv-x="517" d="M395 498 Q395 552 369.5 570 Q344 588 294 588 Q238 588 204 561 Q170 534 151 494 Q132 454 126 408.5 Q120 363 120 327 Q148 353 191.5 373.5 Q235 394 293 394 Q339 394 372.5 379 Q406 364 428 338.5 Q450 313 460 278 Q470 243 470 204 Q470 156 457 116.5 Q444 77 418.5 48.5 Q393 20 354.5 4 Q316 -12 265 -12 Q198 -12 156.5 16 Q115 44 91.5 89.5 Q68 135 60 194.5 Q52 254 52 317 Q52 365 61.5 422.5 Q71 480 98 529.5 Q125 579 174 612 Q223 645 301 645 Q328 645 356 639.5 Q384 634 407 619 Q430 604 444.5 577 Q459 550 459 506 L395 498 Z M122 263 Q123 237 127.5 199 Q132 161 147 126.5 Q162 92 190.5 67.5 Q219 43 268 43 Q333 43 367 83 Q401 123 401 198 Q401 267 373.5 301.5 Q346 336 284 336 Q259 336 234.5 329 Q210 322 188.5 311 Q167 300 150 287 Q133 274 122 263 Z " />
<glyph glyph-name="seven" unicode="7" horiz-adv-x="487" d="M165 -67 Q174 35 198.5 122.5 Q223 210 256 282.5 Q289 355 326 411.5 Q363 468 397 508 L131 508 Q123 508 120 506.5 Q117 505 115 497 L96 406 L50 403 L50 566 L477 566 L477 516 Q434 474 392 406 Q350 338 316 258.5 Q282 179 260 94 Q238 9 236 -67 L165 -67 Z " />
<glyph glyph-name="eight" unicode="8" horiz-adv-x="496" d="M332 331 Q356 317 378.5 301.5 Q401 286 417.5 265.5 Q434 245 444 219.5 Q454 194 454 161 Q454 119 438 86.5 Q422 54 393.5 32 Q365 10 326.5 -1 Q288 -12 242 -12 Q199 -12 162.5 -1.5 Q126 9 99 29.5 Q72 50 56.5 80.5 Q41 111 41 151 Q41 183 51.5 210 Q62 237 79 260.5 Q96 284 119 304.5 Q142 325 167 343 Q126 366 97 400.5 Q68 435 68 492 Q68 529 83 558 Q98 587 123.5 606 Q149 625 182.5 635 Q216 645 253 645 Q298 645 332 633.5 Q366 622 389 602.5 Q412 583 423.5 557 Q435 531 435 501 Q435 475 425.5 450.5 Q416 426 401.5 404.5 Q387 383 368.5 364.5 Q350 346 332 331 Z M224 315 Q170 277 140 238.5 Q110 200 110 156 Q110 102 149 73.5 Q188 45 251 45 Q311 45 348 77 Q385 109 385 158 Q385 191 371 214.5 Q357 238 334.5 255.5 Q312 273 283 287 Q254 301 224 315 Z M277 358 Q313 388 339.5 422 Q366 456 366 498 Q366 524 356 541.5 Q346 559 330 569.5 Q314 580 292.5 584 Q271 588 249 588 Q202 588 169 565 Q136 542 136 498 Q136 471 148 450.5 Q160 430 179.5 414 Q199 398 224.5 384.5 Q250 371 277 358 Z " />
<glyph glyph-name="nine" unicode="9" horiz-adv-x="546" d="M110 31 Q142 2 178.5 -10.5 Q215 -23 255 -23 Q311 -23 343 4 Q375 31 390.5 70.5 Q406 110 410 153.5 Q414 197 414 230 Q386 204 343 182 Q300 160 240 160 Q193 160 159.5 175.5 Q126 191 104 218.5 Q82 246 72 283.5 Q62 321 62 365 Q62 413 75 452.5 Q88 492 114.5 520.5 Q141 549 180 565 Q219 581 271 581 Q340 581 381.5 553.5 Q423 526 445.5 480 Q468 434 475 375 Q482 316 482 252 Q482 218 479.5 179.5 Q477 141 468.5 104 Q460 67 445 33 Q430 -1 404.5 -26.5 Q379 -52 342 -67.5 Q305 -83 254 -83 Q205 -83 156.5 -69 Q108 -55 73 -22 L110 31 Z M412 294 Q410 326 406 366.5 Q402 407 388 442.5 Q374 478 345 502 Q316 526 265 526 Q199 526 165 486 Q131 446 131 371 Q131 299 158.5 258.5 Q186 218 249 218 Q276 218 301 225.5 Q326 233 347 244.5 Q368 256 384.5 269.5 Q401 283 412 294 Z " />
<glyph glyph-name="dollar" unicode="&#x24;" horiz-adv-x="521" d="M456 168 Q456 96 412 54.5 Q368 13 290 3 L290 -80 L235 -80 L235 0 Q202 0 171.5 4 Q141 8 115.5 13.5 Q90 19 71 25.5 Q52 32 41 37 L41 172 L90 172 L108 97 Q111 85 114.5 80.5 Q118 76 126 73 Q140 68 169.5 62.5 Q199 57 235 56 L235 284 Q203 293 172.5 304 Q142 315 118 334 Q94 353 79 381.5 Q64 410 64 454 Q64 494 77 524 Q90 554 113 574.5 Q136 595 167 607 Q198 619 235 623 L235 697 L290 697 L290 626 Q344 624 387 612.5 Q430 601 450 593 L450 446 L399 451 L382 533 Q380 544 376 548.5 Q372 553 362 557 Q349 562 330 564.5 Q311 567 290 568 L290 336 Q321 327 350.5 315.5 Q380 304 403.5 285.5 Q427 267 441.5 238.5 Q456 210 456 168 Z M128 463 Q128 439 136.5 421 Q145 403 159.5 390.5 Q174 378 193.5 369 Q213 360 235 353 L235 565 Q184 558 156 532.5 Q128 507 128 463 Z M391 158 Q391 182 383 199.5 Q375 217 361.5 229.5 Q348 242 329.5 251 Q311 260 290 267 L290 59 Q344 67 367.5 93.5 Q391 120 391 158 Z " />
<glyph glyph-name="Euro" unicode="&#x20ac;" horiz-adv-x="520" d="M155 223 Q186 46 334 46 Q357 46 380 49 Q403 52 414 57 Q422 60 424.5 64.5 Q427 69 428 75 L440 147 L488 151 L488 17 Q472 10 430 -1 Q388 -12 334 -12 Q120 -12 85 223 L6 223 L16 279 L80 279 Q79 288 79 297.5 Q79 307 79 318 Q79 326 79 333 Q79 340 80 348 L26 348 L36 404 L85 404 Q95 466 119 511.5 Q143 557 177 586.5 Q211 616 253.5 630.5 Q296 645 344 645 Q396 645 434 634 Q472 623 490 615 L490 480 L442 484 L429 557 Q428 563 426 567 Q424 571 416 574 Q405 579 384 582 Q363 585 337 585 Q267 585 217.5 541 Q168 497 152 404 L373 404 L363 348 L147 348 L147 327 Q147 314 147 302 Q147 290 148 279 L353 279 L343 223 L155 223 Z " />
<glyph glyph-name="cent" unicode="&#xa2;" horiz-adv-x="489" d="M60 278 Q60 336 74.5 379.5 Q89 423 115 453.5 Q141 484 177 501.5 Q213 519 255 525 L255 628 L310 628 L310 529 Q364 528 398 518 Q432 508 446 502 L446 379 L399 382 L388 446 Q386 453 384.5 456 Q383 459 376 461 Q366 464 348 467 Q330 470 310 471 L310 90 Q331 91 351 93.5 Q371 96 379 99 Q386 101 387.5 104 Q389 107 390 113 L402 179 L449 182 L449 59 Q435 53 399 43 Q363 33 310 32 L310 -67 L255 -67 L255 35 Q164 46 112 105.5 Q60 165 60 278 Z M130 284 Q130 196 163.5 150.5 Q197 105 255 94 L255 467 Q198 456 164 412 Q130 368 130 284 Z " />
<glyph glyph-name="sterling" unicode="&#xa3;" horiz-adv-x="548" d="M50 0 L38 47 Q69 72 85 97 Q101 122 108 149.5 Q115 177 115.5 210.5 Q116 244 116 288 L116 304 L32 304 L32 360 L116 360 L116 431 Q116 477 127 516.5 Q138 556 162 584.5 Q186 613 225.5 629 Q265 645 322 645 Q354 645 383.5 639.5 Q413 634 435.5 619 Q458 604 471 576.5 Q484 549 484 505 L421 496 Q421 551 395 569.5 Q369 588 319 588 Q284 588 258.5 579.5 Q233 571 216.5 551 Q200 531 192 497.5 Q184 464 184 413 L184 360 L379 360 L379 304 L184 304 Q184 261 183.5 227 Q183 193 177.5 163.5 Q172 134 158.5 108.5 Q145 83 118 56 L403 56 Q411 56 414 57.5 Q417 59 419 67 L435 154 L485 154 L485 0 L50 0 Z " />
<glyph glyph-name="yen" unicode="&#xa5;" horiz-adv-x="512" d="M295 179 L295 72 Q295 61 297.5 57 Q300 53 311 52 L408 44 L408 0 L119 0 L119 44 L212 51 Q223 52 225.5 56.5 Q228 61 228 71 L228 179 L93 179 L93 235 L228 235 L228 294 L93 294 L93 350 L195 350 L59 554 Q54 562 49 565.5 Q44 569 35 571 L-10 582 L0 626 L196 626 L196 582 L122 573 L263 355 Q307 425 339.5 475.5 Q372 526 401 573 L329 582 L339 626 L522 626 L522 582 L480 571 Q471 569 465.5 564.5 Q460 560 455 552 L325 350 L430 350 L430 294 L295 294 L295 235 L430 235 L430 179 L295 179 Z " />
<glyph glyph-name="florin" unicode="&#x192;" horiz-adv-x="482" d="M244 321 L202 79 Q195 40 184 10 Q173 -20 155 -41 Q137 -62 110.5 -72.5 Q84 -83 46 -83 Q12 -83 -22.5 -72.5 Q-57 -62 -73 -50 L-50 0 Q-43 -5 -31.5 -9.5 Q-20 -14 -6.5 -18.5 Q7 -23 22 -25.5 Q37 -28 51 -28 Q84 -28 103 -8.5 Q122 11 130 54 L175 311 Q176 316 175.5 318.5 Q175 321 169 321 L75 321 L85 377 L187 377 L207 482 Q214 521 226 551.5 Q238 582 257.5 602.5 Q277 623 306 634 Q335 645 376 645 Q424 645 453 633.5 Q482 622 493 616 L472 495 L425 498 L424 568 Q424 573 423 576.5 Q422 580 416 582 Q408 585 397.5 587 Q387 589 370 589 Q345 589 328 581 Q311 573 300 558.5 Q289 544 282.5 523.5 Q276 503 272 478 L255 387 Q254 382 255 379.5 Q256 377 262 377 L409 377 L399 321 L244 321 Z " />
<glyph glyph-name="percent" unicode="&#x25;" horiz-adv-x="856" d="M206 257 Q162 257 132 271.5 Q102 286 84 310.5 Q66 335 58 367 Q50 399 50 433 Q50 474 60.5 508.5 Q71 543 92 567.5 Q113 592 143.5 606 Q174 620 214 620 Q296 620 332.5 572 Q369 524 369 446 Q369 404 358.5 369.5 Q348 335 327.5 310 Q307 285 276.5 271 Q246 257 206 257 Z M205 -17 L582 621 L647 621 L271 -17 L205 -17 Z M209 309 Q237 309 255.5 319 Q274 329 284.5 347 Q295 365 299.5 389.5 Q304 414 304 442 Q304 467 300 489.5 Q296 512 285.5 529.5 Q275 547 257.5 557 Q240 567 212 567 Q183 567 164.5 555 Q146 543 135 524.5 Q124 506 119.5 483 Q115 460 115 438 Q115 412 119 388.5 Q123 365 133.5 347.5 Q144 330 162.5 319.5 Q181 309 209 309 Z M643 -12 Q599 -12 569 2.5 Q539 17 521 41.5 Q503 66 495 98 Q487 130 487 164 Q487 205 497.5 239.5 Q508 274 529 298.5 Q550 323 580.5 337 Q611 351 651 351 Q733 351 769.5 303 Q806 255 806 177 Q806 135 795.5 100.5 Q785 66 764.5 41 Q744 16 713.5 2 Q683 -12 643 -12 Z M646 40 Q674 40 692.5 50 Q711 60 721.5 78 Q732 96 736.5 120.5 Q741 145 741 173 Q741 198 737 220.5 Q733 243 722.5 260.5 Q712 278 694.5 288 Q677 298 649 298 Q620 298 601.5 286 Q583 274 572 255.5 Q561 237 556.5 214 Q552 191 552 169 Q552 143 556 119.5 Q560 96 570.5 78.5 Q581 61 599.5 50.5 Q618 40 646 40 Z " />
<glyph glyph-name="perthousand" unicode="&#x2030;" horiz-adv-x="1059" d="M187 295 Q148 295 121.5 308 Q95 321 79.5 342.5 Q64 364 57 392.5 Q50 421 50 453 Q50 489 59 520 Q68 551 86 573 Q104 595 131 607.5 Q158 620 194 620 Q231 620 257 608.5 Q283 597 299.5 576 Q316 555 323.5 526 Q331 497 331 462 Q331 387 295 341 Q259 295 187 295 Z M146 -17 L523 621 L588 621 L212 -17 L146 -17 Z M190 345 Q214 345 229.5 354 Q245 363 254 378.5 Q263 394 266.5 414.5 Q270 435 270 459 Q270 481 266.5 501 Q263 521 254.5 536 Q246 551 231 560 Q216 569 193 569 Q169 569 153.5 558.5 Q138 548 128.5 531.5 Q119 515 115.5 495 Q112 475 112 456 Q112 434 115.5 414 Q119 394 127.5 378.5 Q136 363 151 354 Q166 345 190 345 Z M542 -12 Q503 -12 476.5 1 Q450 14 434.5 35.5 Q419 57 412 85.5 Q405 114 405 146 Q405 182 414 213 Q423 244 441 266 Q459 288 486 300.5 Q513 313 549 313 Q586 313 612 301.5 Q638 290 654.5 269 Q671 248 678.5 219 Q686 190 686 155 Q686 80 650 34 Q614 -12 542 -12 Z M545 38 Q569 38 584.5 47 Q600 56 609 71.5 Q618 87 621.5 107.5 Q625 128 625 152 Q625 174 621.5 194 Q618 214 609.5 229 Q601 244 586 253 Q571 262 548 262 Q524 262 508.5 251.5 Q493 241 483.5 224.5 Q474 208 470.5 188 Q467 168 467 149 Q467 127 470.5 107 Q474 87 482.5 71.5 Q491 56 506 47 Q521 38 545 38 Z M865 -12 Q826 -12 799.5 1 Q773 14 757.5 35.5 Q742 57 735 85.5 Q728 114 728 146 Q728 182 737 213 Q746 244 764 266 Q782 288 809 300.5 Q836 313 872 313 Q909 313 935 301.5 Q961 290 977.5 269 Q994 248 1001.5 219 Q1009 190 1009 155 Q1009 80 973 34 Q937 -12 865 -12 Z M868 38 Q892 38 907.5 47 Q923 56 932 71.5 Q941 87 944.5 107.5 Q948 128 948 152 Q948 174 944.5 194 Q941 214 932.5 229 Q924 244 909 253 Q894 262 871 262 Q847 262 831.5 251.5 Q816 241 806.5 224.5 Q797 208 793.5 188 Q790 168 790 149 Q790 127 793.5 107 Q797 87 805.5 71.5 Q814 56 829 47 Q844 38 868 38 Z " />
<glyph glyph-name="afii61352" unicode="&#x2116;" horiz-adv-x="1114" d="M540 0 L216 540 L216 72 Q216 60 218.5 57 Q221 54 232 52 L299 44 L299 0 L70 0 L70 44 L133 51 Q144 53 146.5 56.5 Q149 60 149 71 L149 555 Q149 566 146.5 569.5 Q144 573 133 575 L70 582 L70 627 L246 627 L558 97 L558 555 Q558 566 555.5 569.5 Q553 573 542 575 L479 582 L479 626 L707 626 L707 582 L640 574 Q629 572 626.5 569 Q624 566 624 555 L624 0 L540 0 Z M710 168 L1018 168 L1018 113 L710 113 L710 168 Z M862 213 Q820 213 789.5 226 Q759 239 740 262 Q721 285 712 316.5 Q703 348 703 386 Q703 462 743.5 509 Q784 556 868 556 Q910 556 939.5 543.5 Q969 531 988 509.5 Q1007 488 1015.5 457.5 Q1024 427 1024 391 Q1024 310 985 261.5 Q946 213 862 213 Z M864 257 Q963 257 963 386 Q963 450 939.5 480 Q916 510 867 510 Q817 510 790 480 Q763 450 763 386 Q763 257 864 257 Z " />
<glyph glyph-name="currency" unicode="&#xa4;" horiz-adv-x="570" d="M513 9 L420 100 Q394 80 360 69.5 Q326 59 284 59 Q239 59 204.5 70.5 Q170 82 144 102 L52 9 L6 56 L101 151 Q84 179 76 212.5 Q68 246 68 282 Q68 349 103 405 L9 498 L59 547 L149 457 Q176 479 211.5 491.5 Q247 504 291 504 Q335 504 370.5 492.5 Q406 481 432 460 L518 546 L564 499 L475 409 Q507 356 507 286 Q507 249 497.5 214.5 Q488 180 468 151 L563 57 L513 9 Z M289 119 Q324 119 350.5 131.5 Q377 144 395 166 Q413 188 422 218 Q431 248 431 282 Q431 357 395 399.5 Q359 442 286 442 Q215 442 179.5 397 Q144 352 144 282 Q144 248 152.5 218 Q161 188 178.5 166 Q196 144 223.5 131.5 Q251 119 289 119 Z " />
<glyph glyph-name="Aacute" unicode="&#xc1;" horiz-adv-x="695" d="M466 0 L466 44 L549 53 L488 233 L196 233 L136 53 L217 44 L217 0 L10 0 L10 44 L53 55 Q62 57 68 61 Q74 65 77 74 L298 724 L390 724 L616 72 Q619 63 624.5 60 Q630 57 639 55 L685 44 L685 0 L466 0 Z M343 669 L216 292 L469 292 L343 669 Z M273 766 L249 804 L430 935 L470 872 L273 766 Z " />
<glyph glyph-name="Abreve" unicode="&#x102;" horiz-adv-x="695" d="M466 0 L466 44 L549 53 L488 233 L196 233 L136 53 L217 44 L217 0 L10 0 L10 44 L53 55 Q62 57 68 61 Q74 65 77 74 L298 724 L390 724 L616 72 Q619 63 624.5 60 Q630 57 639 55 L685 44 L685 0 L466 0 Z M343 669 L216 292 L469 292 L343 669 Z M494 894 Q487 870 475.5 849.5 Q464 829 446 814 Q428 799 403 790.5 Q378 782 344 782 Q276 782 241.5 812 Q207 842 194 894 L249 913 Q262 879 282 858 Q302 837 346 837 Q368 837 383.5 843 Q399 849 410 859 Q421 869 429 883 Q437 897 443 913 L494 894 Z " />
<glyph glyph-name="Acircumflex" unicode="&#xc2;" horiz-adv-x="695" d="M466 0 L466 44 L549 53 L488 233 L196 233 L136 53 L217 44 L217 0 L10 0 L10 44 L53 55 Q62 57 68 61 Q74 65 77 74 L298 724 L390 724 L616 72 Q619 63 624.5 60 Q630 57 639 55 L685 44 L685 0 L466 0 Z M343 669 L216 292 L469 292 L343 669 Z M344 850 L225 766 L190 800 L306 899 L382 899 L498 800 L463 766 L344 850 Z " />
<glyph glyph-name="Adieresis" unicode="&#xc4;" horiz-adv-x="695" d="M466 0 L466 44 L549 53 L488 233 L196 233 L136 53 L217 44 L217 0 L10 0 L10 44 L53 55 Q62 57 68 61 Q74 65 77 74 L298 724 L390 724 L616 72 Q619 63 624.5 60 Q630 57 639 55 L685 44 L685 0 L466 0 Z M343 669 L216 292 L469 292 L343 669 Z M295 831 Q295 808 281.5 795 Q268 782 245 782 Q222 782 208.5 795 Q195 808 195 831 Q195 854 208.5 867 Q222 880 245 880 Q268 880 281.5 867 Q295 854 295 831 Z M494 831 Q494 808 480.5 795 Q467 782 444 782 Q421 782 407.5 795 Q394 808 394 831 Q394 854 407.5 867 Q421 880 444 880 Q467 880 480.5 867 Q494 854 494 831 Z " />
<glyph glyph-name="AEacute" unicode="&#x1fc;" horiz-adv-x="999" d="M442 0 L442 44 L503 51 Q515 53 518 57 Q521 61 521 72 L521 328 L291 328 L136 53 L207 44 L207 0 L10 0 L10 44 L52 55 Q64 58 69.5 62 Q75 66 80 74 L415 672 L339 679 L339 724 L932 724 L932 574 L881 577 L867 655 Q866 660 863 664 Q860 668 850 668 L588 668 L588 384 L868 384 L868 328 L588 328 L588 56 L872 56 Q880 56 883 57.5 Q886 59 888 67 L904 154 L954 154 L954 0 L442 0 Z M521 668 L483 668 L324 387 L521 387 L521 668 Z M577 766 L553 804 L734 935 L774 872 L577 766 Z " />
<glyph glyph-name="Agrave" unicode="&#xc0;" horiz-adv-x="695" d="M466 0 L466 44 L549 53 L488 233 L196 233 L136 53 L217 44 L217 0 L10 0 L10 44 L53 55 Q62 57 68 61 Q74 65 77 74 L298 724 L390 724 L616 72 Q619 63 624.5 60 Q630 57 639 55 L685 44 L685 0 L466 0 Z M343 669 L216 292 L469 292 L343 669 Z M220 871 L260 934 L441 803 L417 765 L220 871 Z " />
<glyph glyph-name="Amacron" unicode="&#x100;" horiz-adv-x="695" d="M466 0 L466 44 L549 53 L488 233 L196 233 L136 53 L217 44 L217 0 L10 0 L10 44 L53 55 Q62 57 68 61 Q74 65 77 74 L298 724 L390 724 L616 72 Q619 63 624.5 60 Q630 57 639 55 L685 44 L685 0 L466 0 Z M343 669 L216 292 L469 292 L343 669 Z M193 797 L193 854 L496 854 L496 797 L193 797 Z " />
<glyph glyph-name="Aogonek" unicode="&#x104;" horiz-adv-x="695" d="M638 -192 Q619 -201 597.5 -206.5 Q576 -212 555 -212 Q518 -212 494.5 -194 Q471 -176 471 -137 Q471 -116 478.5 -97 Q486 -78 498.5 -60.5 Q511 -43 526 -28 Q541 -13 556 0 L466 0 L466 44 L549 53 L488 233 L196 233 L136 53 L217 44 L217 0 L10 0 L10 44 L53 55 Q62 57 68 61 Q74 65 77 74 L298 724 L390 724 L616 72 Q619 63 624.5 60 Q630 57 639 55 L685 44 L685 0 L628 0 Q615 -11 599.5 -24 Q584 -37 571 -53 Q558 -69 549.5 -86.5 Q541 -104 541 -122 Q541 -140 550 -147.5 Q559 -155 573 -155 Q584 -155 596 -151.5 Q608 -148 620 -143 L638 -192 Z M343 669 L216 292 L469 292 L343 669 Z " />
<glyph glyph-name="Aring" unicode="&#xc5;" horiz-adv-x="695" d="M466 0 L466 44 L549 53 L488 233 L196 233 L136 53 L217 44 L217 0 L10 0 L10 44 L53 55 Q62 57 68 61 Q74 65 77 74 L298 724 L390 724 L616 72 Q619 63 624.5 60 Q630 57 639 55 L685 44 L685 0 L466 0 Z M343 669 L216 292 L469 292 L343 669 Z M440 842 Q440 799 414.5 776 Q389 753 345 753 Q302 753 276.5 775.5 Q251 798 251 840 Q251 886 278 908 Q305 930 345 930 Q386 930 413 909 Q440 888 440 842 Z M345 799 Q389 799 389 842 Q389 884 345 884 Q325 884 313 873.5 Q301 863 301 840 Q301 799 345 799 Z " />
<glyph glyph-name="Aringacute" unicode="&#x1fa;" horiz-adv-x="695" d="M438 795 Q438 766 426 746 Q414 726 392 716 L616 72 Q619 63 624.5 60 Q630 57 639 55 L685 44 L685 0 L466 0 L466 44 L549 53 L488 233 L196 233 L136 53 L217 44 L217 0 L10 0 L10 44 L53 55 Q62 57 68 61 Q74 65 77 74 L295 715 Q273 725 261 744.5 Q249 764 249 793 Q249 839 276 861 Q303 883 343 883 Q384 883 411 862 Q438 841 438 795 Z M343 669 L216 292 L469 292 L343 669 Z M278 893 L254 931 L435 1062 L475 999 L278 893 Z M343 752 Q387 752 387 795 Q387 837 343 837 Q323 837 311 826.5 Q299 816 299 793 Q299 752 343 752 Z " />
<glyph glyph-name="Atilde" unicode="&#xc3;" horiz-adv-x="695" d="M466 0 L466 44 L549 53 L488 233 L196 233 L136 53 L217 44 L217 0 L10 0 L10 44 L53 55 Q62 57 68 61 Q74 65 77 74 L298 724 L390 724 L616 72 Q619 63 624.5 60 Q630 57 639 55 L685 44 L685 0 L466 0 Z M343 669 L216 292 L469 292 L343 669 Z M426 845 Q436 842 442 848 L481 887 L517 860 L494 828 Q475 802 461.5 792 Q448 782 432 782 Q426 782 418.5 783 Q411 784 403 786 L266 822 Q256 825 250 819 L208 778 L172 805 L201 846 Q217 869 230 877 Q243 885 259 885 Q267 885 274.5 883.5 Q282 882 292 880 L426 845 Z " />
<glyph glyph-name="Cacute" unicode="&#x106;" horiz-adv-x="684" d="M629 40 Q590 13 526 0.5 Q462 -12 393 -12 Q302 -12 238 16 Q174 44 133.5 94.5 Q93 145 74 215 Q55 285 55 368 Q55 447 77 514.5 Q99 582 143 631.5 Q187 681 253.5 709 Q320 737 409 737 Q477 737 534 722.5 Q591 708 627 684 L627 538 L576 541 L559 635 Q558 641 556 645.5 Q554 650 546 653 Q517 664 480.5 671 Q444 678 404 678 Q341 678 289.5 657.5 Q238 637 201.5 597.5 Q165 558 145 500 Q125 442 125 367 Q125 210 198 128.5 Q271 47 397 47 Q435 47 478 52 Q521 57 553 71 Q563 75 566 88 L582 177 L629 177 L629 40 Z M328 766 L304 804 L485 935 L525 872 L328 766 Z " />
<glyph glyph-name="Ccaron" unicode="&#x10c;" horiz-adv-x="684" d="M629 40 Q590 13 526 0.5 Q462 -12 393 -12 Q302 -12 238 16 Q174 44 133.5 94.5 Q93 145 74 215 Q55 285 55 368 Q55 447 77 514.5 Q99 582 143 631.5 Q187 681 253.5 709 Q320 737 409 737 Q477 737 534 722.5 Q591 708 627 684 L627 538 L576 541 L559 635 Q558 641 556 645.5 Q554 650 546 653 Q517 664 480.5 671 Q444 678 404 678 Q341 678 289.5 657.5 Q238 637 201.5 597.5 Q165 558 145 500 Q125 442 125 367 Q125 210 198 128.5 Q271 47 397 47 Q435 47 478 52 Q521 57 553 71 Q563 75 566 88 L582 177 L629 177 L629 40 Z M437 776 L361 776 L245 875 L280 909 L399 825 L518 909 L553 875 L437 776 Z " />
<glyph glyph-name="Ccedilla" unicode="&#xc7;" horiz-adv-x="684" d="M303 -178 Q318 -181 336 -181 Q374 -181 392.5 -166 Q411 -151 411 -126 Q411 -106 396.5 -93 Q382 -80 339 -79 L348 -10 Q270 -3 214 27.5 Q158 58 123 107.5 Q88 157 71.5 223.5 Q55 290 55 368 Q55 447 77 514.5 Q99 582 143 631.5 Q187 681 253.5 709 Q320 737 409 737 Q477 737 534 722.5 Q591 708 627 684 L627 538 L576 541 L559 635 Q558 641 556 645.5 Q554 650 546 653 Q517 664 480.5 671 Q444 678 404 678 Q341 678 289.5 657.5 Q238 637 201.5 597.5 Q165 558 145 500 Q125 442 125 367 Q125 210 198 128.5 Q271 47 397 47 Q435 47 478 52 Q521 57 553 71 Q563 75 566 88 L582 177 L629 177 L629 40 Q591 14 529.5 1.5 Q468 -11 401 -12 L397 -44 Q427 -50 448 -69 Q469 -88 469 -123 Q469 -141 462.5 -159.5 Q456 -178 441 -193.5 Q426 -209 401.5 -218.5 Q377 -228 341 -228 Q330 -228 319 -227 Q308 -226 297 -224 L303 -178 Z " />
<glyph glyph-name="Ccircumflex" unicode="&#x108;" horiz-adv-x="684" d="M629 40 Q590 13 526 0.5 Q462 -12 393 -12 Q302 -12 238 16 Q174 44 133.5 94.5 Q93 145 74 215 Q55 285 55 368 Q55 447 77 514.5 Q99 582 143 631.5 Q187 681 253.5 709 Q320 737 409 737 Q477 737 534 722.5 Q591 708 627 684 L627 538 L576 541 L559 635 Q558 641 556 645.5 Q554 650 546 653 Q517 664 480.5 671 Q444 678 404 678 Q341 678 289.5 657.5 Q238 637 201.5 597.5 Q165 558 145 500 Q125 442 125 367 Q125 210 198 128.5 Q271 47 397 47 Q435 47 478 52 Q521 57 553 71 Q563 75 566 88 L582 177 L629 177 L629 40 Z M399 850 L280 766 L245 800 L361 899 L437 899 L553 800 L518 766 L399 850 Z " />
<glyph glyph-name="Cdotaccent" unicode="&#x10a;" horiz-adv-x="684" d="M629 40 Q590 13 526 0.5 Q462 -12 393 -12 Q302 -12 238 16 Q174 44 133.5 94.5 Q93 145 74 215 Q55 285 55 368 Q55 447 77 514.5 Q99 582 143 631.5 Q187 681 253.5 709 Q320 737 409 737 Q477 737 534 722.5 Q591 708 627 684 L627 538 L576 541 L559 635 Q558 641 556 645.5 Q554 650 546 653 Q517 664 480.5 671 Q444 678 404 678 Q341 678 289.5 657.5 Q238 637 201.5 597.5 Q165 558 145 500 Q125 442 125 367 Q125 210 198 128.5 Q271 47 397 47 Q435 47 478 52 Q521 57 553 71 Q563 75 566 88 L582 177 L629 177 L629 40 Z M453 835 Q453 809 439 795.5 Q425 782 399 782 Q373 782 359 795.5 Q345 809 345 835 Q345 861 359 874.5 Q373 888 399 888 Q425 888 439 874.5 Q453 861 453 835 Z " />
<glyph glyph-name="Dcaron" unicode="&#x10e;" horiz-adv-x="773" d="M70 0 L70 44 L133 51 Q144 53 146.5 56.5 Q149 60 149 71 L149 652 Q149 663 146.5 667 Q144 671 133 672 L70 679 L70 724 L359 724 Q453 724 521 699.5 Q589 675 632.5 629.5 Q676 584 697 519 Q718 454 718 373 Q718 290 695.5 221 Q673 152 627 103 Q581 54 510 27 Q439 0 342 0 L70 0 Z M347 59 Q496 59 572 137 Q648 215 648 358 Q648 448 627.5 507 Q607 566 569 601.5 Q531 637 476.5 651.5 Q422 666 353 666 L216 666 L216 59 L347 59 Z M389 776 L313 776 L197 875 L232 909 L351 825 L470 909 L505 875 L389 776 Z " />
<glyph glyph-name="Dcroat" unicode="&#x110;" horiz-adv-x="784" d="M81 0 L81 44 L144 51 Q155 53 157.5 56.5 Q160 60 160 71 L160 342 L64 342 L64 398 L160 398 L160 652 Q160 663 157.5 667 Q155 671 144 672 L81 679 L81 724 L370 724 Q464 724 532 699.5 Q600 675 643.5 629.5 Q687 584 708 519 Q729 454 729 373 Q729 290 706.5 221 Q684 152 638 103 Q592 54 521 27 Q450 0 353 0 L81 0 Z M358 59 Q507 59 583 137 Q659 215 659 358 Q659 448 638.5 507 Q618 566 580 601.5 Q542 637 487.5 651.5 Q433 666 364 666 L227 666 L227 398 L437 398 L437 342 L227 342 L227 59 L358 59 Z " />
<glyph glyph-name="Eacute" unicode="&#xc9;" horiz-adv-x="637" d="M70 0 L70 44 L133 51 Q144 53 146.5 56.5 Q149 60 149 71 L149 652 Q149 663 146.5 667 Q144 671 133 672 L70 679 L70 724 L560 724 L560 574 L509 577 L495 655 Q492 668 478 668 L216 668 L216 394 L496 394 L496 338 L216 338 L216 56 L500 56 Q508 56 511 57.5 Q514 59 516 67 L532 154 L582 154 L582 0 L70 0 Z M251 766 L227 804 L408 935 L448 872 L251 766 Z " />
<glyph glyph-name="Ebreve" unicode="&#x114;" horiz-adv-x="637" d="M70 0 L70 44 L133 51 Q144 53 146.5 56.5 Q149 60 149 71 L149 652 Q149 663 146.5 667 Q144 671 133 672 L70 679 L70 724 L560 724 L560 574 L509 577 L495 655 Q492 668 478 668 L216 668 L216 394 L496 394 L496 338 L216 338 L216 56 L500 56 Q508 56 511 57.5 Q514 59 516 67 L532 154 L582 154 L582 0 L70 0 Z M472 894 Q465 870 453.5 849.5 Q442 829 424 814 Q406 799 381 790.5 Q356 782 322 782 Q254 782 219.5 812 Q185 842 172 894 L227 913 Q240 879 260 858 Q280 837 324 837 Q346 837 361.5 843 Q377 849 388 859 Q399 869 407 883 Q415 897 421 913 L472 894 Z " />
<glyph glyph-name="Ecaron" unicode="&#x11a;" horiz-adv-x="637" d="M70 0 L70 44 L133 51 Q144 53 146.5 56.5 Q149 60 149 71 L149 652 Q149 663 146.5 667 Q144 671 133 672 L70 679 L70 724 L560 724 L560 574 L509 577 L495 655 Q492 668 478 668 L216 668 L216 394 L496 394 L496 338 L216 338 L216 56 L500 56 Q508 56 511 57.5 Q514 59 516 67 L532 154 L582 154 L582 0 L70 0 Z M360 776 L284 776 L168 875 L203 909 L322 825 L441 909 L476 875 L360 776 Z " />
<glyph glyph-name="Ecircumflex" unicode="&#xca;" horiz-adv-x="637" d="M70 0 L70 44 L133 51 Q144 53 146.5 56.5 Q149 60 149 71 L149 652 Q149 663 146.5 667 Q144 671 133 672 L70 679 L70 724 L560 724 L560 574 L509 577 L495 655 Q492 668 478 668 L216 668 L216 394 L496 394 L496 338 L216 338 L216 56 L500 56 Q508 56 511 57.5 Q514 59 516 67 L532 154 L582 154 L582 0 L70 0 Z M322 850 L203 766 L168 800 L284 899 L360 899 L476 800 L441 766 L322 850 Z " />
<glyph glyph-name="Edieresis" unicode="&#xcb;" horiz-adv-x="637" d="M70 0 L70 44 L133 51 Q144 53 146.5 56.5 Q149 60 149 71 L149 652 Q149 663 146.5 667 Q144 671 133 672 L70 679 L70 724 L560 724 L560 574 L509 577 L495 655 Q492 668 478 668 L216 668 L216 394 L496 394 L496 338 L216 338 L216 56 L500 56 Q508 56 511 57.5 Q514 59 516 67 L532 154 L582 154 L582 0 L70 0 Z M273 831 Q273 808 259.5 795 Q246 782 223 782 Q200 782 186.5 795 Q173 808 173 831 Q173 854 186.5 867 Q200 880 223 880 Q246 880 259.5 867 Q273 854 273 831 Z M472 831 Q472 808 458.5 795 Q445 782 422 782 Q399 782 385.5 795 Q372 808 372 831 Q372 854 385.5 867 Q399 880 422 880 Q445 880 458.5 867 Q472 854 472 831 Z " />
<glyph glyph-name="Edotaccent" unicode="&#x116;" horiz-adv-x="637" d="M70 0 L70 44 L133 51 Q144 53 146.5 56.5 Q149 60 149 71 L149 652 Q149 663 146.5 667 Q144 671 133 672 L70 679 L70 724 L560 724 L560 574 L509 577 L495 655 Q492 668 478 668 L216 668 L216 394 L496 394 L496 338 L216 338 L216 56 L500 56 Q508 56 511 57.5 Q514 59 516 67 L532 154 L582 154 L582 0 L70 0 Z M376 835 Q376 809 362 795.5 Q348 782 322 782 Q296 782 282 795.5 Q268 809 268 835 Q268 861 282 874.5 Q296 888 322 888 Q348 888 362 874.5 Q376 861 376 835 Z " />
<glyph glyph-name="Egrave" unicode="&#xc8;" horiz-adv-x="637" d="M70 0 L70 44 L133 51 Q144 53 146.5 56.5 Q149 60 149 71 L149 652 Q149 663 146.5 667 Q144 671 133 672 L70 679 L70 724 L560 724 L560 574 L509 577 L495 655 Q492 668 478 668 L216 668 L216 394 L496 394 L496 338 L216 338 L216 56 L500 56 Q508 56 511 57.5 Q514 59 516 67 L532 154 L582 154 L582 0 L70 0 Z M198 871 L238 934 L419 803 L395 765 L198 871 Z " />
<glyph glyph-name="Emacron" unicode="&#x112;" horiz-adv-x="637" d="M70 0 L70 44 L133 51 Q144 53 146.5 56.5 Q149 60 149 71 L149 652 Q149 663 146.5 667 Q144 671 133 672 L70 679 L70 724 L560 724 L560 574 L509 577 L495 655 Q492 668 478 668 L216 668 L216 394 L496 394 L496 338 L216 338 L216 56 L500 56 Q508 56 511 57.5 Q514 59 516 67 L532 154 L582 154 L582 0 L70 0 Z M171 797 L171 854 L474 854 L474 797 L171 797 Z " />
<glyph glyph-name="Eogonek" unicode="&#x118;" horiz-adv-x="637" d="M582 0 Q562 -9 540.5 -22.5 Q519 -36 502 -51.5 Q485 -67 474 -85 Q463 -103 463 -122 Q463 -140 472 -147.5 Q481 -155 495 -155 Q506 -155 518 -151.5 Q530 -148 542 -143 L560 -192 Q541 -201 519.5 -206.5 Q498 -212 477 -212 Q440 -212 416.5 -194 Q393 -176 393 -137 Q393 -93 422 -58.5 Q451 -24 490 0 L70 0 L70 44 L133 51 Q144 53 146.5 56.5 Q149 60 149 71 L149 652 Q149 663 146.5 667 Q144 671 133 672 L70 679 L70 724 L560 724 L560 574 L509 577 L495 655 Q492 668 478 668 L216 668 L216 394 L496 394 L496 338 L216 338 L216 56 L500 56 Q508 56 511 57.5 Q514 59 516 67 L532 154 L582 154 L582 0 L582 0 Z " />
<glyph glyph-name="Gbreve" unicode="&#x11e;" horiz-adv-x="747" d="M675 283 Q659 282 659 269 L659 26 Q638 16 610 8.5 Q582 1 551.5 -3.5 Q521 -8 489 -10 Q457 -12 427 -12 Q326 -12 255.5 16.5 Q185 45 140.5 96 Q96 147 75.5 216.5 Q55 286 55 368 Q55 447 77 514.5 Q99 582 143 631.5 Q187 681 253.5 709 Q320 737 409 737 Q477 737 535.5 722.5 Q594 708 630 684 L630 538 L579 541 L562 635 Q561 641 559 645.5 Q557 650 549 653 Q520 664 482 671 Q444 678 404 678 Q341 678 289.5 657.5 Q238 637 201.5 597.5 Q165 558 145 500 Q125 442 125 367 Q125 210 206 128.5 Q287 47 431 47 Q449 47 469.5 48.5 Q490 50 510 52.5 Q530 55 548 58 Q566 61 580 65 Q585 67 589 70 Q593 73 593 82 L593 277 L447 277 L457 332 L717 332 L717 287 L675 283 Z M536 894 Q529 870 517.5 849.5 Q506 829 488 814 Q470 799 445 790.5 Q420 782 386 782 Q318 782 283.5 812 Q249 842 236 894 L291 913 Q304 879 324 858 Q344 837 388 837 Q410 837 425.5 843 Q441 849 452 859 Q463 869 471 883 Q479 897 485 913 L536 894 Z " />
<glyph glyph-name="Gcircumflex" unicode="&#x11c;" horiz-adv-x="747" d="M675 283 Q659 282 659 269 L659 26 Q638 16 610 8.5 Q582 1 551.5 -3.5 Q521 -8 489 -10 Q457 -12 427 -12 Q326 -12 255.5 16.5 Q185 45 140.5 96 Q96 147 75.5 216.5 Q55 286 55 368 Q55 447 77 514.5 Q99 582 143 631.5 Q187 681 253.5 709 Q320 737 409 737 Q477 737 535.5 722.5 Q594 708 630 684 L630 538 L579 541 L562 635 Q561 641 559 645.5 Q557 650 549 653 Q520 664 482 671 Q444 678 404 678 Q341 678 289.5 657.5 Q238 637 201.5 597.5 Q165 558 145 500 Q125 442 125 367 Q125 210 206 128.5 Q287 47 431 47 Q449 47 469.5 48.5 Q490 50 510 52.5 Q530 55 548 58 Q566 61 580 65 Q585 67 589 70 Q593 73 593 82 L593 277 L447 277 L457 332 L717 332 L717 287 L675 283 Z M386 850 L267 766 L232 800 L348 899 L424 899 L540 800 L505 766 L386 850 Z " />
<glyph glyph-name="Gcommaaccent" unicode="&#x122;" horiz-adv-x="747" d="M675 283 Q659 282 659 269 L659 26 Q638 16 610 8.5 Q582 1 551.5 -3.5 Q521 -8 489 -10 Q457 -12 427 -12 Q326 -12 255.5 16.5 Q185 45 140.5 96 Q96 147 75.5 216.5 Q55 286 55 368 Q55 447 77 514.5 Q99 582 143 631.5 Q187 681 253.5 709 Q320 737 409 737 Q477 737 535.5 722.5 Q594 708 630 684 L630 538 L579 541 L562 635 Q561 641 559 645.5 Q557 650 549 653 Q520 664 482 671 Q444 678 404 678 Q341 678 289.5 657.5 Q238 637 201.5 597.5 Q165 558 145 500 Q125 442 125 367 Q125 210 206 128.5 Q287 47 431 47 Q449 47 469.5 48.5 Q490 50 510 52.5 Q530 55 548 58 Q566 61 580 65 Q585 67 589 70 Q593 73 593 82 L593 277 L447 277 L457 332 L717 332 L717 287 L675 283 Z M356 -244 L381 -152 Q382 -145 376 -142 L342 -127 L361 -62 Q405 -66 429 -76.5 Q453 -87 453 -121 Q453 -133 448 -148 Q443 -163 437 -174 L392 -258 L356 -244 Z " />
<glyph glyph-name="Gdotaccent" unicode="&#x120;" horiz-adv-x="747" d="M675 283 Q659 282 659 269 L659 26 Q638 16 610 8.5 Q582 1 551.5 -3.5 Q521 -8 489 -10 Q457 -12 427 -12 Q326 -12 255.5 16.5 Q185 45 140.5 96 Q96 147 75.5 216.5 Q55 286 55 368 Q55 447 77 514.5 Q99 582 143 631.5 Q187 681 253.5 709 Q320 737 409 737 Q477 737 535.5 722.5 Q594 708 630 684 L630 538 L579 541 L562 635 Q561 641 559 645.5 Q557 650 549 653 Q520 664 482 671 Q444 678 404 678 Q341 678 289.5 657.5 Q238 637 201.5 597.5 Q165 558 145 500 Q125 442 125 367 Q125 210 206 128.5 Q287 47 431 47 Q449 47 469.5 48.5 Q490 50 510 52.5 Q530 55 548 58 Q566 61 580 65 Q585 67 589 70 Q593 73 593 82 L593 277 L447 277 L457 332 L717 332 L717 287 L675 283 Z M440 835 Q440 809 426 795.5 Q412 782 386 782 Q360 782 346 795.5 Q332 809 332 835 Q332 861 346 874.5 Q360 888 386 888 Q412 888 426 874.5 Q440 861 440 835 Z " />
<glyph glyph-name="Hbar" unicode="&#x126;" horiz-adv-x="804" d="M509 0 L509 44 L572 51 Q583 53 585.5 56.5 Q588 60 588 71 L588 346 L216 346 L216 72 Q216 60 218.5 57 Q221 54 232 52 L299 44 L299 0 L70 0 L70 44 L133 51 Q144 53 146.5 56.5 Q149 60 149 71 L149 519 L80 519 L80 575 L149 575 L149 653 Q149 664 146.5 668 Q144 672 133 673 L70 680 L70 724 L299 724 L299 680 L232 672 Q221 670 218.5 667 Q216 664 216 653 L216 575 L588 575 L588 653 Q588 664 585.5 668 Q583 672 572 673 L509 680 L509 724 L738 724 L738 680 L671 672 Q660 670 657.5 667 Q655 664 655 653 L655 575 L723 575 L723 519 L655 519 L655 72 Q655 60 657.5 57 Q660 54 671 52 L738 44 L738 0 L509 0 Z M588 402 L588 519 L216 519 L216 402 L588 402 Z " />
<glyph glyph-name="Hcircumflex" unicode="&#x124;" horiz-adv-x="804" d="M509 0 L509 44 L572 51 Q583 53 585.5 56.5 Q588 60 588 71 L588 346 L216 346 L216 72 Q216 60 218.5 57 Q221 54 232 52 L299 44 L299 0 L70 0 L70 44 L133 51 Q144 53 146.5 56.5 Q149 60 149 71 L149 653 Q149 664 146.5 668 Q144 672 133 673 L70 680 L70 724 L299 724 L299 680 L232 672 Q221 670 218.5 667 Q216 664 216 653 L216 402 L588 402 L588 653 Q588 664 585.5 668 Q583 672 572 673 L509 680 L509 724 L738 724 L738 680 L671 672 Q660 670 657.5 667 Q655 664 655 653 L655 72 Q655 60 657.5 57 Q660 54 671 52 L738 44 L738 0 L509 0 Z M407 850 L288 766 L253 800 L369 899 L445 899 L561 800 L526 766 L407 850 Z " />
<glyph glyph-name="Iacute" unicode="&#xcd;" horiz-adv-x="387" d="M71 0 L71 44 L144 51 Q155 53 157.5 56.5 Q160 60 160 71 L160 653 Q160 664 157.5 668 Q155 672 144 673 L71 680 L71 724 L320 724 L320 680 L243 672 Q232 670 229.5 667 Q227 664 227 653 L227 72 Q227 60 229.5 57 Q232 54 243 52 L320 44 L320 0 L71 0 Z M125 766 L101 804 L282 935 L322 872 L125 766 Z " />
<glyph glyph-name="Ibreve" unicode="&#x12c;" horiz-adv-x="387" d="M71 0 L71 44 L144 51 Q155 53 157.5 56.5 Q160 60 160 71 L160 653 Q160 664 157.5 668 Q155 672 144 673 L71 680 L71 724 L320 724 L320 680 L243 672 Q232 670 229.5 667 Q227 664 227 653 L227 72 Q227 60 229.5 57 Q232 54 243 52 L320 44 L320 0 L71 0 Z M346 894 Q339 870 327.5 849.5 Q316 829 298 814 Q280 799 255 790.5 Q230 782 196 782 Q128 782 93.5 812 Q59 842 46 894 L101 913 Q114 879 134 858 Q154 837 198 837 Q220 837 235.5 843 Q251 849 262 859 Q273 869 281 883 Q289 897 295 913 L346 894 Z " />
<glyph glyph-name="Icircumflex" unicode="&#xce;" horiz-adv-x="387" d="M71 0 L71 44 L144 51 Q155 53 157.5 56.5 Q160 60 160 71 L160 653 Q160 664 157.5 668 Q155 672 144 673 L71 680 L71 724 L320 724 L320 680 L243 672 Q232 670 229.5 667 Q227 664 227 653 L227 72 Q227 60 229.5 57 Q232 54 243 52 L320 44 L320 0 L71 0 Z M196 850 L77 766 L42 800 L158 899 L234 899 L350 800 L315 766 L196 850 Z " />
<glyph glyph-name="Idieresis" unicode="&#xcf;" horiz-adv-x="387" d="M71 0 L71 44 L144 51 Q155 53 157.5 56.5 Q160 60 160 71 L160 653 Q160 664 157.5 668 Q155 672 144 673 L71 680 L71 724 L320 724 L320 680 L243 672 Q232 670 229.5 667 Q227 664 227 653 L227 72 Q227 60 229.5 57 Q232 54 243 52 L320 44 L320 0 L71 0 Z M147 831 Q147 808 133.5 795 Q120 782 97 782 Q74 782 60.5 795 Q47 808 47 831 Q47 854 60.5 867 Q74 880 97 880 Q120 880 133.5 867 Q147 854 147 831 Z M346 831 Q346 808 332.5 795 Q319 782 296 782 Q273 782 259.5 795 Q246 808 246 831 Q246 854 259.5 867 Q273 880 296 880 Q319 880 332.5 867 Q346 854 346 831 Z " />
<glyph glyph-name="Idotaccent" unicode="&#x130;" horiz-adv-x="387" d="M71 0 L71 44 L144 51 Q155 53 157.5 56.5 Q160 60 160 71 L160 653 Q160 664 157.5 668 Q155 672 144 673 L71 680 L71 724 L320 724 L320 680 L243 672 Q232 670 229.5 667 Q227 664 227 653 L227 72 Q227 60 229.5 57 Q232 54 243 52 L320 44 L320 0 L71 0 Z M250 835 Q250 809 236 795.5 Q222 782 196 782 Q170 782 156 795.5 Q142 809 142 835 Q142 861 156 874.5 Q170 888 196 888 Q222 888 236 874.5 Q250 861 250 835 Z " />
<glyph glyph-name="Igrave" unicode="&#xcc;" horiz-adv-x="387" d="M71 0 L71 44 L144 51 Q155 53 157.5 56.5 Q160 60 160 71 L160 653 Q160 664 157.5 668 Q155 672 144 673 L71 680 L71 724 L320 724 L320 680 L243 672 Q232 670 229.5 667 Q227 664 227 653 L227 72 Q227 60 229.5 57 Q232 54 243 52 L320 44 L320 0 L71 0 Z M72 871 L112 934 L293 803 L269 765 L72 871 Z " />
<glyph glyph-name="Imacron" unicode="&#x12a;" horiz-adv-x="387" d="M58 797 L58 854 L333 854 L333 797 L58 797 Z M71 0 L71 44 L144 51 Q155 53 157.5 56.5 Q160 60 160 71 L160 653 Q160 664 157.5 668 Q155 672 144 673 L71 680 L71 724 L320 724 L320 680 L243 672 Q232 670 229.5 667 Q227 664 227 653 L227 72 Q227 60 229.5 57 Q232 54 243 52 L320 44 L320 0 L71 0 Z " />
<glyph glyph-name="Iogonek" unicode="&#x12e;" horiz-adv-x="387" d="M254 -192 Q235 -201 213.5 -206.5 Q192 -212 171 -212 Q134 -212 110.5 -194 Q87 -176 87 -137 Q87 -116 94.5 -97 Q102 -78 114.5 -60.5 Q127 -43 142 -28 Q157 -13 172 0 L71 0 L71 44 L144 51 Q155 53 157.5 56.5 Q160 60 160 71 L160 653 Q160 664 157.5 668 Q155 672 144 673 L71 680 L71 724 L320 724 L320 680 L243 672 Q232 670 229.5 667 Q227 664 227 653 L227 72 Q227 60 229.5 57 Q232 54 243 52 L320 44 L320 0 L244 0 Q231 -11 215.5 -24 Q200 -37 187 -53 Q174 -69 165.5 -86.5 Q157 -104 157 -122 Q157 -140 166 -147.5 Q175 -155 189 -155 Q200 -155 212 -151.5 Q224 -148 236 -143 L254 -192 Z " />
<glyph glyph-name="Itilde" unicode="&#x128;" horiz-adv-x="387" d="M270 845 Q279 842 285 848 L322 887 L356 860 L334 828 Q317 802 303.5 792 Q290 782 276 782 Q270 782 263 783 Q256 784 248 786 L120 822 Q110 825 105 819 L65 778 L31 805 L59 846 Q73 869 85.5 877 Q98 885 113 885 Q121 885 128 883.5 Q135 882 144 880 L270 845 Z M71 0 L71 44 L144 51 Q155 53 157.5 56.5 Q160 60 160 71 L160 653 Q160 664 157.5 668 Q155 672 144 673 L71 680 L71 724 L320 724 L320 680 L243 672 Q232 670 229.5 667 Q227 664 227 653 L227 72 Q227 60 229.5 57 Q232 54 243 52 L320 44 L320 0 L71 0 Z " />
<glyph glyph-name="Jcircumflex" unicode="&#x134;" horiz-adv-x="499" d="M304 654 Q304 665 301 668.5 Q298 672 288 673 L205 680 L205 724 L454 724 L454 680 L387 672 Q376 670 373.5 667.5 Q371 665 371 654 L371 141 Q371 63 334.5 25.5 Q298 -12 215 -12 Q158 -12 116 0 Q74 12 60 21 L60 144 L111 141 L121 73 Q122 68 124 65 Q126 62 133 59 Q141 55 161.5 49.5 Q182 44 213 44 Q268 44 286 69.5 Q304 95 304 149 L304 654 Z M339 850 L220 766 L185 800 L301 899 L377 899 L493 800 L458 766 L339 850 Z " />
<glyph glyph-name="Kcommaaccent" unicode="&#x136;" horiz-adv-x="728" d="M459 0 L459 45 L541 53 L300 361 L216 271 L216 72 Q216 60 218.5 57 Q221 54 232 52 L299 44 L299 0 L70 0 L70 44 L133 51 Q144 53 146.5 56.5 Q149 60 149 71 L149 653 Q149 664 146.5 668 Q144 672 133 673 L70 680 L70 724 L299 724 L299 680 L232 672 Q221 670 218.5 667 Q216 664 216 653 L216 353 L511 671 L449 679 L449 724 L659 724 L659 680 L605 670 Q591 668 586.5 665 Q582 662 575 654 L345 409 L609 70 Q616 61 620 58.5 Q624 56 638 54 L698 44 L698 0 L459 0 Z M328 -244 L353 -152 Q354 -145 348 -142 L314 -127 L333 -62 Q377 -66 401 -76.5 Q425 -87 425 -121 Q425 -133 420 -148 Q415 -163 409 -174 L364 -258 L328 -244 Z " />
<glyph glyph-name="Lacute" unicode="&#x139;" horiz-adv-x="617" d="M70 0 L70 44 L133 51 Q144 53 146.5 56.5 Q149 60 149 71 L149 652 Q149 663 146.5 667 Q144 671 133 672 L70 679 L70 724 L315 724 L315 679 L232 671 Q221 670 218.5 666.5 Q216 663 216 652 L216 56 L500 56 Q508 56 511 57.5 Q514 59 516 67 L532 154 L582 154 L582 0 L70 0 Z M112 766 L88 804 L269 935 L309 872 L112 766 Z " />
<glyph glyph-name="Lcaron" unicode="&#x13d;" horiz-adv-x="617" d="M70 0 L70 44 L133 51 Q144 53 146.5 56.5 Q149 60 149 71 L149 652 Q149 663 146.5 667 Q144 671 133 672 L70 679 L70 724 L315 724 L315 679 L232 671 Q221 670 218.5 666.5 Q216 663 216 652 L216 56 L500 56 Q508 56 511 57.5 Q514 59 516 67 L532 154 L582 154 L582 0 L70 0 Z M382 581 Q389 602 395 625 Q401 648 401 677 Q401 702 396 717.5 Q391 733 386 742 L444 770 Q458 756 464 745 Q470 734 470 717 Q470 709 468.5 697.5 Q467 686 462 671 Q453 642 443 617 Q433 592 422 569 L382 581 Z " />
<glyph glyph-name="Lcommaaccent" unicode="&#x13b;" horiz-adv-x="617" d="M70 0 L70 44 L133 51 Q144 53 146.5 56.5 Q149 60 149 71 L149 652 Q149 663 146.5 667 Q144 671 133 672 L70 679 L70 724 L315 724 L315 679 L232 671 Q221 670 218.5 666.5 Q216 663 216 652 L216 56 L500 56 Q508 56 511 57.5 Q514 59 516 67 L532 154 L582 154 L582 0 L70 0 Z M303 -244 L328 -152 Q329 -145 323 -142 L289 -127 L308 -62 Q352 -66 376 -76.5 Q400 -87 400 -121 Q400 -133 395 -148 Q390 -163 384 -174 L339 -258 L303 -244 Z " />
<glyph glyph-name="Ldot" unicode="&#x13f;" horiz-adv-x="617" d="M70 0 L70 44 L133 51 Q144 53 146.5 56.5 Q149 60 149 71 L149 652 Q149 663 146.5 667 Q144 671 133 672 L70 679 L70 724 L315 724 L315 679 L232 671 Q221 670 218.5 666.5 Q216 663 216 652 L216 56 L500 56 Q508 56 511 57.5 Q514 59 516 67 L532 154 L582 154 L582 0 L70 0 Z M537 358 Q537 332 523 318.5 Q509 305 483 305 Q457 305 443 318.5 Q429 332 429 358 Q429 384 443 397.5 Q457 411 483 411 Q509 411 523 397.5 Q537 384 537 358 Z " />
<glyph glyph-name="Lslash" unicode="&#x141;" horiz-adv-x="617" d="M70 0 L70 44 L133 51 Q144 53 146.5 56.5 Q149 60 149 71 L149 294 L55 255 L55 312 L149 351 L149 652 Q149 663 146.5 667 Q144 671 133 672 L70 679 L70 724 L315 724 L315 679 L232 671 Q221 670 218.5 666.5 Q216 663 216 652 L216 379 L467 484 L467 425 L216 321 L216 56 L500 56 Q508 56 511 57.5 Q514 59 516 67 L532 154 L582 154 L582 0 L70 0 Z " />
<glyph glyph-name="Nacute" unicode="&#x143;" horiz-adv-x="828" d="M600 0 L216 638 L216 72 Q216 60 218.5 57 Q221 54 232 52 L299 44 L299 0 L70 0 L70 44 L133 51 Q144 53 146.5 56.5 Q149 60 149 71 L149 653 Q149 664 146.5 667.5 Q144 671 133 673 L70 680 L70 725 L246 725 L618 93 L618 653 Q618 664 615.5 667.5 Q613 671 602 673 L539 680 L539 724 L767 724 L767 680 L700 672 Q689 670 686.5 667 Q684 664 684 653 L684 0 L600 0 Z M350 766 L326 804 L507 935 L547 872 L350 766 Z " />
<glyph glyph-name="Ncaron" unicode="&#x147;" horiz-adv-x="828" d="M600 0 L216 638 L216 72 Q216 60 218.5 57 Q221 54 232 52 L299 44 L299 0 L70 0 L70 44 L133 51 Q144 53 146.5 56.5 Q149 60 149 71 L149 653 Q149 664 146.5 667.5 Q144 671 133 673 L70 680 L70 725 L246 725 L618 93 L618 653 Q618 664 615.5 667.5 Q613 671 602 673 L539 680 L539 724 L767 724 L767 680 L700 672 Q689 670 686.5 667 Q684 664 684 653 L684 0 L600 0 Z M456 776 L380 776 L264 875 L299 909 L418 825 L537 909 L572 875 L456 776 Z " />
<glyph glyph-name="Ncommaaccent" unicode="&#x145;" horiz-adv-x="828" d="M600 0 L216 638 L216 72 Q216 60 218.5 57 Q221 54 232 52 L299 44 L299 0 L70 0 L70 44 L133 51 Q144 53 146.5 56.5 Q149 60 149 71 L149 653 Q149 664 146.5 667.5 Q144 671 133 673 L70 680 L70 725 L246 725 L618 93 L618 653 Q618 664 615.5 667.5 Q613 671 602 673 L539 680 L539 724 L767 724 L767 680 L700 672 Q689 670 686.5 667 Q684 664 684 653 L684 0 L600 0 Z M370 -244 L395 -152 Q396 -145 390 -142 L356 -127 L375 -62 Q419 -66 443 -76.5 Q467 -87 467 -121 Q467 -133 462 -148 Q457 -163 451 -174 L406 -258 L370 -244 Z " />
<glyph glyph-name="Ntilde" unicode="&#xd1;" horiz-adv-x="828" d="M600 0 L216 638 L216 72 Q216 60 218.5 57 Q221 54 232 52 L299 44 L299 0 L70 0 L70 44 L133 51 Q144 53 146.5 56.5 Q149 60 149 71 L149 653 Q149 664 146.5 667.5 Q144 671 133 673 L70 680 L70 725 L246 725 L618 93 L618 653 Q618 664 615.5 667.5 Q613 671 602 673 L539 680 L539 724 L767 724 L767 680 L700 672 Q689 670 686.5 667 Q684 664 684 653 L684 0 L600 0 Z M489 845 Q499 842 505 848 L544 887 L580 860 L557 828 Q538 802 524.5 792 Q511 782 495 782 Q489 782 481.5 783 Q474 784 466 786 L329 822 Q319 825 313 819 L271 778 L235 805 L264 846 Q280 869 293 877 Q306 885 322 885 Q330 885 337.5 883.5 Q345 882 355 880 L489 845 Z " />
<glyph glyph-name="Oacute" unicode="&#xd3;" horiz-adv-x="783" d="M388 -12 Q302 -12 240 16 Q178 44 137 94 Q96 144 76.5 213 Q57 282 57 363 Q57 444 79.5 512.5 Q102 581 145.5 631 Q189 681 253.5 709 Q318 737 402 737 Q486 737 547 709 Q608 681 648.5 632.5 Q689 584 708.5 518.5 Q728 453 728 378 Q728 289 706.5 217 Q685 145 642.5 94 Q600 43 536 15.5 Q472 -12 388 -12 Z M392 47 Q452 47 501 67 Q550 87 585 127 Q620 167 639.5 227 Q659 287 659 368 Q659 443 640.5 501 Q622 559 588.5 598 Q555 637 507 657.5 Q459 678 400 678 Q340 678 290 657.5 Q240 637 203.5 597 Q167 557 147 498 Q127 439 127 363 Q127 286 146 227 Q165 168 199.5 128 Q234 88 283 67.5 Q332 47 392 47 Z M329 766 L305 804 L486 935 L526 872 L329 766 Z " />
<glyph glyph-name="Obreve" unicode="&#x14e;" horiz-adv-x="783" d="M388 -12 Q302 -12 240 16 Q178 44 137 94 Q96 144 76.5 213 Q57 282 57 363 Q57 444 79.5 512.5 Q102 581 145.5 631 Q189 681 253.5 709 Q318 737 402 737 Q486 737 547 709 Q608 681 648.5 632.5 Q689 584 708.5 518.5 Q728 453 728 378 Q728 289 706.5 217 Q685 145 642.5 94 Q600 43 536 15.5 Q472 -12 388 -12 Z M392 47 Q452 47 501 67 Q550 87 585 127 Q620 167 639.5 227 Q659 287 659 368 Q659 443 640.5 501 Q622 559 588.5 598 Q555 637 507 657.5 Q459 678 400 678 Q340 678 290 657.5 Q240 637 203.5 597 Q167 557 147 498 Q127 439 127 363 Q127 286 146 227 Q165 168 199.5 128 Q234 88 283 67.5 Q332 47 392 47 Z M550 894 Q543 870 531.5 849.5 Q520 829 502 814 Q484 799 459 790.5 Q434 782 400 782 Q332 782 297.5 812 Q263 842 250 894 L305 913 Q318 879 338 858 Q358 837 402 837 Q424 837 439.5 843 Q455 849 466 859 Q477 869 485 883 Q493 897 499 913 L550 894 Z " />
<glyph glyph-name="Ocircumflex" unicode="&#xd4;" horiz-adv-x="783" d="M388 -12 Q302 -12 240 16 Q178 44 137 94 Q96 144 76.5 213 Q57 282 57 363 Q57 444 79.5 512.5 Q102 581 145.5 631 Q189 681 253.5 709 Q318 737 402 737 Q486 737 547 709 Q608 681 648.5 632.5 Q689 584 708.5 518.5 Q728 453 728 378 Q728 289 706.5 217 Q685 145 642.5 94 Q600 43 536 15.5 Q472 -12 388 -12 Z M392 47 Q452 47 501 67 Q550 87 585 127 Q620 167 639.5 227 Q659 287 659 368 Q659 443 640.5 501 Q622 559 588.5 598 Q555 637 507 657.5 Q459 678 400 678 Q340 678 290 657.5 Q240 637 203.5 597 Q167 557 147 498 Q127 439 127 363 Q127 286 146 227 Q165 168 199.5 128 Q234 88 283 67.5 Q332 47 392 47 Z M400 850 L281 766 L246 800 L362 899 L438 899 L554 800 L519 766 L400 850 Z " />
<glyph glyph-name="Odieresis" unicode="&#xd6;" horiz-adv-x="783" d="M388 -12 Q302 -12 240 16 Q178 44 137 94 Q96 144 76.5 213 Q57 282 57 363 Q57 444 79.5 512.5 Q102 581 145.5 631 Q189 681 253.5 709 Q318 737 402 737 Q486 737 547 709 Q608 681 648.5 632.5 Q689 584 708.5 518.5 Q728 453 728 378 Q728 289 706.5 217 Q685 145 642.5 94 Q600 43 536 15.5 Q472 -12 388 -12 Z M392 47 Q452 47 501 67 Q550 87 585 127 Q620 167 639.5 227 Q659 287 659 368 Q659 443 640.5 501 Q622 559 588.5 598 Q555 637 507 657.5 Q459 678 400 678 Q340 678 290 657.5 Q240 637 203.5 597 Q167 557 147 498 Q127 439 127 363 Q127 286 146 227 Q165 168 199.5 128 Q234 88 283 67.5 Q332 47 392 47 Z M351 831 Q351 808 337.5 795 Q324 782 301 782 Q278 782 264.5 795 Q251 808 251 831 Q251 854 264.5 867 Q278 880 301 880 Q324 880 337.5 867 Q351 854 351 831 Z M550 831 Q550 808 536.5 795 Q523 782 500 782 Q477 782 463.5 795 Q450 808 450 831 Q450 854 463.5 867 Q477 880 500 880 Q523 880 536.5 867 Q550 854 550 831 Z " />
<glyph glyph-name="Ograve" unicode="&#xd2;" horiz-adv-x="783" d="M388 -12 Q302 -12 240 16 Q178 44 137 94 Q96 144 76.5 213 Q57 282 57 363 Q57 444 79.5 512.5 Q102 581 145.5 631 Q189 681 253.5 709 Q318 737 402 737 Q486 737 547 709 Q608 681 648.5 632.5 Q689 584 708.5 518.5 Q728 453 728 378 Q728 289 706.5 217 Q685 145 642.5 94 Q600 43 536 15.5 Q472 -12 388 -12 Z M392 47 Q452 47 501 67 Q550 87 585 127 Q620 167 639.5 227 Q659 287 659 368 Q659 443 640.5 501 Q622 559 588.5 598 Q555 637 507 657.5 Q459 678 400 678 Q340 678 290 657.5 Q240 637 203.5 597 Q167 557 147 498 Q127 439 127 363 Q127 286 146 227 Q165 168 199.5 128 Q234 88 283 67.5 Q332 47 392 47 Z M276 871 L316 934 L497 803 L473 765 L276 871 Z " />
<glyph glyph-name="Ohungarumlaut" unicode="&#x150;" horiz-adv-x="783" d="M388 -12 Q302 -12 240 16 Q178 44 137 94 Q96 144 76.5 213 Q57 282 57 363 Q57 444 79.5 512.5 Q102 581 145.5 631 Q189 681 253.5 709 Q318 737 402 737 Q486 737 547 709 Q608 681 648.5 632.5 Q689 584 708.5 518.5 Q728 453 728 378 Q728 289 706.5 217 Q685 145 642.5 94 Q600 43 536 15.5 Q472 -12 388 -12 Z M392 47 Q452 47 501 67 Q550 87 585 127 Q620 167 639.5 227 Q659 287 659 368 Q659 443 640.5 501 Q622 559 588.5 598 Q555 637 507 657.5 Q459 678 400 678 Q340 678 290 657.5 Q240 637 203.5 597 Q167 557 147 498 Q127 439 127 363 Q127 286 146 227 Q165 168 199.5 128 Q234 88 283 67.5 Q332 47 392 47 Z M303 765 L272 797 L421 963 L473 909 L303 765 Z M465 763 L435 797 L593 954 L642 898 L465 763 Z " />
<glyph glyph-name="Omacron" unicode="&#x14c;" horiz-adv-x="783" d="M388 -12 Q302 -12 240 16 Q178 44 137 94 Q96 144 76.5 213 Q57 282 57 363 Q57 444 79.5 512.5 Q102 581 145.5 631 Q189 681 253.5 709 Q318 737 402 737 Q486 737 547 709 Q608 681 648.5 632.5 Q689 584 708.5 518.5 Q728 453 728 378 Q728 289 706.5 217 Q685 145 642.5 94 Q600 43 536 15.5 Q472 -12 388 -12 Z M392 47 Q452 47 501 67 Q550 87 585 127 Q620 167 639.5 227 Q659 287 659 368 Q659 443 640.5 501 Q622 559 588.5 598 Q555 637 507 657.5 Q459 678 400 678 Q340 678 290 657.5 Q240 637 203.5 597 Q167 557 147 498 Q127 439 127 363 Q127 286 146 227 Q165 168 199.5 128 Q234 88 283 67.5 Q332 47 392 47 Z M249 797 L249 854 L552 854 L552 797 L249 797 Z " />
<glyph glyph-name="Oslash" unicode="&#xd8;" horiz-adv-x="783" d="M172 -78 L216 28 Q134 73 95.5 161.5 Q57 250 57 368 Q57 447 79.5 514.5 Q102 582 145.5 631.5 Q189 681 253.5 709 Q318 737 402 737 Q459 737 507 723 L535 789 L602 789 L565 700 Q647 656 686.5 571 Q726 486 726 378 Q726 289 705 217 Q684 145 641.5 94 Q599 43 535.5 15.5 Q472 -12 388 -12 Q356 -12 328 -8 Q300 -4 274 3 L240 -78 L172 -78 Z M392 47 Q452 47 500.5 67 Q549 87 584 127 Q619 167 638 227 Q657 287 657 368 Q657 467 626.5 535.5 Q596 604 540 640 L298 61 Q339 47 392 47 Z M127 367 Q127 266 157.5 197 Q188 128 242 90 L483 666 Q445 678 400 678 Q340 678 290 657.5 Q240 637 203.5 597.5 Q167 558 147 500 Q127 442 127 367 Z " />
<glyph glyph-name="Oslashacute" unicode="&#x1fe;" horiz-adv-x="783" d="M172 -78 L216 28 Q134 73 95.5 161.5 Q57 250 57 368 Q57 447 79.5 514.5 Q102 582 145.5 631.5 Q189 681 253.5 709 Q318 737 402 737 Q459 737 507 723 L535 789 L602 789 L565 700 Q647 656 686.5 571 Q726 486 726 378 Q726 289 705 217 Q684 145 641.5 94 Q599 43 535.5 15.5 Q472 -12 388 -12 Q356 -12 328 -8 Q300 -4 274 3 L240 -78 L172 -78 Z M392 47 Q452 47 500.5 67 Q549 87 584 127 Q619 167 638 227 Q657 287 657 368 Q657 467 626.5 535.5 Q596 604 540 640 L298 61 Q339 47 392 47 Z M127 367 Q127 266 157.5 197 Q188 128 242 90 L483 666 Q445 678 400 678 Q340 678 290 657.5 Q240 637 203.5 597.5 Q167 558 147 500 Q127 442 127 367 Z M372 766 L348 804 L529 935 L569 872 L372 766 Z " />
<glyph glyph-name="Otilde" unicode="&#xd5;" horiz-adv-x="783" d="M388 -12 Q302 -12 240 16 Q178 44 137 94 Q96 144 76.5 213 Q57 282 57 363 Q57 444 79.5 512.5 Q102 581 145.5 631 Q189 681 253.5 709 Q318 737 402 737 Q486 737 547 709 Q608 681 648.5 632.5 Q689 584 708.5 518.5 Q728 453 728 378 Q728 289 706.5 217 Q685 145 642.5 94 Q600 43 536 15.5 Q472 -12 388 -12 Z M392 47 Q452 47 501 67 Q550 87 585 127 Q620 167 639.5 227 Q659 287 659 368 Q659 443 640.5 501 Q622 559 588.5 598 Q555 637 507 657.5 Q459 678 400 678 Q340 678 290 657.5 Q240 637 203.5 597 Q167 557 147 498 Q127 439 127 363 Q127 286 146 227 Q165 168 199.5 128 Q234 88 283 67.5 Q332 47 392 47 Z M482 845 Q492 842 498 848 L537 887 L573 860 L550 828 Q531 802 517.5 792 Q504 782 488 782 Q482 782 474.5 783 Q467 784 459 786 L322 822 Q312 825 306 819 L264 778 L228 805 L257 846 Q273 869 286 877 Q299 885 315 885 Q323 885 330.5 883.5 Q338 882 348 880 L482 845 Z " />
<glyph glyph-name="Racute" unicode="&#x154;" horiz-adv-x="689" d="M426 0 L426 45 L508 53 Q499 75 487 103 Q475 131 462.5 161 Q450 191 438 220 Q426 249 416 273 Q407 294 392 304 Q377 314 350 314 L215 314 L215 72 Q215 60 217.5 57 Q220 54 231 52 L299 44 L299 0 L70 0 L70 44 L133 51 Q144 53 146.5 56.5 Q149 60 149 71 L149 652 Q149 663 146.5 667 Q144 671 133 672 L70 679 L70 724 L362 724 Q429 724 472.5 706.5 Q516 689 541 661.5 Q566 634 575.5 599 Q585 564 585 530 Q585 448 545.5 401 Q506 354 444 334 Q470 322 482.5 294 Q495 266 511 224 L573 73 Q580 58 597 55 L664 44 L664 0 L426 0 Z M325 373 Q364 373 399 380 Q434 387 459.5 405 Q485 423 500 453 Q515 483 515 529 Q515 571 501 597.5 Q487 624 460.5 639.5 Q434 655 394.5 660.5 Q355 666 304 666 L215 666 L215 373 L325 373 Z M258 766 L234 804 L415 935 L455 872 L258 766 Z " />
<glyph glyph-name="Rcaron" unicode="&#x158;" horiz-adv-x="689" d="M426 0 L426 45 L508 53 Q499 75 487 103 Q475 131 462.5 161 Q450 191 438 220 Q426 249 416 273 Q407 294 392 304 Q377 314 350 314 L215 314 L215 72 Q215 60 217.5 57 Q220 54 231 52 L299 44 L299 0 L70 0 L70 44 L133 51 Q144 53 146.5 56.5 Q149 60 149 71 L149 652 Q149 663 146.5 667 Q144 671 133 672 L70 679 L70 724 L362 724 Q429 724 472.5 706.5 Q516 689 541 661.5 Q566 634 575.5 599 Q585 564 585 530 Q585 448 545.5 401 Q506 354 444 334 Q470 322 482.5 294 Q495 266 511 224 L573 73 Q580 58 597 55 L664 44 L664 0 L426 0 Z M325 373 Q364 373 399 380 Q434 387 459.5 405 Q485 423 500 453 Q515 483 515 529 Q515 571 501 597.5 Q487 624 460.5 639.5 Q434 655 394.5 660.5 Q355 666 304 666 L215 666 L215 373 L325 373 Z M356 776 L280 776 L164 875 L199 909 L318 825 L437 909 L472 875 L356 776 Z " />
<glyph glyph-name="Rcommaaccent" unicode="&#x156;" horiz-adv-x="689" d="M426 0 L426 45 L508 53 Q499 75 487 103 Q475 131 462.5 161 Q450 191 438 220 Q426 249 416 273 Q407 294 392 304 Q377 314 350 314 L215 314 L215 72 Q215 60 217.5 57 Q220 54 231 52 L299 44 L299 0 L70 0 L70 44 L133 51 Q144 53 146.5 56.5 Q149 60 149 71 L149 652 Q149 663 146.5 667 Q144 671 133 672 L70 679 L70 724 L362 724 Q429 724 472.5 706.5 Q516 689 541 661.5 Q566 634 575.5 599 Q585 564 585 530 Q585 448 545.5 401 Q506 354 444 334 Q470 322 482.5 294 Q495 266 511 224 L573 73 Q580 58 597 55 L664 44 L664 0 L426 0 Z M325 373 Q364 373 399 380 Q434 387 459.5 405 Q485 423 500 453 Q515 483 515 529 Q515 571 501 597.5 Q487 624 460.5 639.5 Q434 655 394.5 660.5 Q355 666 304 666 L215 666 L215 373 L325 373 Z M311 -244 L336 -152 Q337 -145 331 -142 L297 -127 L316 -62 Q360 -66 384 -76.5 Q408 -87 408 -121 Q408 -133 403 -148 Q398 -163 392 -174 L347 -258 L311 -244 Z " />
<glyph glyph-name="Sacute" unicode="&#x15a;" horiz-adv-x="581" d="M449 549 L432 635 Q430 642 429 646.5 Q428 651 426 654 Q421 661 392 668.5 Q363 676 318 676 Q231 676 189.5 642 Q148 608 148 548 Q148 510 164 486 Q180 462 206.5 445.5 Q233 429 266.5 418 Q300 407 334.5 396 Q369 385 402.5 370.5 Q436 356 462.5 333.5 Q489 311 505 277 Q521 243 521 192 Q521 135 500 96 Q479 57 444 33 Q409 9 362 -1.5 Q315 -12 263 -12 Q228 -12 196 -8 Q164 -4 137.5 1.5 Q111 7 90.5 13.5 Q70 20 60 25 L60 176 L109 176 L128 91 Q130 81 132.5 77 Q135 73 145 69 Q157 64 189.5 56 Q222 48 272 48 Q356 48 403 81 Q450 114 450 187 Q450 227 434 253 Q418 279 391.5 296 Q365 313 331.5 324 Q298 335 263.5 345.5 Q229 356 195.5 369.5 Q162 383 135.5 404.5 Q109 426 93 459 Q77 492 77 541 Q77 593 96.5 630 Q116 667 149 691 Q182 715 226.5 726 Q271 737 322 737 Q385 737 431 724.5 Q477 712 500 704 L500 544 L449 549 Z M234 766 L210 804 L391 935 L431 872 L234 766 Z " />
<glyph glyph-name="Scaron" unicode="&#x160;" horiz-adv-x="581" d="M449 549 L432 635 Q430 642 429 646.5 Q428 651 426 654 Q421 661 392 668.5 Q363 676 318 676 Q231 676 189.5 642 Q148 608 148 548 Q148 510 164 486 Q180 462 206.5 445.5 Q233 429 266.5 418 Q300 407 334.5 396 Q369 385 402.5 370.5 Q436 356 462.5 333.5 Q489 311 505 277 Q521 243 521 192 Q521 135 500 96 Q479 57 444 33 Q409 9 362 -1.5 Q315 -12 263 -12 Q228 -12 196 -8 Q164 -4 137.5 1.5 Q111 7 90.5 13.5 Q70 20 60 25 L60 176 L109 176 L128 91 Q130 81 132.5 77 Q135 73 145 69 Q157 64 189.5 56 Q222 48 272 48 Q356 48 403 81 Q450 114 450 187 Q450 227 434 253 Q418 279 391.5 296 Q365 313 331.5 324 Q298 335 263.5 345.5 Q229 356 195.5 369.5 Q162 383 135.5 404.5 Q109 426 93 459 Q77 492 77 541 Q77 593 96.5 630 Q116 667 149 691 Q182 715 226.5 726 Q271 737 322 737 Q385 737 431 724.5 Q477 712 500 704 L500 544 L449 549 Z M343 776 L267 776 L151 875 L186 909 L305 825 L424 909 L459 875 L343 776 Z " />
<glyph glyph-name="Scedilla" unicode="&#x15e;" horiz-adv-x="581" d="M210 -178 Q225 -181 243 -181 Q281 -181 299.5 -166 Q318 -151 318 -126 Q318 -106 303.5 -93 Q289 -80 246 -79 L255 -12 Q222 -11 191 -7 Q160 -3 134.5 2 Q109 7 89.5 13.5 Q70 20 60 25 L60 176 L109 176 L128 91 Q130 81 132.5 77 Q135 73 145 69 Q157 64 189.5 56 Q222 48 272 48 Q356 48 403 81 Q450 114 450 187 Q450 227 434 253 Q418 279 391.5 296 Q365 313 331.5 324 Q298 335 263.5 345.5 Q229 356 195.5 369.5 Q162 383 135.5 404.5 Q109 426 93 459 Q77 492 77 541 Q77 593 96.5 630 Q116 667 149 691 Q182 715 226.5 726 Q271 737 322 737 Q385 737 431 724.5 Q477 712 500 704 L500 544 L449 549 L432 635 Q430 642 429 646.5 Q428 651 426 654 Q421 661 392 668.5 Q363 676 318 676 Q231 676 189.5 642 Q148 608 148 548 Q148 510 164 486 Q180 462 206.5 445.5 Q233 429 266.5 418 Q300 407 334.5 396 Q369 385 402.5 370.5 Q436 356 462.5 333.5 Q489 311 505 277 Q521 243 521 192 Q521 142 504.5 105.5 Q488 69 459 45 Q430 21 391.5 7.5 Q353 -6 308 -10 L304 -44 Q334 -50 355 -69 Q376 -88 376 -123 Q376 -141 369.5 -159.5 Q363 -178 348 -193.5 Q333 -209 308.5 -218.5 Q284 -228 248 -228 Q237 -228 226 -227 Q215 -226 204 -224 L210 -178 Z " />
<glyph glyph-name="Scircumflex" unicode="&#x15c;" horiz-adv-x="581" d="M449 549 L432 635 Q430 642 429 646.5 Q428 651 426 654 Q421 661 392 668.5 Q363 676 318 676 Q231 676 189.5 642 Q148 608 148 548 Q148 510 164 486 Q180 462 206.5 445.5 Q233 429 266.5 418 Q300 407 334.5 396 Q369 385 402.5 370.5 Q436 356 462.5 333.5 Q489 311 505 277 Q521 243 521 192 Q521 135 500 96 Q479 57 444 33 Q409 9 362 -1.5 Q315 -12 263 -12 Q228 -12 196 -8 Q164 -4 137.5 1.5 Q111 7 90.5 13.5 Q70 20 60 25 L60 176 L109 176 L128 91 Q130 81 132.5 77 Q135 73 145 69 Q157 64 189.5 56 Q222 48 272 48 Q356 48 403 81 Q450 114 450 187 Q450 227 434 253 Q418 279 391.5 296 Q365 313 331.5 324 Q298 335 263.5 345.5 Q229 356 195.5 369.5 Q162 383 135.5 404.5 Q109 426 93 459 Q77 492 77 541 Q77 593 96.5 630 Q116 667 149 691 Q182 715 226.5 726 Q271 737 322 737 Q385 737 431 724.5 Q477 712 500 704 L500 544 L449 549 Z M305 850 L186 766 L151 800 L267 899 L343 899 L459 800 L424 766 L305 850 Z " />
<glyph glyph-name="Scommaaccent" unicode="&#x218;" horiz-adv-x="581" d="M449 549 L432 635 Q430 642 429 646.5 Q428 651 426 654 Q421 661 392 668.5 Q363 676 318 676 Q231 676 189.5 642 Q148 608 148 548 Q148 510 164 486 Q180 462 206.5 445.5 Q233 429 266.5 418 Q300 407 334.5 396 Q369 385 402.5 370.5 Q436 356 462.5 333.5 Q489 311 505 277 Q521 243 521 192 Q521 135 500 96 Q479 57 444 33 Q409 9 362 -1.5 Q315 -12 263 -12 Q228 -12 196 -8 Q164 -4 137.5 1.5 Q111 7 90.5 13.5 Q70 20 60 25 L60 176 L109 176 L128 91 Q130 81 132.5 77 Q135 73 145 69 Q157 64 189.5 56 Q222 48 272 48 Q356 48 403 81 Q450 114 450 187 Q450 227 434 253 Q418 279 391.5 296 Q365 313 331.5 324 Q298 335 263.5 345.5 Q229 356 195.5 369.5 Q162 383 135.5 404.5 Q109 426 93 459 Q77 492 77 541 Q77 593 96.5 630 Q116 667 149 691 Q182 715 226.5 726 Q271 737 322 737 Q385 737 431 724.5 Q477 712 500 704 L500 544 L449 549 Z M239 -244 L264 -152 Q265 -145 259 -142 L225 -127 L244 -62 Q288 -66 312 -76.5 Q336 -87 336 -121 Q336 -133 331 -148 Q326 -163 320 -174 L275 -258 L239 -244 Z " />
<glyph glyph-name="Tbar" unicode="&#x166;" horiz-adv-x="642" d="M168 0 L168 45 L271 52 Q282 53 284.5 57 Q287 61 287 72 L287 333 L153 333 L153 390 L287 390 L287 668 L112 668 Q104 668 101 666.5 Q98 665 96 657 L80 570 L30 570 L30 724 L612 724 L612 570 L562 570 L546 657 Q544 665 541 666.5 Q538 668 530 668 L354 668 L354 390 L487 390 L487 333 L354 333 L354 72 Q354 61 356.5 57.5 Q359 54 370 53 L480 45 L480 0 L168 0 Z " />
<glyph glyph-name="Tcaron" unicode="&#x164;" horiz-adv-x="642" d="M169 0 L169 45 L272 52 Q283 53 285.5 57 Q288 61 288 72 L288 668 L113 668 Q105 668 102 666.5 Q99 665 97 657 L81 570 L31 570 L31 724 L613 724 L613 570 L563 570 L547 657 Q545 665 542 666.5 Q539 668 531 668 L355 668 L355 72 Q355 61 357.5 57.5 Q360 54 371 53 L481 45 L481 0 L169 0 Z M359 776 L283 776 L167 875 L202 909 L321 825 L440 909 L475 875 L359 776 Z " />
<glyph glyph-name="uni0162" unicode="&#x162;" horiz-adv-x="642" d="M240 -178 Q255 -181 273 -181 Q311 -181 329.5 -166 Q348 -151 348 -126 Q348 -106 333.5 -93 Q319 -80 276 -79 L287 0 L168 0 L168 45 L271 52 Q282 53 284.5 57 Q287 61 287 72 L287 668 L112 668 Q104 668 101 666.5 Q98 665 96 657 L80 570 L30 570 L30 724 L612 724 L612 570 L562 570 L546 657 Q544 665 541 666.5 Q538 668 530 668 L354 668 L354 72 Q354 61 356.5 57.5 Q359 54 370 53 L480 45 L480 0 L340 0 L334 -44 Q364 -50 385 -69 Q406 -88 406 -123 Q406 -141 399.5 -159.5 Q393 -178 378 -193.5 Q363 -209 338.5 -218.5 Q314 -228 278 -228 Q267 -228 256 -227 Q245 -226 234 -224 L240 -178 Z " />
<glyph glyph-name="uni021A" unicode="&#x21a;" horiz-adv-x="642" d="M169 0 L169 45 L272 52 Q283 53 285.5 57 Q288 61 288 72 L288 668 L113 668 Q105 668 102 666.5 Q99 665 97 657 L81 570 L31 570 L31 724 L613 724 L613 570 L563 570 L547 657 Q545 665 542 666.5 Q539 668 531 668 L355 668 L355 72 Q355 61 357.5 57.5 Q360 54 371 53 L481 45 L481 0 L169 0 Z M272 -244 L297 -152 Q298 -145 292 -142 L258 -127 L277 -62 Q321 -66 345 -76.5 Q369 -87 369 -121 Q369 -133 364 -148 Q359 -163 353 -174 L308 -258 L272 -244 Z " />
<glyph glyph-name="Uacute" unicode="&#xda;" horiz-adv-x="789" d="M582 653 Q582 664 579.5 668 Q577 672 566 673 L503 680 L503 724 L732 724 L732 680 L665 672 Q654 670 651.5 667 Q649 664 649 653 L649 235 Q649 110 583 49 Q517 -12 389 -12 Q254 -12 197 52 Q140 116 140 236 L140 653 Q140 664 137.5 668 Q135 672 124 673 L61 680 L61 724 L290 724 L290 680 L223 672 Q212 670 209.5 667 Q207 664 207 653 L207 240 Q207 186 219.5 149.5 Q232 113 256 90 Q280 67 315 57 Q350 47 395 47 Q441 47 476 56.5 Q511 66 534.5 88.5 Q558 111 570 147.5 Q582 184 582 238 L582 653 Z M328 766 L304 804 L485 935 L525 872 L328 766 Z " />
<glyph glyph-name="Ubreve" unicode="&#x16c;" horiz-adv-x="789" d="M582 653 Q582 664 579.5 668 Q577 672 566 673 L503 680 L503 724 L732 724 L732 680 L665 672 Q654 670 651.5 667 Q649 664 649 653 L649 235 Q649 110 583 49 Q517 -12 389 -12 Q254 -12 197 52 Q140 116 140 236 L140 653 Q140 664 137.5 668 Q135 672 124 673 L61 680 L61 724 L290 724 L290 680 L223 672 Q212 670 209.5 667 Q207 664 207 653 L207 240 Q207 186 219.5 149.5 Q232 113 256 90 Q280 67 315 57 Q350 47 395 47 Q441 47 476 56.5 Q511 66 534.5 88.5 Q558 111 570 147.5 Q582 184 582 238 L582 653 Z M549 894 Q542 870 530.5 849.5 Q519 829 501 814 Q483 799 458 790.5 Q433 782 399 782 Q331 782 296.5 812 Q262 842 249 894 L304 913 Q317 879 337 858 Q357 837 401 837 Q423 837 438.5 843 Q454 849 465 859 Q476 869 484 883 Q492 897 498 913 L549 894 Z " />
<glyph glyph-name="Ucircumflex" unicode="&#xdb;" horiz-adv-x="789" d="M582 653 Q582 664 579.5 668 Q577 672 566 673 L503 680 L503 724 L732 724 L732 680 L665 672 Q654 670 651.5 667 Q649 664 649 653 L649 235 Q649 110 583 49 Q517 -12 389 -12 Q254 -12 197 52 Q140 116 140 236 L140 653 Q140 664 137.5 668 Q135 672 124 673 L61 680 L61 724 L290 724 L290 680 L223 672 Q212 670 209.5 667 Q207 664 207 653 L207 240 Q207 186 219.5 149.5 Q232 113 256 90 Q280 67 315 57 Q350 47 395 47 Q441 47 476 56.5 Q511 66 534.5 88.5 Q558 111 570 147.5 Q582 184 582 238 L582 653 Z M399 850 L280 766 L245 800 L361 899 L437 899 L553 800 L518 766 L399 850 Z " />
<glyph glyph-name="Udieresis" unicode="&#xdc;" horiz-adv-x="789" d="M582 653 Q582 664 579.5 668 Q577 672 566 673 L503 680 L503 724 L732 724 L732 680 L665 672 Q654 670 651.5 667 Q649 664 649 653 L649 235 Q649 110 583 49 Q517 -12 389 -12 Q254 -12 197 52 Q140 116 140 236 L140 653 Q140 664 137.5 668 Q135 672 124 673 L61 680 L61 724 L290 724 L290 680 L223 672 Q212 670 209.5 667 Q207 664 207 653 L207 240 Q207 186 219.5 149.5 Q232 113 256 90 Q280 67 315 57 Q350 47 395 47 Q441 47 476 56.5 Q511 66 534.5 88.5 Q558 111 570 147.5 Q582 184 582 238 L582 653 Z M350 831 Q350 808 336.5 795 Q323 782 300 782 Q277 782 263.5 795 Q250 808 250 831 Q250 854 263.5 867 Q277 880 300 880 Q323 880 336.5 867 Q350 854 350 831 Z M549 831 Q549 808 535.5 795 Q522 782 499 782 Q476 782 462.5 795 Q449 808 449 831 Q449 854 462.5 867 Q476 880 499 880 Q522 880 535.5 867 Q549 854 549 831 Z " />
<glyph glyph-name="Ugrave" unicode="&#xd9;" horiz-adv-x="789" d="M582 653 Q582 664 579.5 668 Q577 672 566 673 L503 680 L503 724 L732 724 L732 680 L665 672 Q654 670 651.5 667 Q649 664 649 653 L649 235 Q649 110 583 49 Q517 -12 389 -12 Q254 -12 197 52 Q140 116 140 236 L140 653 Q140 664 137.5 668 Q135 672 124 673 L61 680 L61 724 L290 724 L290 680 L223 672 Q212 670 209.5 667 Q207 664 207 653 L207 240 Q207 186 219.5 149.5 Q232 113 256 90 Q280 67 315 57 Q350 47 395 47 Q441 47 476 56.5 Q511 66 534.5 88.5 Q558 111 570 147.5 Q582 184 582 238 L582 653 Z M275 871 L315 934 L496 803 L472 765 L275 871 Z " />
<glyph glyph-name="Uhungarumlaut" unicode="&#x170;" horiz-adv-x="789" d="M582 653 Q582 664 579.5 668 Q577 672 566 673 L503 680 L503 724 L732 724 L732 680 L665 672 Q654 670 651.5 667 Q649 664 649 653 L649 235 Q649 110 583 49 Q517 -12 389 -12 Q254 -12 197 52 Q140 116 140 236 L140 653 Q140 664 137.5 668 Q135 672 124 673 L61 680 L61 724 L290 724 L290 680 L223 672 Q212 670 209.5 667 Q207 664 207 653 L207 240 Q207 186 219.5 149.5 Q232 113 256 90 Q280 67 315 57 Q350 47 395 47 Q441 47 476 56.5 Q511 66 534.5 88.5 Q558 111 570 147.5 Q582 184 582 238 L582 653 Z M302 765 L271 797 L420 963 L472 909 L302 765 Z M464 763 L434 797 L592 954 L641 898 L464 763 Z " />
<glyph glyph-name="Umacron" unicode="&#x16a;" horiz-adv-x="789" d="M582 653 Q582 664 579.5 668 Q577 672 566 673 L503 680 L503 724 L732 724 L732 680 L665 672 Q654 670 651.5 667 Q649 664 649 653 L649 235 Q649 110 583 49 Q517 -12 389 -12 Q254 -12 197 52 Q140 116 140 236 L140 653 Q140 664 137.5 668 Q135 672 124 673 L61 680 L61 724 L290 724 L290 680 L223 672 Q212 670 209.5 667 Q207 664 207 653 L207 240 Q207 186 219.5 149.5 Q232 113 256 90 Q280 67 315 57 Q350 47 395 47 Q441 47 476 56.5 Q511 66 534.5 88.5 Q558 111 570 147.5 Q582 184 582 238 L582 653 Z M248 797 L248 854 L551 854 L551 797 L248 797 Z " />
<glyph glyph-name="Uogonek" unicode="&#x172;" horiz-adv-x="789" d="M524 -192 Q505 -201 483.5 -206.5 Q462 -212 441 -212 Q404 -212 380.5 -194 Q357 -176 357 -137 Q357 -99 380 -67 Q403 -35 431 -10 Q420 -11 410 -11.5 Q400 -12 389 -12 Q254 -12 197 52 Q140 116 140 236 L140 653 Q140 664 137.5 668 Q135 672 124 673 L61 680 L61 724 L290 724 L290 680 L223 672 Q212 670 209.5 667 Q207 664 207 653 L207 240 Q207 186 219.5 149.5 Q232 113 256 90 Q280 67 315 57 Q350 47 395 47 Q441 47 476 56.5 Q511 66 534.5 88.5 Q558 111 570 147.5 Q582 184 582 238 L582 653 Q582 664 579.5 668 Q577 672 566 673 L503 680 L503 724 L732 724 L732 680 L665 672 Q654 670 651.5 667 Q649 664 649 653 L649 235 Q649 152 619.5 99 Q590 46 536 12 Q522 3 503 -12 Q484 -27 467 -45 Q450 -63 438.5 -83 Q427 -103 427 -122 Q427 -140 436 -147.5 Q445 -155 459 -155 Q470 -155 482 -151.5 Q494 -148 506 -143 L524 -192 Z " />
<glyph glyph-name="Uring" unicode="&#x16e;" horiz-adv-x="789" d="M582 653 Q582 664 579.5 668 Q577 672 566 673 L503 680 L503 724 L732 724 L732 680 L665 672 Q654 670 651.5 667 Q649 664 649 653 L649 235 Q649 110 583 49 Q517 -12 389 -12 Q254 -12 197 52 Q140 116 140 236 L140 653 Q140 664 137.5 668 Q135 672 124 673 L61 680 L61 724 L290 724 L290 680 L223 672 Q212 670 209.5 667 Q207 664 207 653 L207 240 Q207 186 219.5 149.5 Q232 113 256 90 Q280 67 315 57 Q350 47 395 47 Q441 47 476 56.5 Q511 66 534.5 88.5 Q558 111 570 147.5 Q582 184 582 238 L582 653 Z M505 842 Q505 799 479.5 776 Q454 753 410 753 Q367 753 341.5 775.5 Q316 798 316 840 Q316 886 343 908 Q370 930 410 930 Q451 930 478 909 Q505 888 505 842 Z M410 799 Q454 799 454 842 Q454 884 410 884 Q390 884 378 873.5 Q366 863 366 840 Q366 799 410 799 Z " />
<glyph glyph-name="Utilde" unicode="&#x168;" horiz-adv-x="789" d="M582 653 Q582 664 579.5 668 Q577 672 566 673 L503 680 L503 724 L732 724 L732 680 L665 672 Q654 670 651.5 667 Q649 664 649 653 L649 235 Q649 110 583 49 Q517 -12 389 -12 Q254 -12 197 52 Q140 116 140 236 L140 653 Q140 664 137.5 668 Q135 672 124 673 L61 680 L61 724 L290 724 L290 680 L223 672 Q212 670 209.5 667 Q207 664 207 653 L207 240 Q207 186 219.5 149.5 Q232 113 256 90 Q280 67 315 57 Q350 47 395 47 Q441 47 476 56.5 Q511 66 534.5 88.5 Q558 111 570 147.5 Q582 184 582 238 L582 653 Z M481 845 Q491 842 497 848 L536 887 L572 860 L549 828 Q530 802 516.5 792 Q503 782 487 782 Q481 782 473.5 783 Q466 784 458 786 L321 822 Q311 825 305 819 L263 778 L227 805 L256 846 Q272 869 285 877 Q298 885 314 885 Q322 885 329.5 883.5 Q337 882 347 880 L481 845 Z " />
<glyph glyph-name="Wacute" unicode="&#x1e82;" horiz-adv-x="973" d="M634 0 L490 493 L341 0 L263 0 L92 651 Q90 661 86 664.5 Q82 668 72 670 L10 680 L20 724 L249 724 L249 680 L158 670 L306 80 L453 573 L530 573 L676 70 L827 670 L734 680 L744 724 L963 724 L963 680 L909 671 Q898 669 894.5 665.5 Q891 662 888 651 L719 0 L634 0 Z M419 766 L395 804 L576 935 L616 872 L419 766 Z " />
<glyph glyph-name="Wcircumflex" unicode="&#x174;" horiz-adv-x="973" d="M634 0 L490 493 L341 0 L263 0 L92 651 Q90 661 86 664.5 Q82 668 72 670 L10 680 L20 724 L249 724 L249 680 L158 670 L306 80 L453 573 L530 573 L676 70 L827 670 L734 680 L744 724 L963 724 L963 680 L909 671 Q898 669 894.5 665.5 Q891 662 888 651 L719 0 L634 0 Z M495 850 L376 766 L341 800 L457 899 L533 899 L649 800 L614 766 L495 850 Z " />
<glyph glyph-name="Wdieresis" unicode="&#x1e84;" horiz-adv-x="973" d="M634 0 L490 493 L341 0 L263 0 L92 651 Q90 661 86 664.5 Q82 668 72 670 L10 680 L20 724 L249 724 L249 680 L158 670 L306 80 L453 573 L530 573 L676 70 L827 670 L734 680 L744 724 L963 724 L963 680 L909 671 Q898 669 894.5 665.5 Q891 662 888 651 L719 0 L634 0 Z M441 831 Q441 808 427.5 795 Q414 782 391 782 Q368 782 354.5 795 Q341 808 341 831 Q341 854 354.5 867 Q368 880 391 880 Q414 880 427.5 867 Q441 854 441 831 Z M640 831 Q640 808 626.5 795 Q613 782 590 782 Q567 782 553.5 795 Q540 808 540 831 Q540 854 553.5 867 Q567 880 590 880 Q613 880 626.5 867 Q640 854 640 831 Z " />
<glyph glyph-name="Wgrave" unicode="&#x1e80;" horiz-adv-x="973" d="M634 0 L490 493 L341 0 L263 0 L92 651 Q90 661 86 664.5 Q82 668 72 670 L10 680 L20 724 L249 724 L249 680 L158 670 L306 80 L453 573 L530 573 L676 70 L827 670 L734 680 L744 724 L963 724 L963 680 L909 671 Q898 669 894.5 665.5 Q891 662 888 651 L719 0 L634 0 Z M366 871 L406 934 L587 803 L563 765 L366 871 Z " />
<glyph glyph-name="Yacute" unicode="&#xdd;" horiz-adv-x="596" d="M161 0 L161 44 L254 51 Q265 52 267.5 56 Q270 60 270 71 L270 284 L69 652 Q62 665 45 669 L0 680 L10 724 L208 724 L208 680 L134 671 L305 346 L472 671 L400 680 L410 724 L596 724 L596 680 L554 669 Q546 667 540 662.5 Q534 658 529 650 L337 287 L337 72 Q337 60 339.5 57 Q342 54 353 52 L450 44 L450 0 L161 0 Z M234 766 L210 804 L391 935 L431 872 L234 766 Z " />
<glyph glyph-name="Ycircumflex" unicode="&#x176;" horiz-adv-x="596" d="M161 0 L161 44 L254 51 Q265 52 267.5 56 Q270 60 270 71 L270 284 L69 652 Q62 665 45 669 L0 680 L10 724 L208 724 L208 680 L134 671 L305 346 L472 671 L400 680 L410 724 L596 724 L596 680 L554 669 Q546 667 540 662.5 Q534 658 529 650 L337 287 L337 72 Q337 60 339.5 57 Q342 54 353 52 L450 44 L450 0 L161 0 Z M305 850 L186 766 L151 800 L267 899 L343 899 L459 800 L424 766 L305 850 Z " />
<glyph glyph-name="Ydieresis" unicode="&#x178;" horiz-adv-x="596" d="M161 0 L161 44 L254 51 Q265 52 267.5 56 Q270 60 270 71 L270 284 L69 652 Q62 665 45 669 L0 680 L10 724 L208 724 L208 680 L134 671 L305 346 L472 671 L400 680 L410 724 L596 724 L596 680 L554 669 Q546 667 540 662.5 Q534 658 529 650 L337 287 L337 72 Q337 60 339.5 57 Q342 54 353 52 L450 44 L450 0 L161 0 Z M256 831 Q256 808 242.5 795 Q229 782 206 782 Q183 782 169.5 795 Q156 808 156 831 Q156 854 169.5 867 Q183 880 206 880 Q229 880 242.5 867 Q256 854 256 831 Z M455 831 Q455 808 441.5 795 Q428 782 405 782 Q382 782 368.5 795 Q355 808 355 831 Q355 854 368.5 867 Q382 880 405 880 Q428 880 441.5 867 Q455 854 455 831 Z " />
<glyph glyph-name="Ygrave" unicode="&#x1ef2;" horiz-adv-x="596" d="M161 0 L161 44 L254 51 Q265 52 267.5 56 Q270 60 270 71 L270 284 L69 652 Q62 665 45 669 L0 680 L10 724 L208 724 L208 680 L134 671 L305 346 L472 671 L400 680 L410 724 L596 724 L596 680 L554 669 Q546 667 540 662.5 Q534 658 529 650 L337 287 L337 72 Q337 60 339.5 57 Q342 54 353 52 L450 44 L450 0 L161 0 Z M181 871 L221 934 L402 803 L378 765 L181 871 Z " />
<glyph glyph-name="Zacute" unicode="&#x179;" horiz-adv-x="633" d="M50 0 L50 46 L483 668 L151 668 Q143 668 140 666.5 Q137 665 135 657 L116 564 L64 561 L64 724 L566 724 L566 676 L135 56 L486 56 Q494 56 497 57.5 Q500 59 502 67 L521 174 L573 174 L573 0 L50 0 Z M240 766 L216 804 L397 935 L437 872 L240 766 Z " />
<glyph glyph-name="Zcaron" unicode="&#x17d;" horiz-adv-x="633" d="M50 0 L50 46 L483 668 L151 668 Q143 668 140 666.5 Q137 665 135 657 L116 564 L64 561 L64 724 L566 724 L566 676 L135 56 L486 56 Q494 56 497 57.5 Q500 59 502 67 L521 174 L573 174 L573 0 L50 0 Z M349 776 L273 776 L157 875 L192 909 L311 825 L430 909 L465 875 L349 776 Z " />
<glyph glyph-name="Zdotaccent" unicode="&#x17b;" horiz-adv-x="633" d="M50 0 L50 46 L483 668 L151 668 Q143 668 140 666.5 Q137 665 135 657 L116 564 L64 561 L64 724 L566 724 L566 676 L135 56 L486 56 Q494 56 497 57.5 Q500 59 502 67 L521 174 L573 174 L573 0 L50 0 Z M365 835 Q365 809 351 795.5 Q337 782 311 782 Q285 782 271 795.5 Q257 809 257 835 Q257 861 271 874.5 Q285 888 311 888 Q337 888 351 874.5 Q365 861 365 835 Z " />
<glyph glyph-name="aacute" unicode="&#xe1;" horiz-adv-x="534" d="M387 0 L378 67 L375 68 Q335 31 291 9.5 Q247 -12 190 -12 Q143 -12 115.5 2 Q88 16 73.5 36.5 Q59 57 55 80 Q51 103 51 121 Q51 196 96.5 231 Q142 266 231 274 L374 287 L374 343 Q374 374 370 397 Q366 420 353.5 435 Q341 450 318.5 457 Q296 464 260 464 Q235 464 213.5 462.5 Q192 461 176 453.5 Q160 446 150.5 429.5 Q141 413 141 383 L77 391 Q77 435 95.5 461 Q114 487 141.5 500.5 Q169 514 201 517.5 Q233 521 261 521 Q312 521 346.5 512.5 Q381 504 402 484 Q423 464 432 430 Q441 396 441 345 L441 71 Q441 59 443.5 56 Q446 53 457 51 L509 44 L509 0 L387 0 Z M374 234 L243 222 Q207 219 183.5 211.5 Q160 204 146 193 Q132 182 126.5 166 Q121 150 121 129 Q121 84 142.5 64 Q164 44 203 44 Q229 44 253.5 52 Q278 60 300.5 73 Q323 86 341.5 103 Q360 120 374 138 L374 234 Z M200 569 L168 601 L323 761 L375 708 L200 569 Z " />
<glyph glyph-name="abreve" unicode="&#x103;" horiz-adv-x="534" d="M387 0 L378 67 L375 68 Q335 31 291 9.5 Q247 -12 190 -12 Q143 -12 115.5 2 Q88 16 73.5 36.5 Q59 57 55 80 Q51 103 51 121 Q51 196 96.5 231 Q142 266 231 274 L374 287 L374 343 Q374 374 370 397 Q366 420 353.5 435 Q341 450 318.5 457 Q296 464 260 464 Q235 464 213.5 462.5 Q192 461 176 453.5 Q160 446 150.5 429.5 Q141 413 141 383 L77 391 Q77 435 95.5 461 Q114 487 141.5 500.5 Q169 514 201 517.5 Q233 521 261 521 Q312 521 346.5 512.5 Q381 504 402 484 Q423 464 432 430 Q441 396 441 345 L441 71 Q441 59 443.5 56 Q446 53 457 51 L509 44 L509 0 L387 0 Z M374 234 L243 222 Q207 219 183.5 211.5 Q160 204 146 193 Q132 182 126.5 166 Q121 150 121 129 Q121 84 142.5 64 Q164 44 203 44 Q229 44 253.5 52 Q278 60 300.5 73 Q323 86 341.5 103 Q360 120 374 138 L374 234 Z M416 705 Q399 644 363.5 608.5 Q328 573 259 573 Q190 573 155 608.5 Q120 644 106 705 L160 724 Q173 682 194.5 655 Q216 628 261 628 Q306 628 328.5 654 Q351 680 366 724 L416 705 Z " />
<glyph glyph-name="acircumflex" unicode="&#xe2;" horiz-adv-x="534" d="M387 0 L378 67 L375 68 Q335 31 291 9.5 Q247 -12 190 -12 Q143 -12 115.5 2 Q88 16 73.5 36.5 Q59 57 55 80 Q51 103 51 121 Q51 196 96.5 231 Q142 266 231 274 L374 287 L374 343 Q374 374 370 397 Q366 420 353.5 435 Q341 450 318.5 457 Q296 464 260 464 Q235 464 213.5 462.5 Q192 461 176 453.5 Q160 446 150.5 429.5 Q141 413 141 383 L77 391 Q77 435 95.5 461 Q114 487 141.5 500.5 Q169 514 201 517.5 Q233 521 261 521 Q312 521 346.5 512.5 Q381 504 402 484 Q423 464 432 430 Q441 396 441 345 L441 71 Q441 59 443.5 56 Q446 53 457 51 L509 44 L509 0 L387 0 Z M374 234 L243 222 Q207 219 183.5 211.5 Q160 204 146 193 Q132 182 126.5 166 Q121 150 121 129 Q121 84 142.5 64 Q164 44 203 44 Q229 44 253.5 52 Q278 60 300.5 73 Q323 86 341.5 103 Q360 120 374 138 L374 234 Z M385 576 L261 680 L137 576 L99 609 L223 729 L299 729 L423 609 L385 576 Z " />
<glyph glyph-name="adieresis" unicode="&#xe4;" horiz-adv-x="534" d="M387 0 L378 67 L375 68 Q335 31 291 9.5 Q247 -12 190 -12 Q143 -12 115.5 2 Q88 16 73.5 36.5 Q59 57 55 80 Q51 103 51 121 Q51 196 96.5 231 Q142 266 231 274 L374 287 L374 343 Q374 374 370 397 Q366 420 353.5 435 Q341 450 318.5 457 Q296 464 260 464 Q235 464 213.5 462.5 Q192 461 176 453.5 Q160 446 150.5 429.5 Q141 413 141 383 L77 391 Q77 435 95.5 461 Q114 487 141.5 500.5 Q169 514 201 517.5 Q233 521 261 521 Q312 521 346.5 512.5 Q381 504 402 484 Q423 464 432 430 Q441 396 441 345 L441 71 Q441 59 443.5 56 Q446 53 457 51 L509 44 L509 0 L387 0 Z M374 234 L243 222 Q207 219 183.5 211.5 Q160 204 146 193 Q132 182 126.5 166 Q121 150 121 129 Q121 84 142.5 64 Q164 44 203 44 Q229 44 253.5 52 Q278 60 300.5 73 Q323 86 341.5 103 Q360 120 374 138 L374 234 Z M212 658 Q212 635 198.5 622 Q185 609 162 609 Q139 609 125.5 622 Q112 635 112 658 Q112 681 125.5 694 Q139 707 162 707 Q185 707 198.5 694 Q212 681 212 658 Z M411 658 Q411 635 397.5 622 Q384 609 361 609 Q338 609 324.5 622 Q311 635 311 658 Q311 681 324.5 694 Q338 707 361 707 Q384 707 397.5 694 Q411 681 411 658 Z " />
<glyph glyph-name="aeacute" unicode="&#x1fd;" horiz-adv-x="833" d="M777 30 Q743 10 700.5 -1 Q658 -12 605 -12 Q533 -12 487 12 Q441 36 415 78 Q358 31 305.5 9.5 Q253 -12 189 -12 Q143 -12 115.5 2 Q88 16 74 36.5 Q60 57 55.5 80 Q51 103 51 120 Q51 196 96.5 231 Q142 266 231 274 L374 287 L374 343 Q374 374 370 397 Q366 420 353.5 435 Q341 450 318.5 457 Q296 464 260 464 Q235 464 213.5 462.5 Q192 461 176 453.5 Q160 446 150.5 429.5 Q141 413 141 383 L77 391 Q77 435 95.5 461 Q114 487 141.5 500.5 Q169 514 201 517.5 Q233 521 260 521 Q330 521 369 503 Q408 485 425 440 Q455 480 498 500.5 Q541 521 592 521 Q636 521 673 508 Q710 495 736.5 467 Q763 439 778 394 Q793 349 793 285 Q793 274 792.5 263.5 Q792 253 791 242 L441 242 Q442 199 451.5 163.5 Q461 128 481 102.5 Q501 77 533 63 Q565 49 610 49 Q633 49 651.5 51 Q670 53 686.5 57.5 Q703 62 718.5 69 Q734 76 752 86 L777 30 Z M243 222 Q207 219 183 211.5 Q159 204 145.5 192.5 Q132 181 126.5 165 Q121 149 121 127 Q121 82 143 63 Q165 44 205 44 Q229 44 256 51.5 Q283 59 308 71.5 Q333 84 354.5 100 Q376 116 390 134 Q377 177 374 233 L243 222 Z M724 298 Q723 344 712.5 375.5 Q702 407 684 426.5 Q666 446 642.5 454 Q619 462 593 462 Q564 462 538 454 Q512 446 491.5 426.5 Q471 407 457.5 375.5 Q444 344 441 298 L724 298 Z M409 569 L377 601 L532 761 L584 708 L409 569 Z " />
<glyph glyph-name="agrave" unicode="&#xe0;" horiz-adv-x="534" d="M387 0 L378 67 L375 68 Q335 31 291 9.5 Q247 -12 190 -12 Q143 -12 115.5 2 Q88 16 73.5 36.5 Q59 57 55 80 Q51 103 51 121 Q51 196 96.5 231 Q142 266 231 274 L374 287 L374 343 Q374 374 370 397 Q366 420 353.5 435 Q341 450 318.5 457 Q296 464 260 464 Q235 464 213.5 462.5 Q192 461 176 453.5 Q160 446 150.5 429.5 Q141 413 141 383 L77 391 Q77 435 95.5 461 Q114 487 141.5 500.5 Q169 514 201 517.5 Q233 521 261 521 Q312 521 346.5 512.5 Q381 504 402 484 Q423 464 432 430 Q441 396 441 345 L441 71 Q441 59 443.5 56 Q446 53 457 51 L509 44 L509 0 L387 0 Z M374 234 L243 222 Q207 219 183.5 211.5 Q160 204 146 193 Q132 182 126.5 166 Q121 150 121 129 Q121 84 142.5 64 Q164 44 203 44 Q229 44 253.5 52 Q278 60 300.5 73 Q323 86 341.5 103 Q360 120 374 138 L374 234 Z M324 569 L149 708 L201 761 L356 601 L324 569 Z " />
<glyph glyph-name="amacron" unicode="&#x101;" horiz-adv-x="534" d="M387 0 L378 67 L375 68 Q335 31 291 9.5 Q247 -12 190 -12 Q143 -12 115.5 2 Q88 16 73.5 36.5 Q59 57 55 80 Q51 103 51 121 Q51 196 96.5 231 Q142 266 231 274 L374 287 L374 343 Q374 374 370 397 Q366 420 353.5 435 Q341 450 318.5 457 Q296 464 260 464 Q235 464 213.5 462.5 Q192 461 176 453.5 Q160 446 150.5 429.5 Q141 413 141 383 L77 391 Q77 435 95.5 461 Q114 487 141.5 500.5 Q169 514 201 517.5 Q233 521 261 521 Q312 521 346.5 512.5 Q381 504 402 484 Q423 464 432 430 Q441 396 441 345 L441 71 Q441 59 443.5 56 Q446 53 457 51 L509 44 L509 0 L387 0 Z M374 234 L243 222 Q207 219 183.5 211.5 Q160 204 146 193 Q132 182 126.5 166 Q121 150 121 129 Q121 84 142.5 64 Q164 44 203 44 Q229 44 253.5 52 Q278 60 300.5 73 Q323 86 341.5 103 Q360 120 374 138 L374 234 Z M110 616 L110 673 L413 673 L413 616 L110 616 Z " />
<glyph glyph-name="aogonek" unicode="&#x105;" horiz-adv-x="534" d="M509 0 Q491 -11 472 -24.5 Q453 -38 437.5 -53 Q422 -68 412.5 -85.5 Q403 -103 403 -122 Q403 -140 412 -147.5 Q421 -155 435 -155 Q446 -155 458 -151.5 Q470 -148 482 -143 L500 -192 Q481 -201 459.5 -206.5 Q438 -212 417 -212 Q380 -212 356.5 -194 Q333 -176 333 -137 Q333 -93 361.5 -59.5 Q390 -26 430 0 L387 0 L378 67 L375 68 Q335 31 291 9.5 Q247 -12 190 -12 Q143 -12 115.5 2 Q88 16 73.5 36.5 Q59 57 55 80 Q51 103 51 121 Q51 196 96.5 231 Q142 266 231 274 L374 287 L374 343 Q374 374 370 397 Q366 420 353.5 435 Q341 450 318.5 457 Q296 464 260 464 Q235 464 213.5 462.5 Q192 461 176 453.5 Q160 446 150.5 429.5 Q141 413 141 383 L77 391 Q77 435 95.5 461 Q114 487 141.5 500.5 Q169 514 201 517.5 Q233 521 261 521 Q312 521 346.5 512.5 Q381 504 402 484 Q423 464 432 430 Q441 396 441 345 L441 71 Q441 59 443.5 56 Q446 53 457 51 L509 44 L509 0 Z M374 234 L243 222 Q207 219 183.5 211.5 Q160 204 146 193 Q132 182 126.5 166 Q121 150 121 129 Q121 84 142.5 64 Q164 44 203 44 Q229 44 253.5 52 Q278 60 300.5 73 Q323 86 341.5 103 Q360 120 374 138 L374 234 Z " />
<glyph glyph-name="aring" unicode="&#xe5;" horiz-adv-x="534" d="M387 0 L378 67 L375 68 Q335 31 291 9.5 Q247 -12 190 -12 Q143 -12 115.5 2 Q88 16 73.5 36.5 Q59 57 55 80 Q51 103 51 121 Q51 196 96.5 231 Q142 266 231 274 L374 287 L374 343 Q374 374 370 397 Q366 420 353.5 435 Q341 450 318.5 457 Q296 464 260 464 Q235 464 213.5 462.5 Q192 461 176 453.5 Q160 446 150.5 429.5 Q141 413 141 383 L77 391 Q77 435 95.5 461 Q114 487 141.5 500.5 Q169 514 201 517.5 Q233 521 261 521 Q312 521 346.5 512.5 Q381 504 402 484 Q423 464 432 430 Q441 396 441 345 L441 71 Q441 59 443.5 56 Q446 53 457 51 L509 44 L509 0 L387 0 Z M374 234 L243 222 Q207 219 183.5 211.5 Q160 204 146 193 Q132 182 126.5 166 Q121 150 121 129 Q121 84 142.5 64 Q164 44 203 44 Q229 44 253.5 52 Q278 60 300.5 73 Q323 86 341.5 103 Q360 120 374 138 L374 234 Z M357 650 Q357 607 331.5 584 Q306 561 262 561 Q219 561 193.5 583.5 Q168 606 168 648 Q168 694 195 716 Q222 738 262 738 Q303 738 330 717 Q357 696 357 650 Z M262 607 Q306 607 306 650 Q306 692 262 692 Q242 692 230 681.5 Q218 671 218 648 Q218 607 262 607 Z " />
<glyph glyph-name="aringacute" unicode="&#x1fb;" horiz-adv-x="534" d="M387 0 L378 67 L375 68 Q335 31 291 9.5 Q247 -12 190 -12 Q143 -12 115.5 2 Q88 16 73.5 36.5 Q59 57 55 80 Q51 103 51 121 Q51 196 96.5 231 Q142 266 231 274 L374 287 L374 343 Q374 374 370 397 Q366 420 353.5 435 Q341 450 318.5 457 Q296 464 260 464 Q235 464 213.5 462.5 Q192 461 176 453.5 Q160 446 150.5 429.5 Q141 413 141 383 L77 391 Q77 435 95.5 461 Q114 487 141.5 500.5 Q169 514 201 517.5 Q233 521 261 521 Q312 521 346.5 512.5 Q381 504 402 484 Q423 464 432 430 Q441 396 441 345 L441 71 Q441 59 443.5 56 Q446 53 457 51 L509 44 L509 0 L387 0 Z M374 234 L243 222 Q207 219 183.5 211.5 Q160 204 146 193 Q132 182 126.5 166 Q121 150 121 129 Q121 84 142.5 64 Q164 44 203 44 Q229 44 253.5 52 Q278 60 300.5 73 Q323 86 341.5 103 Q360 120 374 138 L374 234 Z M359 652 Q359 609 333.5 586 Q308 563 264 563 Q221 563 195.5 585.5 Q170 608 170 650 Q170 696 197 718 Q224 740 264 740 Q305 740 332 719 Q359 698 359 652 Z M264 609 Q308 609 308 652 Q308 694 264 694 Q244 694 232 683.5 Q220 673 220 650 Q220 609 264 609 Z M192 766 L168 804 L349 935 L389 872 L192 766 Z " />
<glyph glyph-name="atilde" unicode="&#xe3;" horiz-adv-x="534" d="M387 0 L378 67 L375 68 Q335 31 291 9.5 Q247 -12 190 -12 Q143 -12 115.5 2 Q88 16 73.5 36.5 Q59 57 55 80 Q51 103 51 121 Q51 196 96.5 231 Q142 266 231 274 L374 287 L374 343 Q374 374 370 397 Q366 420 353.5 435 Q341 450 318.5 457 Q296 464 260 464 Q235 464 213.5 462.5 Q192 461 176 453.5 Q160 446 150.5 429.5 Q141 413 141 383 L77 391 Q77 435 95.5 461 Q114 487 141.5 500.5 Q169 514 201 517.5 Q233 521 261 521 Q312 521 346.5 512.5 Q381 504 402 484 Q423 464 432 430 Q441 396 441 345 L441 71 Q441 59 443.5 56 Q446 53 457 51 L509 44 L509 0 L387 0 Z M374 234 L243 222 Q207 219 183.5 211.5 Q160 204 146 193 Q132 182 126.5 166 Q121 150 121 129 Q121 84 142.5 64 Q164 44 203 44 Q229 44 253.5 52 Q278 60 300.5 73 Q323 86 341.5 103 Q360 120 374 138 L374 234 Z M411 637 Q392 611 378.5 601 Q365 591 349 591 Q343 591 335.5 592 Q328 593 320 595 L183 631 Q173 634 167 628 L125 587 L89 614 L118 655 Q134 678 147 686 Q160 694 176 694 Q184 694 191.5 692.5 Q199 691 209 689 L343 654 Q353 651 359 657 L398 696 L434 669 L411 637 Z " />
<glyph glyph-name="cacute" unicode="&#x107;" horiz-adv-x="476" d="M446 27 Q420 10 374.5 -1 Q329 -12 282 -12 Q219 -12 174.5 7.5 Q130 27 101 61.5 Q72 96 58.5 144 Q45 192 45 250 Q45 322 64 373 Q83 424 117.5 457 Q152 490 199 505.5 Q246 521 302 521 Q356 521 393 510.5 Q430 500 444 494 L444 371 L393 374 L381 440 Q380 445 378.5 448 Q377 451 370 453 Q359 457 338 460 Q317 463 294 463 Q256 463 223.5 451.5 Q191 440 167 415 Q143 390 129 350 Q115 310 115 253 Q115 145 163 96.5 Q211 48 291 48 Q329 48 362 57.5 Q395 67 420 83 L446 27 Z M220 569 L188 601 L343 761 L395 708 L220 569 Z " />
<glyph glyph-name="ccaron" unicode="&#x10d;" horiz-adv-x="476" d="M446 27 Q420 10 374.5 -1 Q329 -12 282 -12 Q219 -12 174.5 7.5 Q130 27 101 61.5 Q72 96 58.5 144 Q45 192 45 250 Q45 322 64 373 Q83 424 117.5 457 Q152 490 199 505.5 Q246 521 302 521 Q356 521 393 510.5 Q430 500 444 494 L444 371 L393 374 L381 440 Q380 445 378.5 448 Q377 451 370 453 Q359 457 338 460 Q317 463 294 463 Q256 463 223.5 451.5 Q191 440 167 415 Q143 390 129 350 Q115 310 115 253 Q115 145 163 96.5 Q211 48 291 48 Q329 48 362 57.5 Q395 67 420 83 L446 27 Z M243 576 L122 695 L159 729 L281 625 L407 729 L445 696 L319 576 L243 576 Z " />
<glyph glyph-name="ccedilla" unicode="&#xe7;" horiz-adv-x="476" d="M191 -178 Q206 -181 224 -181 Q262 -181 280.5 -166 Q299 -151 299 -126 Q299 -106 284.5 -93 Q270 -80 227 -79 L236 -9 Q186 -2 149.5 19.5 Q113 41 90 75 Q67 109 56 153.5 Q45 198 45 250 Q45 322 64 373 Q83 424 117.5 457 Q152 490 199 505.5 Q246 521 302 521 Q356 521 393 510.5 Q430 500 444 494 L444 371 L393 374 L381 440 Q380 445 378.5 448 Q377 451 370 453 Q359 457 338 460 Q317 463 294 463 Q256 463 223.5 451.5 Q191 440 167 415 Q143 390 129 350 Q115 310 115 253 Q115 145 163 96.5 Q211 48 291 48 Q329 48 362 57.5 Q395 67 420 83 L446 27 Q420 10 377.5 -0.5 Q335 -11 289 -12 L285 -44 Q315 -50 336 -69 Q357 -88 357 -123 Q357 -141 350.5 -159.5 Q344 -178 329 -193.5 Q314 -209 289.5 -218.5 Q265 -228 229 -228 Q218 -228 207 -227 Q196 -226 185 -224 L191 -178 Z " />
<glyph glyph-name="ccircumflex" unicode="&#x109;" horiz-adv-x="476" d="M446 27 Q420 10 374.5 -1 Q329 -12 282 -12 Q219 -12 174.5 7.5 Q130 27 101 61.5 Q72 96 58.5 144 Q45 192 45 250 Q45 322 64 373 Q83 424 117.5 457 Q152 490 199 505.5 Q246 521 302 521 Q356 521 393 510.5 Q430 500 444 494 L444 371 L393 374 L381 440 Q380 445 378.5 448 Q377 451 370 453 Q359 457 338 460 Q317 463 294 463 Q256 463 223.5 451.5 Q191 440 167 415 Q143 390 129 350 Q115 310 115 253 Q115 145 163 96.5 Q211 48 291 48 Q329 48 362 57.5 Q395 67 420 83 L446 27 Z M405 576 L281 680 L157 576 L119 609 L243 729 L319 729 L443 609 L405 576 Z " />
<glyph glyph-name="cdotaccent" unicode="&#x10b;" horiz-adv-x="476" d="M446 27 Q420 10 374.5 -1 Q329 -12 282 -12 Q219 -12 174.5 7.5 Q130 27 101 61.5 Q72 96 58.5 144 Q45 192 45 250 Q45 322 64 373 Q83 424 117.5 457 Q152 490 199 505.5 Q246 521 302 521 Q356 521 393 510.5 Q430 500 444 494 L444 371 L393 374 L381 440 Q380 445 378.5 448 Q377 451 370 453 Q359 457 338 460 Q317 463 294 463 Q256 463 223.5 451.5 Q191 440 167 415 Q143 390 129 350 Q115 310 115 253 Q115 145 163 96.5 Q211 48 291 48 Q329 48 362 57.5 Q395 67 420 83 L446 27 Z M343 688 Q343 662 329 648.5 Q315 635 289 635 Q263 635 249 648.5 Q235 662 235 688 Q235 714 249 727.5 Q263 741 289 741 Q315 741 329 727.5 Q343 714 343 688 Z " />
<glyph glyph-name="dcaron" unicode="&#x10f;" horiz-adv-x="627" d="M430 0 L422 68 L419 69 Q383 35 341 11.5 Q299 -12 239 -12 Q197 -12 162.5 2 Q128 16 103.5 47 Q79 78 65.5 126.5 Q52 175 52 243 Q52 316 67 368.5 Q82 421 109.5 455 Q137 489 175 505 Q213 521 260 521 Q306 521 347 507 Q388 493 417 472 L417 674 Q417 690 404 694 L343 713 L351 755 L484 755 L484 71 Q484 59 486.5 56 Q489 53 500 51 L552 44 L552 0 L430 0 Z M417 399 Q392 423 350.5 443 Q309 463 261 463 Q223 463 195.5 447.5 Q168 432 151 403.5 Q134 375 126 334.5 Q118 294 118 245 Q118 186 128 148 Q138 110 156 87.5 Q174 65 197.5 56 Q221 47 248 47 Q300 47 341 73.5 Q382 100 417 141 L417 399 Z M546 583 Q553 604 559 627 Q565 650 565 679 Q565 704 560 719.5 Q555 735 550 744 L608 772 Q622 758 628 747 Q634 736 634 719 Q634 711 632.5 699.5 Q631 688 626 673 Q617 644 607 619 Q597 594 586 571 L546 583 Z " />
<glyph glyph-name="dcroat" unicode="&#x111;" horiz-adv-x="590" d="M430 0 L422 68 L419 69 Q383 35 341 11.5 Q299 -12 239 -12 Q197 -12 162.5 1.5 Q128 15 103.5 44 Q79 73 65.5 120 Q52 167 52 233 Q52 304 67 354.5 Q82 405 109.5 437.5 Q137 470 175 485.5 Q213 501 260 501 Q306 501 347 487 Q388 473 417 452 L417 576 L223 576 L223 632 L417 632 L417 674 Q417 690 404 694 L343 713 L351 755 L484 755 L484 632 L554 632 L554 576 L484 576 L484 71 Q484 59 486.5 56 Q489 53 500 51 L552 44 L552 0 L430 0 Z M417 379 Q392 403 350.5 423 Q309 443 261 443 Q184 443 151 388.5 Q118 334 118 235 Q118 178 128 141.5 Q138 105 156 84 Q174 63 197.5 55 Q221 47 248 47 Q300 47 341 73.5 Q382 100 417 141 L417 379 Z " />
<glyph glyph-name="eacute" unicode="&#xe9;" horiz-adv-x="506" d="M450 30 Q416 10 373.5 -1 Q331 -12 278 -12 Q212 -12 167 9 Q122 30 95 66.5 Q68 103 56.5 152 Q45 201 45 258 Q45 325 62 374.5 Q79 424 109 456.5 Q139 489 179 505 Q219 521 265 521 Q309 521 346 508 Q383 495 409.5 467 Q436 439 451 394 Q466 349 466 285 Q466 274 465.5 263.5 Q465 253 464 242 L115 242 Q116 199 125.5 163.5 Q135 128 155 102.5 Q175 77 206.5 63 Q238 49 283 49 Q306 49 324.5 51 Q343 53 359.5 57.5 Q376 62 391.5 69 Q407 76 425 86 L450 30 Z M397 296 Q396 342 385.5 374 Q375 406 357 425.5 Q339 445 315.5 453.5 Q292 462 266 462 Q237 462 211.5 453.5 Q186 445 166 425.5 Q146 406 133 374 Q120 342 117 296 L397 296 Z M203 569 L171 601 L326 761 L378 708 L203 569 Z " />
<glyph glyph-name="ebreve" unicode="&#x115;" horiz-adv-x="506" d="M450 30 Q416 10 373.5 -1 Q331 -12 278 -12 Q212 -12 167 9 Q122 30 95 66.5 Q68 103 56.5 152 Q45 201 45 258 Q45 325 62 374.5 Q79 424 109 456.5 Q139 489 179 505 Q219 521 265 521 Q309 521 346 508 Q383 495 409.5 467 Q436 439 451 394 Q466 349 466 285 Q466 274 465.5 263.5 Q465 253 464 242 L115 242 Q116 199 125.5 163.5 Q135 128 155 102.5 Q175 77 206.5 63 Q238 49 283 49 Q306 49 324.5 51 Q343 53 359.5 57.5 Q376 62 391.5 69 Q407 76 425 86 L450 30 Z M397 296 Q396 342 385.5 374 Q375 406 357 425.5 Q339 445 315.5 453.5 Q292 462 266 462 Q237 462 211.5 453.5 Q186 445 166 425.5 Q146 406 133 374 Q120 342 117 296 L397 296 Z M419 705 Q402 644 366.5 608.5 Q331 573 262 573 Q193 573 158 608.5 Q123 644 109 705 L163 724 Q176 682 197.5 655 Q219 628 264 628 Q309 628 331.5 654 Q354 680 369 724 L419 705 Z " />
<glyph glyph-name="ecaron" unicode="&#x11b;" horiz-adv-x="506" d="M450 30 Q416 10 373.5 -1 Q331 -12 278 -12 Q212 -12 167 9 Q122 30 95 66.5 Q68 103 56.5 152 Q45 201 45 258 Q45 325 62 374.5 Q79 424 109 456.5 Q139 489 179 505 Q219 521 265 521 Q309 521 346 508 Q383 495 409.5 467 Q436 439 451 394 Q466 349 466 285 Q466 274 465.5 263.5 Q465 253 464 242 L115 242 Q116 199 125.5 163.5 Q135 128 155 102.5 Q175 77 206.5 63 Q238 49 283 49 Q306 49 324.5 51 Q343 53 359.5 57.5 Q376 62 391.5 69 Q407 76 425 86 L450 30 Z M397 296 Q396 342 385.5 374 Q375 406 357 425.5 Q339 445 315.5 453.5 Q292 462 266 462 Q237 462 211.5 453.5 Q186 445 166 425.5 Q146 406 133 374 Q120 342 117 296 L397 296 Z M226 576 L105 695 L142 729 L264 625 L390 729 L428 696 L302 576 L226 576 Z " />
<glyph glyph-name="ecircumflex" unicode="&#xea;" horiz-adv-x="506" d="M450 30 Q416 10 373.5 -1 Q331 -12 278 -12 Q212 -12 167 9 Q122 30 95 66.5 Q68 103 56.5 152 Q45 201 45 258 Q45 325 62 374.5 Q79 424 109 456.5 Q139 489 179 505 Q219 521 265 521 Q309 521 346 508 Q383 495 409.5 467 Q436 439 451 394 Q466 349 466 285 Q466 274 465.5 263.5 Q465 253 464 242 L115 242 Q116 199 125.5 163.5 Q135 128 155 102.5 Q175 77 206.5 63 Q238 49 283 49 Q306 49 324.5 51 Q343 53 359.5 57.5 Q376 62 391.5 69 Q407 76 425 86 L450 30 Z M397 296 Q396 342 385.5 374 Q375 406 357 425.5 Q339 445 315.5 453.5 Q292 462 266 462 Q237 462 211.5 453.5 Q186 445 166 425.5 Q146 406 133 374 Q120 342 117 296 L397 296 Z M388 576 L264 680 L140 576 L102 609 L226 729 L302 729 L426 609 L388 576 Z " />
<glyph glyph-name="edieresis" unicode="&#xeb;" horiz-adv-x="506" d="M450 30 Q416 10 373.5 -1 Q331 -12 278 -12 Q212 -12 167 9 Q122 30 95 66.5 Q68 103 56.5 152 Q45 201 45 258 Q45 325 62 374.5 Q79 424 109 456.5 Q139 489 179 505 Q219 521 265 521 Q309 521 346 508 Q383 495 409.5 467 Q436 439 451 394 Q466 349 466 285 Q466 274 465.5 263.5 Q465 253 464 242 L115 242 Q116 199 125.5 163.5 Q135 128 155 102.5 Q175 77 206.5 63 Q238 49 283 49 Q306 49 324.5 51 Q343 53 359.5 57.5 Q376 62 391.5 69 Q407 76 425 86 L450 30 Z M397 296 Q396 342 385.5 374 Q375 406 357 425.5 Q339 445 315.5 453.5 Q292 462 266 462 Q237 462 211.5 453.5 Q186 445 166 425.5 Q146 406 133 374 Q120 342 117 296 L397 296 Z M215 658 Q215 635 201.5 622 Q188 609 165 609 Q142 609 128.5 622 Q115 635 115 658 Q115 681 128.5 694 Q142 707 165 707 Q188 707 201.5 694 Q215 681 215 658 Z M414 658 Q414 635 400.5 622 Q387 609 364 609 Q341 609 327.5 622 Q314 635 314 658 Q314 681 327.5 694 Q341 707 364 707 Q387 707 400.5 694 Q414 681 414 658 Z " />
<glyph glyph-name="edotaccent" unicode="&#x117;" horiz-adv-x="506" d="M450 30 Q416 10 373.5 -1 Q331 -12 278 -12 Q212 -12 167 9 Q122 30 95 66.5 Q68 103 56.5 152 Q45 201 45 258 Q45 325 62 374.5 Q79 424 109 456.5 Q139 489 179 505 Q219 521 265 521 Q309 521 346 508 Q383 495 409.5 467 Q436 439 451 394 Q466 349 466 285 Q466 274 465.5 263.5 Q465 253 464 242 L115 242 Q116 199 125.5 163.5 Q135 128 155 102.5 Q175 77 206.5 63 Q238 49 283 49 Q306 49 324.5 51 Q343 53 359.5 57.5 Q376 62 391.5 69 Q407 76 425 86 L450 30 Z M397 296 Q396 342 385.5 374 Q375 406 357 425.5 Q339 445 315.5 453.5 Q292 462 266 462 Q237 462 211.5 453.5 Q186 445 166 425.5 Q146 406 133 374 Q120 342 117 296 L397 296 Z M318 688 Q318 662 304 648.5 Q290 635 264 635 Q238 635 224 648.5 Q210 662 210 688 Q210 714 224 727.5 Q238 741 264 741 Q290 741 304 727.5 Q318 714 318 688 Z " />
<glyph glyph-name="egrave" unicode="&#xe8;" horiz-adv-x="506" d="M450 30 Q416 10 373.5 -1 Q331 -12 278 -12 Q212 -12 167 9 Q122 30 95 66.5 Q68 103 56.5 152 Q45 201 45 258 Q45 325 62 374.5 Q79 424 109 456.5 Q139 489 179 505 Q219 521 265 521 Q309 521 346 508 Q383 495 409.5 467 Q436 439 451 394 Q466 349 466 285 Q466 274 465.5 263.5 Q465 253 464 242 L115 242 Q116 199 125.5 163.5 Q135 128 155 102.5 Q175 77 206.5 63 Q238 49 283 49 Q306 49 324.5 51 Q343 53 359.5 57.5 Q376 62 391.5 69 Q407 76 425 86 L450 30 Z M397 296 Q396 342 385.5 374 Q375 406 357 425.5 Q339 445 315.5 453.5 Q292 462 266 462 Q237 462 211.5 453.5 Q186 445 166 425.5 Q146 406 133 374 Q120 342 117 296 L397 296 Z M327 569 L152 708 L204 761 L359 601 L327 569 Z " />
<glyph glyph-name="emacron" unicode="&#x113;" horiz-adv-x="506" d="M450 30 Q416 10 373.5 -1 Q331 -12 278 -12 Q212 -12 167 9 Q122 30 95 66.5 Q68 103 56.5 152 Q45 201 45 258 Q45 325 62 374.5 Q79 424 109 456.5 Q139 489 179 505 Q219 521 265 521 Q309 521 346 508 Q383 495 409.5 467 Q436 439 451 394 Q466 349 466 285 Q466 274 465.5 263.5 Q465 253 464 242 L115 242 Q116 199 125.5 163.5 Q135 128 155 102.5 Q175 77 206.5 63 Q238 49 283 49 Q306 49 324.5 51 Q343 53 359.5 57.5 Q376 62 391.5 69 Q407 76 425 86 L450 30 Z M397 296 Q396 342 385.5 374 Q375 406 357 425.5 Q339 445 315.5 453.5 Q292 462 266 462 Q237 462 211.5 453.5 Q186 445 166 425.5 Q146 406 133 374 Q120 342 117 296 L397 296 Z M113 616 L113 673 L416 673 L416 616 L113 616 Z " />
<glyph glyph-name="eogonek" unicode="&#x119;" horiz-adv-x="506" d="M450 30 Q439 23 426.5 17.5 Q414 12 401 5 Q380 -6 361 -20.5 Q342 -35 327.5 -51.5 Q313 -68 304.5 -86 Q296 -104 296 -122 Q296 -140 305 -147.5 Q314 -155 328 -155 Q339 -155 351 -151.5 Q363 -148 375 -143 L393 -192 Q374 -201 352.5 -206.5 Q331 -212 310 -212 Q273 -212 249.5 -194 Q226 -176 226 -137 Q226 -101 249 -69.5 Q272 -38 307 -11 Q299 -11 292.5 -11.5 Q286 -12 278 -12 Q212 -12 167 9 Q122 30 95 66.5 Q68 103 56.5 152 Q45 201 45 258 Q45 325 62 374.5 Q79 424 109 456.5 Q139 489 179 505 Q219 521 265 521 Q309 521 346 508 Q383 495 409.5 467 Q436 439 451 394 Q466 349 466 285 Q466 274 465.5 263.5 Q465 253 464 242 L115 242 Q116 199 125.5 163.5 Q135 128 155 102.5 Q175 77 206.5 63 Q238 49 283 49 Q306 49 324.5 51 Q343 53 359.5 57.5 Q376 62 391.5 69 Q407 76 425 86 L450 30 Z M397 296 Q396 342 385.5 374 Q375 406 357 425.5 Q339 445 315.5 453.5 Q292 462 266 462 Q237 462 211.5 453.5 Q186 445 166 425.5 Q146 406 133 374 Q120 342 117 296 L397 296 Z " />
<glyph glyph-name="gbreve" unicode="&#x11f;" horiz-adv-x="534" d="M433 449 Q450 428 460 403.5 Q470 379 470 343 Q470 298 454.5 263 Q439 228 411 204 Q383 180 345.5 168 Q308 156 264 156 Q211 156 177 170 L130 76 L307 63 Q361 59 400 53 Q439 47 464.5 33 Q490 19 502.5 -5 Q515 -29 515 -69 Q515 -141 453.5 -183 Q392 -225 261 -225 Q198 -225 154.5 -216.5 Q111 -208 84.5 -192 Q58 -176 46.5 -153.5 Q35 -131 35 -102 Q35 -64 53.5 -35.5 Q72 -7 103 22 Q79 27 67.5 37 Q56 47 56 67 Q56 79 61.5 90.5 Q67 102 76 116 L125 193 Q94 212 74.5 247.5 Q55 283 55 333 Q55 375 70 410 Q85 445 112.5 469.5 Q140 494 179 507.5 Q218 521 266 521 Q292 521 314 518.5 Q336 516 352 511 L526 511 L526 456 L433 449 Z M404 339 Q404 400 368.5 433 Q333 466 267 466 Q203 466 163 434.5 Q123 403 123 337 Q123 311 130.5 288.5 Q138 266 155 249.5 Q172 233 198.5 223 Q225 213 264 213 Q329 213 366.5 248 Q404 283 404 339 Z M168 11 Q158 2 147 -9 Q136 -20 127 -33 Q118 -46 112 -60.5 Q106 -75 106 -90 Q106 -134 152.5 -149 Q199 -164 281 -164 Q296 -164 309.5 -163 Q323 -162 336 -160 Q387 -152 415 -130 Q443 -108 443 -70 Q443 -33 414.5 -17.5 Q386 -2 332 1 L168 11 Z M425 705 Q408 644 372.5 608.5 Q337 573 268 573 Q199 573 164 608.5 Q129 644 115 705 L169 724 Q182 682 203.5 655 Q225 628 270 628 Q315 628 337.5 654 Q360 680 375 724 L425 705 Z " />
<glyph glyph-name="gcircumflex" unicode="&#x11d;" horiz-adv-x="534" d="M433 449 Q450 428 460 403.5 Q470 379 470 343 Q470 298 454.5 263 Q439 228 411 204 Q383 180 345.5 168 Q308 156 264 156 Q211 156 177 170 L130 76 L307 63 Q361 59 400 53 Q439 47 464.5 33 Q490 19 502.5 -5 Q515 -29 515 -69 Q515 -141 453.5 -183 Q392 -225 261 -225 Q198 -225 154.5 -216.5 Q111 -208 84.5 -192 Q58 -176 46.5 -153.5 Q35 -131 35 -102 Q35 -64 53.5 -35.5 Q72 -7 103 22 Q79 27 67.5 37 Q56 47 56 67 Q56 79 61.5 90.5 Q67 102 76 116 L125 193 Q94 212 74.5 247.5 Q55 283 55 333 Q55 375 70 410 Q85 445 112.5 469.5 Q140 494 179 507.5 Q218 521 266 521 Q292 521 314 518.5 Q336 516 352 511 L526 511 L526 456 L433 449 Z M404 339 Q404 400 368.5 433 Q333 466 267 466 Q203 466 163 434.5 Q123 403 123 337 Q123 311 130.5 288.5 Q138 266 155 249.5 Q172 233 198.5 223 Q225 213 264 213 Q329 213 366.5 248 Q404 283 404 339 Z M168 11 Q158 2 147 -9 Q136 -20 127 -33 Q118 -46 112 -60.5 Q106 -75 106 -90 Q106 -134 152.5 -149 Q199 -164 281 -164 Q296 -164 309.5 -163 Q323 -162 336 -160 Q387 -152 415 -130 Q443 -108 443 -70 Q443 -33 414.5 -17.5 Q386 -2 332 1 L168 11 Z M390 576 L266 680 L142 576 L104 609 L228 729 L304 729 L428 609 L390 576 Z " />
<glyph glyph-name="gcommaaccent" unicode="&#x123;" horiz-adv-x="534" d="M433 449 Q450 428 460 403.5 Q470 379 470 343 Q470 298 454.5 263 Q439 228 411 204 Q383 180 345.5 168 Q308 156 264 156 Q211 156 177 170 L130 76 L307 63 Q361 59 400 53 Q439 47 464.5 33 Q490 19 502.5 -5 Q515 -29 515 -69 Q515 -141 453.5 -183 Q392 -225 261 -225 Q198 -225 154.5 -216.5 Q111 -208 84.5 -192 Q58 -176 46.5 -153.5 Q35 -131 35 -102 Q35 -64 53.5 -35.5 Q72 -7 103 22 Q79 27 67.5 37 Q56 47 56 67 Q56 79 61.5 90.5 Q67 102 76 116 L125 193 Q94 212 74.5 247.5 Q55 283 55 333 Q55 375 70 410 Q85 445 112.5 469.5 Q140 494 179 507.5 Q218 521 266 521 Q292 521 314 518.5 Q336 516 352 511 L526 511 L526 456 L433 449 Z M404 339 Q404 400 368.5 433 Q333 466 267 466 Q203 466 163 434.5 Q123 403 123 337 Q123 311 130.5 288.5 Q138 266 155 249.5 Q172 233 198.5 223 Q225 213 264 213 Q329 213 366.5 248 Q404 283 404 339 Z M168 11 Q158 2 147 -9 Q136 -20 127 -33 Q118 -46 112 -60.5 Q106 -75 106 -90 Q106 -134 152.5 -149 Q199 -164 281 -164 Q296 -164 309.5 -163 Q323 -162 336 -160 Q387 -152 415 -130 Q443 -108 443 -70 Q443 -33 414.5 -17.5 Q386 -2 332 1 L168 11 Z M308 750 L283 658 Q282 651 288 648 L322 633 L303 568 Q259 572 235 582.5 Q211 593 211 627 Q211 639 216 654 Q221 669 227 680 L272 764 L308 750 Z " />
<glyph glyph-name="gdotaccent" unicode="&#x121;" horiz-adv-x="534" d="M433 449 Q450 428 460 403.5 Q470 379 470 343 Q470 298 454.5 263 Q439 228 411 204 Q383 180 345.5 168 Q308 156 264 156 Q211 156 177 170 L130 76 L307 63 Q361 59 400 53 Q439 47 464.5 33 Q490 19 502.5 -5 Q515 -29 515 -69 Q515 -141 453.5 -183 Q392 -225 261 -225 Q198 -225 154.5 -216.5 Q111 -208 84.5 -192 Q58 -176 46.5 -153.5 Q35 -131 35 -102 Q35 -64 53.5 -35.5 Q72 -7 103 22 Q79 27 67.5 37 Q56 47 56 67 Q56 79 61.5 90.5 Q67 102 76 116 L125 193 Q94 212 74.5 247.5 Q55 283 55 333 Q55 375 70 410 Q85 445 112.5 469.5 Q140 494 179 507.5 Q218 521 266 521 Q292 521 314 518.5 Q336 516 352 511 L526 511 L526 456 L433 449 Z M404 339 Q404 400 368.5 433 Q333 466 267 466 Q203 466 163 434.5 Q123 403 123 337 Q123 311 130.5 288.5 Q138 266 155 249.5 Q172 233 198.5 223 Q225 213 264 213 Q329 213 366.5 248 Q404 283 404 339 Z M168 11 Q158 2 147 -9 Q136 -20 127 -33 Q118 -46 112 -60.5 Q106 -75 106 -90 Q106 -134 152.5 -149 Q199 -164 281 -164 Q296 -164 309.5 -163 Q323 -162 336 -160 Q387 -152 415 -130 Q443 -108 443 -70 Q443 -33 414.5 -17.5 Q386 -2 332 1 L168 11 Z M328 688 Q328 662 314 648.5 Q300 635 274 635 Q248 635 234 648.5 Q220 662 220 688 Q220 714 234 727.5 Q248 741 274 741 Q300 741 314 727.5 Q328 714 328 688 Z " />
<glyph glyph-name="hbar" unicode="&#x127;" horiz-adv-x="632" d="M391 0 L391 45 L443 51 Q454 53 456.5 56 Q459 59 459 70 L459 294 Q459 369 435 404.5 Q411 440 357 440 Q330 440 303.5 432 Q277 424 254 413 Q231 402 212.5 388.5 Q194 375 183 365 L183 71 Q183 59 185.5 56 Q188 53 199 51 L259 44 L259 0 L48 0 L48 45 L100 51 Q111 53 113.5 56.5 Q116 60 116 71 L116 576 L46 576 L46 632 L116 632 L116 673 Q116 690 103 694 L42 713 L50 755 L183 755 L183 632 L377 632 L377 576 L183 576 L183 431 Q223 460 266.5 480.5 Q310 501 369 501 Q447 501 486.5 457 Q526 413 526 311 L526 71 Q526 59 528.5 56 Q531 53 542 51 L602 44 L602 0 L391 0 Z " />
<glyph glyph-name="hcircumflex" unicode="&#x125;" horiz-adv-x="632" d="M123 874 L16 790 L-17 824 L85 923 L161 923 L263 824 L230 790 L123 874 Z M391 0 L391 45 L443 51 Q454 53 456.5 56 Q459 59 459 70 L459 314 Q459 389 435 424.5 Q411 460 357 460 Q330 460 303.5 452 Q277 444 254 433 Q231 422 212.5 408.5 Q194 395 183 385 L183 71 Q183 59 185.5 56 Q188 53 199 51 L259 44 L259 0 L48 0 L48 45 L100 51 Q111 53 113.5 56.5 Q116 60 116 71 L116 673 Q116 690 103 694 L42 713 L50 755 L183 755 L183 451 Q223 480 266.5 500.5 Q310 521 369 521 Q447 521 486.5 477 Q526 433 526 331 L526 71 Q526 59 528.5 56 Q531 53 542 51 L602 44 L602 0 L391 0 Z " />
<glyph glyph-name="iacute" unicode="&#xed;" horiz-adv-x="289" d="M28 0 L28 45 L100 51 Q111 53 113.5 56.5 Q116 60 116 71 L116 429 Q116 446 103 450 L45 469 L53 511 L183 511 L183 71 Q183 59 185.5 56 Q188 53 199 51 L269 44 L269 0 L28 0 Z M70 569 L38 601 L193 761 L245 708 L70 569 Z " />
<glyph glyph-name="ibreve" unicode="&#x12d;" horiz-adv-x="289" d="M285 700 Q269 639 232 603.5 Q195 568 130 568 Q65 568 28 603.5 Q-9 639 -25 700 L23 719 Q38 669 63 646 Q88 623 130 623 Q172 623 197 646 Q222 669 237 719 L285 700 Z M28 0 L28 45 L100 51 Q111 53 113.5 56.5 Q116 60 116 71 L116 429 Q116 446 103 450 L45 469 L53 511 L183 511 L183 71 Q183 59 185.5 56 Q188 53 199 51 L269 44 L269 0 L28 0 Z " />
<glyph glyph-name="icircumflex" unicode="&#xee;" horiz-adv-x="289" d="M234 576 L130 680 L26 576 L-12 609 L92 729 L168 729 L272 609 L234 576 Z M28 0 L28 45 L100 51 Q111 53 113.5 56.5 Q116 60 116 71 L116 429 Q116 446 103 450 L45 469 L53 511 L183 511 L183 71 Q183 59 185.5 56 Q188 53 199 51 L269 44 L269 0 L28 0 Z " />
<glyph glyph-name="idieresis" unicode="&#xef;" horiz-adv-x="289" d="M94 658 Q94 635 80.5 622 Q67 609 44 609 Q21 609 7.5 622 Q-6 635 -6 658 Q-6 681 7.5 694 Q21 707 44 707 Q67 707 80.5 694 Q94 681 94 658 Z M263 658 Q263 635 249.5 622 Q236 609 213 609 Q190 609 176.5 622 Q163 635 163 658 Q163 681 176.5 694 Q190 707 213 707 Q236 707 249.5 694 Q263 681 263 658 Z M28 0 L28 45 L100 51 Q111 53 113.5 56.5 Q116 60 116 71 L116 429 Q116 446 103 450 L45 469 L53 511 L183 511 L183 71 Q183 59 185.5 56 Q188 53 199 51 L269 44 L269 0 L28 0 Z " />
<glyph glyph-name="igrave" unicode="&#xec;" horiz-adv-x="289" d="M28 0 L28 45 L100 51 Q111 53 113.5 56.5 Q116 60 116 71 L116 429 Q116 446 103 450 L45 469 L53 511 L183 511 L183 71 Q183 59 185.5 56 Q188 53 199 51 L269 44 L269 0 L28 0 Z M194 569 L19 708 L71 761 L226 601 L194 569 Z " />
<glyph glyph-name="imacron" unicode="&#x12b;" horiz-adv-x="289" d="M6 596 L6 653 L251 653 L251 596 L6 596 Z M28 0 L28 45 L100 51 Q111 53 113.5 56.5 Q116 60 116 71 L116 429 Q116 446 103 450 L45 469 L53 511 L183 511 L183 71 Q183 59 185.5 56 Q188 53 199 51 L269 44 L269 0 L28 0 Z " />
<glyph glyph-name="iogonek" unicode="&#x12f;" horiz-adv-x="289" d="M199 -192 Q180 -201 158.5 -206.5 Q137 -212 116 -212 Q79 -212 55.5 -194 Q32 -176 32 -137 Q32 -116 39.5 -97 Q47 -78 59.5 -60.5 Q72 -43 87 -28 Q102 -13 117 0 L28 0 L28 45 L100 51 Q111 53 113.5 56.5 Q116 60 116 71 L116 429 Q116 446 103 450 L45 469 L53 511 L183 511 L183 71 Q183 59 185.5 56 Q188 53 199 51 L269 44 L269 0 L189 0 Q176 -11 160.5 -24 Q145 -37 132 -53 Q119 -69 110.5 -86.5 Q102 -104 102 -122 Q102 -140 111 -147.5 Q120 -155 134 -155 Q145 -155 157 -151.5 Q169 -148 181 -143 L199 -192 Z M190 688 Q190 662 176 648.5 Q162 635 136 635 Q110 635 96 648.5 Q82 662 82 688 Q82 714 96 727.5 Q110 741 136 741 Q162 741 176 727.5 Q190 714 190 688 Z " />
<glyph glyph-name="itilde" unicode="&#x129;" horiz-adv-x="289" d="M268 623 Q251 597 237.5 587 Q224 577 210 577 Q204 577 197 578 Q190 579 182 581 L54 617 Q44 620 39 614 L-1 573 L-35 600 L-7 641 Q7 664 19.5 672 Q32 680 47 680 Q55 680 62 678.5 Q69 677 78 675 L204 640 Q213 637 219 643 L256 682 L290 655 L268 623 Z M28 0 L28 45 L100 51 Q111 53 113.5 56.5 Q116 60 116 71 L116 429 Q116 446 103 450 L45 469 L53 511 L183 511 L183 71 Q183 59 185.5 56 Q188 53 199 51 L269 44 L269 0 L28 0 Z " />
<glyph glyph-name="jcircumflex" unicode="&#x135;" horiz-adv-x="275" d="M114 429 Q114 440 112 444 Q110 448 102 450 L34 469 L42 511 L181 511 L181 -70 Q181 -148 149.5 -185.5 Q118 -223 45 -223 Q8 -223 -26.5 -211.5 Q-61 -200 -80 -184 L-47 -135 Q-34 -146 -9 -156 Q16 -166 41 -166 Q65 -166 79 -159 Q93 -152 101 -137.5 Q109 -123 111.5 -102.5 Q114 -82 114 -55 L114 429 Z M243 567 L119 671 L-5 567 L-43 600 L81 720 L157 720 L281 600 L243 567 Z " />
<glyph glyph-name="kcommaaccent" unicode="&#x137;" horiz-adv-x="579" d="M359 0 L359 45 L421 53 L279 275 L183 167 L183 71 Q183 59 185.5 56 Q188 53 199 51 L264 44 L264 0 L33 0 L33 45 L100 51 Q111 53 113.5 56.5 Q116 60 116 71 L116 673 Q116 690 103 694 L42 713 L50 755 L183 755 L183 252 L407 511 L507 511 L507 467 L448 454 Q439 452 434.5 449.5 Q430 447 423 439 L324 327 L486 70 Q492 61 496.5 58.5 Q501 56 515 54 L569 44 L569 0 L359 0 Z M248 -244 L273 -152 Q274 -145 268 -142 L234 -127 L253 -62 Q297 -66 321 -76.5 Q345 -87 345 -121 Q345 -133 340 -148 Q335 -163 329 -174 L284 -258 L248 -244 Z " />
<glyph glyph-name="lacute" unicode="&#x13a;" horiz-adv-x="289" d="M33 0 L33 45 L100 51 Q111 52 113.5 56 Q116 60 116 71 L116 673 Q116 690 103 694 L42 713 L50 755 L183 755 L183 71 Q183 59 185.5 56 Q188 53 199 51 L264 44 L264 0 L33 0 Z M51 791 L27 829 L208 960 L248 897 L51 791 Z " />
<glyph glyph-name="lcaron" unicode="&#x13e;" horiz-adv-x="313" d="M33 0 L33 45 L100 51 Q111 52 113.5 56 Q116 60 116 71 L116 673 Q116 690 103 694 L42 713 L50 755 L183 755 L183 71 Q183 59 185.5 56 Q188 53 199 51 L264 44 L264 0 L33 0 Z M232 587 Q239 608 245 631 Q251 654 251 683 Q251 708 246 723.5 Q241 739 236 748 L294 776 Q308 762 314 751 Q320 740 320 723 Q320 715 318.5 703.5 Q317 692 312 677 Q303 648 293 623 Q283 598 272 575 L232 587 Z " />
<glyph glyph-name="lcommaaccent" unicode="&#x13c;" horiz-adv-x="289" d="M33 0 L33 45 L100 51 Q111 52 113.5 56 Q116 60 116 71 L116 673 Q116 690 103 694 L42 713 L50 755 L183 755 L183 71 Q183 59 185.5 56 Q188 53 199 51 L264 44 L264 0 L33 0 Z M105 -244 L130 -152 Q131 -145 125 -142 L91 -127 L110 -62 Q154 -66 178 -76.5 Q202 -87 202 -121 Q202 -133 197 -148 Q192 -163 186 -174 L141 -258 L105 -244 Z " />
<glyph glyph-name="ldot" unicode="&#x140;" horiz-adv-x="308" d="M33 0 L33 45 L100 51 Q111 52 113.5 56 Q116 60 116 71 L116 673 Q116 690 103 694 L42 713 L50 755 L183 755 L183 71 Q183 59 185.5 56 Q188 53 199 51 L264 44 L264 0 L33 0 Z M353 368 Q353 342 339 328.5 Q325 315 299 315 Q273 315 259 328.5 Q245 342 245 368 Q245 394 259 407.5 Q273 421 299 421 Q325 421 339 407.5 Q353 394 353 368 Z " />
<glyph glyph-name="lslash" unicode="&#x142;" horiz-adv-x="303" d="M33 0 L33 45 L100 51 Q111 52 113.5 56 Q116 60 116 71 L116 346 L29 304 L29 365 L116 407 L116 673 Q116 690 103 694 L42 713 L50 755 L183 755 L183 440 L277 486 L277 425 L183 379 L183 71 Q183 59 185.5 56 Q188 53 199 51 L264 44 L264 0 L33 0 Z " />
<glyph glyph-name="nacute" unicode="&#x144;" horiz-adv-x="632" d="M391 0 L391 45 L443 51 Q454 53 456.5 56 Q459 59 459 70 L459 310 Q459 388 436 424 Q413 460 357 460 Q330 460 303.5 452 Q277 444 254 433 Q231 422 212.5 408.5 Q194 395 183 385 L183 71 Q183 59 185.5 56 Q188 53 199 51 L259 44 L259 0 L48 0 L48 45 L100 51 Q111 53 113.5 56.5 Q116 60 116 71 L116 429 Q116 446 103 450 L45 469 L53 511 L166 511 L174 449 L177 448 Q215 476 263 498.5 Q311 521 371 521 Q415 521 444.5 507.5 Q474 494 492 469.5 Q510 445 518 409.5 Q526 374 526 331 L526 71 Q526 59 528.5 56 Q531 53 542 51 L602 44 L602 0 L391 0 Z M261 569 L229 601 L384 761 L436 708 L261 569 Z " />
<glyph glyph-name="napostrophe" unicode="&#x149;" horiz-adv-x="666" d="M425 0 L425 45 L477 51 Q488 53 490.5 56 Q493 59 493 70 L493 310 Q493 388 470 424 Q447 460 391 460 Q364 460 337.5 452 Q311 444 288 433 Q265 422 246.5 408.5 Q228 395 217 385 L217 71 Q217 59 219.5 56 Q222 53 233 51 L293 44 L293 0 L82 0 L82 45 L134 51 Q145 53 147.5 56.5 Q150 60 150 71 L150 429 Q150 446 137 450 L79 469 L87 511 L200 511 L208 449 L211 448 Q249 476 297 498.5 Q345 521 405 521 Q449 521 478.5 507.5 Q508 494 526 469.5 Q544 445 552 409.5 Q560 374 560 331 L560 71 Q560 59 562.5 56 Q565 53 576 51 L636 44 L636 0 L425 0 Z M21 519 L44 591 Q46 599 41 603 L14 614 L32 674 Q68 672 89.5 663.5 Q111 655 111 625 Q111 615 107.5 607 Q104 599 99 589 L55 506 L21 519 Z " />
<glyph glyph-name="ncaron" unicode="&#x148;" horiz-adv-x="632" d="M391 0 L391 45 L443 51 Q454 53 456.5 56 Q459 59 459 70 L459 310 Q459 388 436 424 Q413 460 357 460 Q330 460 303.5 452 Q277 444 254 433 Q231 422 212.5 408.5 Q194 395 183 385 L183 71 Q183 59 185.5 56 Q188 53 199 51 L259 44 L259 0 L48 0 L48 45 L100 51 Q111 53 113.5 56.5 Q116 60 116 71 L116 429 Q116 446 103 450 L45 469 L53 511 L166 511 L174 449 L177 448 Q215 476 263 498.5 Q311 521 371 521 Q415 521 444.5 507.5 Q474 494 492 469.5 Q510 445 518 409.5 Q526 374 526 331 L526 71 Q526 59 528.5 56 Q531 53 542 51 L602 44 L602 0 L391 0 Z M283 576 L162 695 L199 729 L321 625 L447 729 L485 696 L359 576 L283 576 Z " />
<glyph glyph-name="ncommaaccent" unicode="&#x146;" horiz-adv-x="632" d="M391 0 L391 45 L443 51 Q454 53 456.5 56 Q459 59 459 70 L459 310 Q459 388 436 424 Q413 460 357 460 Q330 460 303.5 452 Q277 444 254 433 Q231 422 212.5 408.5 Q194 395 183 385 L183 71 Q183 59 185.5 56 Q188 53 199 51 L259 44 L259 0 L48 0 L48 45 L100 51 Q111 53 113.5 56.5 Q116 60 116 71 L116 429 Q116 446 103 450 L45 469 L53 511 L166 511 L174 449 L177 448 Q215 476 263 498.5 Q311 521 371 521 Q415 521 444.5 507.5 Q474 494 492 469.5 Q510 445 518 409.5 Q526 374 526 331 L526 71 Q526 59 528.5 56 Q531 53 542 51 L602 44 L602 0 L391 0 Z M274 -244 L299 -152 Q300 -145 294 -142 L260 -127 L279 -62 Q323 -66 347 -76.5 Q371 -87 371 -121 Q371 -133 366 -148 Q361 -163 355 -174 L310 -258 L274 -244 Z " />
<glyph glyph-name="ntilde" unicode="&#xf1;" horiz-adv-x="632" d="M391 0 L391 45 L443 51 Q454 53 456.5 56 Q459 59 459 70 L459 310 Q459 388 436 424 Q413 460 357 460 Q330 460 303.5 452 Q277 444 254 433 Q231 422 212.5 408.5 Q194 395 183 385 L183 71 Q183 59 185.5 56 Q188 53 199 51 L259 44 L259 0 L48 0 L48 45 L100 51 Q111 53 113.5 56.5 Q116 60 116 71 L116 429 Q116 446 103 450 L45 469 L53 511 L166 511 L174 449 L177 448 Q215 476 263 498.5 Q311 521 371 521 Q415 521 444.5 507.5 Q474 494 492 469.5 Q510 445 518 409.5 Q526 374 526 331 L526 71 Q526 59 528.5 56 Q531 53 542 51 L602 44 L602 0 L391 0 Z M458 637 Q439 611 425.5 601 Q412 591 396 591 Q390 591 382.5 592 Q375 593 367 595 L230 631 Q220 634 214 628 L172 587 L136 614 L165 655 Q181 678 194 686 Q207 694 223 694 Q231 694 238.5 692.5 Q246 691 256 689 L390 654 Q400 651 406 657 L445 696 L481 669 L458 637 Z " />
<glyph glyph-name="oacute" unicode="&#xf3;" horiz-adv-x="563" d="M279 -12 Q217 -12 172.5 8 Q128 28 99.5 63.5 Q71 99 58 148.5 Q45 198 45 257 Q45 315 60 364 Q75 413 105 447.5 Q135 482 181 501.5 Q227 521 289 521 Q351 521 394.5 502 Q438 483 465.5 448.5 Q493 414 505.5 367 Q518 320 518 264 Q518 201 504 150 Q490 99 460.5 63 Q431 27 386 7.5 Q341 -12 279 -12 Z M282 43 Q449 43 449 257 Q449 360 409.5 411 Q370 462 287 462 Q203 462 158.5 410.5 Q114 359 114 256 Q114 153 156 98 Q198 43 282 43 Z M228 569 L196 601 L351 761 L403 708 L228 569 Z " />
<glyph glyph-name="obreve" unicode="&#x14f;" horiz-adv-x="563" d="M279 -12 Q217 -12 172.5 8 Q128 28 99.5 63.5 Q71 99 58 148.5 Q45 198 45 257 Q45 315 60 364 Q75 413 105 447.5 Q135 482 181 501.5 Q227 521 289 521 Q351 521 394.5 502 Q438 483 465.5 448.5 Q493 414 505.5 367 Q518 320 518 264 Q518 201 504 150 Q490 99 460.5 63 Q431 27 386 7.5 Q341 -12 279 -12 Z M282 43 Q449 43 449 257 Q449 360 409.5 411 Q370 462 287 462 Q203 462 158.5 410.5 Q114 359 114 256 Q114 153 156 98 Q198 43 282 43 Z M444 705 Q427 644 391.5 608.5 Q356 573 287 573 Q218 573 183 608.5 Q148 644 134 705 L188 724 Q201 682 222.5 655 Q244 628 289 628 Q334 628 356.5 654 Q379 680 394 724 L444 705 Z " />
<glyph glyph-name="ocircumflex" unicode="&#xf4;" horiz-adv-x="563" d="M279 -12 Q217 -12 172.5 8 Q128 28 99.5 63.5 Q71 99 58 148.5 Q45 198 45 257 Q45 315 60 364 Q75 413 105 447.5 Q135 482 181 501.5 Q227 521 289 521 Q351 521 394.5 502 Q438 483 465.5 448.5 Q493 414 505.5 367 Q518 320 518 264 Q518 201 504 150 Q490 99 460.5 63 Q431 27 386 7.5 Q341 -12 279 -12 Z M282 43 Q449 43 449 257 Q449 360 409.5 411 Q370 462 287 462 Q203 462 158.5 410.5 Q114 359 114 256 Q114 153 156 98 Q198 43 282 43 Z M413 576 L289 680 L165 576 L127 609 L251 729 L327 729 L451 609 L413 576 Z " />
<glyph glyph-name="odieresis" unicode="&#xf6;" horiz-adv-x="563" d="M279 -12 Q217 -12 172.5 8 Q128 28 99.5 63.5 Q71 99 58 148.5 Q45 198 45 257 Q45 315 60 364 Q75 413 105 447.5 Q135 482 181 501.5 Q227 521 289 521 Q351 521 394.5 502 Q438 483 465.5 448.5 Q493 414 505.5 367 Q518 320 518 264 Q518 201 504 150 Q490 99 460.5 63 Q431 27 386 7.5 Q341 -12 279 -12 Z M282 43 Q449 43 449 257 Q449 360 409.5 411 Q370 462 287 462 Q203 462 158.5 410.5 Q114 359 114 256 Q114 153 156 98 Q198 43 282 43 Z M240 658 Q240 635 226.5 622 Q213 609 190 609 Q167 609 153.5 622 Q140 635 140 658 Q140 681 153.5 694 Q167 707 190 707 Q213 707 226.5 694 Q240 681 240 658 Z M439 658 Q439 635 425.5 622 Q412 609 389 609 Q366 609 352.5 622 Q339 635 339 658 Q339 681 352.5 694 Q366 707 389 707 Q412 707 425.5 694 Q439 681 439 658 Z " />
<glyph glyph-name="ograve" unicode="&#xf2;" horiz-adv-x="563" d="M279 -12 Q217 -12 172.5 8 Q128 28 99.5 63.5 Q71 99 58 148.5 Q45 198 45 257 Q45 315 60 364 Q75 413 105 447.5 Q135 482 181 501.5 Q227 521 289 521 Q351 521 394.5 502 Q438 483 465.5 448.5 Q493 414 505.5 367 Q518 320 518 264 Q518 201 504 150 Q490 99 460.5 63 Q431 27 386 7.5 Q341 -12 279 -12 Z M282 43 Q449 43 449 257 Q449 360 409.5 411 Q370 462 287 462 Q203 462 158.5 410.5 Q114 359 114 256 Q114 153 156 98 Q198 43 282 43 Z M352 569 L177 708 L229 761 L384 601 L352 569 Z " />
<glyph glyph-name="ohungarumlaut" unicode="&#x151;" horiz-adv-x="563" d="M279 -12 Q217 -12 172.5 8 Q128 28 99.5 63.5 Q71 99 58 148.5 Q45 198 45 257 Q45 315 60 364 Q75 413 105 447.5 Q135 482 181 501.5 Q227 521 289 521 Q351 521 394.5 502 Q438 483 465.5 448.5 Q493 414 505.5 367 Q518 320 518 264 Q518 201 504 150 Q490 99 460.5 63 Q431 27 386 7.5 Q341 -12 279 -12 Z M282 43 Q449 43 449 257 Q449 360 409.5 411 Q370 462 287 462 Q203 462 158.5 410.5 Q114 359 114 256 Q114 153 156 98 Q198 43 282 43 Z M182 571 L147 598 L280 777 L338 730 L182 571 Z M344 571 L308 598 L442 776 L500 730 L344 571 Z " />
<glyph glyph-name="omacron" unicode="&#x14d;" horiz-adv-x="563" d="M279 -12 Q217 -12 172.5 8 Q128 28 99.5 63.5 Q71 99 58 148.5 Q45 198 45 257 Q45 315 60 364 Q75 413 105 447.5 Q135 482 181 501.5 Q227 521 289 521 Q351 521 394.5 502 Q438 483 465.5 448.5 Q493 414 505.5 367 Q518 320 518 264 Q518 201 504 150 Q490 99 460.5 63 Q431 27 386 7.5 Q341 -12 279 -12 Z M282 43 Q449 43 449 257 Q449 360 409.5 411 Q370 462 287 462 Q203 462 158.5 410.5 Q114 359 114 256 Q114 153 156 98 Q198 43 282 43 Z M138 616 L138 673 L441 673 L441 616 L138 616 Z " />
<glyph glyph-name="oslash" unicode="&#xf8;" horiz-adv-x="563" d="M99 -92 L148 20 Q94 53 69.5 114.5 Q45 176 45 257 Q45 315 60 364 Q75 413 105 447.5 Q135 482 181 501.5 Q227 521 289 521 Q333 521 366 511 L399 584 L465 584 L422 487 Q473 455 495.5 397 Q518 339 518 264 Q518 201 504 150 Q490 99 460.5 63 Q431 27 386 7.5 Q341 -12 279 -12 Q259 -12 240.5 -9.5 Q222 -7 205 -3 L166 -92 L99 -92 Z M114 256 Q114 131 174 79 L341 455 Q329 458 315.5 460 Q302 462 287 462 Q203 462 158.5 410.5 Q114 359 114 256 Z M282 43 Q449 43 449 257 Q449 376 395 426 L229 50 Q251 43 282 43 Z " />
<glyph glyph-name="oslashacute" unicode="&#x1ff;" horiz-adv-x="563" d="M99 -92 L148 20 Q94 53 69.5 114.5 Q45 176 45 257 Q45 315 60 364 Q75 413 105 447.5 Q135 482 181 501.5 Q227 521 289 521 Q333 521 366 511 L399 584 L465 584 L422 487 Q473 455 495.5 397 Q518 339 518 264 Q518 201 504 150 Q490 99 460.5 63 Q431 27 386 7.5 Q341 -12 279 -12 Q259 -12 240.5 -9.5 Q222 -7 205 -3 L166 -92 L99 -92 Z M114 256 Q114 131 174 79 L341 455 Q329 458 315.5 460 Q302 462 287 462 Q203 462 158.5 410.5 Q114 359 114 256 Z M282 43 Q449 43 449 257 Q449 376 395 426 L229 50 Q251 43 282 43 Z M248 569 L216 601 L371 761 L423 708 L248 569 Z " />
<glyph glyph-name="otilde" unicode="&#xf5;" horiz-adv-x="563" d="M279 -12 Q217 -12 172.5 8 Q128 28 99.5 63.5 Q71 99 58 148.5 Q45 198 45 257 Q45 315 60 364 Q75 413 105 447.5 Q135 482 181 501.5 Q227 521 289 521 Q351 521 394.5 502 Q438 483 465.5 448.5 Q493 414 505.5 367 Q518 320 518 264 Q518 201 504 150 Q490 99 460.5 63 Q431 27 386 7.5 Q341 -12 279 -12 Z M282 43 Q449 43 449 257 Q449 360 409.5 411 Q370 462 287 462 Q203 462 158.5 410.5 Q114 359 114 256 Q114 153 156 98 Q198 43 282 43 Z M439 637 Q420 611 406.5 601 Q393 591 377 591 Q371 591 363.5 592 Q356 593 348 595 L211 631 Q201 634 195 628 L153 587 L117 614 L146 655 Q162 678 175 686 Q188 694 204 694 Q212 694 219.5 692.5 Q227 691 237 689 L371 654 Q381 651 387 657 L426 696 L462 669 L439 637 Z " />
<glyph glyph-name="racute" unicode="&#x155;" horiz-adv-x="417" d="M48 0 L48 45 L100 51 Q111 53 113.5 56.5 Q116 60 116 71 L116 429 Q116 446 103 450 L45 469 L53 511 L167 511 L176 447 Q188 459 204 472 Q220 485 239.5 496 Q259 507 282 514 Q305 521 331 521 Q348 521 365.5 518.5 Q383 516 397 512 L397 373 L346 376 L333 452 Q332 457 330.5 459 Q329 461 321 461 Q301 461 280.5 453 Q260 445 241.5 433.5 Q223 422 208 409.5 Q193 397 183 387 L183 71 Q183 59 185.5 56 Q188 53 199 51 L289 44 L289 0 L48 0 Z M161 569 L129 601 L284 761 L336 708 L161 569 Z " />
<glyph glyph-name="rcaron" unicode="&#x159;" horiz-adv-x="417" d="M48 0 L48 45 L100 51 Q111 53 113.5 56.5 Q116 60 116 71 L116 429 Q116 446 103 450 L45 469 L53 511 L167 511 L176 447 Q188 459 204 472 Q220 485 239.5 496 Q259 507 282 514 Q305 521 331 521 Q348 521 365.5 518.5 Q383 516 397 512 L397 373 L346 376 L333 452 Q332 457 330.5 459 Q329 461 321 461 Q301 461 280.5 453 Q260 445 241.5 433.5 Q223 422 208 409.5 Q193 397 183 387 L183 71 Q183 59 185.5 56 Q188 53 199 51 L289 44 L289 0 L48 0 Z M196 576 L75 695 L112 729 L234 625 L360 729 L398 696 L272 576 L196 576 Z " />
<glyph glyph-name="rcommaaccent" unicode="&#x157;" horiz-adv-x="417" d="M48 0 L48 45 L100 51 Q111 53 113.5 56.5 Q116 60 116 71 L116 429 Q116 446 103 450 L45 469 L53 511 L167 511 L176 447 Q188 459 204 472 Q220 485 239.5 496 Q259 507 282 514 Q305 521 331 521 Q348 521 365.5 518.5 Q383 516 397 512 L397 373 L346 376 L333 452 Q332 457 330.5 459 Q329 461 321 461 Q301 461 280.5 453 Q260 445 241.5 433.5 Q223 422 208 409.5 Q193 397 183 387 L183 71 Q183 59 185.5 56 Q188 53 199 51 L289 44 L289 0 L48 0 Z M117 -244 L142 -152 Q143 -145 137 -142 L103 -127 L122 -62 Q166 -66 190 -76.5 Q214 -87 214 -121 Q214 -133 209 -148 Q204 -163 198 -174 L153 -258 L117 -244 Z " />
<glyph glyph-name="sacute" unicode="&#x15b;" horiz-adv-x="449" d="M342 374 L330 440 Q329 445 327.5 448 Q326 451 319 453 Q308 457 285.5 461 Q263 465 236 465 Q173 465 146 440 Q119 415 119 380 Q119 356 129.5 341 Q140 326 157.5 315.5 Q175 305 198 298 Q221 291 246 285 Q275 277 304 268 Q333 259 356 243 Q379 227 393.5 201.5 Q408 176 408 137 Q408 95 391.5 66 Q375 37 348 20 Q321 3 286 -4.5 Q251 -12 215 -12 Q186 -12 157.5 -8.5 Q129 -5 105 0.5 Q81 6 64 11.5 Q47 17 40 21 L40 144 L91 141 L103 75 Q104 70 105.5 67 Q107 64 114 62 Q125 58 152.5 51 Q180 44 222 44 Q277 44 310 65 Q343 86 343 131 Q343 155 333 171 Q323 187 306 197.5 Q289 208 267 215 Q245 222 221 228 Q191 235 161.5 243.5 Q132 252 108.5 267.5 Q85 283 70 307.5 Q55 332 55 372 Q55 413 71 441.5 Q87 470 113.5 487.5 Q140 505 174.5 513 Q209 521 246 521 Q298 521 338.5 510.5 Q379 500 393 494 L393 371 L342 374 Z M172 569 L140 601 L295 761 L347 708 L172 569 Z " />
<glyph glyph-name="scaron" unicode="&#x161;" horiz-adv-x="449" d="M342 374 L330 440 Q329 445 327.5 448 Q326 451 319 453 Q308 457 285.5 461 Q263 465 236 465 Q173 465 146 440 Q119 415 119 380 Q119 356 129.5 341 Q140 326 157.5 315.5 Q175 305 198 298 Q221 291 246 285 Q275 277 304 268 Q333 259 356 243 Q379 227 393.5 201.5 Q408 176 408 137 Q408 95 391.5 66 Q375 37 348 20 Q321 3 286 -4.5 Q251 -12 215 -12 Q186 -12 157.5 -8.5 Q129 -5 105 0.5 Q81 6 64 11.5 Q47 17 40 21 L40 144 L91 141 L103 75 Q104 70 105.5 67 Q107 64 114 62 Q125 58 152.5 51 Q180 44 222 44 Q277 44 310 65 Q343 86 343 131 Q343 155 333 171 Q323 187 306 197.5 Q289 208 267 215 Q245 222 221 228 Q191 235 161.5 243.5 Q132 252 108.5 267.5 Q85 283 70 307.5 Q55 332 55 372 Q55 413 71 441.5 Q87 470 113.5 487.5 Q140 505 174.5 513 Q209 521 246 521 Q298 521 338.5 510.5 Q379 500 393 494 L393 371 L342 374 Z M195 576 L74 695 L111 729 L233 625 L359 729 L397 696 L271 576 L195 576 Z " />
<glyph glyph-name="scedilla" unicode="&#x15f;" horiz-adv-x="449" d="M342 374 L330 440 Q329 445 327.5 448 Q326 451 319 453 Q308 457 285.5 461 Q263 465 236 465 Q173 465 146 440 Q119 415 119 380 Q119 356 129.5 341 Q140 326 157.5 315.5 Q175 305 198 298 Q221 291 246 285 Q275 277 304 268 Q333 259 356 243 Q379 227 393.5 201.5 Q408 176 408 137 Q408 98 394 71 Q380 44 357 26.5 Q334 9 303.5 0 Q273 -9 240 -11 L236 -44 Q266 -50 287 -69 Q308 -88 308 -123 Q308 -141 301.5 -159.5 Q295 -178 280 -193.5 Q265 -209 240.5 -218.5 Q216 -228 180 -228 Q169 -228 158 -227 Q147 -226 136 -224 L142 -178 Q157 -181 175 -181 Q213 -181 231.5 -166 Q250 -151 250 -126 Q250 -106 235.5 -93 Q221 -80 178 -79 L187 -11 Q161 -9 137.5 -5 Q114 -1 94 3.5 Q74 8 60 13 Q46 18 40 21 L40 144 L91 141 L103 75 Q104 70 105.5 67 Q107 64 114 62 Q125 58 152.5 51 Q180 44 222 44 Q277 44 310 65 Q343 86 343 131 Q343 155 333 171 Q323 187 306 197.5 Q289 208 267 215 Q245 222 221 228 Q191 235 161.5 243.5 Q132 252 108.5 267.5 Q85 283 70 307.5 Q55 332 55 372 Q55 413 71 441.5 Q87 470 113.5 487.5 Q140 505 174.5 513 Q209 521 246 521 Q298 521 338.5 510.5 Q379 500 393 494 L393 371 L342 374 Z " />
<glyph glyph-name="scircumflex" unicode="&#x15d;" horiz-adv-x="449" d="M342 374 L330 440 Q329 445 327.5 448 Q326 451 319 453 Q308 457 285.5 461 Q263 465 236 465 Q173 465 146 440 Q119 415 119 380 Q119 356 129.5 341 Q140 326 157.5 315.5 Q175 305 198 298 Q221 291 246 285 Q275 277 304 268 Q333 259 356 243 Q379 227 393.5 201.5 Q408 176 408 137 Q408 95 391.5 66 Q375 37 348 20 Q321 3 286 -4.5 Q251 -12 215 -12 Q186 -12 157.5 -8.5 Q129 -5 105 0.5 Q81 6 64 11.5 Q47 17 40 21 L40 144 L91 141 L103 75 Q104 70 105.5 67 Q107 64 114 62 Q125 58 152.5 51 Q180 44 222 44 Q277 44 310 65 Q343 86 343 131 Q343 155 333 171 Q323 187 306 197.5 Q289 208 267 215 Q245 222 221 228 Q191 235 161.5 243.5 Q132 252 108.5 267.5 Q85 283 70 307.5 Q55 332 55 372 Q55 413 71 441.5 Q87 470 113.5 487.5 Q140 505 174.5 513 Q209 521 246 521 Q298 521 338.5 510.5 Q379 500 393 494 L393 371 L342 374 Z M357 576 L233 680 L109 576 L71 609 L195 729 L271 729 L395 609 L357 576 Z " />
<glyph glyph-name="scommaaccent" unicode="&#x219;" horiz-adv-x="449" d="M342 374 L330 440 Q329 445 327.5 448 Q326 451 319 453 Q308 457 285.5 461 Q263 465 236 465 Q173 465 146 440 Q119 415 119 380 Q119 356 129.5 341 Q140 326 157.5 315.5 Q175 305 198 298 Q221 291 246 285 Q275 277 304 268 Q333 259 356 243 Q379 227 393.5 201.5 Q408 176 408 137 Q408 95 391.5 66 Q375 37 348 20 Q321 3 286 -4.5 Q251 -12 215 -12 Q186 -12 157.5 -8.5 Q129 -5 105 0.5 Q81 6 64 11.5 Q47 17 40 21 L40 144 L91 141 L103 75 Q104 70 105.5 67 Q107 64 114 62 Q125 58 152.5 51 Q180 44 222 44 Q277 44 310 65 Q343 86 343 131 Q343 155 333 171 Q323 187 306 197.5 Q289 208 267 215 Q245 222 221 228 Q191 235 161.5 243.5 Q132 252 108.5 267.5 Q85 283 70 307.5 Q55 332 55 372 Q55 413 71 441.5 Q87 470 113.5 487.5 Q140 505 174.5 513 Q209 521 246 521 Q298 521 338.5 510.5 Q379 500 393 494 L393 371 L342 374 Z M180 -244 L205 -152 Q206 -145 200 -142 L166 -127 L185 -62 Q229 -66 253 -76.5 Q277 -87 277 -121 Q277 -133 272 -148 Q267 -163 261 -174 L216 -258 L180 -244 Z " />
<glyph glyph-name="tbar" unicode="&#x167;" horiz-adv-x="405" d="M375 16 Q346 5 314 -3.5 Q282 -12 246 -12 Q180 -12 148.5 20 Q117 52 117 112 L117 245 L35 245 L35 300 L117 300 L117 445 Q117 450 116 452.5 Q115 455 109 455 L35 455 L35 500 Q63 504 81 511.5 Q99 519 110 534 Q121 549 127.5 573.5 Q134 598 139 635 L184 635 L184 521 Q184 516 185 513.5 Q186 511 192 511 L341 511 L341 455 L184 455 L184 300 L341 300 L341 245 L184 245 L184 137 Q184 89 200 68.5 Q216 48 260 48 Q285 48 309.5 54 Q334 60 356 68 L375 16 Z " />
<glyph glyph-name="tcaron" unicode="&#x165;" horiz-adv-x="405" d="M375 16 Q346 5 314 -3.5 Q282 -12 246 -12 Q180 -12 148.5 20 Q117 52 117 112 L117 445 Q117 450 116 452.5 Q115 455 109 455 L35 455 L35 500 Q63 504 81 511.5 Q99 519 110 534 Q121 549 127.5 573.5 Q134 598 139 635 L184 635 L184 521 Q184 516 185 513.5 Q186 511 192 511 L341 511 L341 455 L184 455 L184 137 Q184 89 200 68.5 Q216 48 260 48 Q285 48 309.5 54 Q334 60 356 68 L375 16 Z M253 571 Q260 592 266 615 Q272 638 272 667 Q272 692 267 707.5 Q262 723 257 732 L315 760 Q329 746 335 735 Q341 724 341 707 Q341 699 339.5 687.5 Q338 676 333 661 Q324 632 314 607 Q304 582 293 559 L253 571 Z " />
<glyph glyph-name="uni0163" unicode="&#x163;" horiz-adv-x="405" d="M375 16 Q349 5 320 -2.5 Q291 -10 259 -12 L255 -44 Q285 -50 306 -69 Q327 -88 327 -123 Q327 -141 320.5 -159.5 Q314 -178 299 -193.5 Q284 -209 259.5 -218.5 Q235 -228 199 -228 Q188 -228 177 -227 Q166 -226 155 -224 L161 -178 Q176 -181 194 -181 Q232 -181 250.5 -166 Q269 -151 269 -126 Q269 -106 254.5 -93 Q240 -80 197 -79 L206 -8 Q161 0 139 30.5 Q117 61 117 112 L117 445 Q117 450 116 452.5 Q115 455 109 455 L35 455 L35 500 Q63 504 81 511.5 Q99 519 110 534 Q121 549 127.5 573.5 Q134 598 139 635 L184 635 L184 521 Q184 516 185 513.5 Q186 511 192 511 L341 511 L341 455 L184 455 L184 137 Q184 89 200 68.5 Q216 48 260 48 Q285 48 309.5 54 Q334 60 356 68 L375 16 Z " />
<glyph glyph-name="uni021B" unicode="&#x21b;" horiz-adv-x="400" d="M370 16 Q341 5 309 -3.5 Q277 -12 241 -12 Q175 -12 143.5 20 Q112 52 112 112 L112 445 Q112 450 111 452.5 Q110 455 104 455 L30 455 L30 500 Q58 504 76 511.5 Q94 519 105 534 Q116 549 122.5 573.5 Q129 598 134 635 L179 635 L179 521 Q179 516 180 513.5 Q181 511 187 511 L336 511 L336 455 L179 455 L179 137 Q179 89 195 68.5 Q211 48 255 48 Q280 48 304.5 54 Q329 60 351 68 L370 16 Z M188 -244 L213 -152 Q214 -145 208 -142 L174 -127 L193 -62 Q237 -66 261 -76.5 Q285 -87 285 -121 Q285 -133 280 -148 Q275 -163 269 -174 L224 -258 L188 -244 Z " />
<glyph glyph-name="uacute" unicode="&#xfa;" horiz-adv-x="629" d="M468 0 L459 73 L457 74 Q440 59 419.5 43.5 Q399 28 375 15.5 Q351 3 322 -4.5 Q293 -12 260 -12 Q218 -12 190 0.5 Q162 13 145.5 37 Q129 61 122.5 95 Q116 129 116 172 L116 430 Q116 442 113.5 447 Q111 452 100 454 L47 469 L54 511 L183 511 L183 190 Q183 116 201 80.5 Q219 45 273 45 Q302 45 328.5 54.5 Q355 64 378 78.5 Q401 93 421 111.5 Q441 130 456 148 L456 431 Q456 443 453.5 447.5 Q451 452 440 454 L386 469 L393 511 L523 511 L523 72 Q523 52 536 51 L591 44 L591 0 L468 0 Z M263 569 L231 601 L386 761 L438 708 L263 569 Z " />
<glyph glyph-name="ubreve" unicode="&#x16d;" horiz-adv-x="629" d="M468 0 L459 73 L457 74 Q440 59 419.5 43.5 Q399 28 375 15.5 Q351 3 322 -4.5 Q293 -12 260 -12 Q218 -12 190 0.5 Q162 13 145.5 37 Q129 61 122.5 95 Q116 129 116 172 L116 430 Q116 442 113.5 447 Q111 452 100 454 L47 469 L54 511 L183 511 L183 190 Q183 116 201 80.5 Q219 45 273 45 Q302 45 328.5 54.5 Q355 64 378 78.5 Q401 93 421 111.5 Q441 130 456 148 L456 431 Q456 443 453.5 447.5 Q451 452 440 454 L386 469 L393 511 L523 511 L523 72 Q523 52 536 51 L591 44 L591 0 L468 0 Z M462 705 Q445 644 409.5 608.5 Q374 573 305 573 Q236 573 201 608.5 Q166 644 152 705 L206 724 Q219 682 240.5 655 Q262 628 307 628 Q352 628 374.5 654 Q397 680 412 724 L462 705 Z " />
<glyph glyph-name="ucircumflex" unicode="&#xfb;" horiz-adv-x="629" d="M468 0 L459 73 L457 74 Q440 59 419.5 43.5 Q399 28 375 15.5 Q351 3 322 -4.5 Q293 -12 260 -12 Q218 -12 190 0.5 Q162 13 145.5 37 Q129 61 122.5 95 Q116 129 116 172 L116 430 Q116 442 113.5 447 Q111 452 100 454 L47 469 L54 511 L183 511 L183 190 Q183 116 201 80.5 Q219 45 273 45 Q302 45 328.5 54.5 Q355 64 378 78.5 Q401 93 421 111.5 Q441 130 456 148 L456 431 Q456 443 453.5 447.5 Q451 452 440 454 L386 469 L393 511 L523 511 L523 72 Q523 52 536 51 L591 44 L591 0 L468 0 Z M431 576 L307 680 L183 576 L145 609 L269 729 L345 729 L469 609 L431 576 Z " />
<glyph glyph-name="udieresis" unicode="&#xfc;" horiz-adv-x="629" d="M468 0 L459 73 L457 74 Q440 59 419.5 43.5 Q399 28 375 15.5 Q351 3 322 -4.5 Q293 -12 260 -12 Q218 -12 190 0.5 Q162 13 145.5 37 Q129 61 122.5 95 Q116 129 116 172 L116 430 Q116 442 113.5 447 Q111 452 100 454 L47 469 L54 511 L183 511 L183 190 Q183 116 201 80.5 Q219 45 273 45 Q302 45 328.5 54.5 Q355 64 378 78.5 Q401 93 421 111.5 Q441 130 456 148 L456 431 Q456 443 453.5 447.5 Q451 452 440 454 L386 469 L393 511 L523 511 L523 72 Q523 52 536 51 L591 44 L591 0 L468 0 Z M258 658 Q258 635 244.5 622 Q231 609 208 609 Q185 609 171.5 622 Q158 635 158 658 Q158 681 171.5 694 Q185 707 208 707 Q231 707 244.5 694 Q258 681 258 658 Z M457 658 Q457 635 443.5 622 Q430 609 407 609 Q384 609 370.5 622 Q357 635 357 658 Q357 681 370.5 694 Q384 707 407 707 Q430 707 443.5 694 Q457 681 457 658 Z " />
<glyph glyph-name="ugrave" unicode="&#xf9;" horiz-adv-x="629" d="M468 0 L459 73 L457 74 Q440 59 419.5 43.5 Q399 28 375 15.5 Q351 3 322 -4.5 Q293 -12 260 -12 Q218 -12 190 0.5 Q162 13 145.5 37 Q129 61 122.5 95 Q116 129 116 172 L116 430 Q116 442 113.5 447 Q111 452 100 454 L47 469 L54 511 L183 511 L183 190 Q183 116 201 80.5 Q219 45 273 45 Q302 45 328.5 54.5 Q355 64 378 78.5 Q401 93 421 111.5 Q441 130 456 148 L456 431 Q456 443 453.5 447.5 Q451 452 440 454 L386 469 L393 511 L523 511 L523 72 Q523 52 536 51 L591 44 L591 0 L468 0 Z M370 569 L195 708 L247 761 L402 601 L370 569 Z " />
<glyph glyph-name="uhungarumlaut" unicode="&#x171;" horiz-adv-x="629" d="M468 0 L459 73 L457 74 Q440 59 419.5 43.5 Q399 28 375 15.5 Q351 3 322 -4.5 Q293 -12 260 -12 Q218 -12 190 0.5 Q162 13 145.5 37 Q129 61 122.5 95 Q116 129 116 172 L116 430 Q116 442 113.5 447 Q111 452 100 454 L47 469 L54 511 L183 511 L183 190 Q183 116 201 80.5 Q219 45 273 45 Q302 45 328.5 54.5 Q355 64 378 78.5 Q401 93 421 111.5 Q441 130 456 148 L456 431 Q456 443 453.5 447.5 Q451 452 440 454 L386 469 L393 511 L523 511 L523 72 Q523 52 536 51 L591 44 L591 0 L468 0 Z M200 571 L165 598 L298 777 L356 730 L200 571 Z M362 571 L326 598 L460 776 L518 730 L362 571 Z " />
<glyph glyph-name="umacron" unicode="&#x16b;" horiz-adv-x="629" d="M468 0 L459 73 L457 74 Q440 59 419.5 43.5 Q399 28 375 15.5 Q351 3 322 -4.5 Q293 -12 260 -12 Q218 -12 190 0.5 Q162 13 145.5 37 Q129 61 122.5 95 Q116 129 116 172 L116 430 Q116 442 113.5 447 Q111 452 100 454 L47 469 L54 511 L183 511 L183 190 Q183 116 201 80.5 Q219 45 273 45 Q302 45 328.5 54.5 Q355 64 378 78.5 Q401 93 421 111.5 Q441 130 456 148 L456 431 Q456 443 453.5 447.5 Q451 452 440 454 L386 469 L393 511 L523 511 L523 72 Q523 52 536 51 L591 44 L591 0 L468 0 Z M156 616 L156 673 L459 673 L459 616 L156 616 Z " />
<glyph glyph-name="uogonek" unicode="&#x173;" horiz-adv-x="629" d="M591 0 Q573 -11 554 -24.5 Q535 -38 519.5 -53 Q504 -68 494.5 -85.5 Q485 -103 485 -122 Q485 -140 494 -147.5 Q503 -155 517 -155 Q528 -155 540 -151.5 Q552 -148 564 -143 L582 -192 Q563 -201 541.5 -206.5 Q520 -212 499 -212 Q462 -212 438.5 -194 Q415 -176 415 -137 Q415 -93 444.5 -59.5 Q474 -26 514 0 L468 0 L459 73 L457 74 Q440 59 419.5 43.5 Q399 28 375 15.5 Q351 3 322 -4.5 Q293 -12 260 -12 Q218 -12 190 0.5 Q162 13 145.5 37 Q129 61 122.5 95 Q116 129 116 172 L116 430 Q116 442 113.5 447 Q111 452 100 454 L47 469 L54 511 L183 511 L183 190 Q183 116 201 80.5 Q219 45 273 45 Q302 45 328.5 54.5 Q355 64 378 78.5 Q401 93 421 111.5 Q441 130 456 148 L456 431 Q456 443 453.5 447.5 Q451 452 440 454 L386 469 L393 511 L523 511 L523 72 Q523 52 536 51 L591 44 L591 0 L591 0 Z " />
<glyph glyph-name="uring" unicode="&#x16f;" horiz-adv-x="629" d="M468 0 L459 73 L457 74 Q440 59 419.5 43.5 Q399 28 375 15.5 Q351 3 322 -4.5 Q293 -12 260 -12 Q218 -12 190 0.5 Q162 13 145.5 37 Q129 61 122.5 95 Q116 129 116 172 L116 430 Q116 442 113.5 447 Q111 452 100 454 L47 469 L54 511 L183 511 L183 190 Q183 116 201 80.5 Q219 45 273 45 Q302 45 328.5 54.5 Q355 64 378 78.5 Q401 93 421 111.5 Q441 130 456 148 L456 431 Q456 443 453.5 447.5 Q451 452 440 454 L386 469 L393 511 L523 511 L523 72 Q523 52 536 51 L591 44 L591 0 L468 0 Z M409 650 Q409 607 383.5 584 Q358 561 314 561 Q271 561 245.5 583.5 Q220 606 220 648 Q220 694 247 716 Q274 738 314 738 Q355 738 382 717 Q409 696 409 650 Z M314 607 Q358 607 358 650 Q358 692 314 692 Q294 692 282 681.5 Q270 671 270 648 Q270 607 314 607 Z " />
<glyph glyph-name="utilde" unicode="&#x169;" horiz-adv-x="629" d="M468 0 L459 73 L457 74 Q440 59 419.5 43.5 Q399 28 375 15.5 Q351 3 322 -4.5 Q293 -12 260 -12 Q218 -12 190 0.5 Q162 13 145.5 37 Q129 61 122.5 95 Q116 129 116 172 L116 430 Q116 442 113.5 447 Q111 452 100 454 L47 469 L54 511 L183 511 L183 190 Q183 116 201 80.5 Q219 45 273 45 Q302 45 328.5 54.5 Q355 64 378 78.5 Q401 93 421 111.5 Q441 130 456 148 L456 431 Q456 443 453.5 447.5 Q451 452 440 454 L386 469 L393 511 L523 511 L523 72 Q523 52 536 51 L591 44 L591 0 L468 0 Z M457 637 Q438 611 424.5 601 Q411 591 395 591 Q389 591 381.5 592 Q374 593 366 595 L229 631 Q219 634 213 628 L171 587 L135 614 L164 655 Q180 678 193 686 Q206 694 222 694 Q230 694 237.5 692.5 Q245 691 255 689 L389 654 Q399 651 405 657 L444 696 L480 669 L457 637 Z " />
<glyph glyph-name="wacute" unicode="&#x1e83;" horiz-adv-x="825" d="M532 0 L423 421 L301 0 L221 0 L74 441 Q71 450 66.5 453 Q62 456 53 458 L10 467 L20 511 L205 511 L205 467 L138 459 L263 68 L386 496 L463 496 L574 70 L694 459 L626 467 L636 511 L815 511 L815 467 L779 461 Q765 459 760.5 455 Q756 451 753 441 Q718 329 683 220 Q648 111 613 0 L532 0 Z M361 569 L329 601 L484 761 L536 708 L361 569 Z " />
<glyph glyph-name="wcircumflex" unicode="&#x175;" horiz-adv-x="825" d="M532 0 L423 421 L301 0 L221 0 L74 441 Q71 450 66.5 453 Q62 456 53 458 L10 467 L20 511 L205 511 L205 467 L138 459 L263 68 L386 496 L463 496 L574 70 L694 459 L626 467 L636 511 L815 511 L815 467 L779 461 Q765 459 760.5 455 Q756 451 753 441 Q718 329 683 220 Q648 111 613 0 L532 0 Z M546 576 L422 680 L298 576 L260 609 L384 729 L460 729 L584 609 L546 576 Z " />
<glyph glyph-name="wdieresis" unicode="&#x1e85;" horiz-adv-x="825" d="M532 0 L423 421 L301 0 L221 0 L74 441 Q71 450 66.5 453 Q62 456 53 458 L10 467 L20 511 L205 511 L205 467 L138 459 L263 68 L386 496 L463 496 L574 70 L694 459 L626 467 L636 511 L815 511 L815 467 L779 461 Q765 459 760.5 455 Q756 451 753 441 Q718 329 683 220 Q648 111 613 0 L532 0 Z M373 658 Q373 635 359.5 622 Q346 609 323 609 Q300 609 286.5 622 Q273 635 273 658 Q273 681 286.5 694 Q300 707 323 707 Q346 707 359.5 694 Q373 681 373 658 Z M572 658 Q572 635 558.5 622 Q545 609 522 609 Q499 609 485.5 622 Q472 635 472 658 Q472 681 485.5 694 Q499 707 522 707 Q545 707 558.5 694 Q572 681 572 658 Z " />
<glyph glyph-name="wgrave" unicode="&#x1e81;" horiz-adv-x="825" d="M532 0 L423 421 L301 0 L221 0 L74 441 Q71 450 66.5 453 Q62 456 53 458 L10 467 L20 511 L205 511 L205 467 L138 459 L263 68 L386 496 L463 496 L574 70 L694 459 L626 467 L636 511 L815 511 L815 467 L779 461 Q765 459 760.5 455 Q756 451 753 441 Q718 329 683 220 Q648 111 613 0 L532 0 Z M485 569 L310 708 L362 761 L517 601 L485 569 Z " />
<glyph glyph-name="yacute" unicode="&#xfd;" horiz-adv-x="567" d="M93 -212 L93 -167 L163 -159 Q172 -158 175.5 -153.5 Q179 -149 184 -138 L248 10 L72 440 Q68 449 64 452 Q60 455 51 457 L10 467 L20 511 L210 511 L210 467 L142 459 L285 90 L434 459 L365 467 L375 511 L557 511 L557 467 L523 462 Q513 460 507.5 456.5 Q502 453 498 445 L245 -159 L339 -168 L339 -212 L93 -212 Z M255 569 L223 601 L378 761 L430 708 L255 569 Z " />
<glyph glyph-name="ycircumflex" unicode="&#x177;" horiz-adv-x="567" d="M93 -212 L93 -167 L163 -159 Q172 -158 175.5 -153.5 Q179 -149 184 -138 L248 10 L72 440 Q68 449 64 452 Q60 455 51 457 L10 467 L20 511 L210 511 L210 467 L142 459 L285 90 L434 459 L365 467 L375 511 L557 511 L557 467 L523 462 Q513 460 507.5 456.5 Q502 453 498 445 L245 -159 L339 -168 L339 -212 L93 -212 Z M407 576 L283 680 L159 576 L121 609 L245 729 L321 729 L445 609 L407 576 Z " />
<glyph glyph-name="ydieresis" unicode="&#xff;" horiz-adv-x="567" d="M93 -212 L93 -167 L163 -159 Q172 -158 175.5 -153.5 Q179 -149 184 -138 L248 10 L72 440 Q68 449 64 452 Q60 455 51 457 L10 467 L20 511 L210 511 L210 467 L142 459 L285 90 L434 459 L365 467 L375 511 L557 511 L557 467 L523 462 Q513 460 507.5 456.5 Q502 453 498 445 L245 -159 L339 -168 L339 -212 L93 -212 Z M234 658 Q234 635 220.5 622 Q207 609 184 609 Q161 609 147.5 622 Q134 635 134 658 Q134 681 147.5 694 Q161 707 184 707 Q207 707 220.5 694 Q234 681 234 658 Z M433 658 Q433 635 419.5 622 Q406 609 383 609 Q360 609 346.5 622 Q333 635 333 658 Q333 681 346.5 694 Q360 707 383 707 Q406 707 419.5 694 Q433 681 433 658 Z " />
<glyph glyph-name="ygrave" unicode="&#x1ef3;" horiz-adv-x="567" d="M93 -212 L93 -167 L163 -159 Q172 -158 175.5 -153.5 Q179 -149 184 -138 L248 10 L72 440 Q68 449 64 452 Q60 455 51 457 L10 467 L20 511 L210 511 L210 467 L142 459 L285 90 L434 459 L365 467 L375 511 L557 511 L557 467 L523 462 Q513 460 507.5 456.5 Q502 453 498 445 L245 -159 L339 -168 L339 -212 L93 -212 Z M346 569 L171 708 L223 761 L378 601 L346 569 Z " />
<glyph glyph-name="zacute" unicode="&#x17a;" horiz-adv-x="476" d="M40 0 L40 42 L352 455 L131 455 Q125 455 123 451 Q121 447 120 442 L108 376 L55 373 L55 511 L439 511 L439 467 L129 56 L365 56 Q371 56 373 60 Q375 64 376 69 L388 145 L441 148 L441 0 L40 0 Z M187 569 L155 601 L310 761 L362 708 L187 569 Z " />
<glyph glyph-name="zcaron" unicode="&#x17e;" horiz-adv-x="476" d="M40 0 L40 42 L352 455 L131 455 Q125 455 123 451 Q121 447 120 442 L108 376 L55 373 L55 511 L439 511 L439 467 L129 56 L365 56 Q371 56 373 60 Q375 64 376 69 L388 145 L441 148 L441 0 L40 0 Z M210 576 L89 695 L126 729 L248 625 L374 729 L412 696 L286 576 L210 576 Z " />
<glyph glyph-name="zdotaccent" unicode="&#x17c;" horiz-adv-x="476" d="M40 0 L40 42 L352 455 L131 455 Q125 455 123 451 Q121 447 120 442 L108 376 L55 373 L55 511 L439 511 L439 467 L129 56 L365 56 Q371 56 373 60 Q375 64 376 69 L388 145 L441 148 L441 0 L40 0 Z M303 688 Q303 662 289 648.5 Q275 635 249 635 Q223 635 209 648.5 Q195 662 195 688 Q195 714 209 727.5 Q223 741 249 741 Q275 741 289 727.5 Q303 714 303 688 Z " />
<glyph glyph-name="ff" unicode="&#xfb00;" horiz-adv-x="731" d="M195 72 Q195 60 197.5 56.5 Q200 53 211 52 L326 44 L326 0 L45 0 L45 45 L112 51 Q123 52 125.5 56 Q128 60 128 71 L128 445 Q128 450 127 452.5 Q126 455 120 455 L46 455 L46 511 L128 511 L128 581 Q128 664 167 707.5 Q206 751 296 751 Q323 751 347 746.5 Q371 742 389 730 Q407 718 417 696.5 Q427 675 427 641 L364 632 Q364 672 346 683 Q328 694 293 694 Q262 694 242.5 686 Q223 678 212.5 663 Q202 648 198.5 626.5 Q195 605 195 578 L195 521 Q195 516 196 513.5 Q197 511 203 511 L465 511 L465 596 Q465 679 505.5 722.5 Q546 766 636 766 Q665 766 690 761.5 Q715 757 734 745 Q753 733 763.5 711.5 Q774 690 774 656 L711 647 Q711 687 691 698 Q671 709 633 709 Q602 709 582.5 701 Q563 693 551.5 678 Q540 663 536 641.5 Q532 620 532 593 L532 521 Q532 516 533 513.5 Q534 511 540 511 L707 511 L707 455 L532 455 L532 72 Q532 60 534.5 56.5 Q537 53 548 52 L663 44 L663 0 L382 0 L382 45 L449 51 Q460 52 462.5 56 Q465 60 465 71 L465 445 Q465 450 464 452.5 Q463 455 457 455 L195 455 L195 72 Z " />
</font>
</svg>
